<?xml version="1.0" encoding="utf-8"?>
<!-- Generator: Adobe Illustrator 17.0.0, SVG Export Plug-In . SVG Version: 6.00 Build 0)  -->
<!DOCTYPE svg PUBLIC "-//W3C//DTD SVG 1.1//EN" "http://www.w3.org/Graphics/SVG/1.1/DTD/svg11.dtd">
<svg version="1.1" xmlns="http://www.w3.org/2000/svg" xmlns:xlink="http://www.w3.org/1999/xlink" x="0px" y="0px"
	 width="225.159px" height="300px" viewBox="0 0 225.159 300" enable-background="new 0 0 225.159 300" xml:space="preserve">
<g id="background">
	<rect x="0" fill="#2E3192" width="225.159" height="300"/>
	
		<linearGradient id="SVGID_1_" gradientUnits="userSpaceOnUse" x1="113.122" y1="956.0674" x2="113.122" y2="-1259.9082" gradientTransform="matrix(0.1021 0 0 0.1021 101.0288 136.0371)">
		<stop  offset="0" style="stop-color:#2E3192"/>
		<stop  offset="1" style="stop-color:#000000"/>
	</linearGradient>
	<rect x="46.586" y="8.05" fill="url(#SVGID_1_)" width="131.985" height="215.662"/>
</g>
<g id="jacket">
	
		<linearGradient id="SVGID_2_" gradientUnits="userSpaceOnUse" x1="-98.1141" y1="1510.0657" x2="-98.1141" y2="242.0658" gradientTransform="matrix(0.0816 0 0 0.0816 120.5847 168.2326)">
		<stop  offset="0" style="stop-color:#2E3192"/>
		<stop  offset="1" style="stop-color:#000000"/>
	</linearGradient>
	<path fill="url(#SVGID_2_)" d="M46.586,187.667v104.088h131.985v-67.888c0,0-0.655-2.523-1.116-3.253
		c-0.461-0.73-1.421-2.419-1.421-2.419s0.038-0.347,0.384-0.614c0.346-0.27,0.808-0.538,0.808-0.538s-0.653-1.191-0.653-1.689
		c0-0.498,0-1.884,0-1.884l-0.46-0.921c0,0-1.729-0.96-2.919-1.613c-1.189-0.652-3.071-1.189-3.071-1.189s-0.614-0.96-0.691-1.306
		c-0.076-0.345-0.499-1.152-0.844-1.573c-0.346-0.424-1.382-1.271-1.958-1.962c-0.577-0.691-1.651-1.42-2.458-1.728
		c-0.806-0.308-2.191-0.537-3.035-0.5c-0.845,0.04-2.266,0.309-2.266,0.309s-0.576-0.423-0.652-0.692
		c-0.076-0.268-0.384-0.844-0.384-0.844s-3.417-1.535-5.299-2.61c-1.881-1.075-5.186-2.883-7.489-3.727
		c-2.304-0.844-3.993-1.65-5.913-2.303c-1.919-0.653-3.954-1.268-3.954-1.268s-0.883-1.879-2.266-3.57
		c-1.382-1.692-2.767-3.535-4.226-5.186c-1.458-1.651-2.765-3.376-4.07-4.531c-1.305-1.154-1.995-1.807-1.995-1.807l0.499-3.917
		c0,0,2.034-2.032,3.071-3.146c1.037-1.117,3.035-3.267,3.65-4.266c0.613-0.997,1.689-2.649,1.689-2.649l0.883-0.384
		c0,0-1.459,2.688-2.265,3.725c-0.807,1.037-2.652,3.458-2.652,3.458s3.574-2.46,4.495-3.42c0.921-0.96,6.488-9.141,6.488-9.141
		l1.882-8.373l-1.152-1.574l-2.572-0.038l-3.916,3.608l-14.17,17.437l-6.453,6.952l-7.64,2.073l-5.605-1.959l-6.146-4.069
		l-2.764-5.07l-2.266-2.266l-1.65-0.384l0.537,2.727l-0.537,1.766c0,0-1.267,0.5-2.342,0.5c-1.076,0-2.995-0.539-2.995-0.539
		s-1.77,0.344-2.422,0.923c-0.653,0.577-1.882,2.881-2.917,4.493c-1.037,1.613-2.803,3.882-4.147,5.916
		c-1.344,2.035-2.611,4.3-3.455,4.876c-0.845,0.576-2.339,0.613-4.07,0.807c-1.73,0.192-6.491,0.649-9.562,1.535
		C51.045,186.935,46.586,187.667,46.586,187.667z"/>
	<path fill="#FFF200" stroke="#000000" stroke-width="0.6688" stroke-linecap="round" stroke-linejoin="round" d="M146.442,258.525
		c-0.068-0.959-0.125-1.876-0.197-2.789c-0.024-0.304-0.05-0.608-0.078-0.912c-0.02-0.203-0.04-0.406-0.062-0.61
		c-0.011-0.104-0.022-0.204-0.034-0.308c-0.023-0.205-0.049-0.412-0.075-0.619c-0.203-1.558-0.516-3.197-1.064-5.095
		c-0.622-2.149-1.051-3.859-1.557-5.619c-0.06-0.205-0.12-0.414-0.183-0.622c-0.062-0.209-0.126-0.42-0.191-0.633
		c-0.361-1.171-0.782-2.411-1.335-3.852c-0.151-0.394-0.293-0.766-0.428-1.123c-0.089-0.237-0.176-0.467-0.259-0.691
		c-0.084-0.225-0.166-0.444-0.244-0.658c-0.039-0.107-0.077-0.213-0.115-0.318c-0.077-0.211-0.151-0.415-0.224-0.62
		c-0.037-0.102-0.072-0.202-0.108-0.304c-0.071-0.201-0.142-0.4-0.211-0.6c-0.207-0.598-0.407-1.189-0.613-1.812
		c-0.068-0.208-0.138-0.418-0.208-0.634c-0.387-1.188-0.809-2.517-1.344-4.209c-0.976-3.076-2.085-6.629-2.862-9.386
		c-0.078-0.276-0.153-0.543-0.224-0.802c-0.034-0.129-0.07-0.255-0.102-0.38c-0.302-1.119-0.52-2.04-0.615-2.643
		c-0.083-0.523-0.137-1.011-0.178-1.473c-0.012-0.145-0.022-0.286-0.033-0.425c-0.015-0.205-0.027-0.404-0.041-0.6
		c-0.007-0.129-0.016-0.255-0.023-0.38c-0.054-0.825-0.116-1.569-0.31-2.29c-0.196-0.731-0.464-1.512-0.757-2.279
		c-0.293-0.769-0.61-1.523-0.902-2.206c-0.584-1.366-2.632-6.483-2.632-6.483s-4.273-5.816-6.555-4.838
		c-0.99,0.426-4.333,0.872-7.026,0.976c-2.594,0.1-4.379,0.158-6.524-0.475c-2.145-0.634-3.438-1.136-4.736-1.838
		c-1.212-0.654-5.194-3.6-6.27-5.209c-1.075-1.611-3.768-5.422-4.305-6.4c-0.538-0.975-3.168-3.235-4.059-4.18
		c-4.432-4.68-6.744-1.729-6.744-1.729l2.633,6.288c0,0,0.68,1.004,1.534,2.354c0.038,0.059,0.076,0.118,0.114,0.179
		c0.277,0.44,0.57,0.911,0.861,1.394c0.104,0.172,0.207,0.345,0.311,0.519c0.309,0.521,0.61,1.046,0.884,1.55
		c0.411,0.755,0.899,1.57,1.452,2.465c0.674,1.094,1.443,2.306,2.28,3.667c0.304,0.495,0.618,1.011,0.939,1.547
		c0.401,0.67,0.815,1.373,1.238,2.113c0.085,0.148,0.17,0.298,0.255,0.448c0.171,0.302,0.344,0.61,0.517,0.924
		c0.694,1.255,1.258,2.316,1.743,3.257c1.271,2.469,1.997,4.116,3.113,6.301c0.16,0.312,0.327,0.635,0.505,0.973
		c0.357,0.677,0.703,1.322,1.043,1.947c0.908,1.667,1.774,3.191,2.686,4.771c0.569,0.987,1.156,1.999,1.781,3.08
		c0.187,0.324,0.36,0.624,0.523,0.905c0.108,0.186,0.211,0.364,0.312,0.536c0.05,0.086,0.099,0.17,0.147,0.253
		c0.82,1.403,1.408,2.376,2.393,3.955c0.058,0.093,0.117,0.189,0.178,0.285c0.122,0.195,0.249,0.398,0.383,0.614
		c0.404,0.643,0.87,1.387,1.428,2.272c0.186,0.297,0.37,0.59,0.553,0.881c1.282,2.034,2.497,3.947,3.632,5.745
		c0.162,0.257,0.322,0.511,0.481,0.764c0.318,0.504,0.629,0.998,0.934,1.483c0.762,1.213,1.479,2.367,2.149,3.463
		c0.2,0.329,0.398,0.65,0.594,0.963c0.961,1.543,1.861,2.916,2.799,4.354c0.027,0.041,0.054,0.082,0.081,0.122
		c0.513,0.787,1.037,1.595,1.59,2.461c0.101,0.156,0.201,0.314,0.303,0.476c0.107,0.168,0.215,0.339,0.324,0.513
		c0.196,0.312,0.396,0.63,0.601,0.961c0.269,0.433,0.519,0.833,0.755,1.211c0.053,0.085,0.104,0.169,0.157,0.25
		c0.46,0.735,0.866,1.378,1.246,1.977c0.125,0.198,0.248,0.393,0.368,0.583c0.102,0.16,0.201,0.318,0.301,0.475
		c0.068,0.108,0.136,0.218,0.204,0.324c0.128,0.205,0.257,0.408,0.385,0.615c0.59,0.943,1.195,1.931,1.944,3.192
		c2,3.365,3.999,6.188,4.438,6.873c0.097,0.148,0.183,0.284,0.264,0.42c0.022,0.04,0.045,0.079,0.067,0.119
		c0.076,0.139,0.147,0.282,0.218,0.447c0.02,0.047,0.039,0.098,0.058,0.149c0.01,0.024,0.02,0.051,0.029,0.077
		c0.02,0.053,0.038,0.108,0.059,0.166c0.02,0.058,0.037,0.119,0.058,0.183c0.087,0.286,0.176,0.633,0.271,1.071
		c0.013,0.058,0.025,0.115,0.036,0.177c0.211,1.077,0.342,2.785,0.757,5.109c0.009,0.046,0.017,0.091,0.024,0.137
		c0.051,0.277,0.106,0.564,0.165,0.858c0.179,0.885,0.397,1.846,0.677,2.884c0.742,2.763,1.72,5.634,2.371,7.455
		c0.05,0.142,0.099,0.274,0.145,0.402c0.061,0.169,0.118,0.326,0.171,0.472c0.014,0.035,0.026,0.07,0.039,0.104
		c0.051,0.138,0.097,0.263,0.137,0.371c0.02,0.055,0.04,0.105,0.058,0.154c0.018,0.046,0.033,0.09,0.049,0.129
		c0.007,0.02,0.014,0.038,0.021,0.056c0.014,0.035,0.025,0.065,0.035,0.094c0.03,0.08,0.047,0.123,0.047,0.123
		s0.392-0.635,0.885-1.568c0.457-0.866,1.004-1.993,1.406-3.108c0.032-0.087,0.062-0.172,0.091-0.258
		c0.059-0.171,0.112-0.342,0.163-0.511c0.05-0.169,0.095-0.336,0.134-0.5c0.12-0.494,0.228-1.053,0.325-1.657
		c0.066-0.404,0.126-0.828,0.183-1.267c0.016-0.109,0.029-0.22,0.043-0.332c0.126-1.004,0.235-2.075,0.336-3.15
		c0.023-0.239,0.045-0.479,0.066-0.717c0.099-1.075,0.191-2.14,0.285-3.13c0.011-0.11,0.023-0.22,0.032-0.328
		c0.042-0.432,0.088-0.857,0.136-1.275C146.271,264.161,146.656,261.511,146.442,258.525z"/>
</g>
<g id="hair">
	<g>
		<path fill="#2E3192" stroke="#000000" stroke-width="0.6688" stroke-linecap="round" stroke-linejoin="round" d="M154.257,154.935
			c0,0,0.018-0.004,0.05-0.01C154.234,154.924,154.257,154.935,154.257,154.935z"/>
		<path fill="#FF0013" stroke="#000000" stroke-width="0.6688" stroke-linecap="round" stroke-linejoin="round" d="M163.61,145.21
			c-0.247-0.677-0.984-1.785-0.984-1.785l0.494-0.37l-0.801-0.861c0,0,0.247-0.061,0.801-0.061s1.044-0.186,1.044-0.186
			s-1.722-1.599-2.339-2.029c-0.575-0.401-1.307-1.444-1.403-1.585c0.03,0.04,0.141,0.157,0.482,0.354
			c0.43,0.246,0.801,0.307,0.801,0.307s-0.555-1.538-0.865-2.339c-0.309-0.8-1.168-2.459-1.168-2.459l0.555,0.554
			c0,0,0.061-0.494,0-0.987c-0.061-0.494-0.614-1.414-0.614-1.414s0.059-0.985-0.124-2.093c-0.184-1.107-1.294-3.877-1.294-3.877
			l0.678-1.416c0,0,0.493,1.048,1.478,2.399c0.984,1.353,2.093,5.417,2.093,5.417s-0.984-5.17-1.231-6.524
			c-0.247-1.354-1.415-4.122-1.415-4.122l0.738-1.602l1.107,1.231c0,0-0.184-0.985-0.614-1.599
			c-0.431-0.614-2.279-2.278-2.279-2.278l2.957-1.722c0,0-1.108-2.156-1.849-3.201c-0.74-1.045-2.336-2.279-2.336-2.279l1.414-0.921
			l1.723,1.909c0,0-0.061-0.554-0.37-1.171c-0.311-0.617-0.984-1.108-0.984-1.108l0.123-0.983l-0.801,0.37l-0.674-0.617l1.537-0.737
			l0.678,0.123c0,0,2.276,2.399,2.891,3.137c0.615,0.737,0.861,1.663,0.861,1.663s0.062-1.229-0.491-2.153
			c-0.555-0.924-3.2-3.324-3.2-3.324l2.523-0.493l-3.138,0.124c0,0-4.248-3.568-5.479-4.492c-1.232-0.924-3.755-3.017-3.755-3.017
			l0.617-0.738l-1.603,0.678l-0.243-1.538l1.045-0.617l-1.723-0.184l0.921-1.415c0,0,1.909,0.678,3.078,1.168
			c1.167,0.492,4.615,2.463,5.416,3.263c0.801,0.801,2.092,3.324,2.092,3.324s-0.614-2.278-1.415-3.324
			c-0.801-1.044-5.847-4.925-7.692-6.157c-1.846-1.231-2.646-1.292-2.646-1.292l-1.168-1.538c0,0,0.614,0.184,0.984,0.431
			c0.371,0.246,1.108,0.861,1.108,0.861s-0.555-1.168-0.925-1.599c-0.37-0.43-1.045-0.493-1.045-0.493s-0.984-2.523-1.417-2.892
			c-0.434-0.367-1.168-0.246-1.168-0.246s-0.985-2.279-1.169-2.71c-0.184-0.43-1.047-1.168-1.047-1.168s2.646-2.155,3.139-2.4
			c0.494-0.244,2.094,0.431,3.077,0.491c0.984,0.061,3.814-0.614,3.814-0.614s-2.646,0.184-3.63,0.184
			c-0.984,0-2.4-0.553-3.384-0.43c-0.985,0.123-3.385,2.338-3.385,2.338s-1.418-2.155-1.972-2.833
			c-0.555-0.677-2.152-1.599-2.152-1.599s-0.615-1.171-0.862-1.968c-0.246-0.798-0.924-1.415-0.924-1.415s1.295-3.08,3.017-3.14
			c1.722-0.061,5.97,2.83,5.97,2.83s-3.139-2.953-5.846-3.2c-2.707-0.247-3.384,2.832-3.384,2.832s-2.587-1.785-3.632-2.339
			c-1.045-0.553-3.754-1.354-3.754-1.354l0.737-0.554c0,0-4.245-0.06-4.862-0.06c-0.617,0-1.23,0.49-1.23,0.49
			s-1.292-0.124-1.723-0.06c-0.431,0.062-1.909,0.307-1.909,0.307s-2.276-0.061-2.83,0c-0.554,0.06-1.168,0.37-1.168,0.37
			s-1.602,0.061-2.278,0.061c-0.678,0-2.4,0.307-2.4,0.307l-2.153,0.801c0,0-1.846-0.185-3.077-0.247
			c-1.231-0.063-3.2,0.431-3.2,0.431s-1.723-0.061-2.523,0.062c-0.8,0.124-2.216,1.231-2.216,1.231s-0.491,0.368-2.153,0.615
			c-1.662,0.246-3.57,1.661-3.57,1.661s1.108-0.554,2.276-1.044c1.168-0.491,3.14-0.493,3.14-0.493l0.37,0.737
			c0,0-1.662,0.677-2.463,1.048c-0.8,0.37-2.706,1.599-2.706,1.599s-1.108,0.124-1.786,0.246c-0.677,0.124-3.63,1.602-3.63,1.602
			s1.599-0.493,2.399-0.8c0.8-0.307,2.523-0.183,2.523-0.183s-0.371,0.367-0.924,0.797c-0.554,0.43-0.984,1.294-0.984,1.294
			s-0.799,0.184-1.415,0.554c-0.617,0.37-1.416,1.415-1.416,1.415s-1.908,0.615-5.476,2.093c-3.568,1.479-5.6,4.245-6.585,5.723
			c-0.984,1.479-2.155,5.847-2.155,5.847s-1.846,1.602-3.321,3.264c-1.476,1.661-2.586,7.629-2.586,7.629s-0.678-0.491-0.985-0.798
			c-0.307-0.307-1.168-0.617-1.168-0.617l0.244,0.617l-1.846-0.371l2.216,1.232l1.539,3.26c0,0-0.247,0.31-0.491,0.864
			c-0.244,0.554-0.864,3.998-0.864,3.998l1.355-3.2c0,0-0.06,0.37-0.06,0.677c0,0.307,0.43,1.602,0.554,1.909
			c0.123,0.307-0.124,1.354-0.124,1.354s-2.156,1.846-2.646,2.461c-0.491,0.614-1.601,3.63-1.601,3.63s1.294-2.46,1.785-3.137
			c0.491-0.678,2.4-1.725,2.4-1.725s0,0.187-0.367,1.478c-0.368,1.292-0.864,2.83-1.295,3.694c-0.431,0.864-1.599,3.445-1.599,3.445
			l0.924-0.368v0.738l1.415-2.217c0,0-1.294,2.955-1.662,3.878c-0.367,0.924-0.984,2.83-1.725,4.124
			c-0.74,1.294-1.168,3.2-1.168,3.2h0.924c0,0-0.431,0.8-0.984,1.785c-0.554,0.985-1.969,4.062-1.969,4.062l0.798,0.184
			c0,0-0.368,1.292-0.738,2.093c-0.37,0.8-1.415,1.414-1.415,1.414l0.368,0.864l0.801-0.31l0.307,0.924l1.047-0.431l0.247,0.554
			l0.491-0.124l0.431,0.861l0.861-0.123l0.677,0.431c0,0,0.678-0.922,1.355-1.6c0.677-0.677,1.478-0.861,1.478-0.861l-0.187,5.477
			l1.539-1.416l0.617,1.355l-0.123,1.476l0.677-0.368l0.675,1.108l-0.491-2.586l0.37,0.371l-0.247-1.415l0.614,0.183l0.371-0.554
			l0.801,1.355l0.737-1.048l0.677,0.925l0.922-0.678l0.247,1.292l0.801-0.124l0.861,1.294l0.307-0.369l0.184,2.092l0.494-2.032
			l0.554,0.187l1.6,3.878l0.062-0.801l0.124-0.678l0.431-0.063l0.247-0.49l0.861,0.184l0.431-2.093l0.737-1.231l0.494,1.295
			l0.06,2.707l0.063,1.479l0.308,1.168l-0.371,3.446l0.614-0.614l0.434,3.015l0.06-1.539l0.801,2.71l0.431-2.832l0.307,3.198
			l0.307-2.029l1.354,4.186l0.307-1.662l-0.307-1.847l1.662,3.321l-0.186-2.092c0,0,1.538,3.446,2.156,4.801
			c0.617,1.357,2.707,4.492,4.245,6.462c1.538,1.969,4.431,3.633,4.431,3.633s0.615,0.492,1.231,0.675
			c0.617,0.184,1.723,0,3.261,0.247c1.539,0.248,2.4,0.741,3.694,0.861c1.295,0.121,1.783-0.061,2.891-0.307
			c1.108-0.247,2.586-1.292,4.492-2.523c1.906-1.231,1.047-1.045,2.522-2.216s2.093-2.646,2.646-3.324
			c0.555-0.677,0.985-1.538,0.985-1.538s-0.861,0-1.045-0.247c-0.184-0.246,0.43-0.921,0.86-1.414
			c0.431-0.494,0.801-0.861,1.723-1.97c0.921-1.107,0.925-0.984,1.849-2.398c0.924-1.416,2.029-3.755,3.014-5.233
			c0.984-1.479,2.155-2.893,3.076-3.754c0.922-0.862,3.508-3.691,4.371-4.8c0.865-1.107,1.907-2.646,1.907-2.646
			s-0.124,0.737-0.678,2.336c-0.555,1.599-1.292,4.432-1.476,4.985c-0.184,0.554-1.171,4.371-1.171,4.371s0.925-2.278,1.295-3.51
			c0.37-1.231,1.352-4.186,1.662-4.983c0.309-0.798,2.213-4.495,2.213-4.495s-0.308,1.171-0.431,1.663
			c-0.123,0.49-0.123,1.538-0.123,1.909c0,0.37,0.186,1.107,0.246,1.662c0.061,0.554,0.188,0.861,0.188,1.354
			c0,0.494-0.618,1.599-0.988,2.523c-0.37,0.924-1.659,3.077-1.97,3.446c-0.309,0.371-2.459,1.416-2.459,1.416
			s0.308,0.059,0.921-0.062c0.615-0.124,1.295-0.368,1.295-0.368s-0.124,0.244-0.247,0.49c-0.123,0.247-1.231,1.97-1.661,2.646
			c-0.432,0.678-1.846,2.156-1.846,2.156s0.123-0.063,0.613-0.186c0.491-0.124,2.463-0.555,2.463-0.555s0.061,0.187-0.187,0.555
			c-0.247,0.367-0.49,0.74-0.49,0.74s0.86,0.06,1.478-0.37s1.105-1.538,1.105-1.538s0.493-0.062,0.801-0.248
			c0.308-0.186,0.861-0.613,0.861-0.613l-0.491,0.984c0,0,0.554-0.185,0.922-0.371c0.367-0.186,0.924-1.784,0.924-1.784l0.06,1.294
			l0.741-0.311l-0.431,2.834c0,0,0.675-0.925,1.107-1.847c0.434-0.921,0.861-0.123,0.861-0.123l0.431,0.921l0.491-0.984
			c0,0-0.123,0.861-0.184,1.357c-0.06,0.493,0.124,1.106,0.124,1.106s0.431-0.801,0.738-1.23c0.307-0.431,0.493-1.108,0.737-1.723
			c0.243-0.614,1.047-0.925,1.047-0.925s-0.059,1.048-0.059,1.602c0,0.555,0.798,1.046,0.798,1.046s-0.184-1.292-0.059-1.846
			c0.122-0.555,0.921-2.34,1.291-3.077c0.37-0.738,1.168-2.463,1.479-3.324c0.31-0.861,0.43-2.709,0.49-3.447
			c0.061-0.738,0.737-2.709,0.737-2.709l0.434,0.187l-0.123-0.862l0.554-1.354c0,0,0.798,2.093,0.922,2.4
			c0.123,0.308-0.124,1.414-0.124,1.414s-0.491,1.108-0.737,1.479c-0.247,0.371-1.723,1.97-1.723,1.97s1.662-0.554,2.217-1.231
			c0.554-0.677,0.737-1.476,0.737-1.476s0,0.615,0.123,1.291c0.124,0.679-0.307,2.584-0.307,2.584s0,0,0.431-0.675
			c0.43-0.675,0.49-1.909,0.49-1.909l0.555,0.432c0,0,0.614-2.707,0.737-3.323c0.123-0.618,1.418-0.738,1.418-0.738
			s0.797,1.722,0.921,2.152c0.124,0.431,0,0.74-0.184,1.048c-0.162,0.271-1.188,0.494-1.428,0.544
			c0.099,0.001,0.373,0.026,1.12,0.133c1.295,0.187,2.029-0.553,2.029-0.553s0.124-1.54,0-2.464c-0.122-0.924-0.49-1.968-0.49-1.968
			l1.045,0.184l0.614-0.678l0.493,0.801l0.738-0.184v-0.925c0,0,0.123-0.124,0.678-0.307c0.554-0.183,0.924,0.124,0.924,0.124
			v-0.554c0,0,0.367-0.493,0.613-0.8c0.248-0.308,0.371-0.924,0.371-0.924l0.308,1.046c0,0,0.307-0.431,0.307-1.17
			c0-0.741-0.06-1.168-0.06-1.168l1.167,1.415C164.164,146.932,163.856,145.888,163.61,145.21z M159.291,119.366
			c0.209,0.167,0.719,1.053,0.719,1.053s-0.255,0.589-0.381,0.885c-0.127,0.296,0.085-0.126-0.127-0.633
			c-0.211-0.507-0.504-1.517-0.504-1.517S159.083,119.199,159.291,119.366z M67.479,109.943c0,0-0.343-1.274-0.442-1.716
			c-0.099-0.441-0.293-1.08-0.293-1.08l0.343,0.589l0.293-0.392c0,0,0.148,0.784,0.148,1.519
			C67.529,109.598,67.479,109.943,67.479,109.943z M74.294,93.369c0.343-0.784,0.537-2.21,1.028-1.816
			c0.491,0.395,0.297,0.54,0.541,1.032c0.244,0.49,0.293,1.324,0.293,1.324s-0.637,0.541-1.127,0.834
			c-0.491,0.294-1.42,0.834-1.42,0.834S73.951,94.153,74.294,93.369z M71.058,100.724c0.244-0.491,0.932-1.42,0.932-1.42
			s-0.003,0.781-0.296,1.372c-0.293,0.589-0.392,1.176-0.392,1.176S70.814,101.215,71.058,100.724z M68.557,107.588
			c0,0,0.441-3.529,0.784-4.462c0.343-0.932,1.325-2.745,1.325-2.745s-0.442,2.255-0.686,3.088
			C69.736,104.303,68.557,107.588,68.557,107.588z M70.863,144.804c-0.148,1.177-0.296,2.013-0.346,2.257
			c-0.049,0.243-0.096,0.833-0.096,0.833l-0.392,0.636l-0.441-0.194c0,0-0.25-0.932-0.296-2.059
			c-0.046-1.127-0.046-2.942-0.046-2.942l-0.541-0.05c0,0,0.343-0.781,0.735-1.029c0.392-0.246,1.127-0.688,1.127-0.688
			S71.012,143.628,70.863,144.804z M75.128,100.724c-0.343,0.883-0.639,1.47-0.883,2.109c-0.244,0.639-0.785,2.501-1.177,3.628
			c-0.392,1.127-1.667,3.335-1.667,3.335s-0.049-0.148-0.099-0.834c-0.049-0.686,0.099-1.912,0.099-1.912s-0.049,0.294-0.244,0.637
			c-0.194,0.343-0.54,3.285-0.54,3.285s-0.392-1.423-0.294-2.402c0.099-0.98,0.491-2.208,0.491-2.208s0.441-0.195,0.93-1.763
			c0.488-1.569,3.971-5.691,3.971-5.691S75.47,99.84,75.128,100.724z M74.245,98.42c-0.735,0.982-2.403,2.989-2.403,2.989
			s0.54-1.47,0.834-2.205c0.294-0.736,1.127-1.667,1.961-2.601c0.833-0.932,2.451-1.325,2.451-1.325S74.979,97.438,74.245,98.42z
			 M85.129,84.543l-1.176,0.441c0,0,0.049,0-0.982,0.488c-1.031,0.488-2.01,1.963-2.01,1.963s0.784-0.441,1.569-0.883
			c0.784-0.441,2.108-1.031,2.108-1.031s-0.491,0.883-0.784,1.127c-0.293,0.244-0.392,0.49-0.735,0.883
			c-0.343,0.392-0.735,0.148-0.981,0.392c-0.248,0.244-0.686,0.491-1.029,0.833c-0.343,0.343-1.717,1.032-1.717,1.032l0.784,0.537
			l-1.028,0.59l0.636,0.244c0,0-0.441,0.833-0.883,1.423c-0.442,0.589-2.01,0.883-2.01,0.883s-0.488-0.735-0.686-1.226
			c-0.197-0.491-0.195-0.883,0-1.717c0.195-0.833,0.982-1.568,1.52-2.303c0.537-0.734,2.698-2.208,3.529-2.797
			c0.83-0.59,4.267-1.618,4.267-1.618L85.129,84.543z M141.01,159.882c-0.21,0.42-0.463,0.716-0.463,0.716s-0.211-0.337-0.379-0.546
			c-0.167-0.208-0.21-0.633-0.21-0.633s0.169-0.42,0.296-0.59c0.126-0.169,0.589-0.379,0.801-0.127
			C141.267,158.955,141.222,159.463,141.01,159.882z M150.109,93.549l3.538,2.569l-3.708-2.021L150.109,93.549z M149.858,94.644
			l3.032,1.431l-3.159-1.22L149.858,94.644z M148.719,92.793c0.379,0.125,0.886,0.42,0.886,0.42l-0.295,0.504l-1.265-0.293
			l-0.167-0.675C147.878,92.748,148.342,92.666,148.719,92.793z M147.878,94.097l0.337-0.21l0.969,0.377l-0.632,1.138
			L147.878,94.097z M156.807,122.147l0.17-0.212c0,0-0.043-0.211-0.211-0.675c-0.167-0.463,0.338-1.81,0.338-1.81
			s0.801,1.054,0.927,1.517c0.125,0.463,0.125,0.59,0.082,1.558c-0.044,0.968,0.126,1.684,0.126,1.684L156.807,122.147z
			 M160.01,114.06l1.262,2.021l-2.484,0.507l-0.379-0.382c0,0,1.009-1.22,1.221-1.599C159.84,114.23,160.01,114.06,160.01,114.06z
			 M158.534,112.249c0,0,0.59,0.505,0.632,1.053c0.04,0.548-1.348,2.358-1.348,2.358s0.253-1.602,0.505-2.232
			C158.576,112.798,158.534,112.249,158.534,112.249z M158.03,109.176l-1.013,1.094l-0.886-0.59l1.391-0.968L158.03,109.176z
			 M151.33,100.498l3.286,2.526l-3.286-1.895V100.498z M152.806,104.289c-0.211-0.505-0.886-0.927-0.886-0.927l-0.843-1.517
			c0,0,1.98,1.013,3.372,1.898c1.39,0.886,4.801,3.283,4.801,3.283l-1.643,0.673c0,0-1.349-0.715-1.854-1.008
			c-0.505-0.293-2.274-0.8-2.274-0.8l-0.17-0.76C153.311,105.131,153.017,104.793,152.806,104.289z M153.647,108.334l-0.167-1.687
			c0,0,0.966,0.419,1.725,0.716c0.759,0.296,1.729,0.927,1.729,0.927l-1.392,1.054c0,0-0.549-0.505-1.053-0.716
			C153.984,108.416,153.647,108.334,153.647,108.334z M154.744,111.363l-0.76-1.895c0,0,1.051,0.338,1.433,0.675
			c0.381,0.338,0.589,0.378,0.589,0.378L154.744,111.363z M156.681,111.238c0,0,0.423,0.211,0.76,0.379
			c0.337,0.167,0.419,0.507,0.419,0.507l-0.756,2.314c0,0-0.127,0.126-0.508-0.127c-0.382-0.252-1.305-2.062-1.305-2.062
			L156.681,111.238z M155.713,128.21c-0.086-0.716,0.085-1.009,0.126-1.768c0.041-0.76,0-2.526,0-2.526s0.379,0.545,0.63,1.009
			c0.253,0.463,0.761,1.727,0.761,1.727l-1.18,2.737C156.05,129.389,155.798,128.925,155.713,128.21z M158.913,133.391
			c0,0-0.337-0.631-0.716-1.094c-0.379-0.463-1.264-2.443-1.264-2.443l0.841-1.896c0,0,1.098,2.148,1.265,2.696
			C159.206,131.202,158.913,133.391,158.913,133.391z M159.925,144.552l0.884,0.504l-0.672,0.253L159.925,144.552z M161.314,146.532
			c-0.081,0.296-0.336,0.589-0.336,0.589l-0.59-1.223l0.883-0.252C161.271,145.646,161.397,146.235,161.314,146.532z"/>
	</g>
</g>
<g id="face">
	<path fill="#FFFFFF" stroke="#000000" stroke-width="0.6688" stroke-linecap="round" stroke-linejoin="round" d="M142.173,133.393
		c-0.222-0.578-1.156,0.047-1.156,0.047s-1.733,0.576-2.179,1.024c-0.443,0.446-1.735,1.958-2.448,2.934
		c-0.713,0.976-2.312,4.716-2.756,5.561c-0.445,0.845-3.472,4.095-3.472,4.095s2.314-4.939,3.247-6.719
		c0.933-1.779,1.426-2.803,2.001-3.913c0.577-1.11,1.427-2.715,1.958-3.829c0.532-1.113,1.292-3.96,1.292-3.96l-1.068,1.649
		l-1.155,3.512l-1.113,1.113l1.646-4.093c0,0-2.312,2.358-2.669,2.67c-0.357,0.313-1.558,1.158-2.002,1.333
		c-0.444,0.176-2.58,1.157-2.58,1.157s1.336-1.245,2.092-1.646c0.758-0.4,2.49-1.514,2.979-2.046
		c0.488-0.532,1.602-2.402,1.602-2.402s-0.267,0.401-0.667,0.667c-0.399,0.266-3.158,1.022-3.158,1.022s0.269-0.088,1.2-0.889
		c0.933-0.8,1.023-1.113,1.023-1.113s-0.043,0.044-0.532,0.266c-0.488,0.222-1.113,0.535-1.113,0.535l-0.267-0.488
		c0,0-0.043,0.088-0.4,0.444c-0.355,0.356-0.8-0.356-0.979-1.023c-0.178-0.667-0.178-3.204-0.134-3.916
		c0.044-0.714,0.713-2.847,0.713-2.847s-0.134,0.087-0.444,0.353c-0.311,0.266-1.372-0.157-1.703-0.238
		c-0.332-0.082,0.25-0.291-1.207,0.459c-1.456,0.748-3.158,1.5-5.404,1.414c-2.246-0.085-1.955-0.332-3.662,0.291
		c-1.705,0.622-3.787,1.785-5.199,2.701c-1.413,0.916-2.369,1.87-3.285,2.745s-1.917,1.75-1.917,1.75l1.868-3.914
		c0,0-1.777,1.824-2.446,2.002c-0.669,0.179-1.245,0.711-1.245,0.711l-1.215,2.095l-2.37,4.782c0,0,0.088-0.219,0.615-1.667
		c0.526-1.448,1.579-4.037,1.579-4.037l-1.579,1.404c0,0,1.097-1.536,1.579-2.018c0.483-0.483,0.527-0.483,1.273-1.098
		c0.746-0.614,1.711-1.755,2.808-2.808c1.098-1.054,3.335-3.291,3.335-3.291s-0.877,0.438-1.448,0.789
		c-0.57,0.352-3.247,2.019-3.247,2.019s3.949-3.334,4.958-4.081c1.009-0.746,1.623-1.403,2.545-2.106
		c0.921-0.702,1.271-1.535,2.457-2.72c1.185-1.185,2.589-3.642,3.905-4.958c1.316-1.316,4.037-4.432,4.958-5.353
		c0.921-0.922,2.633-3.466,2.633-3.466s-2.413,1.843-3.291,2.632c-0.878,0.79-2.413,1.974-3.773,3.291
		c-1.36,1.316-2.15,2.325-4.213,4.563c-2.062,2.238-3.598,3.993-5.265,5.879c-1.667,1.887-2.282,2.633-3.028,3.292
		c-0.746,0.658-2.413,1.272-3.291,2.106c-0.878,0.834-2.721,3.072-3.686,4.475c-0.965,1.404-2.852,4.037-3.642,5.529
		c-0.79,1.492-2.544,6.714-2.852,7.898c-0.288,1.113-1.738,6.212-1.913,6.829c0.028-0.115,0.083-0.413,0.114-1.081
		c0.044-0.921,0.176-4.519,0.658-6.888c0.482-2.37,1.448-4.827,1.448-4.827s0.526-2.896,0.921-4.169
		c0.395-1.273,1.053-4.037,1.316-5.309c0.263-1.272,0.79-4.125,0.79-4.125s-0.834,1.887-1.141,2.502
		c-0.307,0.614-1.404,3.027-1.404,3.027s0.921-2.764,1.36-3.905c0.438-1.141,1.536-4.08,1.536-4.08s-1.536,3.027-1.799,3.554
		c-0.263,0.526-1.009,1.668-1.404,2.501c-0.395,0.834-1.404,2.764-1.404,2.764l0.439-1.579c0,0-0.79,1.009-1.141,2.062
		c-0.352,1.053-1.492,2.939-2.896,5.924c-1.404,2.983-2.062,5.441-2.853,8.292c-0.79,2.853-0.79,5.528-0.79,5.528
		s0.438,0.833,0.834,1.229c0.395,0.396,0.57,1.58,0.57,1.58s-0.482-0.526-0.833-0.79c-0.351-0.264-0.702-0.264-0.702-0.264
		s0.131,0.308,0.175,0.834c0.044,0.527,0.438,1.843,0.482,2.765c0.044,0.922,0.702,2.589,0.877,3.159
		c0.176,0.57,0.22,1.667,0.22,1.667l-0.307-0.307l-0.307,0.307c0,0-0.351-0.35-0.571-0.877c-0.219-0.526-0.526-0.79-0.526-0.79
		l-0.965,0.352l-0.396-0.878l-0.263,0.088c0,0-0.044-1.756-0.044-2.501c0-0.747-0.614-2.413-0.746-3.599
		c-0.132-1.185,0.132-3.028,0.351-5.835c0.219-2.808,0.614-6.714,1.404-9.653c0.79-2.94,2.852-8.512,3.861-10.794
		c1.009-2.281,4.563-8.687,5.836-11.319c1.272-2.633,3.159-5.31,4.124-6.407c0.965-1.096,3.598-2.896,3.598-2.896
		s-2.062,0.746-2.721,1.272c-0.658,0.527-3.115,2.853-3.905,4.125c-0.79,1.272-4.256,8.117-4.694,8.994
		c-0.439,0.878-4.476,8.908-4.915,10.355c-0.438,1.448-3.686,9.171-3.686,9.171s0.614-2.72,1.229-4.388
		c0.614-1.667,2.194-5.836,2.896-7.679c0.702-1.843,3.422-7.766,3.861-8.82c0.438-1.053,3.159-6.187,3.159-6.187
		s-3.598,5.222-4.52,6.539c-0.921,1.315-3.159,4.431-4.168,6.143c-1.009,1.711-3.115,7.151-3.686,8.6
		c-0.57,1.448-1.667,3.949-1.667,3.949s0.308,1.799,0.527,2.94c0.219,1.14,0.351,2.501,0.395,3.905
		c0.044,1.404,1.097,5.836,1.229,7.239c0.131,1.404,1.094,3.934,1.176,4.512c0.082,0.578,1.283,3.313,1.698,3.768
		c0.414,0.455,1.075,1.034,1.407,1.16c0.331,0.126,0.952-0.331,0.952-0.331l-0.165,0.372l0.496,0.165l-0.414,0.496l0.497,0.126
		c0,0-0.123,0.246-0.288,0.414c-0.164,0.168-0.581-0.044-0.581-0.044s0.082,0.291,0.291,0.455c0.208,0.165,0.746,0.086,0.746,0.086
		s-0.042,0.287-0.374,0.414c-0.331,0.125-0.496,0.246-0.496,0.246s0.373,0.25,0.62,0.497c0.247,0.247,0.623,1.323,0.623,1.323
		s-0.168-0.204-0.414-0.454s-1.369-0.661-1.369-0.661l0.167,0.332l-0.496,0.041l0.206,1.075l-1.388-2.287
		c0,0,1.538,3.446,2.156,4.801c0.617,1.357,2.707,4.492,4.245,6.462c1.538,1.969,4.431,3.633,4.431,3.633s0.615,0.492,1.231,0.675
		c0.617,0.184,1.723,0,3.261,0.247c1.539,0.248,2.4,0.741,3.694,0.861c1.295,0.121,1.783-0.061,2.891-0.307
		c1.108-0.247,2.586-1.292,4.492-2.523c1.906-1.231,1.047-1.045,2.522-2.216s2.093-2.646,2.646-3.324
		c0.555-0.677,0.985-1.538,0.985-1.538s-0.861,0-1.045-0.247c-0.184-0.246,0.43-0.921,0.86-1.414
		c0.431-0.494,0.801-0.861,1.723-1.97c0.921-1.107,0.925-0.984,1.849-2.398c0.924-1.416,2.029-3.755,3.014-5.233
		c0.984-1.479,2.155-2.893,3.076-3.754c0.922-0.862,3.508-3.691,4.371-4.8c0.865-1.107,1.907-2.646,1.907-2.646
		s-0.124,0.737-0.678,2.336c-0.555,1.599-1.292,4.432-1.476,4.985c-0.184,0.554-1.171,4.371-1.171,4.371s0.925-2.278,1.295-3.51
		c0.37-1.231,1.352-4.186,1.662-4.983c0.309-0.798,2.213-4.495,2.213-4.495s0.454-0.768,0.634-1.081
		c0.178-0.312,0.534-0.979,0.845-1.823c0.309-0.845,1.113-3.517,1.423-4.405c0.309-0.889,0.979-3.516,1.066-4.229
		C142.126,134.683,142.396,133.972,142.173,133.393z"/>
</g>
<g id="eyes__x26_c.">
	<g>
		<path fill-rule="evenodd" clip-rule="evenodd" d="M92.704,138.617c0.165-0.37,0.288-0.982,0.655-1.188
			c0.368-0.206,1.391-0.206,1.884-0.33c0.494-0.122,1.146-0.164,1.517-0.246c0.309-0.069,0.844-0.278,1.013-0.346
			c0.067-0.328,0.141-0.683,0.219-1.033l-1.969,0.683l1.846-0.982l-0.123-0.576l0.434-0.355c-0.062,0.046-0.325,0.194-0.925-0.054
			c-0.696-0.288-0.984-0.943-0.984-0.943s1.025-0.244,1.476-0.409c0.449-0.164,0.82-0.615,0.82-0.615l-1.393,0.368l0.614-1.31
			l1.393-0.374c0.222-0.917,0.424-1.807,0.544-2.387c0.159-0.772,0.416-2.125,0.593-3.07c0.061-0.403,0.203-1.059,0.23-1.245
			c-0.194,0.438-0.917,2.175-1.175,2.692c-0.307,0.614-1.404,3.027-1.404,3.027s0.921-2.764,1.36-3.905
			c0.168-0.435,0.431-1.132,0.692-1.829l0.894-2.432c-0.446,0.879-1.652,3.341-1.849,3.734c-0.263,0.526-1.009,1.668-1.404,2.501
			c-0.395,0.834-1.404,2.764-1.404,2.764l0.439-1.579c0,0-0.79,1.009-1.141,2.062c-0.352,1.053-1.492,2.939-2.896,5.924
			c-1.24,2.634-1.898,4.858-2.579,7.306c0.209-0.364,1.139-1.991,1.355-2.536C91.678,141.321,92.539,138.986,92.704,138.617z"/>
		<path fill-rule="evenodd" clip-rule="evenodd" d="M149.905,127.838l-1.189,2.166c0.081-0.152,0.265-0.542,0.4-1.112
			c0.175-0.747,0.175-1.273,0.175-1.273l-0.439-0.263c0,0,0.176-0.307,0.439-0.526c0.264-0.221,0.176-0.571,0.219-0.966
			c0.045-0.395-0.526-1.448-0.526-1.448l-0.746,0.175l0.659-0.658c0,0-0.483-0.702-0.879-1.448
			c-0.395-0.746-0.438-1.361-0.525-1.799c-0.088-0.438,0.088-0.658,0.088-0.658l0.219,0.131l0.702,1.405c0,0,0.22-0.132,0.351-0.351
			c0.132-0.22,0.352-0.527,0.395-0.747c0.044-0.219-0.22-0.965-0.264-1.448c-0.044-0.482-0.833-0.175-0.833-0.175l0.701-0.307
			c0,0-0.088,0.044-0.131-0.263c-0.044-0.307-0.088-1.359-0.088-1.359s-0.132,0.087-0.307,0.526
			c-0.176,0.438-0.527,0.395-0.527,0.395l0.396-1.097l0.438-1.141c0,0-0.044-0.087-0.088-0.615
			c-0.044-0.526-0.702-1.315-0.702-1.315s-0.044,0.614-0.22,1.447c-0.175,0.835-0.789,3.16-1.009,3.949
			c-0.219,0.791-0.131,1.448-0.131,1.448s0.613,0.614,0.745,1.273c0.132,0.658,0.176,1.008,0.176,1.008s-0.132-0.131-0.351-0.702
			c-0.22-0.57-0.483-0.57-0.483-0.57l-0.526,0.087c0,0-0.219,0.307-0.264,0.702c-0.043,0.395-0.131,1.448-0.263,2.019
			c-0.132,0.571-0.308,2.721-0.308,2.721s0.22-0.045,0.791,0.131c0.569,0.175,0.219,0.57,0.219,0.57s-0.044,0.131,0,0.57
			c0.044,0.439-0.352,4.081-0.482,5.222c-0.133,1.141-0.791,4.124-0.791,4.124l0.966,0.79c0,0,0.132-0.439,0.264-0.922
			c0.132-0.482,0.526-1.229,0.789-2.238c0.264-1.01,0.615-2.194,0.878-2.676c0.263-0.483,0.57-1.141,0.746-1.36
			c0.175-0.219,0.702,1.799,0.614,3.203c-0.087,1.404-0.176,2.809-0.176,3.73c0,0.922,1.141,2.283,1.141,2.283
			s0.176-1.755,0.133-2.853c-0.045-1.097-0.045-2.15,0.043-3.16c0.088-1.009,0.176-2.062,0.395-3.159
			c0.221-1.098,0.221-1.667,0.221-2.413c0-0.747-0.658-1.01-0.747-1.317C150.125,127.268,149.905,127.838,149.905,127.838z"/>
		<path fill-rule="evenodd" clip-rule="evenodd" d="M105.912,168.352c-1.64-0.288-2.622-0.903-3.73-1.353
			c-1.107-0.45-3.115-1.557-3.115-1.557s1.393,1.269,2.171,1.681c0.779,0.411,1.928,1.146,1.928,1.146s0.45,0.779,2.827,1.311
			c2.378,0.531,2.91-0.409,2.91-0.409s1.434,0.123,2.295-0.041c0.861-0.165,1.72-0.408,2.172-0.532
			c0.453-0.122,1.022-0.902,1.022-0.902s-2.989,0.861-3.973,0.861C109.436,168.557,107.552,168.64,105.912,168.352z"/>
		<path fill-rule="evenodd" clip-rule="evenodd" d="M103.452,131.842c0.203,0.041,0.37,0.368,0.37,0.368l0.165,0.697l0.754,0.098
			c0.129-0.175,0.29-0.394,0.459-0.615c0.082-0.125,0.163-0.235,0.226-0.299c0.009-0.009,0.019-0.018,0.028-0.028
			c0.221-0.281,0.434-0.537,0.586-0.689c0.183-0.183,0.303-0.296,0.421-0.4c0.074-0.254-0.099-0.485-0.099-0.485h-1.311l1.27-0.656
			c0,0-0.162-0.49-0.45-0.738c-0.288-0.247-0.82-0.285-0.82-0.285s-0.085,0.055-0.215,0.161c-0.439,0.56-0.849,1.108-1.165,1.568
			c-0.251,0.366-0.564,0.814-0.904,1.304l0.154,0.204C102.92,132.045,103.249,131.801,103.452,131.842z"/>
		<path fill-rule="evenodd" clip-rule="evenodd" d="M115.749,164.581c-0.658-0.162-1.52-0.247-2.583-0.696
			c-1.064-0.451-2.417-0.982-3.401-1.188c-0.984-0.206-1.519-0.326-1.927-0.326s-1.311,0.08-1.311,0.08s-0.902-0.494-1.434-0.697
			c-0.532-0.203-1.229-0.367-1.966-0.326c-0.738,0.042-2.005,0.246-2.704,0.246c-0.699,0-1.887,0.083-2.748-0.123
			c-0.861-0.205-2.172-0.493-2.172-0.493s0.902,1.105,1.476,1.394c0.573,0.288,1.763,0.983,2.254,1.025
			c0.491,0.041,1.681-0.123,2.213-0.042c0.532,0.083,1.966,0.286,2.869,0.573c0.902,0.288,1.187,0.574,2.131,0.656
			c0.943,0.082,2.172,0.123,3.033,0.164c0.861,0.041,1.599,0.126,2.419,0.371c0.82,0.244,1.884,0.775,2.705,0.858
			c0.819,0.081,1.968-0.039,2.583-0.328c0.613-0.286,1.229-1.227,1.229-1.227s-0.658,0.038-1.067,0.038
			C116.936,164.539,116.406,164.742,115.749,164.581z"/>
		<path fill-rule="evenodd" clip-rule="evenodd" d="M103.411,153.271c0.165,0.205,0.044,0.781,0.535,1.066
			c0.491,0.285,0.943,0.535,1.393,0.901c0.45,0.368,0.902,0.985,1.311,1.435c0.409,0.449,1.352,0.858,1.967,0.982
			c0.614,0.123,1.722,0.003,2.336-0.245c0.614-0.246,1.516-0.737,2.131-0.983c0.614-0.247,1.229-0.617,1.517-1.026
			c0.288-0.407,0.451-1.104,0.451-1.104s-0.572,0.45-0.942,0.49c-0.371,0.041-0.491-0.285-0.821-0.409
			c-0.328-0.123-0.739-0.164-1.107-0.123c-0.368,0.042-0.82,0.327-1.188,0.655c-0.368,0.329-1.067,0.905-1.681,1.026
			c-0.614,0.12-1.066,0-1.517-0.123c-0.45-0.124-1.061-0.329-1.555-0.819c-0.494-0.492-0.535-0.982-1.108-1.354
			c-0.573-0.369-0.779-0.818-1.558-0.818C102.796,152.822,103.247,153.064,103.411,153.271z"/>
		<path fill-rule="evenodd" clip-rule="evenodd" d="M98.179,134.244c0.01-0.008,0.015-0.012,0.015-0.012L98.179,134.244z"/>
		<path d="M144.201,137.535c0.088-0.307,0.22-0.088,0.22-0.088s0.307-1.185,0.57-2.457c0.263-1.273,0.439-4.125,0.613-5.046
			c0.176-0.921,0.133-2.326,0.133-2.326l-0.658-0.219c0,0-0.088,1.009-0.352,2.062c-0.264,1.053-1.185,4.124-1.492,5.572
			c-0.307,1.447-0.877,3.159-1.272,4.388c-0.395,1.229-0.614,1.667-1.316,3.247c-0.701,1.58-0.658,2.37-0.877,2.939
			c-0.219,0.571-0.264,1.624-0.219,2.194c0.043,0.571,0.788,1.931,0.788,1.931s0-0.833-0.043-1.711
			c-0.044-0.877,0.396-2.281,0.396-2.281s0,0.175-0.088,0.79c-0.088,0.614,0.439,1.975,0.439,1.975s0-0.659,0-0.966
			s0.22-1.359,0.438-2.018c0.22-0.658,0.483-1.624,0.57-2.238c0.088-0.614,0.483-1.843,0.483-1.843s0.175,1.974,0.175,2.193
			s0.79-2.72,1.009-3.334c0.22-0.615,0.571-2.195,0.571-2.195S144.113,137.842,144.201,137.535z"/>
		<polygon fill-rule="evenodd" clip-rule="evenodd" points="144.025,141.089 144.859,140.036 144.597,141.966 145.518,139.378 
			144.771,138.676 		"/>
		<path fill-rule="evenodd" clip-rule="evenodd" d="M131.813,133.685c0,0-0.822-0.203-1.927-0.491
			c-1.107-0.287-1.556-0.572-2.458-0.819c-0.902-0.247-0.943-0.614-2.295-0.82c-1.353-0.205-2.91-0.08-3.771,0.124
			c-0.862,0.204-2.296,0.902-2.992,1.311c-0.696,0.409-1.273,1.066-1.682,1.599c-0.409,0.532-1.229,1.884-1.229,1.884
			s2.419-0.858,3.074-1.105c0.655-0.247,1.884-0.617,2.049-0.371c0.164,0.247-0.45,0.368-0.655,0.573
			c-0.206,0.206-0.577,0.615-0.902,0.902c-0.327,0.288-0.696,0.861-0.696,0.861s2.459-1.187,2.909-1.516
			c0.449-0.329,1.27-0.985,1.516-0.738c0.248,0.246,0.495,0.411,0.821,0.288c0.325-0.123,0.613-0.409,0.737-0.164
			c0.124,0.243,0.165,1.063,0.778,1.146c0.614,0.082,1.188-0.08,1.394-0.451c0.206-0.37,0.246-0.411,0.246-0.411l2.952,0.246
			l-0.248,0.33l0.573,1.475c0,0,0.573-0.126,0.697,0.202c0.124,0.33-0.247,0.656-0.247,0.656s-0.162,0.368-0.408,0.614
			c-0.247,0.247-0.45,0.208-0.491,0.535c-0.042,0.326-0.205,0.653-0.288,0.899c-0.082,0.248-0.326,0.985-0.326,0.985
			s1.148-0.412,1.435-0.82c0.285-0.408,0.367-0.617,0.45-0.778c0.082-0.162,0.122-0.49,0.696-0.368
			c0.573,0.123,1.312-0.002,1.681-0.288c0.288-0.223,0.88-0.549,1.26-0.896c0.346-0.682,0.633-1.258,0.943-1.858
			c0.473-0.91,1.128-2.15,1.642-3.181l-0.158,0.142l0.289-0.405c0.064-0.132,0.127-0.262,0.186-0.385
			c0.347-0.725,0.789-2.183,1.057-3.113l0.219-0.787c0.003-0.01,0.006-0.02,0.008-0.027l-0.078,0.102l-0.981,1.514l-1.155,3.512
			l-1.113,1.113l1.646-4.093c0,0-2.312,2.358-2.669,2.67c-0.357,0.313-1.558,1.158-2.002,1.333c-0.444,0.176-2.58,1.157-2.58,1.157
			s0.542-0.506,1.132-0.977c-0.321,0.119-0.553,0.204-0.553,0.204s0.333-0.146,0.704-0.324c0.287-0.222,0.575-0.426,0.809-0.549
			c0.062-0.033,0.133-0.072,0.208-0.114C132.08,133.976,131.813,133.685,131.813,133.685z"/>
		<path fill-rule="evenodd" clip-rule="evenodd" d="M139.111,150.436c0.131,0.57,0.131,1.271,0.131,1.271l0.395-0.088l0.088-0.921
			l-0.79-2.062C138.936,148.637,138.98,149.864,139.111,150.436z"/>
		<path fill-rule="evenodd" clip-rule="evenodd" d="M136.873,139.597c0.395-0.131,0.747-0.746,0.747-0.746s0.043,0,0.789-0.131
			c0.746-0.132,1.36-0.747,2.062-1.185c0.701-0.439,1.141-1.009,1.141-1.009l0.248-0.045c0,0,0.41-0.702,0.629-1.403
			c0.22-0.703,1.448-5.923,1.448-5.923s-1.316,2.15-1.579,2.457c-0.264,0.307-0.966,0.57-0.966,0.57l0.088,0.263l-0.877,0.439
			l0.439-0.527l0.043-0.263l0.966-0.658c0,0-0.044-0.351,0.571-1.272c0.613-0.921,0.702-1.184,1.359-2.545
			c0.658-1.36,0.352-1.931,0.439-2.632c0.088-0.703,0.043-2.94,0.043-2.94s-0.965,3.028-1.316,3.861
			c-0.351,0.833-1.447,3.423-1.447,3.423l0.307,0.307c0,0-0.526,0.57-0.965,1.273c-0.439,0.702-1.009,1.843-1.579,2.544
			c-0.158,0.194-0.441,0.538-0.776,0.95l0.017,0.199c-0.531,0.567-1.663,1.903-2.313,2.794c-0.444,0.608-1.233,2.29-1.872,3.677
			l1.171-1.258C135.688,139.816,136.479,139.729,136.873,139.597z"/>
	</g>
</g>
<g id="text">
	<path fill="#FFF200" stroke="#000000" stroke-width="1.3376" stroke-linecap="round" stroke-linejoin="round" d="M36.982,20.958
		L18.39,27.036V15.231L36.982,20.958z M43.368,23.354v-1.168L13.54,12.892L12.434,12.6C8.126,11.49,6.92,9.911,6.652,6.112
		c-0.054-0.059,0-0.175-0.054-0.233H6.169v12.916h0.429v-0.41c0-3.857,0.975-5.143,3.903-5.143c0.884,0,2.099,0.234,3.37,0.643
		l3.922,1.227V27.27L6.598,30.835V24.99H6.169v15.548h0.429v-4.91L43.368,23.354z"/>
	<path fill="#FFF200" stroke="#000000" stroke-width="1.3376" stroke-linecap="round" stroke-linejoin="round" d="M42.521,74.477
		v-1.52c0-2.921-2.467-4.617-6.555-4.617H5.728l0.055-0.587l33.386-19.205H13.65h-0.332c-4.144,0-6.72,2.049-6.72,5.27v1.406H6.169
		V41.649h0.429v0.818c0,3.215,2.687,5.788,6.665,5.436l0.663-0.059h26.239c1.602-0.994,2.303-2.163,2.303-3.799v-0.117v-2.104h0.483
		v10.003L14.976,67.637h20.991h0.497c3.204,0,6.004-1.874,6.004-4.1v-0.234v-1.581h0.483v12.755H42.521z"/>
	<path fill="#FFF200" stroke="#000000" stroke-width="1.3376" stroke-linecap="round" stroke-linejoin="round" d="M42.521,108.901
		v-1.519c0-2.922-2.467-4.617-6.555-4.617H5.728l0.055-0.587l33.386-19.205H13.65h-0.332c-4.144,0-6.72,2.049-6.72,5.269v1.405
		H6.169V76.074h0.429v0.818c0,3.215,2.687,5.788,6.665,5.436l0.663-0.059h26.239c1.602-0.994,2.303-2.162,2.303-3.799v-0.118v-2.104
		h0.483v10.003l-27.975,15.809h20.991h0.497c3.204,0,6.004-1.874,6.004-4.099v-0.234v-1.581h0.483v12.754H42.521z"/>
	<path fill="#FFF200" stroke="#000000" stroke-width="1.3376" stroke-linecap="round" stroke-linejoin="round" d="M36.982,119.79
		l-18.593,6.078v-11.806L36.982,119.79z M43.368,122.186v-1.169l-29.828-9.294l-1.105-0.292c-4.309-1.11-5.515-2.688-5.783-6.488
		c-0.054-0.058,0-0.175-0.054-0.233H6.169v12.917h0.429v-0.409c0-3.858,0.975-5.144,3.903-5.144c0.884,0,2.099,0.234,3.37,0.643
		l3.922,1.228v12.157l-11.195,3.565v-5.845H6.169v15.548h0.429v-4.91L43.368,122.186z"/>
	<path fill="#FFF200" stroke="#000000" stroke-width="1.3376" stroke-linecap="round" stroke-linejoin="round" d="M25.745,150.783
		v5.136v0.409c0,6.595-2.813,9.403-9.269,9.403c-6.125,0-9.711-3.158-9.711-8.527v-0.584v-5.837H25.745z M42.354,150.783v6.303
		v0.525c0,4.786-2.428,6.829-8.167,6.829c-5.462,0-7.945-2.567-7.945-8.112v-0.525v-5.02H42.354z M42.95,140.584h-0.487v5.669H6.602
		v-5.728H6.169v15.978v0.525c0,2.159,0.163,4.145,0.651,5.953c1.159,4.393,5.076,7.556,9.435,7.556
		c5.462,0,9.159-4.453,9.766-11.757c0.552,5.896,4.249,10.121,8.828,10.121c2.925,0,5.408-1.586,6.898-4.402
		c1.041-1.926,1.204-2.743,1.204-6.069v-0.701V140.584z"/>
	<path fill="#FFF200" stroke="#000000" stroke-width="1.3376" stroke-linecap="round" stroke-linejoin="round" d="M30.689,199.596
		c7.421-0.936,11.778-4.091,11.778-8.474v-0.469v-7.772H26.314v2.454v0.701c0,3.098,3.655,5.729,7.92,5.729h0.388v0.408H17.999
		v-0.408c4.964-0.234,7.723-2.279,7.723-5.729v-0.759v-2.455H6.652v7.246v0.585c0,3.332,1.969,5.903,5.996,7.832
		c2.482,1.169,4.965,1.929,7.337,1.929h0.055h0.386v0.525H6.169v-28.905h0.429v6.078h35.869v-5.902h0.483v27.854H30.689V199.596z"/>
	<path fill="#FFF200" stroke="#000000" stroke-width="1.3376" stroke-linecap="round" stroke-linejoin="round" d="M42.521,219.286
		v-5.669H6.652v5.669c0,4.383,1.806,7.305,5.893,9.352c3.811,1.929,5.027,2.279,9.832,2.747v0.409H6.169v-28.669h0.429v5.961h35.869
		v-5.961h0.483v16.161H42.521z"/>
	<path fill="#FFF200" stroke="#000000" stroke-width="1.3376" stroke-linecap="round" stroke-linejoin="round" d="M42.521,249.677
		v-5.669H6.652v5.669c0,4.384,1.806,7.307,5.893,9.351c3.811,1.929,5.027,2.279,9.832,2.747v0.41H6.169v-28.67h0.429v5.962h35.869
		v-5.962h0.483v16.161H42.521z"/>
	<path fill="#FFF200" stroke="#000000" stroke-width="1.3376" stroke-linecap="round" stroke-linejoin="round" d="M30.689,291.472
		c7.421-0.936,11.778-4.092,11.778-8.475v-0.468v-7.773H26.314v2.454v0.702c0,3.098,3.655,5.727,7.92,5.727h0.388v0.409H17.999
		v-0.409c4.964-0.233,7.723-2.279,7.723-5.727v-0.76v-2.455H6.652v7.247v0.585c0,3.331,1.969,5.902,5.996,7.832
		c2.482,1.168,4.965,1.929,7.337,1.929h0.055h0.386v0.525H6.169V263.91h0.429v6.077h35.869v-5.902h0.483v27.855H30.689V291.472z"/>
	<path fill="#FFF200" stroke="#000000" stroke-width="1.3376" stroke-linecap="round" stroke-linejoin="round" d="M188.179,279.041
		l18.593-6.077v11.806L188.179,279.041z M181.793,276.646v1.169l29.829,9.292l1.105,0.294c4.309,1.11,5.515,2.689,5.782,6.486
		c0.055,0.059,0,0.176,0.055,0.234h0.429v-12.916h-0.429v0.408c0,3.856-0.976,5.143-3.903,5.143c-0.885,0-2.1-0.234-3.37-0.643
		l-3.923-1.229v-12.156l11.196-3.565v5.845h0.429v-15.548h-0.429v4.91L181.793,276.646z"/>
	<path fill="#FFF200" stroke="#000000" stroke-width="1.3376" stroke-linecap="round" stroke-linejoin="round" d="M182.64,225.523
		v1.52c0,2.923,2.468,4.617,6.556,4.617h30.238l-0.056,0.587l-33.386,19.205h25.52h0.331c4.144,0,6.721-2.05,6.721-5.27v-1.405
		h0.429v13.573h-0.429v-0.818c0-3.215-2.688-5.787-6.666-5.435l-0.662,0.059h-26.238c-1.602,0.993-2.304,2.161-2.304,3.798v0.118
		v2.103h-0.482v-10.001l27.975-15.81h-20.99h-0.497c-3.204,0-6.005,1.874-6.005,4.099v0.234v1.581h-0.482v-12.755H182.64z"/>
	<path fill="#FFF200" stroke="#000000" stroke-width="1.3376" stroke-linecap="round" stroke-linejoin="round" d="M182.64,191.098
		v1.52c0,2.922,2.468,4.616,6.556,4.616h30.238l-0.056,0.587l-33.386,19.205h25.52h0.331c4.144,0,6.721-2.05,6.721-5.27v-1.404
		h0.429v13.574h-0.429v-0.819c0-3.214-2.688-5.788-6.666-5.434l-0.662,0.058h-26.238c-1.602,0.994-2.304,2.163-2.304,3.8v0.117
		v2.104h-0.482v-10.003l27.975-15.808h-20.99h-0.497c-3.204,0-6.005,1.872-6.005,4.098v0.234v1.581h-0.482v-12.755H182.64z"/>
	<path fill="#FFF200" stroke="#000000" stroke-width="1.3376" stroke-linecap="round" stroke-linejoin="round" d="M188.179,180.21
		l18.593-6.079v11.808L188.179,180.21z M181.793,177.814v1.169l29.829,9.293l1.105,0.292c4.309,1.109,5.515,2.688,5.782,6.487
		c0.055,0.059,0,0.176,0.055,0.234h0.429v-12.917h-0.429v0.408c0,3.858-0.976,5.144-3.903,5.144c-0.885,0-2.1-0.232-3.37-0.643
		l-3.923-1.227v-12.157l11.196-3.565v5.845h0.429V160.63h-0.429v4.91L181.793,177.814z"/>
	<path fill="#FFF200" stroke="#000000" stroke-width="1.3376" stroke-linecap="round" stroke-linejoin="round" d="M199.416,149.216
		v-5.136v-0.409c0-6.594,2.814-9.403,9.268-9.403c6.125,0,9.712,3.158,9.712,8.528v0.584v5.836H199.416z M182.807,149.216v-6.303
		v-0.525c0-4.785,2.429-6.829,8.167-6.829c5.462,0,7.945,2.568,7.945,8.112v0.525v5.02H182.807z M182.211,159.416h0.488v-5.669
		h35.859v5.727h0.434v-15.977v-0.525c0-2.16-0.162-4.144-0.651-5.954c-1.159-4.393-5.076-7.555-9.435-7.555
		c-5.463,0-9.159,4.453-9.767,11.757c-0.552-5.896-4.248-10.122-8.827-10.122c-2.925,0-5.407,1.585-6.898,4.402
		c-1.041,1.926-1.203,2.744-1.203,6.07v0.701V159.416z"/>
	<path fill="#FFF200" stroke="#000000" stroke-width="1.3376" stroke-linecap="round" stroke-linejoin="round" d="M194.472,100.403
		c-7.421,0.935-11.778,4.092-11.778,8.475v0.468v7.773h16.153v-2.455v-0.702c0-3.098-3.654-5.727-7.92-5.727h-0.388v-0.41h16.623
		v0.41c-4.965,0.233-7.723,2.279-7.723,5.727v0.76v2.454h19.069v-7.247v-0.584c0-3.332-1.968-5.904-5.995-7.832
		c-2.483-1.168-4.966-1.929-7.338-1.929h-0.055h-0.386v-0.526h14.257v28.907h-0.429v-6.079h-35.87v5.903h-0.482V99.936h12.261
		V100.403z"/>
	<path fill="#FFF200" stroke="#000000" stroke-width="1.3376" stroke-linecap="round" stroke-linejoin="round" d="M182.64,80.713
		v5.669h35.869v-5.669c0-4.383-1.805-7.306-5.893-9.351c-3.811-1.929-5.027-2.279-9.832-2.747v-0.41h16.208v28.669h-0.429v-5.961
		h-35.87v5.961h-0.482V80.713H182.64z"/>
	<path fill="#FFF200" stroke="#000000" stroke-width="1.3376" stroke-linecap="round" stroke-linejoin="round" d="M182.64,50.323
		v5.669h35.869v-5.669c0-4.384-1.805-7.306-5.893-9.353c-3.811-1.928-5.027-2.279-9.832-2.747v-0.409h16.208v28.668h-0.429v-5.961
		h-35.87v5.961h-0.482V50.323H182.64z"/>
	<path fill="#FFF200" stroke="#000000" stroke-width="1.3376" stroke-linecap="round" stroke-linejoin="round" d="M194.472,8.528
		c-7.421,0.935-11.778,4.092-11.778,8.474v0.467v7.773h16.153V22.79v-0.702c0-3.098-3.654-5.729-7.92-5.729h-0.388v-0.408h16.623
		v0.408c-4.965,0.234-7.723,2.28-7.723,5.729v0.759v2.455h19.069v-7.247V17.47c0-3.331-1.968-5.902-5.995-7.831
		c-2.483-1.169-4.966-1.929-7.338-1.929h-0.055h-0.386V7.184h14.257v28.906h-0.429v-6.078h-35.87v5.903h-0.482V8.061h12.261V8.528z"
		/>
	<g>
		<path fill="#FFF200" d="M36.982,20.958L18.39,27.036V15.231L36.982,20.958z M43.368,23.354v-1.168L13.54,12.892L12.434,12.6
			C8.126,11.49,6.92,9.911,6.652,6.112c-0.054-0.059,0-0.175-0.054-0.233H6.169v12.916h0.429v-0.41c0-3.857,0.975-5.143,3.903-5.143
			c0.884,0,2.099,0.234,3.37,0.643l3.922,1.227V27.27L6.598,30.835V24.99H6.169v15.548h0.429v-4.91L43.368,23.354z"/>
		<path fill="#FFF200" d="M42.521,74.477v-1.52c0-2.921-2.467-4.617-6.555-4.617H5.728l0.055-0.587l33.386-19.205H13.65h-0.332
			c-4.144,0-6.72,2.049-6.72,5.27v1.406H6.169V41.649h0.429v0.818c0,3.215,2.687,5.788,6.665,5.436l0.663-0.059h26.239
			c1.602-0.994,2.303-2.163,2.303-3.799v-0.117v-2.104h0.483v10.003L14.976,67.637h20.991h0.497c3.204,0,6.004-1.874,6.004-4.1
			v-0.234v-1.581h0.483v12.755H42.521z"/>
		<path fill="#FFF200" d="M42.521,108.901v-1.519c0-2.922-2.467-4.617-6.555-4.617H5.728l0.055-0.587l33.386-19.205H13.65h-0.332
			c-4.144,0-6.72,2.049-6.72,5.269v1.405H6.169V76.074h0.429v0.818c0,3.215,2.687,5.788,6.665,5.436l0.663-0.059h26.239
			c1.602-0.994,2.303-2.162,2.303-3.799v-0.118v-2.104h0.483v10.003l-27.975,15.809h20.991h0.497c3.204,0,6.004-1.874,6.004-4.099
			v-0.234v-1.581h0.483v12.754H42.521z"/>
		<path fill="#FFF200" d="M36.982,119.79l-18.593,6.078v-11.806L36.982,119.79z M43.368,122.186v-1.169l-29.828-9.294l-1.105-0.292
			c-4.309-1.11-5.515-2.688-5.783-6.488c-0.054-0.058,0-0.175-0.054-0.233H6.169v12.917h0.429v-0.409
			c0-3.858,0.975-5.144,3.903-5.144c0.884,0,2.099,0.234,3.37,0.643l3.922,1.228v12.157l-11.195,3.565v-5.845H6.169v15.548h0.429
			v-4.91L43.368,122.186z"/>
		<path fill="#FFF200" d="M25.745,150.783v5.136v0.409c0,6.595-2.813,9.403-9.269,9.403c-6.125,0-9.711-3.158-9.711-8.527v-0.584
			v-5.837H25.745z M42.354,150.783v6.303v0.525c0,4.786-2.428,6.829-8.167,6.829c-5.462,0-7.945-2.567-7.945-8.112v-0.525v-5.02
			H42.354z M42.95,140.584h-0.487v5.669H6.602v-5.728H6.169v15.978v0.525c0,2.159,0.163,4.145,0.651,5.953
			c1.159,4.393,5.076,7.556,9.435,7.556c5.462,0,9.159-4.453,9.766-11.757c0.552,5.896,4.249,10.121,8.828,10.121
			c2.925,0,5.408-1.586,6.898-4.402c1.041-1.926,1.204-2.743,1.204-6.069v-0.701V140.584z"/>
		<path fill="#FFF200" d="M30.689,199.596c7.421-0.936,11.778-4.091,11.778-8.474v-0.469v-7.772H26.314v2.454v0.701
			c0,3.098,3.655,5.729,7.92,5.729h0.388v0.408H17.999v-0.408c4.964-0.234,7.723-2.279,7.723-5.729v-0.759v-2.455H6.652v7.246v0.585
			c0,3.332,1.969,5.903,5.996,7.832c2.482,1.169,4.965,1.929,7.337,1.929h0.055h0.386v0.525H6.169v-28.905h0.429v6.078h35.869
			v-5.902h0.483v27.854H30.689V199.596z"/>
		<path fill="#FFF200" d="M42.521,219.286v-5.669H6.652v5.669c0,4.383,1.806,7.305,5.893,9.352c3.811,1.929,5.027,2.279,9.832,2.747
			v0.409H6.169v-28.669h0.429v5.961h35.869v-5.961h0.483v16.161H42.521z"/>
		<path fill="#FFF200" d="M42.521,249.677v-5.669H6.652v5.669c0,4.384,1.806,7.307,5.893,9.351c3.811,1.929,5.027,2.279,9.832,2.747
			v0.41H6.169v-28.67h0.429v5.962h35.869v-5.962h0.483v16.161H42.521z"/>
		<path fill="#FFF200" d="M30.689,291.472c7.421-0.936,11.778-4.092,11.778-8.475v-0.468v-7.773H26.314v2.454v0.702
			c0,3.098,3.655,5.727,7.92,5.727h0.388v0.409H17.999v-0.409c4.964-0.233,7.723-2.279,7.723-5.727v-0.76v-2.455H6.652v7.247v0.585
			c0,3.331,1.969,5.902,5.996,7.832c2.482,1.168,4.965,1.929,7.337,1.929h0.055h0.386v0.525H6.169V263.91h0.429v6.077h35.869v-5.902
			h0.483v27.855H30.689V291.472z"/>
		<path fill="#FFF200" d="M188.179,279.041l18.593-6.077v11.806L188.179,279.041z M181.793,276.646v1.169l29.829,9.292l1.105,0.294
			c4.309,1.11,5.515,2.689,5.782,6.486c0.055,0.059,0,0.176,0.055,0.234h0.429v-12.916h-0.429v0.408
			c0,3.856-0.976,5.143-3.903,5.143c-0.885,0-2.1-0.234-3.37-0.643l-3.923-1.229v-12.156l11.196-3.565v5.845h0.429v-15.548h-0.429
			v4.91L181.793,276.646z"/>
		<path fill="#FFF200" d="M182.64,225.523v1.52c0,2.923,2.468,4.617,6.556,4.617h30.238l-0.056,0.587l-33.386,19.205h25.52h0.331
			c4.144,0,6.721-2.05,6.721-5.27v-1.405h0.429v13.573h-0.429v-0.818c0-3.215-2.688-5.787-6.666-5.435l-0.662,0.059h-26.238
			c-1.602,0.993-2.304,2.161-2.304,3.798v0.118v2.103h-0.482v-10.001l27.975-15.81h-20.99h-0.497c-3.204,0-6.005,1.874-6.005,4.099
			v0.234v1.581h-0.482v-12.755H182.64z"/>
		<path fill="#FFF200" d="M182.64,191.098v1.52c0,2.922,2.468,4.616,6.556,4.616h30.238l-0.056,0.587l-33.386,19.205h25.52h0.331
			c4.144,0,6.721-2.05,6.721-5.27v-1.404h0.429v13.574h-0.429v-0.819c0-3.214-2.688-5.788-6.666-5.434l-0.662,0.058h-26.238
			c-1.602,0.994-2.304,2.163-2.304,3.8v0.117v2.104h-0.482v-10.003l27.975-15.808h-20.99h-0.497c-3.204,0-6.005,1.872-6.005,4.098
			v0.234v1.581h-0.482v-12.755H182.64z"/>
		<path fill="#FFF200" d="M188.179,180.21l18.593-6.079v11.808L188.179,180.21z M181.793,177.814v1.169l29.829,9.293l1.105,0.292
			c4.309,1.109,5.515,2.688,5.782,6.487c0.055,0.059,0,0.176,0.055,0.234h0.429v-12.917h-0.429v0.408
			c0,3.858-0.976,5.144-3.903,5.144c-0.885,0-2.1-0.232-3.37-0.643l-3.923-1.227v-12.157l11.196-3.565v5.845h0.429V160.63h-0.429
			v4.91L181.793,177.814z"/>
		<path fill="#FFF200" d="M199.416,149.216v-5.136v-0.409c0-6.594,2.814-9.403,9.268-9.403c6.125,0,9.712,3.158,9.712,8.528v0.584
			v5.836H199.416z M182.807,149.216v-6.303v-0.525c0-4.785,2.429-6.829,8.167-6.829c5.462,0,7.945,2.568,7.945,8.112v0.525v5.02
			H182.807z M182.211,159.416h0.488v-5.669h35.859v5.727h0.434v-15.977v-0.525c0-2.16-0.162-4.144-0.651-5.954
			c-1.159-4.393-5.076-7.555-9.435-7.555c-5.463,0-9.159,4.453-9.767,11.757c-0.552-5.896-4.248-10.122-8.827-10.122
			c-2.925,0-5.407,1.585-6.898,4.402c-1.041,1.926-1.203,2.744-1.203,6.07v0.701V159.416z"/>
		<path fill="#FFF200" d="M194.472,100.403c-7.421,0.935-11.778,4.092-11.778,8.475v0.468v7.773h16.153v-2.455v-0.702
			c0-3.098-3.654-5.727-7.92-5.727h-0.388v-0.41h16.623v0.41c-4.965,0.233-7.723,2.279-7.723,5.727v0.76v2.454h19.069v-7.247v-0.584
			c0-3.332-1.968-5.904-5.995-7.832c-2.483-1.168-4.966-1.929-7.338-1.929h-0.055h-0.386v-0.526h14.257v28.907h-0.429v-6.079h-35.87
			v5.903h-0.482V99.936h12.261V100.403z"/>
		<path fill="#FFF200" d="M182.64,80.713v5.669h35.869v-5.669c0-4.383-1.805-7.306-5.893-9.351
			c-3.811-1.929-5.027-2.279-9.832-2.747v-0.41h16.208v28.669h-0.429v-5.961h-35.87v5.961h-0.482V80.713H182.64z"/>
		<path fill="#FFF200" d="M182.64,50.323v5.669h35.869v-5.669c0-4.384-1.805-7.306-5.893-9.353
			c-3.811-1.928-5.027-2.279-9.832-2.747v-0.409h16.208v28.668h-0.429v-5.961h-35.87v5.961h-0.482V50.323H182.64z"/>
		<path fill="#FFF200" d="M194.472,8.528c-7.421,0.935-11.778,4.092-11.778,8.474v0.467v7.773h16.153V22.79v-0.702
			c0-3.098-3.654-5.729-7.92-5.729h-0.388v-0.408h16.623v0.408c-4.965,0.234-7.723,2.28-7.723,5.729v0.759v2.455h19.069v-7.247
			V17.47c0-3.331-1.968-5.902-5.995-7.831c-2.483-1.169-4.966-1.929-7.338-1.929h-0.055h-0.386V7.184h14.257v28.906h-0.429v-6.078
			h-35.87v5.903h-0.482V8.061h12.261V8.528z"/>
	</g>
</g>
<g id="stars">
	<polygon fill="#FFF200" stroke="#000000" stroke-width="0.6688" stroke-linecap="round" stroke-linejoin="round" points="
		130.092,22.146 133.254,31.877 143.485,31.877 135.208,37.892 138.37,47.623 130.092,41.608 121.813,47.624 124.976,37.892 
		116.696,31.878 126.93,31.877 	"/>
	<polygon fill="#FFF200" stroke="#000000" stroke-width="0.6688" stroke-linecap="round" stroke-linejoin="round" points="
		75.246,10.577 78.616,15.176 84.031,13.394 80.698,18.019 84.067,22.618 78.638,20.878 75.305,25.503 75.282,19.802 69.853,18.062 
		75.268,16.278 	"/>
	<polygon fill="#FFF200" stroke="#000000" stroke-width="0.6688" stroke-linecap="round" stroke-linejoin="round" points="
		95.866,51.917 98.823,56.504 104.099,55.108 100.651,59.339 103.609,63.925 98.521,61.953 95.073,66.183 95.376,60.734 
		90.287,58.763 95.562,57.366 	"/>
	<polygon fill="#FFF200" stroke="#000000" stroke-width="0.6688" stroke-linecap="round" stroke-linejoin="round" points="
		89.99,23.424 92.924,25.61 95.91,23.494 94.738,26.96 97.673,29.146 94.014,29.103 92.843,32.569 91.753,29.077 88.095,29.033 
		91.08,26.918 	"/>
	<polygon fill="#FFF200" stroke="#000000" stroke-width="0.6688" stroke-linecap="round" stroke-linejoin="round" points="
		171.419,62.302 167.358,68.578 172.071,74.379 164.848,72.456 160.786,78.731 160.383,71.267 153.16,69.343 160.134,66.654 
		159.73,59.189 164.445,64.991 	"/>
	<polygon fill="#FFF200" stroke="#000000" stroke-width="0.6688" stroke-linecap="round" stroke-linejoin="round" points="
		71.853,60.005 73.376,65.857 79.414,66.217 74.318,69.476 75.842,75.329 71.168,71.49 66.072,74.747 68.28,69.117 63.606,65.276 
		69.644,65.636 	"/>
	<polygon fill="#FFF200" stroke="#000000" stroke-width="0.6688" stroke-linecap="round" stroke-linejoin="round" points="
		66.509,22.148 68.251,31.149 77.349,32.274 69.327,36.711 71.068,45.712 64.369,39.455 56.347,43.892 60.228,35.586 53.528,29.329 
		62.627,30.453 	"/>
	<polygon fill="#FFF200" stroke="#000000" stroke-width="0.6688" stroke-linecap="round" stroke-linejoin="round" points="
		171.184,19.275 166.977,26.892 172.922,33.247 164.378,31.6 160.172,39.217 159.097,30.582 150.552,28.935 158.433,25.245 
		157.358,16.61 163.303,22.964 	"/>
	<polygon fill="#FFF200" stroke="#000000" stroke-width="0.6688" stroke-linecap="round" stroke-linejoin="round" points="
		54.04,82.252 59.554,87.16 65.927,83.433 62.963,90.194 68.477,95.103 61.131,94.373 58.167,101.134 56.59,93.922 49.243,93.192 
		55.615,89.463 	"/>
	<polygon fill="#FFF200" stroke="#000000" stroke-width="0.6688" stroke-linecap="round" stroke-linejoin="round" points="
		106.061,14.305 107.787,15.991 109.923,14.871 108.853,17.032 110.579,18.719 108.192,18.369 107.122,20.531 106.717,18.154 
		104.33,17.804 106.466,16.684 	"/>
	<polygon fill="#FFF200" stroke="#000000" stroke-width="0.6688" stroke-linecap="round" stroke-linejoin="round" points="
		153.372,48.89 153.583,50.292 154.981,50.525 153.713,51.159 153.923,52.561 152.93,51.551 151.66,52.185 152.313,50.926 
		151.319,49.916 152.718,50.148 	"/>
	<polygon fill="#FFF200" stroke="#000000" stroke-width="0.6688" stroke-linecap="round" stroke-linejoin="round" points="
		61.114,55.349 61.067,56.651 62.291,57.097 61.039,57.455 60.991,58.757 60.264,57.675 59.011,58.033 59.814,57.008 59.087,55.927 
		60.311,56.374 	"/>
	<polygon fill="#FFF200" stroke="#000000" stroke-width="0.6688" stroke-linecap="round" stroke-linejoin="round" points="
		100.293,16.034 100.17,16.188 100.28,16.353 100.095,16.284 99.972,16.439 99.98,16.241 99.795,16.172 99.986,16.119 
		99.994,15.922 100.103,16.086 	"/>
	<g>
		<path fill="none" stroke="#FFF200" stroke-width="0.6688" stroke-linecap="round" stroke-linejoin="round" d="M177.455,220.614
			c-0.461-0.73-1.421-2.419-1.421-2.419s0.038-0.347,0.384-0.614c0.346-0.27,0.808-0.538,0.808-0.538s-0.653-1.191-0.653-1.689
			c0-0.498,0-1.884,0-1.884l-0.46-0.921c0,0-1.729-0.96-2.919-1.613c-1.189-0.652-3.071-1.189-3.071-1.189s-0.614-0.96-0.691-1.306
			c-0.076-0.345-0.499-1.152-0.844-1.573c-0.346-0.424-1.382-1.271-1.958-1.962c-0.577-0.691-1.651-1.42-2.458-1.728
			c-0.806-0.308-2.191-0.537-3.035-0.5c-0.845,0.04-2.266,0.309-2.266,0.309s-0.576-0.423-0.652-0.692
			c-0.076-0.268-0.384-0.844-0.384-0.844s-3.417-1.535-5.299-2.61c-1.881-1.075-5.186-2.883-7.489-3.727
			c-2.304-0.844-3.993-1.65-5.913-2.303c-1.919-0.653-3.954-1.268-3.954-1.268s-0.883-1.879-2.266-3.57
			c-1.382-1.692-2.767-3.535-4.226-5.186c-1.458-1.651-2.765-3.376-4.07-4.531c-1.305-1.154-1.995-1.807-1.995-1.807l0.499-3.917
			c0,0,2.034-2.032,3.071-3.146c1.037-1.117,3.035-3.267,3.65-4.266c0.613-0.997,1.689-2.649,1.689-2.649l0.883-0.384
			c0,0-1.459,2.688-2.265,3.725c-0.807,1.037-2.652,3.458-2.652,3.458s3.574-2.46,4.495-3.42c0.085-0.089,0.212-0.241,0.37-0.442
			c0.747-0.17,1.71-0.38,1.71-0.38s0.061,0.187-0.187,0.555c-0.247,0.367-0.49,0.74-0.49,0.74s0.86,0.06,1.478-0.37
			s1.105-1.538,1.105-1.538s0.493-0.062,0.801-0.248c0.308-0.186,0.861-0.613,0.861-0.613l-0.491,0.984c0,0,0.554-0.185,0.922-0.371
			c0.367-0.186,0.924-1.784,0.924-1.784l0.06,1.294l0.741-0.311l-0.431,2.834c0,0,0.675-0.925,1.107-1.847
			c0.434-0.921,0.861-0.123,0.861-0.123l0.431,0.921l0.491-0.984c0,0-0.123,0.861-0.184,1.357c-0.06,0.493,0.124,1.106,0.124,1.106
			s0.431-0.801,0.738-1.23c0.307-0.431,0.493-1.108,0.737-1.723c0.243-0.614,1.047-0.925,1.047-0.925s-0.059,1.048-0.059,1.602
			c0,0.555,0.798,1.046,0.798,1.046s-0.184-1.292-0.059-1.846c0.122-0.555,0.921-2.34,1.291-3.077
			c0.37-0.738,1.168-2.463,1.479-3.324c0.31-0.861,0.43-2.709,0.49-3.447c0.061-0.738,0.737-2.709,0.737-2.709l0.434,0.187
			l-0.123-0.862l0.554-1.354c0,0,0.798,2.093,0.922,2.4c0.123,0.308-0.124,1.414-0.124,1.414s-0.491,1.108-0.737,1.479
			c-0.247,0.371-1.723,1.97-1.723,1.97s1.662-0.554,2.217-1.231c0.554-0.677,0.737-1.476,0.737-1.476s0,0.615,0.123,1.291
			c0.124,0.679-0.307,2.584-0.307,2.584s0,0,0.431-0.675c0.43-0.675,0.49-1.909,0.49-1.909l0.555,0.432c0,0,0.614-2.707,0.737-3.323
			c0.123-0.618,1.418-0.738,1.418-0.738s0.797,1.722,0.921,2.152c0.124,0.431,0,0.74-0.184,1.048
			c-0.162,0.271-1.188,0.494-1.428,0.544c0.099,0.001,0.373,0.026,1.12,0.133c1.295,0.187,2.029-0.553,2.029-0.553
			s0.124-1.54,0-2.464c-0.122-0.924-0.49-1.968-0.49-1.968l1.045,0.184l0.614-0.678l0.493,0.801l0.738-0.184v-0.925
			c0,0,0.123-0.124,0.678-0.307c0.554-0.183,0.924,0.124,0.924,0.124v-0.554c0,0,0.367-0.493,0.613-0.8
			c0.248-0.308,0.371-0.924,0.371-0.924l0.308,1.046c0,0,0.307-0.431,0.307-1.17c0-0.741-0.06-1.168-0.06-1.168l1.167,1.415
			c0,0-0.308-1.044-0.554-1.722c-0.247-0.677-0.984-1.785-0.984-1.785l0.494-0.37l-0.801-0.861c0,0,0.247-0.061,0.801-0.061
			s1.044-0.186,1.044-0.186s-1.722-1.599-2.339-2.029c-0.575-0.401-1.307-1.444-1.403-1.585c0.03,0.04,0.141,0.157,0.482,0.354
			c0.43,0.246,0.801,0.307,0.801,0.307s-0.555-1.538-0.865-2.339c-0.309-0.8-1.168-2.459-1.168-2.459l0.555,0.554
			c0,0,0.061-0.494,0-0.987c-0.061-0.494-0.614-1.414-0.614-1.414s0.059-0.985-0.124-2.093c-0.184-1.107-1.294-3.877-1.294-3.877
			l0.678-1.416c0,0,0.493,1.048,1.478,2.399c0.984,1.353,2.093,5.417,2.093,5.417s-0.984-5.17-1.231-6.524
			c-0.247-1.354-1.415-4.122-1.415-4.122l0.738-1.602l1.107,1.231c0,0-0.184-0.985-0.614-1.599
			c-0.431-0.614-2.279-2.278-2.279-2.278l2.957-1.722c0,0-1.108-2.156-1.849-3.201c-0.74-1.045-2.336-2.279-2.336-2.279l1.414-0.921
			l1.723,1.909c0,0-0.061-0.554-0.37-1.171c-0.311-0.617-0.984-1.108-0.984-1.108l0.123-0.983l-0.801,0.37l-0.674-0.617l1.537-0.737
			l0.678,0.123c0,0,2.276,2.399,2.891,3.137c0.615,0.737,0.861,1.663,0.861,1.663s0.062-1.229-0.491-2.153
			c-0.555-0.924-3.2-3.324-3.2-3.324l2.523-0.493l-3.138,0.124c0,0-4.248-3.568-5.479-4.492c-1.232-0.924-3.755-3.017-3.755-3.017
			l0.617-0.738l-1.603,0.678l-0.243-1.538l1.045-0.617l-1.723-0.184l0.921-1.415c0,0,1.909,0.678,3.078,1.168
			c1.167,0.492,4.615,2.463,5.416,3.263c0.801,0.801,2.092,3.324,2.092,3.324s-0.614-2.278-1.415-3.324
			c-0.801-1.044-5.847-4.925-7.692-6.157c-1.846-1.231-2.646-1.292-2.646-1.292l-1.168-1.538c0,0,0.614,0.184,0.984,0.431
			c0.371,0.246,1.108,0.861,1.108,0.861s-0.555-1.168-0.925-1.599c-0.37-0.43-1.045-0.493-1.045-0.493s-0.984-2.523-1.417-2.892
			c-0.434-0.367-1.168-0.246-1.168-0.246s-0.985-2.279-1.169-2.71c-0.184-0.43-1.047-1.168-1.047-1.168s2.646-2.155,3.139-2.4
			c0.494-0.244,2.094,0.431,3.077,0.491c0.984,0.061,3.814-0.614,3.814-0.614s-2.646,0.184-3.63,0.184
			c-0.984,0-2.4-0.553-3.384-0.43c-0.985,0.123-3.385,2.338-3.385,2.338s-1.418-2.155-1.972-2.833
			c-0.555-0.677-2.152-1.599-2.152-1.599s-0.615-1.171-0.862-1.968c-0.246-0.798-0.924-1.415-0.924-1.415s1.295-3.08,3.017-3.14
			c1.722-0.061,5.97,2.83,5.97,2.83s-3.139-2.953-5.846-3.2c-2.707-0.247-3.384,2.832-3.384,2.832s-2.587-1.785-3.632-2.339
			c-1.045-0.553-3.754-1.354-3.754-1.354l0.737-0.554c0,0-4.245-0.06-4.862-0.06c-0.617,0-1.23,0.49-1.23,0.49
			s-1.292-0.124-1.723-0.06c-0.431,0.062-1.909,0.307-1.909,0.307s-2.276-0.061-2.83,0c-0.554,0.06-1.168,0.37-1.168,0.37
			s-1.602,0.061-2.278,0.061c-0.678,0-2.4,0.307-2.4,0.307l-2.153,0.801c0,0-1.846-0.185-3.077-0.247
			c-1.231-0.063-3.2,0.431-3.2,0.431s-1.723-0.061-2.523,0.062c-0.8,0.124-2.216,1.231-2.216,1.231s-0.491,0.368-2.153,0.615
			c-1.662,0.246-3.57,1.661-3.57,1.661s1.108-0.554,2.276-1.044c1.168-0.491,3.14-0.493,3.14-0.493l0.37,0.737
			c0,0-1.662,0.677-2.463,1.048c-0.8,0.37-2.706,1.599-2.706,1.599s-1.108,0.124-1.786,0.246c-0.677,0.124-3.63,1.602-3.63,1.602
			s1.599-0.493,2.399-0.8c0.8-0.307,2.523-0.183,2.523-0.183s-0.371,0.367-0.924,0.797c-0.554,0.43-0.984,1.294-0.984,1.294
			s-0.799,0.184-1.415,0.554c-0.617,0.37-1.416,1.415-1.416,1.415s-1.908,0.615-5.476,2.093c-3.568,1.479-5.6,4.245-6.585,5.723
			c-0.984,1.479-2.155,5.847-2.155,5.847s-1.846,1.602-3.321,3.264c-1.476,1.661-2.586,7.629-2.586,7.629s-0.678-0.491-0.985-0.798
			c-0.307-0.307-1.168-0.617-1.168-0.617l0.244,0.617l-1.846-0.371l2.216,1.232l1.539,3.26c0,0-0.247,0.31-0.491,0.864
			c-0.244,0.554-0.864,3.998-0.864,3.998l1.355-3.2c0,0-0.06,0.37-0.06,0.677c0,0.307,0.43,1.602,0.554,1.909
			c0.123,0.307-0.124,1.354-0.124,1.354s-2.156,1.846-2.646,2.461c-0.491,0.614-1.601,3.63-1.601,3.63s1.294-2.46,1.785-3.137
			c0.491-0.678,2.4-1.725,2.4-1.725s0,0.187-0.367,1.478c-0.368,1.292-0.864,2.83-1.295,3.694c-0.431,0.864-1.599,3.445-1.599,3.445
			l0.924-0.368v0.738l1.415-2.217c0,0-1.294,2.955-1.662,3.878c-0.367,0.924-0.984,2.83-1.725,4.124
			c-0.74,1.294-1.168,3.2-1.168,3.2h0.924c0,0-0.431,0.8-0.984,1.785c-0.554,0.985-1.969,4.062-1.969,4.062l0.798,0.184
			c0,0-0.368,1.292-0.738,2.093c-0.37,0.8-1.415,1.414-1.415,1.414l0.368,0.864l0.801-0.31l0.307,0.924l1.047-0.431l0.247,0.554
			l0.491-0.124l0.431,0.861l0.861-0.123l0.677,0.431c0,0,0.678-0.922,1.355-1.6c0.677-0.677,1.478-0.861,1.478-0.861l-0.187,5.477
			l1.539-1.416l0.617,1.355l-0.123,1.476l0.677-0.368l0.675,1.108l-0.491-2.586l0.37,0.371l-0.247-1.415l0.614,0.183l0.371-0.554
			l0.801,1.355l0.737-1.048l0.677,0.925l0.922-0.678l0.247,1.292l0.801-0.124l0.861,1.294l0.307-0.369l0.184,2.092l0.494-2.032
			l0.554,0.187l1.6,3.878l0.062-0.801l0.124-0.678l0.431-0.063l0.247-0.49l0.861,0.184l0.431-2.093l0.737-1.231l0.494,1.295
			l0.06,2.707l0.063,1.479l0.308,1.168l-0.371,3.446l0.614-0.614l0.434,3.015l0.06-1.539l0.801,2.71l0.431-2.832l0.307,3.198
			l0.307-2.029l1.352,4.178l-0.41,1.349c0,0-1.267,0.5-2.342,0.5c-1.076,0-2.995-0.539-2.995-0.539s-1.77,0.344-2.422,0.923
			c-0.653,0.577-1.882,2.881-2.917,4.493c-1.037,1.613-2.803,3.882-4.147,5.916c-1.344,2.035-2.611,4.3-3.455,4.876
			c-0.845,0.576-2.339,0.613-4.07,0.807c-1.73,0.192-6.491,0.649-9.562,1.535c-3.071,0.886-7.531,1.618-7.531,1.618v104.088h131.985
			v-67.888C178.571,223.867,177.916,221.344,177.455,220.614z M161.314,146.532c-0.081,0.296-0.336,0.589-0.336,0.589l-0.59-1.223
			l0.883-0.252C161.271,145.646,161.397,146.235,161.314,146.532z M160.809,145.056l-0.672,0.253l-0.212-0.758L160.809,145.056z
			 M159.291,119.366c0.209,0.167,0.719,1.053,0.719,1.053s-0.255,0.589-0.381,0.885c-0.127,0.296,0.085-0.126-0.127-0.633
			c-0.211-0.507-0.504-1.517-0.504-1.517S159.083,119.199,159.291,119.366z M153.647,108.334l-0.167-1.687
			c0,0,0.966,0.419,1.725,0.716c0.759,0.296,1.729,0.927,1.729,0.927l-1.392,1.054c0,0-0.549-0.505-1.053-0.716
			C153.984,108.416,153.647,108.334,153.647,108.334z M154.744,111.363l-0.76-1.895c0,0,1.051,0.338,1.433,0.675
			c0.381,0.338,0.589,0.378,0.589,0.378L154.744,111.363z M155.713,128.21c-0.086-0.716,0.085-1.009,0.126-1.768
			c0.041-0.76,0-2.526,0-2.526s0.379,0.545,0.63,1.009c0.253,0.463,0.761,1.727,0.761,1.727l-1.18,2.737
			C156.05,129.389,155.798,128.925,155.713,128.21z M159.039,130.654c0.167,0.548-0.126,2.737-0.126,2.737s-0.337-0.631-0.716-1.094
			c-0.379-0.463-1.264-2.443-1.264-2.443l0.841-1.896C157.774,127.957,158.872,130.105,159.039,130.654z M156.807,122.147
			l0.17-0.212c0,0-0.043-0.211-0.211-0.675c-0.167-0.463,0.338-1.81,0.338-1.81s0.801,1.054,0.927,1.517
			c0.125,0.463,0.125,0.59,0.082,1.558c-0.044,0.968,0.126,1.684,0.126,1.684L156.807,122.147z M160.01,114.06l1.262,2.021
			l-2.484,0.507l-0.379-0.382c0,0,1.009-1.22,1.221-1.599C159.84,114.23,160.01,114.06,160.01,114.06z M158.534,112.249
			c0,0,0.59,0.505,0.632,1.053c0.04,0.548-1.348,2.358-1.348,2.358s0.253-1.602,0.505-2.232
			C158.576,112.798,158.534,112.249,158.534,112.249z M157.859,112.124l-0.756,2.314c0,0-0.127,0.126-0.508-0.127
			c-0.382-0.252-1.305-2.062-1.305-2.062l1.39-1.012c0,0,0.423,0.211,0.76,0.379C157.777,111.783,157.859,112.124,157.859,112.124z
			 M158.03,109.176l-1.013,1.094l-0.886-0.59l1.391-0.968L158.03,109.176z M151.33,100.498l3.286,2.526l-3.286-1.895V100.498z
			 M154.449,103.743c1.39,0.886,4.801,3.283,4.801,3.283l-1.643,0.673c0,0-1.349-0.715-1.854-1.008
			c-0.505-0.293-2.274-0.8-2.274-0.8l-0.17-0.76c0,0-0.294-0.338-0.505-0.842c-0.211-0.505-0.886-0.927-0.886-0.927l-0.843-1.517
			C151.077,101.845,153.058,102.857,154.449,103.743z M150.109,93.549l3.538,2.569l-3.708-2.021L150.109,93.549z M149.858,94.644
			l3.032,1.431l-3.159-1.22L149.858,94.644z M148.719,92.793c0.379,0.125,0.886,0.42,0.886,0.42l-0.295,0.504l-1.265-0.293
			l-0.167-0.675C147.878,92.748,148.342,92.666,148.719,92.793z M148.215,93.887l0.969,0.377l-0.632,1.138l-0.674-1.306
			L148.215,93.887z M67.479,109.943c0,0-0.343-1.274-0.442-1.716c-0.099-0.441-0.293-1.08-0.293-1.08l0.343,0.589l0.293-0.392
			c0,0,0.148,0.784,0.148,1.519C67.529,109.598,67.479,109.943,67.479,109.943z M141.055,158.702
			c0.212,0.253,0.167,0.761-0.045,1.18c-0.21,0.42-0.463,0.716-0.463,0.716s-0.211-0.337-0.379-0.546
			c-0.167-0.208-0.21-0.633-0.21-0.633s0.169-0.42,0.296-0.59C140.38,158.66,140.843,158.45,141.055,158.702z M74.294,93.369
			c0.343-0.784,0.537-2.21,1.028-1.816c0.491,0.395,0.297,0.54,0.541,1.032c0.244,0.49,0.293,1.324,0.293,1.324
			s-0.637,0.541-1.127,0.834c-0.491,0.294-1.42,0.834-1.42,0.834S73.951,94.153,74.294,93.369z M71.058,100.724
			c0.244-0.491,0.932-1.42,0.932-1.42s-0.003,0.781-0.296,1.372c-0.293,0.589-0.392,1.176-0.392,1.176
			S70.814,101.215,71.058,100.724z M68.557,107.588c0,0,0.441-3.529,0.784-4.462c0.343-0.932,1.325-2.745,1.325-2.745
			s-0.442,2.255-0.686,3.088C69.736,104.303,68.557,107.588,68.557,107.588z M70.863,144.804c-0.148,1.177-0.296,2.013-0.346,2.257
			c-0.049,0.243-0.096,0.833-0.096,0.833l-0.392,0.636l-0.441-0.194c0,0-0.25-0.932-0.296-2.059
			c-0.046-1.127-0.046-2.942-0.046-2.942l-0.541-0.05c0,0,0.343-0.781,0.735-1.029c0.392-0.246,1.127-0.688,1.127-0.688
			S71.012,143.628,70.863,144.804z M75.128,100.724c-0.343,0.883-0.639,1.47-0.883,2.109c-0.244,0.639-0.785,2.501-1.177,3.628
			c-0.392,1.127-1.667,3.335-1.667,3.335s-0.049-0.148-0.099-0.834c-0.049-0.686,0.099-1.912,0.099-1.912s-0.049,0.294-0.244,0.637
			c-0.194,0.343-0.54,3.285-0.54,3.285s-0.392-1.423-0.294-2.402c0.099-0.98,0.491-2.208,0.491-2.208s0.441-0.195,0.93-1.763
			c0.488-1.569,3.971-5.691,3.971-5.691S75.47,99.84,75.128,100.724z M74.245,98.42c-0.735,0.982-2.403,2.989-2.403,2.989
			s0.54-1.47,0.834-2.205c0.294-0.736,1.127-1.667,1.961-2.601c0.833-0.932,2.451-1.325,2.451-1.325S74.979,97.438,74.245,98.42z
			 M85.129,84.543l-1.176,0.441c0,0,0.049,0-0.982,0.488c-1.031,0.488-2.01,1.963-2.01,1.963s0.784-0.441,1.569-0.883
			c0.784-0.441,2.108-1.031,2.108-1.031s-0.491,0.883-0.784,1.127c-0.293,0.244-0.392,0.49-0.735,0.883
			c-0.343,0.392-0.735,0.148-0.981,0.392c-0.248,0.244-0.686,0.491-1.029,0.833c-0.343,0.343-1.717,1.032-1.717,1.032l0.784,0.537
			l-1.028,0.59l0.636,0.244c0,0-0.441,0.833-0.883,1.423c-0.442,0.589-2.01,0.883-2.01,0.883s-0.488-0.735-0.686-1.226
			c-0.197-0.491-0.195-0.883,0-1.717c0.195-0.833,0.982-1.568,1.52-2.303c0.537-0.734,2.698-2.208,3.529-2.797
			c0.83-0.59,4.267-1.618,4.267-1.618L85.129,84.543z M86.448,166.156l0.093-0.504l0.023,0.12L86.448,166.156z"/>
		<path fill="none" stroke="#FFF200" stroke-width="0.6688" stroke-linecap="round" stroke-linejoin="round" d="M154.257,154.935
			c0,0,0.018-0.004,0.05-0.01C154.234,154.924,154.257,154.935,154.257,154.935z"/>
	</g>
</g>
</svg>
