<?xml version="1.0" encoding="utf-8"?>
<!-- Generator: Adobe Illustrator 17.0.0, SVG Export Plug-In . SVG Version: 6.00 Build 0)  -->
<!DOCTYPE svg PUBLIC "-//W3C//DTD SVG 1.1//EN" "http://www.w3.org/Graphics/SVG/1.1/DTD/svg11.dtd">
<svg version="1.1" xmlns="http://www.w3.org/2000/svg" xmlns:xlink="http://www.w3.org/1999/xlink" x="0px" y="0px"
	 width="468.215px" height="624.423px" viewBox="0 0 468.215 624.423" enable-background="new 0 0 468.215 624.423"
	 xml:space="preserve">
<g id="border">
</g>
<g id="main">
	<rect x="0" y="0" fill="#FFFFFF" stroke="#000000" width="468.215" height="624.423"/>
	<rect x="73.964" y="544.611" width="320.428" height="13.017"/>
	<g>
		<polygon points="333.991,319.426 339.675,371.928 342.453,313.568 		"/>
		<g>
			<path d="M363.4,241.697c0.022-0.7,0.044-1.4,0.069-2.1l44.938,17.518l-39.547-65.404c0.014-0.745,0.017-1.486,0.011-2.224
				l35.63-15.162l-41.199-8.38c-0.364-0.845-0.714-1.666-1.048-2.459l22.721-8.687l-49.699-29.157
				c-0.567-0.865-1.401-1.932-2.631-3.257c-1.774-1.91-3.737-3.435-5.676-4.816l4.895-24.473l-27.149,6.961
				c-0.509-0.278-1.026-0.554-1.549-0.827l45.88-43.624l-98.22,31.252c-2.023,0.038-3.856,0.042-5.505,0.017l-6.402-15.648
				l-6.248,11.716l1.562-24.993l-44.178,34.065c-11.797,4.245-14.374,9.965-17.914,12.797c-1.085,0.868-1.959,1.344-2.764,1.755
				l-0.751-33.777l-9.372,44.519l-10.154-24.212l5.671,42.85c-0.602,3.52-1.98,4.799-0.595,7.918
				c1.562,3.515,3.124,5.077,3.124,5.077s2.734-8.591,8.982-10.154c6.248-1.562,11.325,5.077,11.325,5.077
				s6.639-12.887,27.336-12.106c20.698,0.781,22.65,1.953,32.023,5.077c9.372,3.124,16.792,2.734,21.479,9.372
				c4.686,6.639,4.296,16.792,3.515,24.603c-0.781,7.81,1.953,7.42,4.686,12.497c2.734,5.077-1.757,5.272,5.858,13.668
				c7.615,8.396,8.982,26.555,12.106,32.804c3.124,6.248-2.343,2.343,7.029,9.763c9.372,7.42,11.716,12.887,15.621,12.106
				c3.905-0.781,14.985-11.558,15.17-24.84c0.093-6.718-6.074-22.303-6.074-22.303s7.102-1.44,15.578,9.122
				c7.143,8.902,4.985,28.014,2.057,33.481c-6.37,11.89-2.397,21.387-6.318,26.314c-3.591,4.513-11.82,9.077-11.82,9.077
				s1.953,0,4.686,12.106c2.734,12.106,2.734,21.088,3.515,22.65c0.591,1.181,6.091,3.031,10.259,3.357l4.017-1.837l4.125-3.842
				c0.769-1.657,1.39-3.515,1.823-5.359l20.39,23.303l-7.029-60.531l19.526,1.953L363.4,241.697z"/>
			
				<linearGradient id="SVGID_1_" gradientUnits="userSpaceOnUse" x1="1341.6028" y1="1371.7301" x2="1336.1029" y2="1356.4801" gradientTransform="matrix(0.781 0 0 0.781 -792.7795 -838.7084)">
				<stop  offset="0.0854" style="stop-color:#FFFFFF"/>
				<stop  offset="0.2584" style="stop-color:#FCFCFC"/>
				<stop  offset="0.39" style="stop-color:#F2F2F2"/>
				<stop  offset="0.5079" style="stop-color:#E2E2E2"/>
				<stop  offset="0.6179" style="stop-color:#CBCBCB"/>
				<stop  offset="0.7223" style="stop-color:#ADADAD"/>
				<stop  offset="0.8226" style="stop-color:#898989"/>
				<stop  offset="0.9176" style="stop-color:#5E5E5E"/>
				<stop  offset="1" style="stop-color:#333333"/>
			</linearGradient>
			<path fill="url(#SVGID_1_)" d="M286.369,217.087l-48.815,0.781l-8.592,8.982l-6.788,17.183c0,0,7.959-4.296,19.48-6.834
				c11.52-2.538,24.798-6.053,29.68-8.982C276.216,225.288,286.369,217.087,286.369,217.087z"/>
			
				<linearGradient id="SVGID_2_" gradientUnits="userSpaceOnUse" x1="1320.7791" y1="1325.123" x2="1317.5715" y2="1335.7048" gradientTransform="matrix(0.781 0 0 0.781 -792.7795 -838.7084)">
				<stop  offset="0.0843" style="stop-color:#FFFFFF"/>
				<stop  offset="0.1865" style="stop-color:#FAFAFA"/>
				<stop  offset="0.3057" style="stop-color:#ECECEC"/>
				<stop  offset="0.4334" style="stop-color:#D5D5D5"/>
				<stop  offset="0.567" style="stop-color:#B4B4B4"/>
				<stop  offset="0.7053" style="stop-color:#8A8A8A"/>
				<stop  offset="0.8454" style="stop-color:#575757"/>
				<stop  offset="0.9337" style="stop-color:#333333"/>
			</linearGradient>
			<path fill="url(#SVGID_2_)" d="M204.938,189.101l22.072,16.466h44.871c0,0-17.56-5.527-24.713-8.128
				c-7.153-2.601-12.03-5.202-18.532-6.828C222.133,188.985,209.164,189.101,204.938,189.101z"/>
			<path d="M111.611,219.821l3.905,19.526l3.515-0.391c0,0,4.686,8.201,7.42,10.349c2.734,2.148,8.201,6.834,12.301,7.615
				c4.1,0.781,7.42,0.195,7.42,0.195l0.195-3.905c0,0-7.81-0.195-13.083-5.272c-5.272-5.077-7.81-10.544-7.81-10.544l14.905-0.911
				l-4.361-15.295l-13.473-2.343c0,0,0.976-6.444,3.71-10.154c2.734-3.71,5.858-7.029,10.154-6.834
				c4.296,0.195,8.591,2.734,11.52,5.663c2.929,2.929,7.42,8.982,8.396,14.254c0.976,5.272,1.352,12.533,1.352,12.533
				s6.849-14.876,7.435-17.024c0.586-2.148,1.172-5.858,0.195-8.006c-0.976-2.148-5.272-4.1-6.248-5.858
				c-0.976-1.757-3.124-5.077-0.586-6.053c2.538-0.976,6.444-0.976,9.177-1.172c2.734-0.195,8.006-1.562,9.763-0.586
				c1.757,0.976,1.953,2.733,1.562,3.515c-0.391,0.781-3.515,4.1-4.882,6.834c-1.367,2.733-3.124,7.224-2.343,10.739
				c0.781,3.515,9.372,22.26,13.278,25.189c3.905,2.929,9.763,8.591,17.378,8.787c7.615,0.195,11.13,0.391,16.207-3.515
				c5.077-3.905,11.325-11.325,12.887-15.816s2.343-5.858,8.201-6.639c5.858-0.781,24.017-3.124,32.023-3.515
				c8.006-0.391,22.064-0.195,22.064-0.195l-2.734-15.816c0,0-4.882,0.586-10.935,0.195c-6.053-0.391-31.632-2.538-35.342-2.538
				c-3.71,0-15.23,0.586-17.378-0.586c-2.148-1.172-10.349-10.544-13.278-11.52c-2.929-0.976-11.911-2.343-16.988-1.757
				c-5.077,0.586-4.686,2.343-7.225,1.172c-2.538-1.172-3.32-2.343-4.882-2.929c-1.562-0.586-34.561,2.734-36.904,3.905
				c-2.343,1.171-3.71,4.296-5.663,5.077c-1.953,0.781-6.639,0.586-9.958,1.562c-3.319,0.976-9.763,3.905-11.911,8.006
				c-2.148,4.1-3.124,9.763-4.491,10.934c-1.367,1.172-3.319,1.367-3.71,1.953C112.002,219.235,111.611,219.821,111.611,219.821z"/>
			<path fill="#808080" d="M167.065,264.926c0,0-5.272,0.586-4.491,2.538c0.781,1.953,4.881,3.319,4.881,3.319
				s-2.733-1.953-1.953-2.734c0.781-0.781,1.953,0.195,3.319,0c1.367-0.195,4.882,0,4.882,0L167.065,264.926z"/>
			<path fill="#404040" d="M208.07,302.416c0,0-22.845-10.739-25.774-11.13c-2.929-0.391-6.443-0.976-8.591-0.195
				c-2.148,0.781-7.42,3.515-7.42,3.515s-2.343-1.757-3.905-1.562c-1.562,0.195-4.296,5.272-4.101,6.834
				c0.195,1.562,4.296,9.177,4.296,9.177s0.586,4.296,1.952,5.272c1.367,0.976,8.006,2.148,14.254,0.195
				C185.029,312.569,208.07,302.416,208.07,302.416z"/>
			<path d="M206.898,302.611c0,0-16.402-6.834-19.331-6.443c-2.929,0.391-16.011,6.639-16.011,6.639s-3.515-1.953-4.882-1.562
				c-1.367,0.391-4.296,6.834-4.296,6.834s3.515-2.929,9.568-4.296c6.053-1.367,10.349-3.124,15.621-2.929
				C192.839,301.049,206.898,302.611,206.898,302.611z"/>
			<path fill="#404040" d="M169.213,264.926c1.757,0,14.645,2.929,12.497,5.858c-2.148,2.929-5.467,2.343-6.248,1.562
				c-0.781-0.781,0.195-3.124-2.343-4.1c-2.538-0.976-3.71-0.195-5.467-1.562c-1.757-1.367-1.367-0.976-0.586-1.757
				C167.846,264.145,169.213,264.926,169.213,264.926z"/>
			
				<radialGradient id="SVGID_3_" cx="737.2778" cy="896.2806" r="54.2529" gradientTransform="matrix(0.8678 0 0 0.8678 -464.468 -556.1415)" gradientUnits="userSpaceOnUse">
				<stop  offset="0" style="stop-color:#FFFFFF"/>
				<stop  offset="1" style="stop-color:#333333"/>
			</radialGradient>
			<path fill="url(#SVGID_3_)" d="M229.744,209.862c-0.195,1.953,0.586,5.467,1.367,7.81c0.781,2.343,1.172,1.367,1.953,3.515
				c0.781,2.148,0.391,4.1-0.781,4.686c-1.172,0.586-1.172,0.195-2.734,3.124c-1.562,2.929-3.905,7.42-7.225,11.716
				c-3.319,4.296-9.958,7.615-12.887,8.006c-2.929,0.391-9.177,0-14.84-2.734c-5.663-2.734-10.349-9.568-12.106-12.106
				c-1.757-2.538-6.834-10.935-8.396-13.473c-1.562-2.538-1.171-5.663-0.586-8.396c0.586-2.734,1.172-4.296,2.734-6.248
				c1.562-1.953,3.515-4.882,4.1-6.639s-0.195-2.538-0.781-3.71c-0.586-1.171-4.1-0.976-6.444-1.171
				c-2.343-0.195-10.153,0.391-13.473,0.976c-3.319,0.586-5.858,1.757-7.225,2.929c-1.367,1.171-1.171,3.905-0.586,5.467
				c0.586,1.562,2.929,3.124,5.077,4.296c2.148,1.172,3.515,3.71,4.882,6.639c1.367,2.929,0.586,7.81,0.586,7.81l-4.123,10.501
				c0,0,2.314-4.918-1.157-13.451c-1.892-4.65-3.897-7.398-5.85-10.327c-1.953-2.929-4.1-4.101-6.053-5.663
				c-1.953-1.562-3.71-2.148-5.077-2.929c-1.367-0.781-5.077-0.391-5.077-0.781c0-0.391,1.367-0.781,2.538-0.781
				s3.124,0.195,5.272-0.586c2.148-0.781,2.538-4.296,5.272-5.467c2.734-1.171,14.84-2.343,17.769-2.538
				c2.929-0.195,15.035-1.757,17.378-1.367c2.343,0.391,4.1,2.929,6.053,3.515c1.952,0.586,2.538-1.172,4.686-1.757
				c2.148-0.586,8.982-0.391,14.449,0.781s15.035,10.544,16.597,11.716s4.713,0.053,5.272,1.172
				C230.915,205.567,229.939,207.91,229.744,209.862z M123.522,206.543c-2.734,2.343-5.272,9.372-6.053,13.668
				c-0.699,3.842-0.195,11.716,4.491,20.502c7.027,13.176,18.745,13.863,18.745,13.863s-6.443-2.538-9.958-5.077
				c-3.515-2.538-9.177-9.372-11.716-24.993c-2.538-15.621,13.473-24.212,13.473-24.212S126.256,204.2,123.522,206.543z"/>
			<path fill="#404040" d="M115.126,227.24c-1.372,0.152-1.367,3.319,0.195,2.734C116.883,229.388,116.883,227.045,115.126,227.24z"
				/>
			<path fill="#FFFFFF" d="M234.235,214.158c-0.516-1.204-6.444-0.195-5.663,1.367C229.353,217.087,234.82,215.525,234.235,214.158z
				"/>
			<path d="M189.52,196.78c-3.624,2.847-10.739,10.544-10.349,18.94c0.391,8.396,2.734,15.816,4.882,18.55
				c2.148,2.733,7.225,9.568,13.278,11.52c6.053,1.952,10.739,1.367,14.059,0.586c3.319-0.781,9.177-5.858,10.934-8.787
				c1.757-2.929,5.272-8.982,4.491-17.769c-0.781-8.787-2.148-11.716-7.225-17.378c-5.077-5.663-5.077-6.053-9.568-7.81
				c-4.491-1.757-9.372-2.343-12.497-1.562C194.402,193.851,192.254,194.632,189.52,196.78z"/>
			
				<radialGradient id="SVGID_4_" cx="1211.7765" cy="1351.1306" r="53.8807" gradientTransform="matrix(0.781 0 0 0.781 -792.7795 -838.7084)" gradientUnits="userSpaceOnUse">
				<stop  offset="0" style="stop-color:#FFFFFF"/>
				<stop  offset="1" style="stop-color:#333333"/>
			</radialGradient>
			<path fill="url(#SVGID_4_)" d="M142.462,203.614c0,0,0.586,2.148,0,2.734s-1.171,0.976-1.953,1.952
				c-0.781,0.976-0.586,2.734-0.586,4.296c0,1.562-0.391,2.929,0.195,4.491c0.586,1.562,1.367,1.172,1.953,2.343
				c0.586,1.172,0.586,3.124,0.586,3.124l-6.639-1.367l4.361,15.295c0,0,4.491-0.456,5.663-0.651
				c1.172-0.195,3.32-0.391,4.491,0.586c1.172,0.976,1.497,7.615,1.497,7.615s2.182-4.206,4.686-8.396
				c2.697-4.512,0.694-11.448-1.064-15.939c-1.757-4.491-2.314-5.641-5.575-9.835C146.433,205.174,145.587,204.981,142.462,203.614z
				"/>
			
				<radialGradient id="SVGID_5_" cx="1277.7765" cy="1345.3806" r="42.4161" gradientTransform="matrix(0.781 0 0 0.781 -792.7795 -838.7084)" gradientUnits="userSpaceOnUse">
				<stop  offset="0" style="stop-color:#FFFFFF"/>
				<stop  offset="1" style="stop-color:#333333"/>
			</radialGradient>
			<path fill="url(#SVGID_5_)" d="M190.692,199.318c-0.317,0.74,0,8.592,0,11.716c0,3.124-0.195,9.763,0.391,11.715
				c0.586,1.953,1.367,1.562,1.562,2.734c0.195,1.172-0.195,2.734,0.586,4.296c0.781,1.562,3.905,2.734,4.882,4.491
				c0.976,1.757,0.781,5.077,2.734,6.639c1.953,1.562,12.887,1.562,15.426,0.391c2.538-1.172,6.639-4.686,8.591-10.544
				c1.953-5.858,1.562-13.863-0.391-18.354c-1.953-4.491-3.515-8.982-10.739-13.668c-7.225-4.686-7.615-4.296-12.106-4.296
				c-4.491,0-5.858,0.586-7.42,1.562C192.644,196.975,191.277,197.951,190.692,199.318z"/>
			
				<radialGradient id="SVGID_6_" cx="816.9516" cy="855.0557" r="57.5587" gradientTransform="matrix(0.8678 0 0 0.8678 -464.468 -556.1415)" gradientUnits="userSpaceOnUse">
				<stop  offset="0" style="stop-color:#FFFFFF"/>
				<stop  offset="1" style="stop-color:#333333"/>
			</radialGradient>
			<path fill="url(#SVGID_6_)" d="M240.288,212.596c0.825,3.505,1.757,9.373,3.319,9.177c1.562-0.195,1.367-2.733,0.391-8.396
				c-0.976-5.663-2.148-10.349-3.905-9.958C238.335,203.809,239.507,209.276,240.288,212.596z"/>
		</g>
	</g>
	<path d="M110.299,498.09h-0.694c-0.868-3.988-1.475-5.635-3.645-9.883c-3.819-7.195-7.811-10.663-12.323-10.663
		c-9.373,0-13.191,8.582-13.191,30.019c0,15.004,1.823,22.281,6.509,26.525c1.736,1.559,3.992,2.512,6.422,2.512
		c5.641,0,9.286-3.378,12.757-11.867c1.996-4.764,2.603-6.843,3.385-11.781h0.781v24.082h-0.781l-4.86-7.19l-0.434,0.606
		c-3.818,5.371-6.162,6.931-10.588,6.931c-11.021,0-20.764-14.467-20.764-30.86c0-15.626,9.829-29.757,20.764-29.757
		c4.079,0,8.071,2.601,10.761,7.022l5.294-6.849h0.607V498.09z"/>
	<path d="M135.724,488.535l9.026,29.2h-17.53L135.724,488.535z M139.282,478.456h-1.736l-13.799,46.93l-0.434,1.739
		c-1.649,6.782-3.992,8.694-9.633,9.128c-0.087,0.087-0.26,0-0.347,0.087v0.694h19.179v-0.694h-0.607
		c-5.728,0-7.637-1.563-7.637-6.171c0-1.391,0.347-3.304,0.955-5.304l1.822-6.173h18.051l5.294,17.649h-8.679v0.694h23.085v-0.694
		h-7.29L139.282,478.456z"/>
	<path d="M224.621,479.801h-8.071v56.452h8.331v0.781h-23.492v-0.694h8.436v-54.888L194.52,537.12h-0.783l-15.479-55.93v46.725
		v0.695c0,5.385,2.435,7.729,8.087,7.729h1.391v0.694h-19.676v-0.694h2.343c4.252,0,6.769-2.865,6.769-7.729v-0.782v-41.601v-0.608
		c0-3.995-1.996-5.732-6.943-5.732h-2.43v-0.781h17.066l12.088,44.814l12.174-44.814h15.493V479.801z"/>
	<path d="M244.711,536.253h8.765v0.781h-23.822v-0.694h8.331v-56.452h-8.331v-0.781h23.822v0.781h-8.765V536.253z"/>
	<path d="M282.223,479.801h-8.418v56.452h8.418c6.509,0,10.848-2.865,13.885-9.292c2.864-5.993,3.385-7.903,4.079-15.459h0.607
		v25.532h-42.567v-0.694h8.852v-56.452h-8.852v-0.781h23.996V479.801z"/>
	<path d="M328.824,479.801h-8.418v56.452h8.418c6.509,0,10.848-2.865,13.885-9.292c2.864-5.993,3.384-7.903,4.079-15.459h0.607
		v25.532h-42.567v-0.694h8.852v-56.452h-8.852v-0.781h23.995V479.801z"/>
	<path d="M392.338,498.403c-1.388-11.649-6.075-18.516-12.584-18.516h-0.694h-11.542v25.384h3.645h1.041
		c4.6,0,8.505-5.738,8.505-12.432v-0.608h0.608v26.145h-0.608c-0.347-7.81-3.384-12.15-8.505-12.15h-1.128h-3.645v30.027h10.761
		h0.868c4.947,0,8.765-3.124,11.629-9.459c1.736-3.905,2.864-7.81,2.864-11.542v-0.087v-0.608h0.781v22.477h-42.959v-0.694h9.025
		v-56.452h-8.765v-0.781h41.397v19.297H392.338z"/>
	<g>
		<path fill="#FF0000" stroke="#FF0000" stroke-width="0.1701" d="M82.558,549.557h-1.225v-0.505h2.994v0.505h-1.199v3.919h-0.57
			V549.557z"/>
		<path fill="#FF0000" stroke="#FF0000" stroke-width="0.1701" d="M86.381,549.053h0.57v1.833h1.756v-1.833h0.57v4.423h-0.57v-2.085
			h-1.756v2.085h-0.57V549.053z"/>
		<path fill="#FF0000" stroke="#FF0000" stroke-width="0.1701" d="M91.905,552.968h0.621v-3.406h-0.621v-0.51h1.82v0.51h-0.629
			v3.406h0.629v0.51h-1.82V552.968z"/>
		<path fill="#FF0000" stroke="#FF0000" stroke-width="0.1701" d="M96.888,552.079c0.111,0.546,0.374,0.947,0.97,0.947
			c0.468,0,0.834-0.256,0.834-0.75c0-0.546-0.46-0.682-0.894-0.861c-0.647-0.273-1.259-0.443-1.259-1.279
			c0-0.749,0.604-1.163,1.302-1.163c0.74,0,1.174,0.422,1.353,1.112l-0.544,0.162c-0.102-0.435-0.332-0.742-0.817-0.742
			c-0.366,0-0.723,0.188-0.723,0.588c0,0.418,0.255,0.546,0.596,0.691l0.945,0.418c0.4,0.222,0.612,0.58,0.612,1.04
			c0,0.844-0.587,1.316-1.404,1.316c-0.826,0-1.344-0.523-1.48-1.316L96.888,552.079z"/>
		<path fill="#FF0000" stroke="#FF0000" stroke-width="0.1701" d="M106.883,552.968h0.621v-3.406h-0.621v-0.51h1.82v0.51h-0.629
			v3.406h0.629v0.51h-1.82V552.968z"/>
		<path fill="#FF0000" stroke="#FF0000" stroke-width="0.1701" d="M111.866,552.079c0.111,0.546,0.374,0.947,0.97,0.947
			c0.468,0,0.834-0.256,0.834-0.75c0-0.546-0.46-0.682-0.894-0.861c-0.647-0.273-1.259-0.443-1.259-1.279
			c0-0.749,0.604-1.163,1.302-1.163c0.741,0,1.174,0.422,1.353,1.112l-0.544,0.162c-0.102-0.435-0.332-0.742-0.817-0.742
			c-0.366,0-0.724,0.188-0.724,0.588c0,0.418,0.255,0.546,0.596,0.691l0.945,0.418c0.4,0.222,0.612,0.58,0.612,1.04
			c0,0.844-0.587,1.316-1.404,1.316c-0.826,0-1.344-0.523-1.48-1.316L111.866,552.079z"/>
		<path fill="#FF0000" stroke="#FF0000" stroke-width="0.1701" d="M121.303,549.053h0.705l1.708,3.727l0.017-0.017l-0.051-1.146
			v-2.564h0.57v4.423h-0.705l-1.708-3.727l-0.017,0.017l0.051,1.154v2.555h-0.57V549.053z"/>
		<path fill="#FF0000" stroke="#FF0000" stroke-width="0.1701" d="M127.764,549.504c0.859,0,0.978,1.109,0.978,1.765
			c0,0.648-0.119,1.757-0.978,1.757s-0.978-1.109-0.978-1.757C126.786,550.612,126.905,549.504,127.764,549.504z M127.764,548.972
			c-0.731,0-1.574,0.523-1.574,2.297c0,1.782,0.859,2.288,1.574,2.288c1.548,0,1.574-1.93,1.574-2.288
			C129.337,549.478,128.469,548.972,127.764,548.972z"/>
		<path fill="#FF0000" stroke="#FF0000" stroke-width="0.1701" d="M132.485,549.557h-1.225v-0.505h2.994v0.505h-1.199v3.919h-0.57
			V549.557z"/>
		<path fill="#FF0000" stroke="#FF0000" stroke-width="0.1701" d="M143.371,551.763h-1.259l0.629-2.047L143.371,551.763z
			 M143.533,552.268l0.408,1.314l0.561-0.204l-1.395-4.325h-0.731l-1.395,4.325l0.561,0.204l0.417-1.314H143.533z"/>
		<path fill="#FF0000" stroke="#FF0000" stroke-width="0.1701" d="M152.455,549.557h-1.225v-0.505h2.994v0.505h-1.199v3.919h-0.57
			V549.557z"/>
		<path fill="#FF0000" stroke="#FF0000" stroke-width="0.1701" d="M156.505,549.052h2.764v0.505h-2.194v1.329h1.812v0.505h-1.812
			v1.581h2.194v0.505h-2.764V549.052z"/>
		<path fill="#FF0000" stroke="#FF0000" stroke-width="0.1701" d="M161.793,552.079c0.111,0.546,0.374,0.947,0.97,0.947
			c0.468,0,0.834-0.256,0.834-0.75c0-0.546-0.46-0.682-0.894-0.861c-0.647-0.273-1.259-0.443-1.259-1.279
			c0-0.749,0.604-1.163,1.302-1.163c0.74,0,1.174,0.422,1.353,1.112l-0.544,0.162c-0.102-0.435-0.332-0.742-0.817-0.742
			c-0.366,0-0.723,0.188-0.723,0.588c0,0.418,0.255,0.546,0.596,0.691l0.945,0.418c0.4,0.222,0.612,0.58,0.612,1.04
			c0,0.844-0.587,1.316-1.404,1.316c-0.826,0-1.344-0.523-1.48-1.316L161.793,552.079z"/>
		<path fill="#FF0000" stroke="#FF0000" stroke-width="0.1701" d="M167.434,549.557h-1.225v-0.505h2.994v0.505h-1.199v3.919h-0.57
			V549.557z"/>
		<path fill="#FF0000" stroke="#FF0000" stroke-width="0.1701" d="M172.307,552.216h0.783v1.26h-0.783V552.216z"/>
		<path fill="#FF0000" stroke="#FF0000" stroke-width="0.1701" d="M182.211,552.972v-1.528h0.795c0.541,0,0.829,0.361,0.829,0.807
			c0,0.609-0.465,0.721-0.964,0.721H182.211z M182.211,550.939v-1.382h0.6c0.396,0,0.771,0.144,0.771,0.67
			c0,0.398-0.247,0.712-0.74,0.712H182.211z M182.978,553.477c0.924,0,1.452-0.463,1.452-1.262c0-0.502-0.272-0.919-0.757-1.072
			c0.343-0.19,0.505-0.531,0.505-0.914c0-0.757-0.485-1.178-1.603-1.178h-1.393v0.505h0.459v3.415h-0.459v0.505H182.978z"/>
		<path fill="#FF0000" stroke="#FF0000" stroke-width="0.1701" d="M186.461,549.052h2.764v0.505h-2.194v1.329h1.812v0.505h-1.812
			v1.581h2.194v0.505h-2.764V549.052z"/>
		<path fill="#FF0000" stroke="#FF0000" stroke-width="0.1701" d="M199.261,552.633c-0.357,0.561-0.783,0.924-1.472,0.924
			c-1.293,0-1.701-1.188-1.701-2.288c0-1.774,0.936-2.297,1.65-2.297c0.689,0,1.089,0.354,1.403,0.941l-0.519,0.264
			c-0.187-0.358-0.442-0.674-0.876-0.674c-0.885,0-1.063,1.075-1.063,1.757c0,0.691,0.162,1.765,1.063,1.765
			c0.519,0,0.783-0.315,1.046-0.716L199.261,552.633z"/>
		<path fill="#FF0000" stroke="#FF0000" stroke-width="0.1701" d="M202.654,549.504c0.859,0,0.978,1.109,0.978,1.765
			c0,0.648-0.119,1.757-0.978,1.757c-0.859,0-0.978-1.109-0.978-1.757C201.676,550.612,201.795,549.504,202.654,549.504z
			 M202.654,548.972c-0.731,0-1.574,0.523-1.574,2.297c0,1.782,0.859,2.288,1.574,2.288c1.548,0,1.574-1.93,1.574-2.288
			C204.228,549.478,203.36,548.972,202.654,548.972z"/>
		<path fill="#FF0000" stroke="#FF0000" stroke-width="0.1701" d="M207.647,549.504c0.859,0,0.978,1.109,0.978,1.765
			c0,0.648-0.119,1.757-0.978,1.757s-0.978-1.109-0.978-1.757C206.669,550.612,206.788,549.504,207.647,549.504z M207.647,548.972
			c-0.731,0-1.574,0.523-1.574,2.297c0,1.782,0.859,2.288,1.574,2.288c1.548,0,1.574-1.93,1.574-2.288
			C209.22,549.478,208.353,548.972,207.647,548.972z"/>
		<path fill="#FF0000" stroke="#FF0000" stroke-width="0.1701" d="M211.544,549.053h0.57v3.919h2.322v0.505h-2.892V549.053z"/>
		<path fill="#FF0000" stroke="#FF0000" stroke-width="0.1701" d="M223.254,551.763h-1.259l0.629-2.047L223.254,551.763z
			 M223.416,552.268l0.408,1.314l0.561-0.204l-1.395-4.325h-0.731l-1.395,4.325l0.561,0.204l0.417-1.314H223.416z"/>
		<path fill="#FF0000" stroke="#FF0000" stroke-width="0.1701" d="M226.15,549.053h0.705l1.708,3.727l0.017-0.017l-0.051-1.146
			v-2.564h0.57v4.423h-0.705l-1.708-3.727l-0.017,0.017l0.051,1.154v2.555h-0.57V549.053z"/>
		<path fill="#FF0000" stroke="#FF0000" stroke-width="0.1701" d="M232.111,549.557h0.584c0.703,0,1.092,0.349,1.092,1.712
			c0,1.278-0.33,1.703-1.075,1.703h-0.601V549.557z M231.082,549.557h0.459v3.415h-0.459v0.505h1.478
			c1.585,0,1.823-0.88,1.823-2.268c0-1.644-0.57-2.157-1.823-2.157h-1.478V549.557z"/>
		<path fill="#FF0000" stroke="#FF0000" stroke-width="0.1701" d="M241.422,548.947l0.34,3.102h0.017l0.74-2.169h0.153l0.74,2.169
			h0.017l0.349-3.102l0.578,0.068l-0.638,4.568h-0.196l-0.927-2.72l-0.927,2.72h-0.196l-0.638-4.568L241.422,548.947z"/>
		<path fill="#FF0000" stroke="#FF0000" stroke-width="0.1701" d="M248.218,551.763h-1.259l0.629-2.047L248.218,551.763z
			 M248.379,552.268l0.408,1.314l0.561-0.204l-1.395-4.325h-0.731l-1.395,4.325l0.561,0.204l0.417-1.314H248.379z"/>
		<path fill="#FF0000" stroke="#FF0000" stroke-width="0.1701" d="M251.671,552.968h0.621v-3.406h-0.621v-0.51h1.82v0.51h-0.629
			v3.406h0.629v0.51h-1.82V552.968z"/>
		<path fill="#FF0000" stroke="#FF0000" stroke-width="0.1701" d="M257.302,549.557h-1.225v-0.505h2.994v0.505h-1.199v3.919h-0.57
			V549.557z"/>
		<path fill="#FF0000" stroke="#FF0000" stroke-width="0.1701" d="M266.517,549.052h2.79v0.505h-2.22v1.329h1.863v0.505h-1.863
			v2.085h-0.57V549.052z"/>
		<path fill="#FF0000" stroke="#FF0000" stroke-width="0.1701" d="M272.552,549.504c0.859,0,0.978,1.109,0.978,1.765
			c0,0.648-0.119,1.757-0.978,1.757s-0.978-1.109-0.978-1.757C271.574,550.612,271.693,549.504,272.552,549.504z M272.552,548.972
			c-0.731,0-1.574,0.523-1.574,2.297c0,1.782,0.859,2.288,1.574,2.288c1.548,0,1.574-1.93,1.574-2.288
			C274.125,549.478,273.258,548.972,272.552,548.972z"/>
		<path fill="#FF0000" stroke="#FF0000" stroke-width="0.1701" d="M276.833,551.072v-1.515h0.924c0.513,0,0.753,0.298,0.753,0.698
			c0,0.502-0.368,0.792-0.924,0.817H276.833z M276.263,553.476h0.57v-1.899h0.83l1.136,2.005l0.493-0.298l-1.091-1.792
			c0.538-0.161,0.904-0.696,0.904-1.24c0-0.856-0.587-1.201-1.331-1.201h-1.511V553.476z"/>
		<path fill="#FF0000" stroke="#FF0000" stroke-width="0.1701" d="M286.487,549.052h2.79v0.505h-2.22v1.329h1.863v0.505h-1.863
			v2.085h-0.57V549.052z"/>
		<path fill="#FF0000" stroke="#FF0000" stroke-width="0.1701" d="M291.718,549.053v3.02c0,0.646,0.187,0.953,0.771,0.953
			c0.712,0,0.865-0.315,0.865-0.953v-3.02h0.57v3.292c0,0.587-0.417,1.212-1.392,1.212c-0.958,0-1.384-0.6-1.384-1.246v-3.258
			H291.718z"/>
		<path fill="#FF0000" stroke="#FF0000" stroke-width="0.1701" d="M296.804,551.072v-1.515h0.924c0.513,0,0.753,0.298,0.753,0.698
			c0,0.502-0.368,0.792-0.924,0.817H296.804z M296.234,553.476h0.57v-1.899h0.83l1.136,2.005l0.493-0.298l-1.091-1.792
			c0.538-0.161,0.904-0.696,0.904-1.24c0-0.856-0.587-1.201-1.331-1.201h-1.511V553.476z"/>
		<path fill="#FF0000" stroke="#FF0000" stroke-width="0.1701" d="M302.236,549.557h-1.225v-0.505h2.994v0.505h-1.199v3.919h-0.57
			V549.557z"/>
		<path fill="#FF0000" stroke="#FF0000" stroke-width="0.1701" d="M306.06,549.053h0.57v1.833h1.756v-1.833h0.57v4.423h-0.57v-2.085
			h-1.756v2.085h-0.57V549.053z"/>
		<path fill="#FF0000" stroke="#FF0000" stroke-width="0.1701" d="M311.278,549.052h2.764v0.505h-2.194v1.329h1.812v0.505h-1.812
			v1.581h2.194v0.505h-2.764V549.052z"/>
		<path fill="#FF0000" stroke="#FF0000" stroke-width="0.1701" d="M316.774,551.072v-1.515h0.924c0.513,0,0.753,0.298,0.753,0.698
			c0,0.502-0.368,0.792-0.924,0.817H316.774z M316.204,553.476h0.57v-1.899h0.83l1.136,2.005l0.493-0.298l-1.091-1.792
			c0.538-0.161,0.903-0.696,0.903-1.24c0-0.856-0.587-1.201-1.331-1.201h-1.511V553.476z"/>
		<path fill="#FF0000" stroke="#FF0000" stroke-width="0.1701" d="M326.561,552.968h0.621v-3.406h-0.621v-0.51h1.82v0.51h-0.629
			v3.406h0.629v0.51h-1.82V552.968z"/>
		<path fill="#FF0000" stroke="#FF0000" stroke-width="0.1701" d="M330.996,549.053h0.705l1.708,3.727l0.017-0.017l-0.051-1.146
			v-2.564h0.57v4.423h-0.705l-1.708-3.727l-0.017,0.017l0.051,1.154v2.555h-0.57V549.053z"/>
		<path fill="#FF0000" stroke="#FF0000" stroke-width="0.1701" d="M336.537,552.079c0.111,0.546,0.374,0.947,0.97,0.947
			c0.468,0,0.834-0.256,0.834-0.75c0-0.546-0.46-0.682-0.894-0.861c-0.647-0.273-1.259-0.443-1.259-1.279
			c0-0.749,0.604-1.163,1.302-1.163c0.74,0,1.174,0.422,1.353,1.112l-0.544,0.162c-0.102-0.435-0.332-0.742-0.817-0.742
			c-0.366,0-0.723,0.188-0.723,0.588c0,0.418,0.255,0.546,0.596,0.691l0.945,0.418c0.4,0.222,0.612,0.58,0.612,1.04
			c0,0.844-0.587,1.316-1.404,1.316c-0.826,0-1.344-0.523-1.48-1.316L336.537,552.079z"/>
		<path fill="#FF0000" stroke="#FF0000" stroke-width="0.1701" d="M342.178,549.557h-1.225v-0.505h2.994v0.505h-1.199v3.919h-0.57
			V549.557z"/>
		<path fill="#FF0000" stroke="#FF0000" stroke-width="0.1701" d="M346.73,551.072v-1.515h0.924c0.513,0,0.753,0.298,0.753,0.698
			c0,0.502-0.368,0.792-0.924,0.817H346.73z M346.161,553.476h0.57v-1.899h0.83l1.136,2.005l0.493-0.298l-1.091-1.792
			c0.538-0.161,0.903-0.696,0.903-1.24c0-0.856-0.587-1.201-1.331-1.201h-1.511V553.476z"/>
		<path fill="#FF0000" stroke="#FF0000" stroke-width="0.1701" d="M351.63,549.053v3.02c0,0.646,0.187,0.953,0.772,0.953
			c0.712,0,0.865-0.315,0.865-0.953v-3.02h0.57v3.292c0,0.587-0.417,1.212-1.392,1.212c-0.958,0-1.384-0.6-1.384-1.246v-3.258
			H351.63z"/>
		<path fill="#FF0000" stroke="#FF0000" stroke-width="0.1701" d="M359.027,552.633c-0.357,0.561-0.783,0.924-1.472,0.924
			c-1.293,0-1.701-1.188-1.701-2.288c0-1.774,0.936-2.297,1.65-2.297c0.689,0,1.089,0.354,1.403,0.941l-0.519,0.264
			c-0.187-0.358-0.442-0.674-0.876-0.674c-0.885,0-1.063,1.075-1.063,1.757c0,0.691,0.162,1.765,1.063,1.765
			c0.519,0,0.783-0.315,1.046-0.716L359.027,552.633z"/>
		<path fill="#FF0000" stroke="#FF0000" stroke-width="0.1701" d="M362.149,549.557h-1.225v-0.505h2.994v0.505h-1.199v3.919h-0.57
			V549.557z"/>
		<path fill="#FF0000" stroke="#FF0000" stroke-width="0.1701" d="M366.503,552.968h0.621v-3.406h-0.621v-0.51h1.82v0.51h-0.629
			v3.406h0.629v0.51h-1.82V552.968z"/>
		<path fill="#FF0000" stroke="#FF0000" stroke-width="0.1701" d="M372.406,549.504c0.859,0,0.978,1.109,0.978,1.765
			c0,0.648-0.119,1.757-0.978,1.757c-0.859,0-0.978-1.109-0.978-1.757C371.428,550.612,371.547,549.504,372.406,549.504z
			 M372.406,548.972c-0.731,0-1.574,0.523-1.574,2.297c0,1.782,0.859,2.288,1.574,2.288c1.548,0,1.574-1.93,1.574-2.288
			C373.979,549.478,373.112,548.972,372.406,548.972z"/>
		<path fill="#FF0000" stroke="#FF0000" stroke-width="0.1701" d="M375.931,549.053h0.705l1.708,3.727l0.017-0.017l-0.051-1.146
			v-2.564h0.57v4.423h-0.705l-1.708-3.727l-0.017,0.017l0.051,1.154v2.555h-0.57V549.053z"/>
		<path fill="#FF0000" stroke="#FF0000" stroke-width="0.1701" d="M381.471,552.079c0.111,0.546,0.374,0.947,0.97,0.947
			c0.468,0,0.834-0.256,0.834-0.75c0-0.546-0.46-0.682-0.894-0.861c-0.647-0.273-1.259-0.443-1.259-1.279
			c0-0.749,0.604-1.163,1.302-1.163c0.741,0,1.174,0.422,1.353,1.112l-0.544,0.162c-0.102-0.435-0.332-0.742-0.817-0.742
			c-0.366,0-0.724,0.188-0.724,0.588c0,0.418,0.255,0.546,0.596,0.691l0.945,0.418c0.4,0.222,0.612,0.58,0.612,1.04
			c0,0.844-0.587,1.316-1.404,1.316c-0.826,0-1.344-0.523-1.48-1.316L381.471,552.079z"/>
		<path fill="#FF0000" stroke="#FF0000" stroke-width="0.1701" d="M386.993,552.216h0.783v1.26h-0.783V552.216z"/>
	</g>
	<path d="M142.757,580.82v-1.386h0.837c0.465,0,0.682,0.273,0.682,0.638c0,0.459-0.333,0.724-0.838,0.747H142.757z M142.23,583.027
		h0.526v-1.736h0.752l1.031,1.831l0.451-0.277l-0.993-1.64c0.488-0.148,0.821-0.637,0.821-1.135c0-0.787-0.535-1.109-1.209-1.109
		h-1.379V583.027z"/>
	<path d="M151.29,579.381c0.792,0,0.902,1.016,0.902,1.618c0,0.594-0.11,1.61-0.902,1.61c-0.792,0-0.902-1.016-0.902-1.61
		C150.389,580.397,150.499,579.381,151.29,579.381z M151.29,578.893c-0.674,0-1.444,0.48-1.444,2.106
		c0,1.633,0.785,2.098,1.444,2.098c1.421,0,1.444-1.77,1.444-2.098C152.735,579.358,151.941,578.893,151.29,578.893z"/>
	<path d="M158.27,579.737h-0.016l-0.102,3.29h-0.557l0.164-4.065h0.689l0.732,1.764l0.732-1.764h0.689l0.165,4.065h-0.557
		l-0.102-3.29h-0.016l-0.911,2.141L158.27,579.737z"/>
	<path d="M165.95,578.962h2.541v0.472h-2.015v1.209h1.664v0.472h-1.664v1.44h2.015v0.472h-2.541V578.962z"/>
	<path d="M182.851,580.101c0.524,0,0.962,0.438,0.962,0.962c0,0.539-0.438,0.961-0.962,0.961c-0.539,0-0.962-0.422-0.962-0.961
		C181.89,580.539,182.328,580.101,182.851,580.101z"/>
	<path d="M197.26,578.962h0.651l1.577,3.422l0.016-0.016l-0.047-1.051v-2.356h0.526v4.065h-0.651l-1.577-3.422l-0.016,0.016
		l0.047,1.059v2.348h-0.526V578.962z"/>
	<path d="M205.393,578.962h2.541v0.472h-2.015v1.209h1.664v0.472h-1.664v1.44h2.015v0.472h-2.541V578.962z"/>
	<path d="M213.33,578.867l0.312,2.846h0.016l0.678-1.987h0.14l0.678,1.987h0.016l0.32-2.846l0.53,0.064l-0.585,4.191h-0.179
		l-0.85-2.496l-0.85,2.496h-0.179l-0.585-4.191L213.33,578.867z"/>
	<path d="M231.267,578.867l0.492,0.261l-1.32,2.332v1.567h-0.526v-1.567l-1.312-2.332l0.492-0.261l1.087,2.088L231.267,578.867z"/>
	<path d="M238.064,579.381c0.792,0,0.902,1.016,0.902,1.618c0,0.594-0.11,1.61-0.902,1.61c-0.792,0-0.902-1.016-0.902-1.61
		C237.162,580.397,237.272,579.381,238.064,579.381z M238.064,578.893c-0.674,0-1.444,0.48-1.444,2.106
		c0,1.633,0.786,2.098,1.444,2.098c1.421,0,1.444-1.77,1.444-2.098C239.508,579.358,238.715,578.893,238.064,578.893z"/>
	<path d="M245.307,580.82v-1.386h0.838c0.465,0,0.682,0.273,0.682,0.638c0,0.459-0.333,0.724-0.838,0.747H245.307z M244.781,583.027
		h0.526v-1.736h0.752l1.031,1.831l0.451-0.277l-0.993-1.64c0.488-0.148,0.822-0.637,0.822-1.135c0-0.787-0.535-1.109-1.209-1.109
		h-1.379V583.027z"/>
	<path d="M253.291,580.698h0.195l1.398-1.831l0.398,0.316l-1.351,1.703l1.585,1.898l-0.398,0.338l-1.648-1.993h-0.18v1.898h-0.526
		v-4.065h0.526V580.698z"/>
	<path d="M269.625,580.101c0.524,0,0.961,0.438,0.961,0.962c0,0.539-0.438,0.961-0.961,0.961c-0.539,0-0.961-0.422-0.961-0.961
		C268.664,580.539,269.101,580.101,269.625,580.101z"/>
	<path d="M284.926,579.434h0.539c0.648,0,1.008,0.319,1.008,1.565c0,1.168-0.305,1.557-0.992,1.557h-0.555V579.434z
		 M283.978,579.434h0.422v3.121h-0.422v0.472h1.362c1.458,0,1.675-0.815,1.675-2.083c0-1.502-0.519-1.982-1.675-1.982h-1.362
		V579.434z"/>
	<path d="M292.166,578.962h2.541v0.472h-2.015v1.209h1.664v0.472h-1.664v1.44h2.015v0.472h-2.541V578.962z"/>
	<path d="M299.811,578.962h0.651l1.577,3.422l0.016-0.016l-0.047-1.051v-2.356h0.526v4.065h-0.651l-1.577-3.422l-0.016,0.016
		l0.047,1.059v2.348h-0.526V578.962z"/>
	<path d="M310.168,578.867l0.499,0.191l-1.56,4.064h-0.094l-1.56-4.064l0.499-0.191l1.108,2.97L310.168,578.867z"/>
	<path d="M315.832,578.962h2.541v0.472h-2.015v1.209h1.664v0.472h-1.664v1.44h2.015v0.472h-2.541V578.962z"/>
	<path d="M324.193,580.82v-1.386h0.837c0.465,0,0.682,0.273,0.682,0.638c0,0.459-0.333,0.724-0.837,0.747H324.193z M323.666,583.027
		h0.526v-1.736h0.752l1.031,1.831l0.451-0.277l-0.993-1.64c0.488-0.148,0.822-0.637,0.822-1.135c0-0.787-0.535-1.109-1.209-1.109
		h-1.379V583.027z"/>
	<path d="M229.429,294.594l-1.127-0.113l0.014-0.138l2.416,0.242l3.778,6.726l0.616-6.148l-1.127-0.113l0.014-0.138l2.391,0.239
		l-0.014,0.138l-1.127-0.113l-0.889,8.877l-0.1-0.01l-4.799-8.523l-0.773,7.725l1.139,0.114l-0.014,0.138l-2.404-0.241l0.014-0.138
		l1.127,0.113L229.429,294.594z"/>
	<path d="M239.147,300.244c0.147-0.625,0.614-2.544,1.469-3.428c0.53-0.547,1.271-0.618,2.054-0.433
		c0.784,0.185,1.415,0.58,1.644,1.306c0.369,1.173-0.072,3.099-0.22,3.723c-0.148,0.625-0.622,2.581-1.469,3.428
		c-0.542,0.544-1.271,0.618-2.055,0.433c-0.784-0.185-1.402-0.577-1.644-1.306C238.549,302.831,238.999,300.868,239.147,300.244z
		 M237.408,299.833c-0.654,2.768,1.16,5.109,3.131,5.575c1.972,0.465,4.641-0.818,5.294-3.585c0.653-2.768-1.086-5.092-3.131-5.575
		C240.657,295.765,238.062,297.065,237.408,299.833z"/>
	<path d="M251.5,299.262l-0.141-0.053c-1.601-0.604-2.92,0.324-3.702,1.682l-0.094-0.035l1.067-2.825l7.299,2.755l-1.067,2.825
		l-0.094-0.035c0.311-1.537-0.065-3.105-1.666-3.709l-0.141-0.053l-3.066,8.123l1.059,0.4l-0.049,0.129l-3.579-1.351l0.049-0.13
		l1.059,0.4L251.5,299.262z"/>
	<path d="M258.439,302.116l-0.999-0.534l0.065-0.122l3.496,1.867l-0.065,0.122l-1.121-0.599l-1.944,3.641l3.152,1.683l1.944-3.641
		l-1.121-0.599l0.065-0.122l3.496,1.867l-0.065,0.122l-0.999-0.533l-4.09,7.659l0.999,0.533l-0.065,0.122l-3.496-1.867l0.065-0.122
		l1.121,0.599l2.081-3.896l-3.152-1.683l-2.081,3.896l1.121,0.599l-0.065,0.122l-3.496-1.867l0.065-0.122l0.999,0.533
		L258.439,302.116z"/>
	<path d="M267.817,307.527l-0.937-0.636l0.078-0.115l3.164,2.149l-0.078,0.115l-0.937-0.636l-4.878,7.182l0.937,0.636l-0.078,0.115
		l-3.164-2.149l0.078-0.115l0.937,0.636L267.817,307.527z"/>
	<path d="M272.414,310.764l-0.869-0.726l0.089-0.106l1.864,1.557l-0.65,7.687l3.961-4.741l-0.869-0.726l0.089-0.106l1.844,1.541
		l-0.089,0.106l-0.869-0.726l-5.719,6.847l-0.077-0.064l0.814-9.748l-4.977,5.958l0.879,0.734l-0.089,0.106l-1.854-1.549
		l0.089-0.106l0.869,0.726L272.414,310.764z"/>
	<path d="M279.292,324.816l-0.947-1.026l0.102-0.094l2.782,3.014l-0.102,0.094l-0.777-0.841l-2.432,2.244l-0.068-0.074
		c0.211-0.383-0.019-0.633-0.087-0.707c-0.154-0.166-0.32-0.235-0.766-0.44c-0.647-0.293-1.088-0.622-1.54-1.113
		c-1.69-1.831-1.518-4.335,0.461-6.161c2.275-2.099,5.184-1.6,6.388-0.296c0.375,0.407,0.505,0.733,0.764,1.384
		c0.161,0.416,0.263,0.545,0.331,0.619c0.154,0.166,0.279,0.154,0.432,0.115l0.068,0.074l-1.923,1.775l-0.068-0.074
		c0.794-1.144,1.37-2.634,0.303-3.79c-0.777-0.841-1.518-0.773-1.932-0.683c-0.88,0.196-2.208,1.318-3.068,2.112
		c-1.341,1.237-1.881,1.839-2.223,2.6c-0.322,0.708-0.198,1.399,0.501,2.157c1.186,1.285,1.842,0.92,2.526,0.288L279.292,324.816z"
		/>
	<path d="M287.408,325.557l0.118-0.072l2.062,3.37l-0.118,0.072l-0.722-1.181l-4.598,6.059l5.598-0.977l1.16-1.551l-0.46-0.751
		l0.118-0.072l2.056,3.359l-0.118,0.072l-0.716-1.17l-4.611,6.037l7.52-1.282l-0.571-0.934l0.118-0.072l1.136,1.857l-0.118,0.072
		l-0.479-0.783l-9.725,1.658l-0.059-0.097l4.623-6.163l-7.598,1.301l-0.059-0.097l5.902-7.904L287.408,325.557z"/>
	<path d="M295.979,340.777l-0.453-1.038l0.127-0.055l1.53,3.506l-0.127,0.055l-0.453-1.038l-7.958,3.473l0.453,1.038l-0.127,0.055
		l-1.53-3.506l0.127-0.055l0.453,1.038L295.979,340.777z"/>
	<path d="M298.133,345.988l-0.353-1.076l0.132-0.043l1.195,3.647l-0.132,0.043l-0.357-1.088l-8.251,2.703l0.27,0.825
		c0.525,1.602,1.948,2.712,3.676,2.49l0.031,0.096l-2.714,0.889l-2.233-6.816l0.132-0.043l0.353,1.076L298.133,345.988z"/>
	<path d="M300.756,354.77l-0.224-1.11l0.136-0.027l0.758,3.762l-0.136,0.027l-0.226-1.122l-8.511,1.714l0.172,0.851
		c0.333,1.653,1.615,2.922,3.357,2.905l0.02,0.099l-2.8,0.564l-1.416-7.031l0.136-0.027l0.223,1.11L300.756,354.77z"/>
	<path d="M294.05,373.948l-0.249-7.42l0.138-0.005l0.038,1.132l8.677-0.292l-0.038-1.132l0.138-0.005l0.225,6.69l-2.163,0.073
		l-0.003-0.101c1.006-0.399,1.994-0.986,1.937-2.671l-0.043-1.295l-4.125,0.139c0.029,0.855,0.068,2.012,1.822,2.155l0.003,0.101
		l-3.672,0.123l-0.003-0.101c1.779-0.249,1.738-1.469,1.711-2.273l-4.414,0.148l0.063,1.874c0.044,1.295,0.664,2.156,2.469,2.674
		l0.003,0.101L294.05,373.948z"/>
	<path d="M302.885,374.983l0.138,0.012l-0.344,3.923l-0.138-0.012l0.121-1.379l-7.273,2.129l6.786,3.424l0.095-1.091l0.138,0.012
		l-0.191,2.181l-0.138-0.012l0.081-0.927l-8.807-4.434l0.01-0.113l9.445-2.848L302.885,374.983z"/>
	<path d="M291.524,390.601l1.722-7.221l0.135,0.032l-0.263,1.102l8.445,2.014l0.263-1.102l0.135,0.032l-1.553,6.511l-2.105-0.502
		l0.023-0.098c1.076-0.118,2.184-0.424,2.575-2.064l0.301-1.261l-4.014-0.957c-0.199,0.832-0.467,1.958,1.188,2.56l-0.023,0.098
		l-3.574-0.852l0.023-0.098c1.782,0.231,2.065-0.956,2.252-1.74l-4.296-1.024l-0.435,1.824c-0.301,1.261,0.07,2.255,1.674,3.232
		l-0.023,0.098L291.524,390.601z"/>
	<path d="M298.42,397.269c-0.065,0.191-0.191,0.629-0.31,0.92c-0.498,1.21-1.551,1.158-2.645,0.708
		c-1.559-0.641-1.525-1.321-1.295-1.879l0.526-1.28L298.42,397.269z M290.995,392.529l0.431-1.047l-0.128-0.053l-1.46,3.549
		l0.128,0.053l0.435-1.059l4.166,1.713l-0.526,1.28c-0.263,0.64-0.679,1.122-1.533,0.948c-0.338-0.071-1.164-0.411-1.374-0.497
		c-1.024-0.421-2.199-0.51-2.849,1.073c-0.244,0.594-0.182,0.905-0.105,1.181l0.166-0.041c-0.045-0.155-0.145-0.441-0.011-0.766
		c0.268-0.652,0.85-0.413,1.681-0.084c1.308,0.524,2.523,1.01,3.839-1.197l0.047,0.019c-0.182,0.973-0.126,2.357,0.945,2.797
		c1.594,0.656,2.845-0.83,3.39-2.157c0.091-0.221,0.175-0.459,0.254-0.684c0.084-0.238,0.163-0.464,0.259-0.696l0.833-2.025
		l-0.128-0.053l-0.431,1.047L290.995,392.529z"/>
	<path d="M292.913,408.345l0.637-0.937l0.115,0.078l-3.905,5.744l-2.383-1.62l0.057-0.083c1.607,0.636,2.983,0.491,3.995-0.997
		l0.608-0.895l-3.476-2.363c-0.82,1.207-0.625,1.994,0.331,2.781l-0.057,0.083l-3.184-2.165l0.057-0.083
		c0.538,0.305,1.678,0.867,2.739-0.694l-3.59-2.44l-0.679,0.999l-0.115-0.078l2.193-3.226l0.115,0.078l-0.637,0.937L292.913,408.345
		z"/>
	<path d="M276.944,414.214l5.006-5.482l0.102,0.093l-0.764,0.836l6.411,5.855l0.764-0.836l0.102,0.093l-4.514,4.943l-1.598-1.459
		l0.068-0.074c0.999,0.418,2.115,0.688,3.252-0.557l0.874-0.957l-3.048-2.783c-0.577,0.632-1.358,1.487-0.202,2.815l-0.068,0.074
		l-2.713-2.478l0.068-0.074c1.447,1.066,2.27,0.164,2.813-0.43l-3.261-2.978l-1.264,1.384c-0.874,0.957-1.031,2.006-0.102,3.639
		l-0.068,0.074L276.944,414.214z"/>
	<path d="M270.557,419.499l5.761-4.682l0.087,0.107l-0.879,0.714l5.476,6.738l0.879-0.714l0.087,0.107l-5.195,4.222l-1.365-1.68
		l0.078-0.064c0.926,0.561,1.99,0.993,3.299-0.071l1.006-0.817l-2.603-3.203c-0.664,0.54-1.562,1.27-0.616,2.754l-0.078,0.064
		l-2.317-2.851l0.078-0.064c1.273,1.268,2.221,0.498,2.846-0.01l-2.786-3.427l-1.455,1.182c-1.006,0.817-1.316,1.832-0.639,3.583
		l-0.078,0.064L270.557,419.499z"/>
	<path d="M273.375,428.162l0.974-0.578l0.071,0.119l-3.299,1.96l-0.071-0.119l0.984-0.585l-4.435-7.464l-0.746,0.444
		c-1.45,0.861-2.223,2.491-1.63,4.13l-0.087,0.051l-1.459-2.456l6.166-3.663l0.071,0.119l-0.974,0.578L273.375,428.162z"/>
	<path d="M261.486,434.178l0.141-0.053c1.604-0.596,1.988-2.162,1.685-3.701l0.094-0.035l1.052,2.831l-7.312,2.719l-1.052-2.831
		l0.094-0.035c0.775,1.363,2.089,2.297,3.693,1.701l0.142-0.053l-3.026-8.138l-1.061,0.395l-0.048-0.13l3.585-1.333l0.048,0.13
		l-1.061,0.395L261.486,434.178z"/>
	<path d="M254.177,436.591l1.111-0.22l0.027,0.136l-3.888,0.77l-0.027-0.136l1.247-0.247l-0.802-4.049l-3.505,0.695l0.802,4.048
		l1.247-0.247l0.027,0.136l-3.888,0.77l-0.027-0.136l1.111-0.22l-1.688-8.517l-1.111,0.22l-0.027-0.136l3.888-0.77l0.027,0.136
		l-1.247,0.247l0.858,4.332l3.505-0.695l-0.858-4.332l-1.247,0.247l-0.027-0.136l3.888-0.77l0.027,0.136l-1.111,0.22
		L254.177,436.591z"/>
	<path d="M236.673,429.733l7.42-0.251l0.005,0.138l-1.132,0.038l0.294,8.677l1.132-0.038l0.005,0.138l-6.69,0.226l-0.073-2.163
		l0.101-0.003c0.399,1.006,0.986,1.994,2.672,1.937l1.295-0.044l-0.139-4.125c-0.855,0.029-2.012,0.068-2.154,1.823l-0.101,0.003
		l-0.124-3.672l0.101-0.003c0.249,1.779,1.469,1.738,2.274,1.711l-0.149-4.414l-1.874,0.063c-1.295,0.044-2.156,0.665-2.674,2.47
		l-0.101,0.003L236.673,429.733z"/>
	<path d="M231.905,432.454l-0.099-0.017c0.06-1.867-0.951-3.387-2.252-3.615c-1.029-0.181-2.116,0.19-2.316,1.33
		c-0.179,1.016,0.399,1.437,2.033,2.606c1.318,0.934,2.025,1.493,1.776,2.906c-0.251,1.425-1.574,2.56-2.999,2.309
		c-0.459-0.081-0.736-0.244-1.164-0.499c-0.208-0.126-0.315-0.17-0.414-0.188c-0.31-0.054-0.426,0.168-0.47,0.275l-0.099-0.018
		l0.433-2.466l0.099,0.017c0.112,0.889,0.338,2.512,1.688,2.75c0.645,0.113,1.689-0.086,1.885-1.202
		c0.207-1.177-0.589-1.739-2.079-2.78c-1.106-0.757-2.027-1.404-1.779-2.817c0.264-1.5,1.906-2.629,3.43-2.361
		c0.298,0.052,0.706,0.124,1.299,0.458c0.488,0.277,0.663,0.372,0.911,0.416c0.372,0.065,0.529-0.175,0.569-0.258l0.099,0.017
		L231.905,432.454z"/>
	<path d="M223.07,430.929l-2.654,3.015l-0.127-4.019L223.07,430.929z M225.574,428.328l0.84,0.303l0.047-0.13l-2.024-0.731
		l-0.047,0.13l1.018,0.368l-2.232,2.552l-2.9-1.047l-0.075-3.385l1.136,0.41l0.047-0.13l-3.574-1.291l-0.047,0.13l0.852,0.308
		l0.333,9.859l0.095,0.034L225.574,428.328z"/>
	<path d="M212.386,432.407l0.972,0.606l-0.073,0.117l-2.424-1.511l1.764-6.566l-5.427,4.283l-2.392-1.491l0.073-0.117l0.972,0.606
		l4.592-7.368l-0.972-0.606l0.073-0.117l3.257,2.03l-0.073,0.117l-0.961-0.599l-4.592,7.368l7.442-5.874l0.096,0.06l-2.444,8.989
		l4.592-7.368l-1.004-0.626l0.073-0.117l2.093,1.304l-0.073,0.117l-0.972-0.606L212.386,432.407z"/>
	<path d="M203.855,414.67l5.35,5.147l-0.096,0.1l-0.816-0.785l-6.019,6.257l0.816,0.785l-0.096,0.1l-4.825-4.641l1.5-1.56
		l0.073,0.07c-0.443,0.988-0.742,2.097,0.473,3.266l0.934,0.898l2.861-2.975c-0.617-0.593-1.451-1.396-2.808-0.275l-0.073-0.07
		l2.547-2.648l0.073,0.07c-1.103,1.419-0.223,2.265,0.357,2.823l3.062-3.183l-1.351-1.3c-0.934-0.898-1.979-1.083-3.635-0.196
		l-0.073-0.07L203.855,414.67z"/>
	<path d="M197.833,412.384l-3.949,0.732l2.383-3.239L197.833,412.384z M201.409,411.885l0.473,0.758l0.117-0.073l-1.14-1.825
		l-0.117,0.073l0.573,0.918l-3.332,0.628l-1.633-2.614l2.032-2.709l0.64,1.024l0.117-0.073l-2.014-3.223l-0.117,0.073l0.48,0.768
		l-5.829,7.959l0.053,0.085L201.409,411.885z"/>
	<path d="M188.68,407.096l0.422,1.051l-0.129,0.052l-2.587-6.446l2.674-1.073l0.038,0.093c-1.424,0.978-2.072,2.201-1.402,3.871
		l0.403,1.004l3.9-1.565c-0.544-1.355-1.306-1.632-2.492-1.277l-0.037-0.093l3.573-1.434l0.037,0.094
		c-0.553,0.276-1.656,0.909-0.953,2.66l4.029-1.617l-0.45-1.121l0.128-0.052l1.453,3.62l-0.128,0.052l-0.422-1.051L188.68,407.096z"
		/>
	<path d="M185.289,396.827l0.031,0.148c0.35,1.675,1.841,2.289,3.407,2.219l0.021,0.098l-2.956,0.618l-1.596-7.636l2.956-0.618
		l0.021,0.099c-1.464,0.563-2.584,1.723-2.234,3.398l0.031,0.148l8.499-1.776l-0.232-1.109l0.135-0.028l0.782,3.744l-0.135,0.028
		l-0.232-1.109L185.289,396.827z"/>
	<path d="M192.758,382.6l0.172,7.422l-0.138,0.003l-0.026-1.132l-8.68,0.201l0.026,1.132l-0.138,0.003l-0.155-6.692l2.164-0.05
		l0.002,0.101c-1.01,0.388-2.004,0.965-1.965,2.651l0.03,1.296l4.126-0.095c-0.02-0.855-0.047-2.013-1.8-2.173l-0.002-0.101
		l3.673-0.085l0.002,0.101c-1.782,0.23-1.754,1.45-1.735,2.255l4.415-0.102l-0.043-1.874c-0.03-1.296-0.642-2.163-2.441-2.7
		l-0.002-0.101L192.758,382.6z"/>
	<path d="M184.552,377.588c0.024-0.2,0.057-0.655,0.114-0.964c0.238-1.287,1.279-1.453,2.442-1.238
		c1.658,0.307,1.764,0.979,1.654,1.573l-0.252,1.361L184.552,377.588z M192.793,380.699l-0.206,1.114l0.136,0.025l0.698-3.774
		l-0.136-0.025l-0.208,1.126l-4.429-0.819l0.252-1.361c0.126-0.681,0.434-1.238,1.305-1.243c0.346,0,1.224,0.162,1.447,0.203
		c1.089,0.201,2.256,0.046,2.568-1.637c0.117-0.631-0.009-0.923-0.141-1.178l-0.154,0.074c0.076,0.142,0.233,0.401,0.169,0.748
		c-0.128,0.693-0.747,0.579-1.628,0.429c-1.388-0.244-2.677-0.469-3.51,1.961l-0.049-0.009c-0.022-0.989-0.362-2.332-1.501-2.542
		c-1.695-0.313-2.613,1.398-2.874,2.808c-0.044,0.235-0.077,0.485-0.108,0.722c-0.033,0.25-0.064,0.487-0.11,0.735l-0.398,2.153
		l0.136,0.025l0.206-1.114L192.793,380.699z"/>
	<path d="M185.749,369.982l-0.122-0.065l1.861-3.485l0.122,0.065l-0.652,1.221l7.553,0.895l-3.678-4.332l-1.925-0.215l-0.415,0.777
		l-0.122-0.065l1.855-3.474l0.122,0.065l-0.646,1.21l7.541,0.917l-4.915-5.834l-0.516,0.966l-0.122-0.065l1.025-1.92l0.122,0.065
		l-0.433,0.81l6.356,7.545l-0.053,0.1l-7.655-0.864l4.97,5.892l-0.053,0.1l-9.805-1.085L185.749,369.982z"/>
	<path d="M198.934,358.68l-1.648-3.663l3.712,1.545L198.934,358.68z M200.267,362.035l-0.624,0.64l0.099,0.097l1.502-1.541
		l-0.099-0.097l-0.755,0.775l-1.401-3.088l2.152-2.207l3.113,1.331l-0.843,0.865l0.099,0.097l2.652-2.721l-0.099-0.097l-0.632,0.649
		l-9.115-3.772l-0.07,0.072L200.267,362.035z"/>
	<path d="M203.556,347.518c0.163-0.118,0.52-0.402,0.786-0.57c1.107-0.698,1.935-0.046,2.566,0.955
		c0.9,1.426,0.478,1.96-0.033,2.282l-1.171,0.739L203.556,347.518z M206.863,355.683l-0.958,0.604l0.074,0.117l3.246-2.048
		l-0.074-0.117l-0.968,0.611l-2.404-3.81l1.171-0.738c0.585-0.369,1.204-0.521,1.799,0.115c0.234,0.254,0.711,1.009,0.832,1.201
		c0.591,0.936,1.497,1.689,2.944,0.776c0.543-0.342,0.672-0.632,0.77-0.902l-0.159-0.063c-0.053,0.152-0.137,0.443-0.435,0.631
		c-0.596,0.376-0.932-0.156-1.419-0.905c-0.763-1.185-1.471-2.285-3.823-1.248l-0.027-0.042c0.712-0.687,1.467-1.848,0.85-2.827
		c-0.92-1.458-2.8-0.971-4.013-0.206c-0.202,0.128-0.408,0.273-0.604,0.411c-0.206,0.145-0.402,0.283-0.615,0.417l-1.852,1.168
		l0.074,0.117l0.958-0.604L206.863,355.683z"/>
	<path d="M213.285,342.538c0.352-0.138,0.784-0.315,1.072-0.407c2.494-0.794,3.502,1.13,4.2,3.325
		c0.618,1.943,0.968,4.247-1.418,5.007c-0.42,0.134-0.751,0.212-1.23,0.325L213.285,342.538z M214.426,351.272l-1.079,0.343
		l0.042,0.132l2.29-0.728c0.24-0.076,0.472-0.137,0.715-0.201c0.232-0.06,0.475-0.125,0.703-0.197
		c3.082-0.98,3.811-3.668,3.197-5.599c-0.752-2.362-3.317-3.87-5.931-3.038c-0.252,0.08-0.5,0.172-0.748,0.264
		s-0.496,0.184-0.748,0.264l-2.194,0.698l0.042,0.132l1.079-0.343L214.426,351.272z"/>
	<path d="M228.296,344.122l1.358,0.034c0.906,0.023,1.707,0.181,1.654,2.295c-0.054,2.151-1.025,2.227-1.792,2.208
		c-0.403-0.01-1.005-0.063-1.331-0.109L228.296,344.122z M226.625,348.536l-1.132-0.028l-0.003,0.138l2.252,0.056
		c0.302,0.008,0.591,0.027,0.893,0.048c0.289,0.02,0.591,0.04,0.88,0.047c1.547,0.039,3.431-0.279,3.479-2.203
		c0.039-1.547-1.291-2.21-2.619-2.483l0.002-0.088c0.773-0.207,2.103-0.551,2.137-1.897c0.038-1.522-1.477-2.353-3.263-2.398
		c-0.277-0.007-0.554-0.001-0.831,0.004c-0.277,0.006-0.554,0.011-0.831,0.004l-1.874-0.047l-0.004,0.138l1.132,0.028
		L226.625,348.536z M228.402,339.895c0.378-0.016,0.794-0.03,0.919-0.027c1.271,0.032,1.677,0.382,1.632,2.193
		c-0.043,1.711-0.452,1.977-1.308,1.956l-1.346-0.034L228.402,339.895z"/>
	<path d="M236.984,346.648c-0.25,0.805-0.415,1.465-0.38,1.99c0.051,0.727,0.502,1.355,1.463,1.653
		c1.454,0.451,2.711,0.011,3.24-1.695l1.876-6.045l-1.106-0.343l0.041-0.132l2.331,0.724l-0.041,0.132l-1.094-0.339l-1.876,6.045
		c-0.529,1.707-1.863,2.268-3.449,1.775c-2.355-0.731-3.208-1.931-2.488-4.25l1.697-5.468l-1.082-0.336l0.041-0.132l3.665,1.137
		l-0.041,0.132l-1.094-0.339L236.984,346.648z"/>
	<path d="M249.271,345.848l-0.125-0.084c-1.419-0.956-2.916-0.356-3.989,0.787l-0.084-0.056l1.687-2.505l6.471,4.358l-1.687,2.505
		l-0.084-0.056c0.656-1.424,0.65-3.037-0.77-3.993l-0.125-0.084l-4.85,7.201l0.939,0.633l-0.077,0.115l-3.173-2.137l0.077-0.115
		l0.939,0.633L249.271,345.848z"/>
	<path d="M258.223,353.925l-0.689-0.899l0.11-0.084l2.327,3.036l-0.11,0.084l-0.689-0.899l-6.891,5.281l0.689,0.899l-0.11,0.084
		l-2.327-3.036l0.11-0.084l0.689,0.899L258.223,353.925z"/>
	<path d="M262.608,360.842l-0.063-0.137c-0.72-1.552-2.311-1.813-3.821-1.39l-0.042-0.091l2.74-1.271l3.282,7.077l-2.74,1.271
		l-0.042-0.091c1.298-0.879,2.127-2.262,1.407-3.815l-0.064-0.137l-7.876,3.653l0.477,1.027l-0.126,0.058l-1.609-3.47l0.126-0.058
		l0.476,1.027L262.608,360.842z"/>
	<path d="M266.455,370.069l0.138,0.001l-0.041,3.951l-0.138-0.001l0.014-1.384l-7.112,2.695l5.263,2.143l1.807-0.699l0.009-0.881
		l0.138,0.001l-0.041,3.938l-0.138-0.001l0.014-1.371l-7.112,2.67l7.055,2.904l0.011-1.095l0.138,0.001l-0.022,2.177l-0.138-0.001
		l0.009-0.919l-9.122-3.756l0.001-0.113l7.189-2.769l-7.13-2.93l0.001-0.113l9.198-3.566L266.455,370.069z"/>
	<path d="M264.404,388.717l0.418-1.052l0.129,0.051l-1.413,3.554l-0.129-0.051l0.418-1.052l-8.068-3.208l-0.418,1.052l-0.129-0.051
		l1.413-3.554l0.129,0.051l-0.419,1.052L264.404,388.717z"/>
	<path d="M261.466,394.829l0.685-0.902l0.11,0.084l-2.322,3.056l-0.11-0.084l0.693-0.912l-6.913-5.252l-0.525,0.691
		c-1.02,1.343-1.124,3.144,0.04,4.44l-0.061,0.08l-2.274-1.728l4.339-5.711l0.11,0.084l-0.685,0.902L261.466,394.829z"/>
	<path d="M254.457,402.581l0.941-0.631l0.077,0.115l-3.188,2.137l-0.077-0.115l0.951-0.638l-4.835-7.211l-0.721,0.484
		c-1.4,0.939-2.083,2.609-1.402,4.212l-0.084,0.056l-1.591-2.372l5.957-3.994l0.077,0.115l-0.941,0.631L254.457,402.581z"/>
	<path d="M239.218,404.771l-1.349,0.166c-0.899,0.111-1.715,0.071-1.973-2.027c-0.262-2.136,0.687-2.354,1.449-2.447
		c0.4-0.049,1.004-0.085,1.333-0.088L239.218,404.771z M240.224,400.159l1.124-0.138l-0.017-0.137l-2.236,0.275
		c-0.3,0.037-0.589,0.06-0.89,0.084c-0.289,0.023-0.59,0.047-0.877,0.082c-1.536,0.189-3.353,0.779-3.118,2.69
		c0.189,1.536,1.602,1.996,2.955,2.071l0.011,0.087c-0.734,0.318-2,0.854-1.835,2.19c0.186,1.511,1.806,2.111,3.579,1.893
		c0.275-0.034,0.548-0.08,0.821-0.126c0.273-0.046,0.546-0.092,0.821-0.126l1.861-0.228l-0.017-0.137l-1.124,0.138L240.224,400.159z
		 M239.734,408.967c-0.372,0.071-0.781,0.147-0.906,0.162c-1.261,0.155-1.715-0.132-1.936-1.93
		c-0.209-1.699,0.157-2.022,1.007-2.127l1.336-0.164L239.734,408.967z"/>
	<path d="M226.367,399.062l7.203,1.798l-0.034,0.134l-1.099-0.274l-2.102,8.424l1.099,0.274l-0.034,0.134l-6.495-1.621l0.524-2.1
		l0.098,0.024c0.107,1.077,0.401,2.188,2.037,2.596l1.257,0.314l0.999-4.004c-0.83-0.207-1.953-0.488-2.572,1.161l-0.098-0.024
		l0.89-3.565l0.098,0.024c-0.249,1.779,0.935,2.075,1.716,2.27l1.069-4.285l-1.819-0.454c-1.257-0.314-2.255,0.047-3.249,1.64
		l-0.098-0.024L226.367,399.062z"/>
	<path d="M218.331,398.562l-0.922-0.998c-0.615-0.665-1.06-1.351,0.493-2.785c1.58-1.46,2.312-0.817,2.833-0.254
		c0.273,0.296,0.655,0.765,0.85,1.031L218.331,398.562z M222.662,396.685l0.769,0.832l0.102-0.094l-1.529-1.654
		c-0.205-0.222-0.392-0.443-0.588-0.673c-0.187-0.221-0.383-0.451-0.579-0.664c-1.05-1.137-2.591-2.266-4.005-0.959
		c-1.137,1.051-0.685,2.466,0.045,3.608l-0.065,0.06c-0.687-0.41-1.861-1.124-2.85-0.21c-1.118,1.033-0.658,2.699,0.554,4.011
		c0.188,0.203,0.385,0.398,0.582,0.593c0.197,0.195,0.394,0.389,0.582,0.593l1.273,1.377l0.102-0.094l-0.769-0.832L222.662,396.685z
		 M215.227,401.432c-0.275-0.26-0.575-0.548-0.661-0.64c-0.862-0.933-0.895-1.469,0.436-2.699c1.257-1.162,1.733-1.054,2.314-0.425
		l0.914,0.989L215.227,401.432z"/>
	<path d="M215.916,384.688l2.389,7.029l-0.131,0.045l-0.364-1.072l-8.22,2.794l0.364,1.072l-0.131,0.044l-2.154-6.338l2.049-0.696
		l0.032,0.095c-0.848,0.674-1.622,1.522-1.08,3.118l0.417,1.227l3.908-1.328c-0.275-0.81-0.648-1.906-2.369-1.534l-0.032-0.095
		l3.479-1.182l0.032,0.095c-1.631,0.754-1.238,1.909-0.979,2.672l4.182-1.421l-0.603-1.775c-0.417-1.227-1.26-1.871-3.138-1.844
		l-0.032-0.095L215.916,384.688z"/>
	<path d="M207.339,380.784l-0.013,0.15c-0.145,1.705,1.107,2.721,2.628,3.103l-0.008,0.1l-3.009-0.257l0.662-7.773l3.009,0.256
		l-0.008,0.1c-1.564,0.119-2.969,0.909-3.115,2.614l-0.013,0.151l8.651,0.737l0.096-1.128l0.138,0.012l-0.325,3.811l-0.138-0.012
		l0.096-1.128L207.339,380.784z"/>
	<path d="M210.686,369.822l-0.082,0.126c-0.934,1.434-0.312,2.921,0.848,3.977l-0.055,0.084l-2.53-1.649l4.26-6.536l2.53,1.649
		l-0.055,0.084c-1.434-0.634-3.046-0.604-3.98,0.83l-0.083,0.126l7.274,4.741l0.618-0.949l0.116,0.076l-2.089,3.205l-0.116-0.076
		l0.618-0.949L210.686,369.822z"/>
	<path d="M227.045,367.367l-6.542,3.511l-0.066-0.122l0.998-0.535l-4.106-7.65l-0.998,0.536l-0.066-0.122l5.898-3.165l1.023,1.907
		l-0.089,0.048c-0.804-0.725-1.767-1.351-3.253-0.553l-1.142,0.613l1.952,3.637c0.754-0.405,1.774-0.952,1.124-2.588l0.089-0.048
		l1.738,3.237l-0.089,0.048c-1.011-1.485-2.087-0.908-2.796-0.527l2.088,3.892l1.652-0.887c1.142-0.613,1.639-1.551,1.303-3.399
		l0.089-0.048L227.045,367.367z"/>
	<path d="M230.135,358.521c0.202-0.005,0.656-0.038,0.971-0.026c1.308,0.05,1.622,1.056,1.577,2.238
		c-0.064,1.685-0.714,1.887-1.317,1.864l-1.383-0.053L230.135,358.521z M228.247,367.125l-1.132-0.043l-0.005,0.138l3.835,0.146
		l0.005-0.138l-1.144-0.043l0.171-4.501l1.383,0.053c0.692,0.026,1.287,0.25,1.418,1.112c0.05,0.342,0.016,1.235,0.007,1.461
		c-0.042,1.107,0.28,2.239,1.99,2.304c0.641,0.024,0.912-0.142,1.145-0.309l-0.095-0.142c-0.13,0.096-0.364,0.288-0.716,0.275
		c-0.704-0.027-0.68-0.655-0.659-1.549c0.041-1.409,0.078-2.717-2.447-3.191l0.002-0.05c0.976-0.164,2.255-0.695,2.299-1.852
		c0.066-1.723-1.76-2.384-3.194-2.438c-0.239-0.009-0.491-0.006-0.73-0.003c-0.252,0.003-0.491,0.007-0.743-0.003l-2.188-0.083
		l-0.005,0.138l1.132,0.043L228.247,367.125z"/>
	<path d="M236.769,367.386c0.372,0.185,0.52,0.623,0.335,0.995c-0.185,0.372-0.623,0.52-0.995,0.335
		c-0.372-0.185-0.52-0.623-0.335-0.995C235.958,367.349,236.397,367.201,236.769,367.386z"/>
</g>
</svg>
