<?xml version="1.0" encoding="utf-8"?>
<!-- Generator: Adobe Illustrator 17.0.0, SVG Export Plug-In . SVG Version: 6.00 Build 0)  -->
<!DOCTYPE svg PUBLIC "-//W3C//DTD SVG 1.1//EN" "http://www.w3.org/Graphics/SVG/1.1/DTD/svg11.dtd">
<svg version="1.1" id="Layer_1" xmlns="http://www.w3.org/2000/svg" xmlns:xlink="http://www.w3.org/1999/xlink" x="0px" y="0px"
	 width="199.951px" height="115.344px" viewBox="0 0 199.951 115.344" enable-background="new 0 0 199.951 115.344"
	 xml:space="preserve">
<g>
	<g>
		<path fill="#FF0000" d="M180.245,97.422c-10.745-7.956-19.961-11.259-39.439-11.167l0,0c-9.74,0.108-20.983,1.085-36.007,4.635
			l0,0c-7.511,1.799-15.43,4.138-25.102,7.943l0,0c-9.679,3.829-20.03,8.802-34.778,16.51l0,0c3.777-6.472,4.662-11.38,4.561-16.349
			l0,0l0,0l0,0c37.859-14.765,63.147-16.001,84.908-16.374l0,0c21.762-0.267,35.672,1.836,49.371,7.583l0,0l0,0l0,0
			C182.698,92.565,181.629,94.751,180.245,97.422z"/>
		<rect x="19.189" y="39.817" width="180.763" height="38.457"/>
		<path fill="#FFFFFF" d="M39.21,57.674c0-1.904,1.19-3.094,3.298-3.094c1.666,0,3.128,1.462,3.128,3.094H39.21z M52.709,61.278
			c0.102-6.46-3.876-11.016-10.472-11.016c-5.712,0-10.098,3.74-10.098,9.588c0,5.984,4.42,9.248,10.132,9.248
			c4.148,0,8.636-1.462,9.86-5.882h-6.766c-0.51,1.054-1.53,1.564-2.652,1.564c-1.87,0-3.502-1.394-3.502-3.502H52.709z"/>
		<path fill="#FFFFFF" d="M62.024,63.692c-1.836,0-2.89-1.7-2.89-4.182c0-2.38,1.156-4.012,2.856-4.012
			c1.87,0,3.094,1.326,3.094,4.148C65.084,62.094,63.894,63.692,62.024,63.692z M52.198,50.772V74.64h7.072v-7.82
			c1.19,1.496,2.618,2.278,4.556,2.278c3.978,0,8.33-2.55,8.33-9.554c0-4.896-2.584-9.282-7.956-9.282
			c-2.04,0-4.59,0.986-5.576,3.162h-0.068v-2.652H52.198z"/>
		<path fill="#FFFFFF" d="M73.04,68.588V50.772h7.072v17.816H73.04z M73.04,43.462h7.072v5.032H73.04V43.462z"/>
		<path fill="#FFFFFF" d="M93.032,57.572c-0.034-0.782-0.306-1.394-0.748-1.836c-0.442-0.476-1.054-0.714-1.836-0.714
			c-2.652,0-3.094,2.754-3.094,4.862c0,2.686,1.02,4.454,3.094,4.454c1.836,0,2.55-1.258,2.754-2.652h7.14
			c-0.612,5.406-4.964,7.412-9.894,7.412c-5.746,0-10.166-3.23-10.166-9.248c0-6.086,4.284-9.588,10.166-9.588
			c4.76,0,9.248,2.04,9.758,7.31H93.032z"/>
		<path fill="#FFFFFF" d="M106.938,57.674c0-1.904,1.19-3.094,3.298-3.094c1.666,0,3.128,1.462,3.128,3.094H106.938z
			 M120.436,61.278c0.102-6.46-3.876-11.016-10.472-11.016c-5.712,0-10.098,3.74-10.098,9.588c0,5.984,4.42,9.248,10.132,9.248
			c4.148,0,8.636-1.462,9.86-5.882h-6.766c-0.51,1.054-1.53,1.564-2.652,1.564c-1.87,0-3.502-1.394-3.502-3.502H120.436z"/>
		<path fill="#FFFFFF" d="M120.062,50.772h6.46v2.788c1.598-2.142,3.332-3.298,6.018-3.298c4.692,0,6.902,2.754,6.902,7.65v10.676
			h-7.072V59.17c0-1.768-0.476-3.332-2.482-3.332c-2.176,0-2.754,1.394-2.754,3.672v9.078h-7.071V50.772z"/>
		<path fill="#FFFFFF" d="M151.715,68.588c-9.282,0.51-10.404-0.136-10.404-6.29v-7.446h-2.516v-4.08h2.618V45.23h6.97v5.542h3.4
			v4.08h-3.4v6.46c0,1.632,0.238,2.21,2.21,2.21h1.122V68.588z"/>
		<path fill="#FFFFFF" d="M158.549,57.674c0-1.904,1.19-3.094,3.298-3.094c1.666,0,3.128,1.462,3.128,3.094H158.549z
			 M172.047,61.278c0.102-6.46-3.876-11.016-10.473-11.016c-5.712,0-10.098,3.74-10.098,9.588c0,5.984,4.42,9.248,10.132,9.248
			c4.148,0,8.636-1.462,9.86-5.882h-6.767c-0.51,1.054-1.529,1.564-2.651,1.564c-1.87,0-3.502-1.394-3.502-3.502H172.047z"/>
		<path fill="#FFFFFF" d="M171.944,50.772h6.426v3.604h0.068c0.985-2.788,2.72-4.114,5.474-4.114c0.306,0,0.612,0.068,0.918,0.102
			v7.072c-0.476-0.068-0.986-0.204-1.462-0.204c-2.89,0-4.353,1.36-4.353,5.202v6.154h-7.071V50.772z"/>
		<path fill="#FFFFFF" d="M63.136,73.653l0.522-0.968l0.544,0.968H63.136z M62.036,74.588h0.566l0.292-0.512h1.54l0.292,0.512h0.638
			l-1.402-2.327h-0.545L62.036,74.588z"/>
		<path fill="#FFFFFF" d="M68.003,74.588h0.457v-1.562l1.051,1.282h0.11l1.04-1.32v1.601h0.528v-2.327h-0.457l-1.133,1.381
			l-1.139-1.381h-0.457V74.588z"/>
		<path fill="#FFFFFF" d="M72.189,72.261h2.497v0.413h-1.925v0.506h1.122v0.402h-1.122v0.572h1.953v0.435h-2.525V72.261z"/>
		<path fill="#FFFFFF" d="M75.5,72.261h0.456l1.139,1.381l1.133-1.381h0.457v2.327h-0.528v-1.601l-1.039,1.32h-0.11l-1.05-1.282
			v1.562H75.5V72.261z"/>
		<path fill="#FFFFFF" d="M81.517,73.576c0.192,0,0.275,0.039,0.275,0.209v0.176c0,0.17-0.082,0.209-0.275,0.209h-1.271v-0.594
			H81.517z M81.517,72.641c0.176,0,0.253,0.027,0.253,0.165v0.22c0,0.138-0.082,0.165-0.253,0.165h-1.271v-0.55H81.517z
			 M79.685,74.588h1.936c0.479,0,0.721-0.148,0.721-0.456v-0.297c0-0.237-0.149-0.401-0.413-0.446
			c0.253-0.044,0.396-0.181,0.396-0.396v-0.28c0-0.33-0.176-0.451-0.55-0.451h-2.09V74.588z"/>
		<path fill="#FFFFFF" d="M83.266,72.261h2.497v0.413h-1.925v0.506h1.122v0.402h-1.122v0.572h1.953v0.435h-2.524V72.261z"/>
		<path fill="#FFFFFF" d="M88.43,72.663c0.17,0,0.258,0.033,0.258,0.187v0.27c0,0.154-0.088,0.187-0.258,0.187h-1.293v-0.643H88.43z
			 M86.577,74.588h0.561v-0.88h0.533l0.974,0.88h0.814l-1.105-0.88h0.319c0.374,0,0.544-0.126,0.544-0.446v-0.55
			c0-0.325-0.17-0.451-0.544-0.451h-2.095V74.588z"/>
		<path fill="#FFFFFF" d="M92.726,74.143v-1.452h1.876v1.452H92.726z M92.159,72.812v1.227c0,0.44,0.143,0.55,0.605,0.55h1.799
			c0.456,0,0.605-0.11,0.605-0.55v-1.227c0-0.446-0.148-0.55-0.605-0.55h-1.799C92.308,72.261,92.159,72.366,92.159,72.812z"/>
		<path fill="#FFFFFF" d="M96.113,72.261h2.47v0.418h-1.898v0.605h1.023v0.435h-1.023v0.869h-0.572V72.261z"/>
		<path fill="#FFFFFF" d="M102.587,74.588h-0.566v-1.909h-1.122v-0.418h2.816v0.418h-1.127V74.588z"/>
		<path fill="#FFFFFF" d="M104.413,72.261h0.572v0.886h1.771v-0.886h0.566v2.327h-0.566v-0.979h-1.771v0.979h-0.572V72.261z"/>
		<path fill="#FFFFFF" d="M108.329,72.261h2.497v0.413h-1.925v0.506h1.122v0.402h-1.122v0.572h1.952v0.435h-2.524V72.261z"/>
		<path fill="#FFFFFF" d="M114.483,73.653l0.522-0.968l0.544,0.968H114.483z M113.383,74.588h0.566l0.291-0.512h1.54l0.291,0.512
			h0.639l-1.403-2.327h-0.544L113.383,74.588z"/>
		<path fill="#FFFFFF" d="M117.255,72.261h0.572v1.892h1.826v0.435h-2.398V72.261z"/>
		<path fill="#FFFFFF" d="M120.258,72.261h0.572v1.892h1.826v0.435h-2.398V72.261z"/>
		<path fill="#FFFFFF" d="M123.261,72.261h0.566v2.327h-0.566V72.261z"/>
		<path fill="#FFFFFF" d="M125.576,73.653l0.522-0.968l0.545,0.968H125.576z M124.477,74.588h0.566l0.291-0.512h1.54l0.292,0.512
			h0.638l-1.402-2.327h-0.545L124.477,74.588z"/>
		<path fill="#FFFFFF" d="M128.349,72.261h0.391l1.974,1.546v-1.546h0.512v2.327h-0.391l-1.969-1.567v1.567h-0.517V72.261z"/>
		<path fill="#FFFFFF" d="M132.743,72.691v1.452h1.528v-0.495l0.572,0.115v0.275c0,0.434-0.148,0.55-0.61,0.55h-1.452
			c-0.468,0-0.605-0.121-0.605-0.55v-1.227c0-0.435,0.143-0.55,0.605-0.55h1.452c0.462,0,0.61,0.11,0.61,0.55v0.226l-0.572,0.083
			v-0.429H132.743z"/>
		<path fill="#FFFFFF" d="M135.74,72.261h2.497v0.413h-1.925v0.506h1.122v0.402h-1.122v0.572h1.952v0.435h-2.524V72.261z"/>
		<path fill="#FFFFFF" d="M141.147,72.261h2.47v0.418h-1.898v0.605h1.023v0.435h-1.023v0.869h-0.572V72.261z"/>
		<path fill="#FFFFFF" d="M144.65,74.143v-1.452h1.875v1.452H144.65z M144.084,72.812v1.227c0,0.44,0.143,0.55,0.605,0.55h1.799
			c0.456,0,0.604-0.11,0.604-0.55v-1.227c0-0.446-0.148-0.55-0.604-0.55h-1.799C144.232,72.261,144.084,72.366,144.084,72.812z"/>
		<path fill="#FFFFFF" d="M148.038,72.261h2.096c0.374,0,0.544,0.126,0.544,0.451v0.55c0,0.319-0.17,0.446-0.544,0.446h-0.319
			l1.105,0.88h-0.814l-0.974-0.88h-0.534v0.88h-0.561V72.261z M148.599,72.663v0.643h1.293c0.171,0,0.259-0.033,0.259-0.187v-0.27
			c0-0.154-0.088-0.187-0.259-0.187H148.599z"/>
		<path fill="#FFFFFF" d="M154.247,74.153v-1.474h1.001c0.539,0,0.809,0.226,0.809,0.71c0,0.605-0.357,0.765-1.078,0.765H154.247z
			 M153.676,74.588h1.424c1.023,0,1.54-0.385,1.54-1.171c0-0.721-0.479-1.155-1.396-1.155h-1.567V74.588z"/>
		<path fill="#FFFFFF" d="M157.459,72.261h2.497v0.413h-1.925v0.506h1.122v0.402h-1.122v0.572h1.953v0.435h-2.525V72.261z"/>
		<path fill="#FFFFFF" d="M160.771,72.261h0.456l1.139,1.381l1.133-1.381h0.457v2.327h-0.528v-1.601l-1.039,1.32h-0.11l-1.051-1.282
			v1.562h-0.456V72.261z"/>
		<path fill="#FFFFFF" d="M165.506,72.261h1.799c0.456,0,0.605,0.104,0.605,0.55v1.227c0,0.44-0.148,0.55-0.605,0.55h-1.799
			c-0.462,0-0.605-0.11-0.605-0.55v-1.227C164.9,72.366,165.05,72.261,165.506,72.261z M167.343,74.143v-1.452h-1.875v1.452H167.343
			z"/>
		<path fill="#FFFFFF" d="M169.367,72.691v1.452h1.528v-0.495l0.572,0.115v0.275c0,0.434-0.148,0.55-0.61,0.55h-1.452
			c-0.468,0-0.604-0.121-0.604-0.55v-1.227c0-0.435,0.143-0.55,0.604-0.55h1.452c0.462,0,0.61,0.11,0.61,0.55v0.226l-0.572,0.083
			v-0.429H169.367z"/>
		<path fill="#FFFFFF" d="M174.218,72.663c0.171,0,0.259,0.033,0.259,0.187v0.27c0,0.154-0.088,0.187-0.259,0.187h-1.292v-0.643
			H174.218z M172.364,74.588h0.562v-0.88h0.533l0.974,0.88h0.814l-1.105-0.88h0.319c0.374,0,0.544-0.126,0.544-0.446v-0.55
			c0-0.325-0.17-0.451-0.544-0.451h-2.096V74.588z"/>
		<path fill="#FFFFFF" d="M176.45,73.653l0.522-0.968l0.545,0.968H176.45z M175.351,74.588h0.566l0.291-0.512h1.54l0.292,0.512
			h0.638l-1.402-2.327h-0.545L175.351,74.588z"/>
		<path fill="#FFFFFF" d="M179.733,72.691v1.452h1.529v-0.495l0.572,0.115v0.275c0,0.434-0.148,0.55-0.61,0.55h-1.452
			c-0.468,0-0.605-0.121-0.605-0.55v-1.227c0-0.435,0.143-0.55,0.605-0.55h1.452c0.462,0,0.61,0.11,0.61,0.55v0.226l-0.572,0.083
			v-0.429H179.733z"/>
		<path fill="#FFFFFF" d="M183.407,73.543l-1.271-1.282h0.765l0.83,0.869l0.842-0.869h0.665l-1.265,1.271v1.056h-0.566V73.543z"/>
		<g>
			<path fill="#FF0000" d="M7.598,11.863c-0.259-0.402-0.522-0.799-0.783-1.199C7.074,11.065,7.338,11.458,7.598,11.863z"/>
			<path fill="#FF0000" d="M5.346,8.461c-0.234-0.346-0.47-0.692-0.707-1.036C4.876,7.769,5.111,8.113,5.346,8.461z"/>
			<path fill="#FF0000" d="M2.886,4.932C2.718,4.695,2.549,4.456,2.378,4.22C2.549,4.456,2.718,4.695,2.886,4.932z"/>
			<path fill="#FF0000" d="M119.247,21.533c-2.475,2.348-4.15,4.649-5.146,6.963c25.622-1.47,40.87,7.259,57.407,11.321h22.323
				c-0.469-1.413-1.056-2.983-1.781-4.893C161.83,44.576,156.088,14.757,119.247,21.533z"/>
			<path fill="#FF0000" d="M92.243,22.758c4.353,0.941,8.547,1.402,13.048,1.213c1.133-0.052,2.267-0.174,3.408-0.343
				c-16.494,1.91-30.899-5.509-47.596-12.519c1.712,0.725,3.406,1.453,5.089,2.18C75.333,17.237,83.534,20.846,92.243,22.758z"/>
			<path fill="#FFFFFF" d="M12.406,19.737c-0.238-0.408-0.474-0.821-0.713-1.229C11.933,18.916,12.168,19.329,12.406,19.737z"/>
			<path fill="#FFFFFF" d="M114.102,28.496c-1.002,2.332-1.31,4.676-1.011,7.095c14.247-0.05,26.031,1.948,36.757,4.227h21.661
				C154.972,35.755,139.724,27.026,114.102,28.496z"/>
			<path fill="#FFFFFF" d="M14.453,23.343c-0.236-0.428-0.475-0.854-0.715-1.279C13.978,22.488,14.216,22.914,14.453,23.343z"/>
			<path fill="#FFFFFF" d="M10.067,15.804c-0.292-0.477-0.586-0.952-0.88-1.426C9.481,14.852,9.776,15.328,10.067,15.804z"/>
			<path fill="#FF0000" d="M16.356,26.829c-0.148-0.276-0.297-0.547-0.443-0.822C16.059,26.28,16.209,26.556,16.356,26.829z"/>
			<path fill="#FF0000" d="M21.518,37.024c0.009-0.002,0.017-0.003,0.024-0.003c-0.976-2.002-1.974-3.996-2.978-5.966
				C19.562,33.014,20.541,34.99,21.518,37.024z"/>
			<path fill="#FF0000" d="M113.953,39.223c0.069,0.199,0.152,0.396,0.229,0.595h35.665c-10.726-2.278-22.51-4.276-36.757-4.227
				C113.239,36.781,113.525,37.989,113.953,39.223z"/>
			<path d="M113.091,35.591c-0.299-2.419,0.009-4.763,1.011-7.095c0.995-2.314,2.671-4.615,5.146-6.963
				c0.012-0.012,0.024-0.024,0.037-0.036c-3.719,0.708-7.187,1.628-10.585,2.131c-1.142,0.169-2.275,0.291-3.408,0.343
				c-4.501,0.189-8.695-0.271-13.048-1.213c-8.709-1.912-16.91-5.521-26.051-9.469c-1.683-0.727-3.377-1.455-5.089-2.18
				C44.194,3.959,25.662-2.575-0.001,1.019C0.806,2.073,1.597,3.143,2.378,4.22c0.171,0.236,0.34,0.475,0.508,0.712
				c0.591,0.824,1.176,1.655,1.753,2.493c0.237,0.344,0.473,0.69,0.707,1.036c0.495,0.728,0.982,1.465,1.469,2.203
				c0.261,0.4,0.525,0.797,0.783,1.199c0.536,0.83,1.063,1.67,1.59,2.515c0.294,0.474,0.588,0.948,0.88,1.426
				c0.547,0.896,1.089,1.797,1.626,2.705c0.239,0.407,0.475,0.82,0.713,1.229c0.446,0.771,0.892,1.545,1.332,2.326
				c0.24,0.425,0.479,0.852,0.715,1.279c0.489,0.882,0.976,1.769,1.459,2.664c0.146,0.275,0.296,0.546,0.443,0.822
				c0.66,1.237,1.317,2.487,1.966,3.751c0.081,0.158,0.162,0.318,0.242,0.476c1.005,1.97,2.003,3.964,2.978,5.966
				c0.455,0.932,0.903,1.865,1.346,2.796h52.727c-1.359-0.811-2.7-1.616-4.087-2.461c-1.108,0.569-2.163,1.133-3.262,1.739
				c-0.015-1.264-0.001-2.465,0.05-3.7c-1.77-1.089-3.469-2.15-5.27-3.282c1.85,0.352,3.594,0.688,5.399,1.044
				c0.097-1.213,0.228-2.346,0.412-3.504c0.941,1.415,1.866,2.752,2.861,4.149c1.776,0.349,3.452,0.679,5.187,1.016
				c-1.143,0.493-2.22,0.989-3.342,1.528c0.869,1.174,1.733,2.31,2.632,3.472h13.179c0.008-0.28,0.01-0.562,0.024-0.842
				c-1.604-0.904-3.129-1.792-4.729-2.737c1.677,0.28,3.26,0.53,4.899,0.764c0.129-1.052,0.31-2.019,0.572-2.984
				c0.762,1.12,1.534,2.213,2.407,3.378c1.616,0.195,3.152,0.352,4.741,0.476c-1.068,0.564-2.063,1.106-3.091,1.683
				c0.069,0.088,0.143,0.176,0.214,0.264h19.771c-0.077-0.198-0.16-0.396-0.229-0.595C113.525,37.989,113.239,36.781,113.091,35.591
				z M100.595,27.27c0.199,0.803,0.45,1.599,0.785,2.467c1.719,0.032,3.357-0.01,5.078-0.141c-1.574,0.661-2.984,1.218-4.391,1.762
				c0.422,0.908,0.896,1.802,1.468,2.767c-1.339-0.593-2.619-1.177-3.956-1.819c-1.324,0.503-2.535,0.958-3.759,1.432
				c0.349-0.928,0.767-1.775,1.307-2.627c-1.345-0.675-2.634-1.35-3.997-2.093c1.736,0.257,3.385,0.444,5.106,0.571
				C98.911,28.775,99.668,28.031,100.595,27.27z M79.878,26.107c1.8,0.493,3.506,0.934,5.273,1.351
				c-1.407,0.244-2.715,0.498-4.044,0.789c0.698,1.178,1.405,2.307,2.183,3.495c-1.539-0.954-3.022-1.899-4.581-2.929
				c-1.294,0.332-2.507,0.678-3.753,1.073c0.242-1.058,0.525-2.029,0.885-3.001c-1.583-1.081-3.112-2.163-4.733-3.347
				c1.866,0.571,3.629,1.101,5.458,1.631c0.436-0.906,0.922-1.724,1.509-2.519C78.646,23.818,79.229,24.937,79.878,26.107z
				 M56.526,19.154c2.02,0.575,3.917,1.137,5.871,1.725c-1.422,0.343-2.754,0.726-4.132,1.17c0.962,1.567,1.897,3.042,2.892,4.556
				c-1.789-1.213-3.531-2.397-5.383-3.681c-1.353,0.517-2.633,1.049-3.949,1.652c0.132-1.377,0.298-2.682,0.517-4.021
				c-1.903-1.325-3.764-2.617-5.757-3.999c2.139,0.503,4.146,1.013,6.207,1.565c0.279-1.312,0.596-2.541,0.979-3.795
				C54.691,15.992,55.581,17.552,56.526,19.154z M29.651,13.54c2.374,0.276,4.591,0.599,6.869,0.977
				c-1.493,0.734-2.899,1.479-4.344,2.309c1.362,1.787,2.651,3.475,3.979,5.219c-2.166-1.236-4.296-2.422-6.598-3.652
				c-1.414,0.889-2.748,1.777-4.119,2.756c-0.087-1.692-0.145-3.303-0.171-4.979c-2.401-1.206-4.78-2.332-7.379-3.447
				c2.549,0.059,4.927,0.186,7.364,0.386c0.02-1.673,0.073-3.267,0.175-4.93C26.889,9.998,28.253,11.738,29.651,13.54z
				 M48.646,29.715c1.984,0.275,3.854,0.562,5.785,0.874c-1.224,0.654-2.381,1.313-3.582,2.034c1.206,1.574,2.359,3.049,3.572,4.567
				c-1.922-1.073-3.781-2.106-5.76-3.205c-1.189,0.771-2.319,1.54-3.491,2.395c-0.074-1.499-0.127-2.928-0.157-4.419
				c-2.021-1.121-3.983-2.212-6.084-3.361c2.078,0.184,4.038,0.393,6.056,0.639c0.003-1.49,0.032-2.905,0.098-4.38
				C46.288,26.531,47.44,28.102,48.646,29.715z"/>
			<path fill="#FFFFFF" d="M25.428,8.179c-0.101,1.663-0.155,3.257-0.175,4.93c-2.438-0.2-4.815-0.327-7.364-0.386
				c2.599,1.115,4.977,2.241,7.379,3.447c0.026,1.676,0.084,3.286,0.171,4.979c1.371-0.979,2.705-1.867,4.119-2.756
				c2.302,1.231,4.432,2.416,6.598,3.652c-1.327-1.744-2.616-3.432-3.979-5.219c1.444-0.83,2.851-1.574,4.344-2.309
				c-2.278-0.379-4.495-0.701-6.869-0.977C28.253,11.738,26.889,9.998,25.428,8.179z"/>
			<path fill="#FFFFFF" d="M53.771,14.326c-0.383,1.254-0.699,2.483-0.979,3.795c-2.061-0.553-4.068-1.063-6.207-1.565
				c1.993,1.382,3.854,2.674,5.757,3.999c-0.219,1.34-0.385,2.645-0.517,4.021c1.316-0.604,2.596-1.136,3.949-1.652
				c1.852,1.283,3.594,2.468,5.383,3.681c-0.994-1.514-1.93-2.988-2.892-4.556c1.378-0.444,2.71-0.827,4.132-1.17
				c-1.954-0.588-3.852-1.149-5.871-1.725C55.581,17.552,54.691,15.992,53.771,14.326z"/>
			<path fill="#FFFFFF" d="M76.565,25.169c-1.829-0.53-3.592-1.06-5.458-1.631c1.621,1.184,3.15,2.266,4.733,3.347
				c-0.359,0.972-0.643,1.943-0.885,3.001c1.246-0.396,2.459-0.741,3.753-1.073c1.559,1.029,3.042,1.975,4.581,2.929
				c-0.777-1.188-1.484-2.317-2.183-3.495c1.329-0.291,2.637-0.545,4.044-0.789c-1.768-0.416-3.474-0.858-5.273-1.351
				c-0.649-1.17-1.232-2.288-1.804-3.456C77.487,23.445,77.001,24.263,76.565,25.169z"/>
			<path fill="#FFFFFF" d="M98.236,29.588c-1.722-0.127-3.37-0.314-5.106-0.571c1.363,0.743,2.652,1.418,3.997,2.093
				c-0.54,0.852-0.958,1.699-1.307,2.627c1.224-0.474,2.435-0.929,3.759-1.432c1.337,0.643,2.617,1.227,3.956,1.819
				c-0.571-0.965-1.046-1.858-1.468-2.767c1.406-0.544,2.816-1.101,4.391-1.762c-1.721,0.131-3.359,0.173-5.078,0.141
				c-0.335-0.868-0.586-1.664-0.785-2.467C99.668,28.031,98.911,28.775,98.236,29.588z"/>
			<path fill="#FFFFFF" d="M44.984,29.238c-2.018-0.246-3.978-0.455-6.056-0.639c2.101,1.149,4.063,2.24,6.084,3.361
				c0.03,1.491,0.083,2.92,0.157,4.419c1.172-0.854,2.302-1.624,3.491-2.395c1.978,1.099,3.838,2.132,5.76,3.205
				c-1.213-1.519-2.366-2.993-3.572-4.567c1.201-0.721,2.358-1.38,3.582-2.034c-1.931-0.312-3.801-0.599-5.785-0.874
				c-1.205-1.613-2.357-3.184-3.563-4.857C45.017,26.333,44.987,27.748,44.984,29.238z"/>
			<path fill="#FFFFFF" d="M76.905,34.817c-1.734-0.337-3.41-0.667-5.187-1.016c-0.995-1.396-1.92-2.733-2.861-4.149
				c-0.185,1.158-0.315,2.291-0.412,3.504c-1.806-0.356-3.55-0.692-5.399-1.044c1.801,1.132,3.5,2.193,5.27,3.282
				c-0.051,1.235-0.064,2.437-0.05,3.7c1.099-0.606,2.153-1.17,3.262-1.739c1.387,0.845,2.728,1.65,4.087,2.461h0.581
				c-0.898-1.162-1.763-2.298-2.632-3.472C74.686,35.807,75.763,35.311,76.905,34.817z"/>
			<path fill="#FFFFFF" d="M97.289,37.871c-1.589-0.124-3.125-0.28-4.741-0.476c-0.873-1.165-1.646-2.258-2.407-3.378
				c-0.263,0.966-0.443,1.933-0.572,2.984c-1.64-0.233-3.223-0.483-4.899-0.764c1.601,0.945,3.125,1.833,4.729,2.737
				c-0.015,0.28-0.017,0.562-0.024,0.842h5.038c-0.071-0.088-0.145-0.176-0.214-0.264C95.226,38.978,96.221,38.436,97.289,37.871z"
				/>
		</g>
		<g>
			<path fill="#FF0000" d="M159.296,78.274c10.02,0.892,18.687,2.454,27.234,4.941c0.549-1.613,1.035-3.2,1.502-4.941H159.296z"/>
			<path fill="#FF0000" d="M42.367,78.274c1.159,2.334,2.155,4.651,3.38,7.058c21.158-3.983,39.385-6.025,55.555-7.058H42.367z"/>
		</g>
		<path fill="#FFFFFF" d="M101.296,78.274c-16.169,1.032-34.393,3.074-55.549,7.058c2.295,4.58,3.577,8.704,3.732,13.662
			c37.861-14.765,63.147-16.002,84.909-16.374c21.762-0.266,35.674,1.836,49.37,7.583c1.055-2.363,1.91-4.484,2.771-6.987
			c-8.549-2.487-17.216-4.05-27.234-4.941H101.296z"/>
	</g>
</g>
</svg>
