<?xml version="1.0" encoding="utf-8"?>
<!-- Generator: Adobe Illustrator 17.0.0, SVG Export Plug-In . SVG Version: 6.00 Build 0)  -->
<!DOCTYPE svg PUBLIC "-//W3C//DTD SVG 1.1//EN" "http://www.w3.org/Graphics/SVG/1.1/DTD/svg11.dtd">
<svg version="1.1" id="Layer_1" xmlns="http://www.w3.org/2000/svg" xmlns:xlink="http://www.w3.org/1999/xlink" x="0px" y="0px"
	 width="279.558px" height="137.497px" viewBox="0 0 279.558 137.497" enable-background="new 0 0 279.558 137.497"
	 xml:space="preserve">
<path fill="#F29400" d="M153.845-0.001c-12.081,0-23.75,0.507-34.808,1.433c6.49-0.323,13.179-0.497,20.024-0.497
	c58.825,0,106.518,12.462,106.518,27.841c0,15.375-47.693,27.842-106.518,27.842c-58.831,0-106.516-12.467-106.516-27.842
	c0-0.717,0.136-1.423,0.339-2.123c-3.072,3.17-4.754,6.509-4.754,9.966c0,20.226,56.288,36.617,125.715,36.617
	c69.43,0,125.713-16.391,125.713-36.617C279.558,16.396,223.276-0.001,153.845-0.001z"/>
<rect x="0.104" y="125.37" fill="#F29400" width="279.454" height="12.128"/>
<path fill="#66747B" d="M10.564,88.982v6.791h11.588v8.947H10.564v15.953H-0.001V80.035h23.338v8.947H10.564z"/>
<path fill="#66747B" d="M39.775,93.427l9.563,27.255l11.618-0.008L45.65,80.035H34.116l-15.63,40.639h11.211L39.775,93.427z"/>
<path fill="#66747B" d="M88.12,93.671c-2.156-2.91-5.659-4.473-9.27-4.473c-6.468,0-10.833,4.959-10.833,11.265
	c0,6.413,4.419,11.049,10.995,11.049c3.45,0,6.899-1.671,9.109-4.312v12.666c-3.503,1.078-6.036,1.887-9.324,1.887
	c-5.659,0-11.049-2.157-15.253-5.983c-4.473-4.043-6.521-9.325-6.521-15.361c0-5.551,2.102-10.886,5.982-14.875
	c3.988-4.097,9.755-6.576,15.468-6.576c3.395,0,6.522,0.754,9.647,2.048V93.671z"/>
<path fill="#66747B" d="M109.408,120.674H98.844V88.982h-8.731v-8.947h28.026v8.947h-8.732V120.674z"/>
<path fill="#66747B" d="M140.452,88.928c6.306,0,11.48,5.12,11.48,10.726c0,7.007-5.174,12.127-11.48,12.127
	c-6.306,0-11.48-5.12-11.48-12.127C128.972,94.048,134.146,88.928,140.452,88.928z M140.452,78.688
	c-11.695,0-22.475,8.624-22.475,20.912c0,13.151,9.432,22.422,22.475,22.422c13.043,0,22.475-9.271,22.475-22.422
	C162.927,87.312,152.149,78.688,140.452,78.688z"/>
<path fill="#66747B" d="M182.06,120.674h-10.564V88.982h-8.732v-8.947h28.027v8.947h-8.731V120.674z"/>
<path fill="#66747B" d="M227.925,80.035v22.853c0,5.227-0.215,10.402-4.258,14.337c-3.395,3.342-8.731,4.527-13.474,4.527
	c-4.743,0-10.079-1.186-13.475-4.527c-4.041-3.935-4.258-9.109-4.258-14.337V80.035h10.565v21.397c0,5.282,0.377,11.05,7.168,11.05
	c6.791,0,7.168-5.768,7.168-11.05V80.035H227.925z"/>
<path fill="#66747B" d="M235.525,80.035h10.403l8.246,21.721l8.731-21.721h10.509l6.145,40.639h-10.564l-2.964-23.392h-0.109
	l-9.755,23.392h-4.203l-9.325-23.392h-0.108l-3.396,23.392h-10.509L235.525,80.035z"/>
<g>
	<path fill="#FFFFFF" d="M84.456,131.102c0.028,0,0.057-0.019,0.057-0.066v-0.199c0-1.439,0-1.705-0.019-2.009
		c-0.019-0.322-0.095-0.473-0.407-0.539c-0.076-0.02-0.237-0.029-0.37-0.029c-0.104,0-0.161-0.019-0.161-0.086
		c0-0.066,0.066-0.084,0.199-0.084c0.511,0,1.108,0.028,1.364,0.028c0.227,0,0.824-0.028,1.193-0.028
		c0.132,0,0.199,0.019,0.199,0.084c0,0.067-0.057,0.086-0.171,0.086c-0.076,0-0.161,0.009-0.275,0.029
		c-0.256,0.047-0.331,0.208-0.351,0.539c-0.019,0.303-0.019,0.569-0.019,2.009v1.667c0,0.871,0,1.62,0.047,2.027
		c0.029,0.266,0.086,0.474,0.37,0.511c0.132,0.02,0.341,0.038,0.483,0.038c0.104,0,0.152,0.029,0.152,0.076
		c0,0.066-0.076,0.095-0.189,0.095c-0.616,0-1.213-0.029-1.478-0.029c-0.218,0-0.815,0.029-1.184,0.029
		c-0.132,0-0.198-0.029-0.198-0.095c0-0.047,0.038-0.076,0.152-0.076c0.142,0,0.256-0.019,0.341-0.038
		c0.189-0.037,0.237-0.245,0.275-0.521c0.047-0.398,0.047-1.147,0.047-2.018v-0.833c0-0.038-0.028-0.057-0.057-0.057h-3.619
		c-0.028,0-0.057,0.009-0.057,0.057v0.833c0,0.871,0,1.62,0.047,2.027c0.028,0.266,0.085,0.474,0.369,0.511
		c0.133,0.02,0.341,0.038,0.484,0.038c0.104,0,0.152,0.029,0.152,0.076c0,0.066-0.076,0.095-0.19,0.095
		c-0.616,0-1.213-0.029-1.478-0.029c-0.218,0-0.815,0.029-1.194,0.029c-0.123,0-0.189-0.029-0.189-0.095
		c0-0.047,0.038-0.076,0.152-0.076c0.142,0,0.256-0.019,0.341-0.038c0.19-0.037,0.237-0.245,0.275-0.521
		c0.047-0.398,0.047-1.147,0.047-2.018v-1.667c0-1.439,0-1.705-0.019-2.009c-0.019-0.322-0.094-0.473-0.407-0.539
		c-0.076-0.02-0.237-0.029-0.369-0.029c-0.104,0-0.161-0.019-0.161-0.086c0-0.066,0.067-0.084,0.199-0.084
		c0.511,0,1.108,0.028,1.364,0.028c0.227,0,0.824-0.028,1.193-0.028c0.133,0,0.199,0.019,0.199,0.084
		c0,0.067-0.057,0.086-0.17,0.086c-0.076,0-0.161,0.009-0.275,0.029c-0.256,0.047-0.331,0.208-0.351,0.539
		c-0.019,0.303-0.019,0.569-0.019,2.009v0.199c0,0.047,0.028,0.066,0.057,0.066H84.456z"/>
	<path fill="#FFFFFF" d="M92.231,131.671c0-1.62,1.07-3.714,3.913-3.714c2.359,0,3.827,1.373,3.827,3.543s-1.516,3.884-3.922,3.884
		C93.33,135.384,92.231,133.348,92.231,131.671z M98.645,131.851c0-2.122-1.222-3.439-2.776-3.439c-1.089,0-2.33,0.606-2.33,2.965
		c0,1.97,1.089,3.534,2.908,3.534C97.11,134.911,98.645,134.588,98.645,131.851z"/>
	<path fill="#FFFFFF" d="M106.903,128.204c0.028-0.161,0.085-0.246,0.161-0.246c0.076,0,0.132,0.047,0.256,0.294l2.587,5.267
		l2.577-5.333c0.076-0.152,0.123-0.228,0.208-0.228c0.085,0,0.142,0.095,0.171,0.294l0.862,5.798
		c0.085,0.597,0.18,0.871,0.464,0.957c0.275,0.084,0.465,0.095,0.587,0.095c0.086,0,0.152,0.009,0.152,0.066
		c0,0.075-0.113,0.104-0.246,0.104c-0.237,0-1.544-0.019-1.923-0.047c-0.218-0.019-0.275-0.047-0.275-0.104
		c0-0.047,0.038-0.076,0.104-0.104c0.057-0.019,0.085-0.142,0.047-0.407l-0.569-4.121h-0.038l-2.065,4.225
		c-0.218,0.445-0.265,0.53-0.351,0.53c-0.085,0-0.18-0.189-0.331-0.473c-0.227-0.436-0.976-1.885-1.089-2.151
		c-0.086-0.199-0.654-1.317-0.985-2.027h-0.038l-0.492,3.694c-0.019,0.171-0.028,0.294-0.028,0.445c0,0.18,0.123,0.266,0.284,0.303
		c0.171,0.038,0.303,0.047,0.398,0.047c0.076,0,0.142,0.02,0.142,0.066c0,0.086-0.085,0.105-0.227,0.105
		c-0.397,0-0.824-0.029-0.994-0.029c-0.18,0-0.635,0.029-0.938,0.029c-0.095,0-0.171-0.02-0.171-0.105
		c0-0.046,0.057-0.066,0.152-0.066c0.076,0,0.142,0,0.284-0.028c0.266-0.057,0.341-0.427,0.389-0.749L106.903,128.204z"/>
	<path fill="#FFFFFF" d="M120.988,130.837c0-1.439,0-1.705-0.019-2.009c-0.019-0.322-0.095-0.473-0.407-0.539
		c-0.076-0.02-0.237-0.029-0.37-0.029c-0.104,0-0.161-0.019-0.161-0.086c0-0.066,0.067-0.084,0.208-0.084
		c0.256,0,0.531,0.009,0.768,0.009c0.246,0.009,0.464,0.019,0.596,0.019c0.303,0,2.189,0,2.368-0.009
		c0.18-0.019,0.331-0.038,0.407-0.057c0.047-0.009,0.104-0.038,0.152-0.038c0.047,0,0.057,0.038,0.057,0.086
		c0,0.066-0.047,0.18-0.076,0.616c-0.009,0.095-0.028,0.511-0.047,0.626c-0.009,0.046-0.028,0.104-0.094,0.104
		c-0.067,0-0.086-0.047-0.086-0.133c0-0.066-0.009-0.228-0.057-0.341c-0.067-0.17-0.161-0.283-0.635-0.34
		c-0.161-0.02-1.156-0.038-1.345-0.038c-0.047,0-0.067,0.028-0.067,0.095v2.396c0,0.066,0.009,0.104,0.067,0.104
		c0.208,0,1.298,0,1.516-0.019c0.227-0.02,0.369-0.047,0.455-0.142c0.066-0.076,0.104-0.124,0.152-0.124
		c0.038,0,0.066,0.02,0.066,0.076c0,0.057-0.038,0.208-0.076,0.692c-0.009,0.189-0.038,0.568-0.038,0.634c0,0.076,0,0.18-0.086,0.18
		c-0.066,0-0.085-0.038-0.085-0.086c-0.009-0.095-0.009-0.218-0.038-0.341c-0.047-0.189-0.181-0.331-0.531-0.369
		c-0.18-0.019-1.118-0.028-1.346-0.028c-0.047,0-0.057,0.037-0.057,0.094v0.749c0,0.323-0.009,1.194,0,1.468
		c0.019,0.654,0.171,0.796,1.137,0.796c0.246,0,0.644,0,0.89-0.113c0.246-0.115,0.36-0.312,0.426-0.701
		c0.019-0.104,0.038-0.142,0.104-0.142c0.076,0,0.076,0.076,0.076,0.17c0,0.219-0.076,0.862-0.123,1.052
		c-0.066,0.246-0.152,0.246-0.511,0.246c-0.71,0-1.232-0.019-1.639-0.028c-0.407-0.02-0.701-0.029-0.985-0.029
		c-0.104,0-0.312,0-0.54,0.009c-0.218,0-0.464,0.02-0.654,0.02c-0.123,0-0.189-0.029-0.189-0.095c0-0.047,0.038-0.076,0.152-0.076
		c0.142,0,0.256-0.019,0.341-0.038c0.19-0.037,0.237-0.245,0.275-0.521c0.047-0.398,0.047-1.147,0.047-2.018V130.837z"/>
	<path fill="#FFFFFF" d="M138.921,130.837c0-1.439,0-1.705-0.019-2.009c-0.019-0.322-0.113-0.482-0.322-0.53
		c-0.104-0.029-0.227-0.038-0.341-0.038c-0.095,0-0.152-0.019-0.152-0.095c0-0.057,0.076-0.075,0.227-0.075
		c0.36,0,0.957,0.028,1.232,0.028c0.237,0,0.795-0.028,1.155-0.028c0.123,0,0.199,0.019,0.199,0.075
		c0,0.076-0.057,0.095-0.152,0.095c-0.094,0-0.17,0.009-0.284,0.029c-0.256,0.047-0.331,0.208-0.351,0.539
		c-0.019,0.303-0.019,0.569-0.019,2.009v1.667c0,0.919,0,1.667,0.038,2.075c0.028,0.256,0.095,0.427,0.379,0.464
		c0.132,0.02,0.341,0.038,0.483,0.038c0.104,0,0.152,0.029,0.152,0.076c0,0.066-0.076,0.095-0.18,0.095
		c-0.625,0-1.222-0.029-1.478-0.029c-0.218,0-0.815,0.029-1.193,0.029c-0.123,0-0.189-0.029-0.189-0.095
		c0-0.047,0.038-0.076,0.152-0.076c0.142,0,0.256-0.019,0.341-0.038c0.19-0.037,0.246-0.199,0.275-0.473
		c0.047-0.398,0.047-1.147,0.047-2.065V130.837z"/>
	<path fill="#FFFFFF" d="M148.106,128.204c0.028-0.161,0.086-0.246,0.161-0.246c0.076,0,0.133,0.047,0.256,0.294l2.586,5.267
		l2.577-5.333c0.076-0.152,0.124-0.228,0.208-0.228c0.086,0,0.142,0.095,0.171,0.294l0.862,5.798
		c0.086,0.597,0.179,0.871,0.464,0.957c0.274,0.084,0.464,0.095,0.588,0.095c0.084,0,0.152,0.009,0.152,0.066
		c0,0.075-0.115,0.104-0.246,0.104c-0.237,0-1.545-0.019-1.923-0.047c-0.219-0.019-0.275-0.047-0.275-0.104
		c0-0.047,0.038-0.076,0.104-0.104c0.057-0.019,0.086-0.142,0.047-0.407l-0.568-4.121h-0.038l-2.065,4.225
		c-0.218,0.445-0.265,0.53-0.351,0.53c-0.084,0-0.179-0.189-0.331-0.473c-0.228-0.436-0.975-1.885-1.09-2.151
		c-0.084-0.199-0.654-1.317-0.985-2.027h-0.038l-0.493,3.694c-0.019,0.171-0.028,0.294-0.028,0.445c0,0.18,0.123,0.266,0.283,0.303
		c0.171,0.038,0.303,0.047,0.398,0.047c0.076,0,0.142,0.02,0.142,0.066c0,0.086-0.086,0.105-0.227,0.105
		c-0.398,0-0.825-0.029-0.995-0.029c-0.18,0-0.635,0.029-0.938,0.029c-0.095,0-0.17-0.02-0.17-0.105
		c0-0.046,0.057-0.066,0.152-0.066c0.075,0,0.142,0,0.285-0.028c0.265-0.057,0.34-0.427,0.388-0.749L148.106,128.204z"/>
	<path fill="#FFFFFF" d="M162.19,130.837c0-1.439,0-1.705-0.019-2.009c-0.019-0.322-0.095-0.473-0.407-0.539
		c-0.076-0.02-0.237-0.029-0.369-0.029c-0.104,0-0.162-0.019-0.162-0.086c0-0.066,0.067-0.084,0.208-0.084
		c0.502,0,1.099,0.028,1.365,0.028c0.388,0,0.937-0.028,1.373-0.028c1.184,0,1.611,0.398,1.762,0.54
		c0.208,0.198,0.473,0.625,0.473,1.127c0,1.344-0.986,2.292-2.33,2.292c-0.047,0-0.152,0-0.199-0.009
		c-0.047-0.009-0.113-0.019-0.113-0.086c0-0.075,0.066-0.104,0.265-0.104c0.53,0,1.269-0.597,1.269-1.563
		c0-0.312-0.029-0.946-0.559-1.421c-0.341-0.312-0.729-0.369-0.948-0.369c-0.142,0-0.283,0.009-0.369,0.038
		c-0.047,0.019-0.076,0.075-0.076,0.179v3.789c0,0.871,0,1.62,0.047,2.027c0.029,0.266,0.086,0.474,0.37,0.511
		c0.132,0.02,0.34,0.038,0.482,0.038c0.104,0,0.152,0.029,0.152,0.076c0,0.066-0.075,0.095-0.179,0.095
		c-0.626,0-1.223-0.029-1.468-0.029c-0.219,0-0.816,0.029-1.194,0.029c-0.124,0-0.19-0.029-0.19-0.095
		c0-0.047,0.038-0.076,0.152-0.076c0.142,0,0.256-0.019,0.341-0.038c0.19-0.037,0.237-0.245,0.274-0.521
		c0.047-0.398,0.047-1.147,0.047-2.018V130.837z"/>
	<path fill="#FFFFFF" d="M172.949,130.837c0-1.439,0-1.705-0.019-2.009c-0.02-0.322-0.095-0.473-0.407-0.539
		c-0.076-0.02-0.237-0.029-0.37-0.029c-0.104,0-0.161-0.019-0.161-0.086c0-0.066,0.067-0.084,0.208-0.084
		c0.502,0,1.099,0.028,1.298,0.028c0.322,0,1.042-0.028,1.336-0.028c0.596,0,1.231,0.057,1.742,0.407
		c0.265,0.179,0.644,0.663,0.644,1.298c0,0.7-0.294,1.344-1.251,2.122c0.843,1.061,1.497,1.903,2.056,2.491
		c0.53,0.55,0.919,0.616,1.061,0.644c0.104,0.019,0.189,0.028,0.265,0.028c0.075,0,0.113,0.029,0.113,0.076
		c0,0.075-0.066,0.095-0.179,0.095h-0.9c-0.531,0-0.767-0.047-1.014-0.181c-0.407-0.218-0.767-0.663-1.298-1.393
		c-0.378-0.521-0.815-1.165-0.937-1.306c-0.047-0.058-0.105-0.067-0.171-0.067l-0.824-0.019c-0.047,0-0.076,0.019-0.076,0.075v0.133
		c0,0.88,0,1.629,0.047,2.027c0.029,0.275,0.086,0.484,0.37,0.521c0.141,0.02,0.351,0.038,0.464,0.038
		c0.075,0,0.113,0.029,0.113,0.076c0,0.066-0.066,0.095-0.19,0.095c-0.55,0-1.25-0.029-1.392-0.029c-0.18,0-0.778,0.029-1.156,0.029
		c-0.124,0-0.19-0.029-0.19-0.095c0-0.047,0.038-0.076,0.152-0.076c0.142,0,0.256-0.019,0.341-0.038
		c0.19-0.037,0.237-0.245,0.274-0.521c0.047-0.398,0.047-1.147,0.047-2.018V130.837z M174.066,131.586
		c0,0.104,0.02,0.142,0.086,0.17c0.199,0.067,0.484,0.095,0.72,0.095c0.38,0,0.502-0.038,0.673-0.161
		c0.283-0.208,0.559-0.644,0.559-1.421c0-1.346-0.891-1.733-1.45-1.733c-0.237,0-0.407,0.009-0.502,0.037
		c-0.066,0.02-0.086,0.058-0.086,0.133V131.586z"/>
	<path fill="#FFFFFF" d="M183.575,131.671c0-1.62,1.07-3.714,3.912-3.714c2.359,0,3.827,1.373,3.827,3.543s-1.516,3.884-3.922,3.884
		C184.674,135.384,183.575,133.348,183.575,131.671z M189.988,131.851c0-2.122-1.222-3.439-2.776-3.439
		c-1.09,0-2.33,0.606-2.33,2.965c0,1.97,1.089,3.534,2.908,3.534C188.454,134.911,189.988,134.588,189.988,131.851z"/>
	<path fill="#FFFFFF" d="M197.072,129.018c-0.218-0.521-0.378-0.625-0.72-0.72c-0.142-0.038-0.294-0.038-0.369-0.038
		c-0.086,0-0.115-0.028-0.115-0.086c0-0.075,0.104-0.084,0.246-0.084c0.502,0,1.042,0.028,1.373,0.028
		c0.237,0,0.692-0.028,1.165-0.028c0.115,0,0.219,0.019,0.219,0.084c0,0.067-0.057,0.086-0.142,0.086
		c-0.152,0-0.294,0.009-0.369,0.067c-0.067,0.046-0.095,0.113-0.095,0.198c0,0.124,0.084,0.389,0.218,0.73l1.629,4.301h0.038
		c0.407-1.042,1.64-4.092,1.866-4.717c0.047-0.124,0.086-0.266,0.086-0.351c0-0.076-0.038-0.152-0.124-0.18
		c-0.113-0.038-0.256-0.047-0.378-0.047c-0.086,0-0.161-0.009-0.161-0.075c0-0.076,0.084-0.095,0.265-0.095
		c0.473,0,0.871,0.028,0.995,0.028c0.161,0,0.606-0.028,0.89-0.028c0.124,0,0.199,0.019,0.199,0.084
		c0,0.067-0.057,0.086-0.152,0.086c-0.095,0-0.294,0-0.464,0.113c-0.124,0.086-0.265,0.246-0.521,0.853
		c-0.37,0.891-0.626,1.402-1.137,2.567c-0.606,1.384-1.052,2.416-1.26,2.889c-0.246,0.55-0.303,0.701-0.435,0.701
		c-0.124,0-0.18-0.132-0.361-0.577L197.072,129.018z"/>
	<path fill="#FFFFFF" d="M209.356,130.837c0-1.439,0-1.705-0.02-2.009c-0.019-0.322-0.095-0.473-0.407-0.539
		c-0.075-0.02-0.237-0.029-0.369-0.029c-0.104,0-0.161-0.019-0.161-0.086c0-0.066,0.066-0.084,0.208-0.084
		c0.256,0,0.53,0.009,0.767,0.009c0.246,0.009,0.464,0.019,0.597,0.019c0.303,0,2.188,0,2.368-0.009
		c0.179-0.019,0.331-0.038,0.407-0.057c0.047-0.009,0.104-0.038,0.152-0.038s0.057,0.038,0.057,0.086
		c0,0.066-0.047,0.18-0.076,0.616c-0.009,0.095-0.028,0.511-0.047,0.626c-0.009,0.046-0.028,0.104-0.094,0.104
		c-0.067,0-0.086-0.047-0.086-0.133c0-0.066-0.009-0.228-0.057-0.341c-0.067-0.17-0.161-0.283-0.635-0.34
		c-0.161-0.02-1.156-0.038-1.344-0.038c-0.047,0-0.067,0.028-0.067,0.095v2.396c0,0.066,0.009,0.104,0.067,0.104
		c0.208,0,1.297,0,1.516-0.019c0.227-0.02,0.369-0.047,0.455-0.142c0.066-0.076,0.104-0.124,0.152-0.124
		c0.037,0,0.066,0.02,0.066,0.076c0,0.057-0.038,0.208-0.076,0.692c-0.009,0.189-0.037,0.568-0.037,0.634c0,0.076,0,0.18-0.086,0.18
		c-0.066,0-0.086-0.038-0.086-0.086c-0.009-0.095-0.009-0.218-0.038-0.341c-0.046-0.189-0.179-0.331-0.53-0.369
		c-0.18-0.019-1.118-0.028-1.346-0.028c-0.047,0-0.057,0.037-0.057,0.094v0.749c0,0.323-0.009,1.194,0,1.468
		c0.02,0.654,0.171,0.796,1.137,0.796c0.246,0,0.643,0,0.89-0.113c0.246-0.115,0.36-0.312,0.427-0.701
		c0.019-0.104,0.038-0.142,0.104-0.142c0.075,0,0.075,0.076,0.075,0.17c0,0.219-0.075,0.862-0.123,1.052
		c-0.066,0.246-0.152,0.246-0.511,0.246c-0.71,0-1.232-0.019-1.64-0.028c-0.407-0.02-0.701-0.029-0.985-0.029
		c-0.104,0-0.312,0-0.54,0.009c-0.218,0-0.464,0.02-0.654,0.02c-0.123,0-0.19-0.029-0.19-0.095c0-0.047,0.038-0.076,0.152-0.076
		c0.142,0,0.257-0.019,0.341-0.038c0.19-0.037,0.237-0.245,0.275-0.521c0.047-0.398,0.047-1.147,0.047-2.018V130.837z"/>
	<path fill="#FFFFFF" d="M220.246,128.204c0.028-0.161,0.086-0.246,0.161-0.246c0.076,0,0.133,0.047,0.256,0.294l2.586,5.267
		l2.577-5.333c0.076-0.152,0.124-0.228,0.208-0.228c0.086,0,0.142,0.095,0.171,0.294l0.862,5.798
		c0.086,0.597,0.179,0.871,0.464,0.957c0.275,0.084,0.464,0.095,0.588,0.095c0.084,0,0.152,0.009,0.152,0.066
		c0,0.075-0.115,0.104-0.246,0.104c-0.237,0-1.545-0.019-1.923-0.047c-0.219-0.019-0.275-0.047-0.275-0.104
		c0-0.047,0.038-0.076,0.104-0.104c0.058-0.019,0.086-0.142,0.047-0.407l-0.568-4.121h-0.038l-2.065,4.225
		c-0.218,0.445-0.265,0.53-0.349,0.53c-0.086,0-0.18-0.189-0.332-0.473c-0.228-0.436-0.975-1.885-1.09-2.151
		c-0.084-0.199-0.654-1.317-0.985-2.027h-0.038l-0.493,3.694c-0.019,0.171-0.028,0.294-0.028,0.445c0,0.18,0.123,0.266,0.283,0.303
		c0.171,0.038,0.303,0.047,0.398,0.047c0.076,0,0.142,0.02,0.142,0.066c0,0.086-0.086,0.105-0.227,0.105
		c-0.398,0-0.825-0.029-0.995-0.029c-0.18,0-0.635,0.029-0.938,0.029c-0.094,0-0.17-0.02-0.17-0.105
		c0-0.046,0.057-0.066,0.152-0.066c0.076,0,0.142,0,0.285-0.028c0.265-0.057,0.34-0.427,0.388-0.749L220.246,128.204z"/>
	<path fill="#FFFFFF" d="M234.33,130.837c0-1.439,0-1.705-0.019-2.009c-0.019-0.322-0.095-0.473-0.407-0.539
		c-0.076-0.02-0.237-0.029-0.369-0.029c-0.104,0-0.162-0.019-0.162-0.086c0-0.066,0.067-0.084,0.209-0.084
		c0.256,0,0.53,0.009,0.767,0.009c0.246,0.009,0.464,0.019,0.597,0.019c0.303,0,2.188,0,2.367-0.009
		c0.18-0.019,0.332-0.038,0.408-0.057c0.046-0.009,0.104-0.038,0.152-0.038c0.046,0,0.057,0.038,0.057,0.086
		c0,0.066-0.047,0.18-0.076,0.616c-0.009,0.095-0.028,0.511-0.047,0.626c-0.009,0.046-0.028,0.104-0.095,0.104
		c-0.066,0-0.084-0.047-0.084-0.133c0-0.066-0.01-0.228-0.057-0.341c-0.067-0.17-0.162-0.283-0.635-0.34
		c-0.161-0.02-1.156-0.038-1.346-0.038c-0.047,0-0.066,0.028-0.066,0.095v2.396c0,0.066,0.009,0.104,0.066,0.104
		c0.208,0,1.298,0,1.516-0.019c0.228-0.02,0.37-0.047,0.455-0.142c0.067-0.076,0.104-0.124,0.152-0.124
		c0.038,0,0.067,0.02,0.067,0.076c0,0.057-0.038,0.208-0.076,0.692c-0.009,0.189-0.038,0.568-0.038,0.634c0,0.076,0,0.18-0.084,0.18
		c-0.067,0-0.086-0.038-0.086-0.086c-0.009-0.095-0.009-0.218-0.038-0.341c-0.047-0.189-0.179-0.331-0.53-0.369
		c-0.18-0.019-1.118-0.028-1.346-0.028c-0.047,0-0.057,0.037-0.057,0.094v0.749c0,0.323-0.009,1.194,0,1.468
		c0.019,0.654,0.17,0.796,1.137,0.796c0.245,0,0.643,0,0.89-0.113c0.246-0.115,0.36-0.312,0.427-0.701
		c0.019-0.104,0.037-0.142,0.104-0.142c0.075,0,0.075,0.076,0.075,0.17c0,0.219-0.075,0.862-0.123,1.052
		c-0.067,0.246-0.152,0.246-0.511,0.246c-0.71,0-1.232-0.019-1.64-0.028c-0.407-0.02-0.701-0.029-0.985-0.029
		c-0.104,0-0.314,0-0.54,0.009c-0.218,0-0.464,0.02-0.654,0.02c-0.123,0-0.19-0.029-0.19-0.095c0-0.047,0.038-0.076,0.152-0.076
		c0.142,0,0.256-0.019,0.341-0.038c0.19-0.037,0.237-0.245,0.274-0.521c0.047-0.398,0.047-1.147,0.047-2.018V130.837z"/>
	<path fill="#FFFFFF" d="M245.401,133.963c0.02,0.739,0.142,0.986,0.332,1.052c0.161,0.057,0.341,0.066,0.493,0.066
		c0.104,0,0.161,0.02,0.161,0.076c0,0.075-0.086,0.095-0.218,0.095c-0.617,0-0.995-0.029-1.176-0.029
		c-0.084,0-0.53,0.029-1.023,0.029c-0.123,0-0.208-0.01-0.208-0.095c0-0.057,0.057-0.076,0.152-0.076
		c0.123,0,0.294-0.009,0.426-0.047c0.246-0.075,0.285-0.351,0.294-1.174l0.086-5.579c0-0.19,0.028-0.323,0.123-0.323
		c0.104,0,0.19,0.124,0.351,0.294c0.113,0.123,1.554,1.638,2.937,3.013c0.644,0.643,1.923,2.007,2.085,2.159h0.046l-0.094-4.253
		c-0.01-0.577-0.095-0.758-0.323-0.853c-0.142-0.057-0.369-0.057-0.502-0.057c-0.113,0-0.152-0.028-0.152-0.086
		c0-0.075,0.104-0.084,0.246-0.084c0.493,0,0.948,0.028,1.147,0.028c0.104,0,0.464-0.028,0.928-0.028
		c0.124,0,0.219,0.009,0.219,0.084c0,0.058-0.058,0.086-0.171,0.086c-0.095,0-0.17,0-0.283,0.029
		c-0.266,0.075-0.341,0.274-0.351,0.805l-0.104,5.977c0,0.208-0.038,0.294-0.124,0.294c-0.104,0-0.218-0.104-0.322-0.208
		c-0.597-0.569-1.81-1.81-2.795-2.785c-1.032-1.024-2.084-2.18-2.254-2.359h-0.029L245.401,133.963z"/>
	<path fill="#FFFFFF" d="M259.657,128.62l-1.412,0.038c-0.55,0.019-0.778,0.066-0.919,0.275c-0.095,0.141-0.142,0.256-0.162,0.331
		c-0.019,0.076-0.047,0.113-0.104,0.113c-0.066,0-0.084-0.047-0.084-0.152c0-0.152,0.179-1.014,0.199-1.089
		c0.028-0.124,0.057-0.18,0.113-0.18c0.075,0,0.17,0.095,0.407,0.113c0.274,0.029,0.634,0.047,0.948,0.047h3.751
		c0.303,0,0.511-0.028,0.654-0.047c0.142-0.028,0.218-0.046,0.256-0.046c0.066,0,0.075,0.057,0.075,0.198
		c0,0.199-0.028,0.853-0.028,1.099c-0.009,0.095-0.029,0.152-0.086,0.152c-0.075,0-0.095-0.047-0.104-0.19l-0.009-0.104
		c-0.02-0.245-0.275-0.511-1.118-0.53l-1.194-0.029v3.884c0,0.871,0,1.62,0.047,2.027c0.029,0.266,0.086,0.474,0.369,0.511
		c0.133,0.02,0.341,0.038,0.484,0.038c0.104,0,0.152,0.029,0.152,0.076c0,0.066-0.076,0.095-0.18,0.095
		c-0.625,0-1.222-0.029-1.487-0.029c-0.218,0-0.815,0.029-1.194,0.029c-0.123,0-0.189-0.029-0.189-0.095
		c0-0.047,0.037-0.076,0.152-0.076c0.141,0,0.256-0.019,0.34-0.038c0.19-0.037,0.246-0.245,0.275-0.521
		c0.047-0.398,0.047-1.147,0.047-2.018V128.62z"/>
	<path fill="#FFFFFF" d="M269.155,135.138c-0.152-0.066-0.18-0.113-0.18-0.322c0-0.521,0.038-1.09,0.047-1.242
		c0.009-0.141,0.038-0.246,0.113-0.246c0.086,0,0.095,0.086,0.095,0.162c0,0.123,0.038,0.322,0.086,0.482
		c0.208,0.701,0.767,0.957,1.355,0.957c0.853,0,1.269-0.577,1.269-1.08c0-0.464-0.142-0.9-0.928-1.516l-0.436-0.341
		c-1.042-0.815-1.402-1.478-1.402-2.245c0-1.042,0.871-1.791,2.189-1.791c0.616,0,1.014,0.095,1.259,0.161
		c0.086,0.02,0.133,0.047,0.133,0.115c0,0.123-0.038,0.398-0.038,1.136c0,0.208-0.028,0.285-0.104,0.285
		c-0.066,0-0.095-0.057-0.095-0.171c0-0.084-0.047-0.378-0.245-0.625c-0.142-0.18-0.418-0.464-1.033-0.464
		c-0.701,0-1.127,0.407-1.127,0.975c0,0.436,0.218,0.767,1.004,1.364l0.265,0.199c1.147,0.862,1.554,1.516,1.554,2.416
		c0,0.55-0.209,1.203-0.891,1.649c-0.473,0.303-1.004,0.388-1.506,0.388C269.988,135.384,269.562,135.318,269.155,135.138z"/>
</g>
</svg>
