<?xml version="1.0" encoding="utf-8"?>
<!-- Generator: Adobe Illustrator 17.0.0, SVG Export Plug-In . SVG Version: 6.00 Build 0)  -->
<!DOCTYPE svg PUBLIC "-//W3C//DTD SVG 1.1//EN" "http://www.w3.org/Graphics/SVG/1.1/DTD/svg11.dtd">
<svg version="1.1" id="Layer_1" xmlns="http://www.w3.org/2000/svg" xmlns:xlink="http://www.w3.org/1999/xlink" x="0px" y="0px"
	 width="100%" height="100%" viewBox="0 0 275.645 122.585" enable-background="new 0 0 275.645 122.585"
	 xml:space="preserve">
<rect x="0" y="0" width="275.645" height="122.585"/>
<g>
	<linearGradient id="SVGID_1_" gradientUnits="userSpaceOnUse" x1="85.6118" y1="1.8641" x2="191.2238" y2="1.8641">
		<stop  offset="0" style="stop-color:#000000"/>
		<stop  offset="0.5" style="stop-color:#4D4D4D"/>
		<stop  offset="1" style="stop-color:#1A171B"/>
	</linearGradient>
	<path fill="url(#SVGID_1_)" d="M88.692,0h-2.93c0.232,1.27,0.578,2.594,1.097,3.728C87.351,2.475,87.967,1.231,88.692,0z"/>
	<linearGradient id="SVGID_2_" gradientUnits="userSpaceOnUse" x1="85.6118" y1="47.1099" x2="191.2238" y2="47.1099">
		<stop  offset="0" style="stop-color:#000000"/>
		<stop  offset="0.5" style="stop-color:#4D4D4D"/>
		<stop  offset="1" style="stop-color:#1A171B"/>
	</linearGradient>
	<path fill="url(#SVGID_2_)" d="M167.576,53.393c0,0,7.446,4.497,11.921,8.168c7.344-6.525,10.974-13.787,10.874-21.039
		c0-2.772-1.585-7.864-1.585-7.864C185.833,40.173,178.763,47.373,167.576,53.393z"/>
	<linearGradient id="SVGID_3_" gradientUnits="userSpaceOnUse" x1="85.6118" y1="106.5238" x2="191.2238" y2="106.5238">
		<stop  offset="0" style="stop-color:#000000"/>
		<stop  offset="0.5" style="stop-color:#4D4D4D"/>
		<stop  offset="1" style="stop-color:#1A171B"/>
	</linearGradient>
	<path fill="url(#SVGID_3_)" d="M164.247,112.897l-20.056,9.688h31.316c9.781-7.123,14.737-15.364,14.866-23.621
		c0-4.034-1.588-8.501-1.588-8.501C185.549,98.698,177.373,106.557,164.247,112.897z"/>
	<linearGradient id="SVGID_4_" gradientUnits="userSpaceOnUse" x1="85.6118" y1="90.4773" x2="191.2238" y2="90.4773">
		<stop  offset="0" style="stop-color:#000000"/>
		<stop  offset="0.5" style="stop-color:#4D4D4D"/>
		<stop  offset="1" style="stop-color:#1A171B"/>
	</linearGradient>
	<path fill="url(#SVGID_4_)" d="M167.576,69.729c-6.375-3.386-9.842-4.62-16.717-8.168l-39.461,19.062
		c-17.438,8.423-26.146,19.526-26.13,30.63c0,5.197,1.59,8.141,1.59,8.141c3.237-8.235,11.413-16.096,24.539-22.436l52.849-25.527
		C165.397,70.875,166.502,70.306,167.576,69.729z"/>
</g>
<linearGradient id="SVGID_5_" gradientUnits="userSpaceOnUse" x1="129.6974" y1="71.218" x2="149.4643" y2="29.5471">
	<stop  offset="0" style="stop-color:#FFFFFF"/>
	<stop  offset="0.2887" style="stop-color:#404042"/>
	<stop  offset="0.6346" style="stop-color:#404042"/>
	<stop  offset="1" style="stop-color:#FFFFFF"/>
</linearGradient>
<path fill="url(#SVGID_5_)" d="M14.042,56.015v-1.347c0-0.192,0.087-0.333,0.332-0.333c0.246,0,0.332,0.14,0.332,0.333v1.678
	c0,0.239-0.16,0.332-0.332,0.332h-2.627c-0.173,0-0.333-0.093-0.333-0.332c0-0.238,0.16-0.332,0.333-0.332h0.979v-3.854h-0.979
	c-0.173,0-0.333-0.092-0.333-0.331c0-0.239,0.16-0.332,0.333-0.332h1.644v4.516H14.042z M29.638,56.015v-1.347
	c0-0.192,0.086-0.333,0.332-0.333c0.246,0,0.332,0.14,0.332,0.333v1.678c0,0.239-0.159,0.332-0.332,0.332h-2.626
	c-0.173,0-0.333-0.093-0.333-0.332c0-0.238,0.16-0.332,0.333-0.332h0.979v-3.854h-0.979c-0.173,0-0.333-0.092-0.333-0.331
	c0-0.239,0.16-0.332,0.333-0.332h1.643v4.516H29.638z M45.232,56.015v-1.347c0-0.192,0.087-0.333,0.333-0.333
	c0.245,0,0.332,0.14,0.332,0.333v1.678c0,0.239-0.16,0.332-0.332,0.332h-2.626c-0.173,0-0.334-0.093-0.334-0.332
	c0-0.238,0.161-0.332,0.334-0.332h0.979v-3.854h-0.979c-0.173,0-0.334-0.092-0.334-0.331c0-0.239,0.161-0.332,0.334-0.332h1.643
	v4.516H45.232z M60.828,56.015v-1.347c0-0.192,0.087-0.333,0.332-0.333c0.246,0,0.332,0.14,0.332,0.333v1.678
	c0,0.239-0.159,0.332-0.332,0.332h-2.626c-0.173,0-0.332-0.093-0.332-0.332c0-0.238,0.159-0.332,0.332-0.332h0.98v-3.854h-0.98
	c-0.173,0-0.332-0.092-0.332-0.331c0-0.239,0.159-0.332,0.332-0.332h1.644v4.516H60.828z M74.458,56.015v-3.854h1.965v3.854H74.458z
	 M74.458,51.499c-0.365,0-0.664,0.299-0.664,0.663v3.854c0,0.371,0.285,0.664,0.664,0.664h1.965c0.379,0,0.664-0.292,0.664-0.664
	v-3.854c0-0.364-0.299-0.663-0.664-0.663H74.458z M90.053,56.015v-3.854h1.966v3.854H90.053z M90.053,51.499
	c-0.365,0-0.664,0.299-0.664,0.663v3.854c0,0.371,0.285,0.664,0.664,0.664h1.966c0.378,0,0.664-0.292,0.664-0.664v-3.854
	c0-0.364-0.299-0.663-0.664-0.663H90.053z M107.614,56.015v-1.347c0-0.192,0.087-0.333,0.332-0.333c0.246,0,0.331,0.14,0.331,0.333
	v1.678c0,0.239-0.159,0.332-0.331,0.332h-2.627c-0.173,0-0.333-0.093-0.333-0.332c0-0.238,0.16-0.332,0.333-0.332h0.981v-3.854
	h-0.981c-0.173,0-0.333-0.092-0.333-0.331c0-0.239,0.16-0.332,0.333-0.332h1.645v4.516H107.614z M121.244,56.015v-3.854h1.965v3.854
	H121.244z M121.244,51.499c-0.366,0-0.663,0.299-0.663,0.663v3.854c0,0.371,0.286,0.664,0.663,0.664h1.965
	c0.378,0,0.664-0.292,0.664-0.664v-3.854c0-0.364-0.3-0.663-0.664-0.663H121.244z M138.805,56.015v-1.347
	c0-0.192,0.086-0.333,0.332-0.333c0.245,0,0.332,0.14,0.332,0.333v1.678c0,0.239-0.16,0.332-0.332,0.332h-2.626
	c-0.173,0-0.334-0.093-0.334-0.332c0-0.238,0.16-0.332,0.334-0.332h0.979v-3.854h-0.979c-0.173,0-0.334-0.092-0.334-0.331
	c0-0.239,0.16-0.332,0.334-0.332h1.643v4.516H138.805z M154.4,56.015v-1.347c0-0.192,0.087-0.333,0.332-0.333
	c0.246,0,0.332,0.14,0.332,0.333v1.678c0,0.239-0.16,0.332-0.332,0.332h-2.627c-0.173,0-0.333-0.093-0.333-0.332
	c0-0.238,0.16-0.332,0.333-0.332h0.98v-3.854h-0.98c-0.173,0-0.333-0.092-0.333-0.331c0-0.239,0.16-0.332,0.333-0.332h1.645v4.516
	H154.4z M169.995,56.015v-1.347c0-0.192,0.086-0.333,0.331-0.333c0.246,0,0.332,0.14,0.332,0.333v1.678
	c0,0.239-0.159,0.332-0.332,0.332H167.7c-0.173,0-0.333-0.093-0.333-0.332c0-0.238,0.16-0.332,0.333-0.332h0.98v-3.854h-0.98
	c-0.173,0-0.333-0.092-0.333-0.331c0-0.239,0.16-0.332,0.333-0.332h1.644v4.516H169.995z M183.624,56.015v-3.854h1.966v3.854
	H183.624z M183.624,51.499c-0.364,0-0.664,0.299-0.664,0.663v3.854c0,0.371,0.286,0.664,0.664,0.664h1.966
	c0.379,0,0.664-0.292,0.664-0.664v-3.854c0-0.364-0.299-0.663-0.664-0.663H183.624z M201.186,56.015v-1.347
	c0-0.192,0.087-0.333,0.331-0.333c0.246,0,0.332,0.14,0.332,0.333v1.678c0,0.239-0.159,0.332-0.332,0.332h-2.626
	c-0.174,0-0.333-0.093-0.333-0.332c0-0.238,0.159-0.332,0.333-0.332h0.98v-3.854h-0.98c-0.174,0-0.333-0.092-0.333-0.331
	c0-0.239,0.159-0.332,0.333-0.332h1.644v4.516H201.186z M216.781,56.015v-1.347c0-0.192,0.086-0.333,0.331-0.333
	c0.246,0,0.332,0.14,0.332,0.333v1.678c0,0.239-0.159,0.332-0.332,0.332h-2.627c-0.173,0-0.332-0.093-0.332-0.332
	c0-0.238,0.159-0.332,0.332-0.332h0.979v-3.854h-0.979c-0.173,0-0.332-0.092-0.332-0.331c0-0.239,0.159-0.332,0.332-0.332h1.645
	v4.516H216.781z M232.376,56.015v-1.347c0-0.192,0.086-0.333,0.332-0.333c0.245,0,0.332,0.14,0.332,0.333v1.678
	c0,0.239-0.159,0.332-0.332,0.332h-2.626c-0.174,0-0.333-0.093-0.333-0.332c0-0.238,0.159-0.332,0.333-0.332h0.98v-3.854h-0.98
	c-0.174,0-0.333-0.092-0.333-0.331c0-0.239,0.159-0.332,0.333-0.332h1.644v4.516H232.376z M246.006,56.015v-3.854h1.965v3.854
	H246.006z M246.006,51.499c-0.365,0-0.664,0.299-0.664,0.663v3.854c0,0.371,0.285,0.664,0.664,0.664h1.965
	c0.379,0,0.665-0.292,0.665-0.664v-3.854c0-0.364-0.299-0.663-0.665-0.663H246.006z M263.567,56.015v-1.347
	c0-0.192,0.087-0.333,0.332-0.333c0.246,0,0.332,0.14,0.332,0.333v1.678c0,0.239-0.159,0.332-0.332,0.332h-2.626
	c-0.174,0-0.334-0.093-0.334-0.332c0-0.238,0.16-0.332,0.334-0.332h0.979v-3.854h-0.979c-0.174,0-0.334-0.092-0.334-0.331
	c0-0.239,0.16-0.332,0.334-0.332h1.644v4.516H263.567z"/>
<g>
	<linearGradient id="SVGID_6_" gradientUnits="userSpaceOnUse" x1="86.2785" y1="20.2614" x2="191.0586" y2="20.2614">
		<stop  offset="0" style="stop-color:#1A1A1A"/>
		<stop  offset="0.5" style="stop-color:#FFFFFF"/>
		<stop  offset="1" style="stop-color:#1A1A1A"/>
	</linearGradient>
	<path fill="url(#SVGID_6_)" d="M164.247,10.224c13.126,6.34,21.302,14.2,24.539,22.435c0,0,1.585,5.092,1.585,7.864l0.006-16.104
		C190.349,15.864,185.119,7.32,174.731,0h-31.65L164.247,10.224z"/>
	<linearGradient id="SVGID_7_" gradientUnits="userSpaceOnUse" x1="86.2785" y1="116.9189" x2="191.0586" y2="116.9189">
		<stop  offset="0" style="stop-color:#1A1A1A"/>
		<stop  offset="0.5" style="stop-color:#FFFFFF"/>
		<stop  offset="1" style="stop-color:#1A1A1A"/>
	</linearGradient>
	<path fill="url(#SVGID_7_)" d="M85.268,111.253l0.007,11.332h3.106c-0.591-1.056-1.101-2.12-1.522-3.192
		C86.859,119.393,85.268,116.45,85.268,111.253z"/>
	<linearGradient id="SVGID_8_" gradientUnits="userSpaceOnUse" x1="86.2785" y1="49.4818" x2="191.0586" y2="49.4818">
		<stop  offset="0" style="stop-color:#1A1A1A"/>
		<stop  offset="0.5" style="stop-color:#FFFFFF"/>
		<stop  offset="1" style="stop-color:#1A1A1A"/>
	</linearGradient>
	<path fill="url(#SVGID_8_)" d="M179.497,61.561c-4.475-3.671-11.921-8.168-11.921-8.168c-1.074-0.578-2.18-1.146-3.329-1.701
		l-52.849-25.528C98.272,19.824,90.096,11.963,86.859,3.728C86.339,2.594,85.994,1.27,85.762,0h-0.478L85.27,12.134
		c0.121,11.014,8.829,22.01,26.128,30.366l39.461,19.062c6.875,3.548,10.342,4.782,16.717,8.168
		c11.186,6.021,18.257,13.22,21.21,20.733c0,0,1.588,4.467,1.588,8.501l-0.003-16.943C190.275,74.962,186.646,67.913,179.497,61.561
		z"/>
</g>
<g>
	<path fill="#FFFFFF" d="M23.481,105.933c0,1.716-0.606,3.18-1.817,4.393c-1.212,1.212-2.674,1.82-4.387,1.82
		c-1.713,0-3.175-0.607-4.386-1.817c-1.212-1.212-1.818-2.674-1.818-4.386c0-1.715,0.606-3.175,1.818-4.387
		c1.211-1.211,2.674-1.817,4.386-1.817c1.712,0,3.175,0.608,4.387,1.82l-1.676,1.68c-0.752-0.741-1.654-1.112-2.708-1.112
		c-1.055,0-1.955,0.373-2.7,1.118c-0.747,0.746-1.119,1.645-1.119,2.699c0,1.052,0.372,1.951,1.119,2.696
		c0.745,0.746,1.645,1.119,2.699,1.119c1.356,0,2.416-0.562,3.177-1.687h-2.194v-2.387h5.218
		C23.475,105.765,23.475,105.849,23.481,105.933z"/>
	<path fill="#FFFFFF" d="M56.016,111.963h-7.897V99.919h7.52v2.388h-5.131v2.388h4.776v2.387h-4.776v2.493h5.508V111.963z"/>
	<path fill="#FFFFFF" d="M92.235,112.358l-8.772-7.582v7.187h-2.388V99.556l8.773,7.583v-7.219h2.388V112.358z"/>
	<path fill="#FFFFFF" d="M125.644,108.638c-0.745,0.746-1.645,1.119-2.698,1.119c-1.052,0-1.952-0.373-2.696-1.119
		c-0.745-0.745-1.118-1.644-1.118-2.696c0-1.054,0.372-1.953,1.118-2.699c0.745-0.745,1.644-1.118,2.696-1.118
		c1.054,0,1.953,0.373,2.698,1.118c0.745,0.746,1.118,1.645,1.118,2.699C126.762,106.995,126.39,107.893,125.644,108.638z
		 M127.333,101.555c-1.212-1.211-2.674-1.817-4.387-1.817c-1.713,0-3.175,0.606-4.386,1.817c-1.211,1.212-1.816,2.673-1.816,4.387
		c0,1.713,0.605,3.174,1.816,4.386c1.212,1.21,2.674,1.817,4.386,1.817c1.714,0,3.176-0.607,4.387-1.817
		c1.211-1.212,1.817-2.674,1.817-4.386C129.15,104.228,128.544,102.767,127.333,101.555z"/>
	<path fill="#FFFFFF" d="M159.549,104.142c-0.208,0.213-0.459,0.319-0.751,0.319h-2.752v-2.154h2.752
		c0.292,0,0.542,0.107,0.751,0.319c0.208,0.213,0.313,0.466,0.313,0.757C159.862,103.677,159.757,103.928,159.549,104.142z
		 M161.538,105.488c0.474-0.617,0.712-1.318,0.712-2.103c0-0.95-0.338-1.765-1.012-2.446c-0.674-0.68-1.487-1.019-2.438-1.019
		h-5.142v12.044h5.332c1.014,0,1.884-0.368,2.611-1.105c0.726-0.738,1.09-1.618,1.09-2.643
		C162.691,107.128,162.306,106.218,161.538,105.488z M159.92,109.123c-0.256,0.249-0.567,0.374-0.932,0.374h-2.941v-2.646h2.941
		c0.365,0,0.676,0.133,0.932,0.404c0.255,0.27,0.384,0.587,0.384,0.949C160.304,108.569,160.175,108.874,159.92,109.123z"/>
	<path fill="#FFFFFF" d="M197.883,99.919l-4.486,6.78v5.263h-2.387v-5.269l-4.517-6.775h2.839l2.853,4.237l2.835-4.237H197.883z"/>
	<path fill="#FFFFFF" d="M232.324,102.308h-4.331v9.655h-2.388v-9.655h-4.308v-2.388h11.027V102.308z"/>
	<path fill="#FFFFFF" d="M264.572,111.963h-7.897V99.919h7.519v2.388h-5.131v2.388h4.776v2.387h-4.776v2.493h5.509V111.963z"/>
</g>
<rect id="genobyte" onmousedown="top.svgevent(evt)" pointer-events="visible" cursor="pointer" fill="none" width="275.645px" height="122.585px"/>
</svg>
