<?xml version="1.0" encoding="utf-8"?>
<!-- Generator: Adobe Illustrator 17.0.0, SVG Export Plug-In . SVG Version: 6.00 Build 0)  -->
<!DOCTYPE svg PUBLIC "-//W3C//DTD SVG 1.1//EN" "http://www.w3.org/Graphics/SVG/1.1/DTD/svg11.dtd">
<svg version="1.1" xmlns="http://www.w3.org/2000/svg" xmlns:xlink="http://www.w3.org/1999/xlink" x="0px" y="0px"
	 width="100%" height="100%" viewBox="0 0 300.665 112.257" enable-background="new 0 0 300.665 112.257"
	 xml:space="preserve">
<g>
	<path d="M0,109.697h1.442v-8.887H0v-0.182h4.184v0.182H2.742v8.887h2.313c1.52,0,2.351-1.025,2.741-2.663h0.144v2.846H0V109.697z"
		/>
	<path d="M10.68,109.697h1.143l3.508-9.302h0.311l3.535,9.302h1.156v0.183h-4.002v-0.183h1.442l-1.364-3.611h-3.014l-1.364,3.611
		h1.442v0.183H10.68V109.697z M14.902,102.122l-1.428,3.781h2.858L14.902,102.122z"/>
	<path d="M22.389,100.628h4.184v0.182H25.13v6.275c0,2.079,0.753,2.807,2.143,2.807c0.962,0,1.715-0.26,2.248-0.974
		c0.339-0.456,0.546-0.819,0.546-2.066v-6.042h-1.442v-0.182h3.079v0.182h-1.442v6.302c0,0.714-0.117,1.286-0.598,1.923
		c-0.467,0.623-1.26,1.039-2.624,1.039c-2.066,0-3.21-1.013-3.21-3.118v-6.146h-1.442V100.628z"/>
	<path d="M34.55,109.697h1.442v-8.887H34.55v-0.182h2.468c0.208,0,0.416-0.014,0.624-0.026c0.208,0,0.416-0.013,0.623-0.013
		c1.014,0,1.767,0.039,2.443,0.571c0.598,0.469,0.832,1.105,0.832,1.625c0,0.506-0.273,1.806-2.287,2.065v0.025
		c0.559,0.079,2.079,0.325,2.417,1.508c0.195,0.676,0.143,1.897,0.273,2.494c0.104,0.455,0.285,0.884,0.792,0.884
		c0.221,0,0.48-0.091,0.675-0.272l0.117,0.143c-0.182,0.143-0.415,0.337-1.143,0.337c-1.39,0-1.754-0.688-1.858-2l-0.09-1.182
		c-0.13-1.741-1.248-1.781-1.846-1.781h-1.298v4.69h1.442v0.183H34.55V109.697z M37.292,104.825h1.195
		c0.961,0,1.624-0.415,1.624-2.014c0-1.819-1.027-2.039-1.936-2.039c-0.312,0-0.663,0.013-0.883,0.038V104.825z"/>
	<path d="M45.71,109.697h1.143l3.508-9.302h0.312l3.534,9.302h1.157v0.183h-4.002v-0.183h1.442l-1.364-3.611h-3.014l-1.365,3.611
		h1.442v0.183H45.71V109.697z M49.933,102.122l-1.429,3.781h2.859L49.933,102.122z"/>
	<path d="M63.718,109.697h1.442v-8.887h-1.442v-0.182h4.08v0.182h-1.339v4.132h0.13l3.924-4.132h-1.352v-0.182h2.69v0.182h-1.078
		l-3.301,3.495l4.717,5.392h0.857v0.183h-3.755v-0.183h1.17l-3.897-4.573h-0.104v4.573h1.339v0.183h-4.08V109.697z"/>
	<path d="M79.829,100.395c2.288,0,4.521,2.078,4.521,4.846c0,2.43-1.987,4.833-4.521,4.833c-2.611,0-4.521-2.325-4.521-4.833
		C75.308,102.473,77.698,100.395,79.829,100.395z M79.829,109.892c2.235,0,3.027-1.533,3.027-4.651c0-2.391-0.493-4.664-3.027-4.664
		c-2.533,0-3.027,2.273-3.027,4.664C76.802,108.359,77.595,109.892,79.829,109.892z"/>
	<path d="M87.807,109.697h1.442v-8.887h-1.442v-0.182h2.468c0.208,0,0.416-0.014,0.623-0.026c0.209,0,0.416-0.013,0.624-0.013
		c1.013,0,1.768,0.039,2.442,0.571c0.598,0.469,0.833,1.105,0.833,1.625c0,0.506-0.273,1.806-2.288,2.065v0.025
		c0.559,0.079,2.079,0.325,2.417,1.508c0.195,0.676,0.143,1.897,0.272,2.494c0.104,0.455,0.285,0.884,0.793,0.884
		c0.22,0,0.48-0.091,0.675-0.272l0.117,0.143c-0.182,0.143-0.415,0.337-1.143,0.337c-1.39,0-1.754-0.688-1.858-2l-0.09-1.182
		c-0.13-1.741-1.248-1.781-1.845-1.781h-1.299v4.69h1.442v0.183h-4.184V109.697z M90.548,104.825h1.195
		c0.961,0,1.624-0.415,1.624-2.014c0-1.819-1.027-2.039-1.936-2.039c-0.312,0-0.663,0.013-0.883,0.038V104.825z"/>
	<path d="M99.37,109.697h1.442v-8.887H99.37v-0.182h4.08v0.182h-1.338v4.132h0.13l3.923-4.132h-1.351v-0.182h2.689v0.182h-1.078
		l-3.301,3.495l4.716,5.392h0.858v0.183h-3.755v-0.183h1.169l-3.897-4.573h-0.104v4.573h1.338v0.183h-4.08V109.697z"/>
	<path d="M111.219,109.697h1.442v-8.887h-1.442v-0.182h4.184v0.182h-1.442v8.887h1.442v0.183h-4.184V109.697z"/>
	<path d="M118.287,109.697h1.442v-8.887h-1.442v-0.182h2.781l4.392,7.081h0.026v-6.9h-1.442v-0.182h3.079v0.182h-1.442v9.251h-0.26
		l-5.47-8.718h-0.027v8.354h1.442v0.183h-3.079V109.697z"/>
	<path d="M142.349,107.878c0.507-0.845,0.649-1.677,0.649-2.508c0-1.677-0.286-1.871-1.247-1.871v-0.182h2.468v0.182
		c-0.909,0-1.038,0.481-1.038,1.611c0,1.417-0.272,2.156-0.741,2.962c0.455,0.818,0.741,1.339,1.195,1.339
		c0.546,0,0.636-0.688,0.636-1.234h0.182c0,1.442-0.831,1.884-1.507,1.884c-0.727,0-0.974-0.312-1.377-0.975
		c-0.416,0.403-1.248,0.975-2.313,0.975c-2.196,0-2.91-1.935-2.91-2.884c0-1.819,1.417-2.625,2.52-3.262
		c-0.182-0.377-0.429-0.884-0.429-1.598c0-1.17,0.897-1.885,1.767-1.885c0.663,0,1.183,0.403,1.183,1.287
		c0,1.025-0.727,1.532-1.299,1.844L142.349,107.878z M138.944,104.058c-0.896,0.469-1.48,1.027-1.48,2.027
		c0,1.572,1.221,3.625,2.364,3.625c0.624,0,1.17-0.351,1.65-0.792L138.944,104.058z M140.023,103.409
		c0.597-0.337,1.182-0.74,1.182-1.676c0-0.585-0.26-1.118-0.948-1.118c-0.455,0-0.844,0.442-0.844,1.053
		C139.413,102.122,139.712,102.786,140.023,103.409z"/>
	<path d="M152.73,109.697h1.143l3.508-9.302h0.312l3.534,9.302h1.156v0.183h-4.002v-0.183h1.442l-1.365-3.611h-3.014l-1.363,3.611
		h1.441v0.183h-2.794V109.697z M156.953,102.122l-1.429,3.781h2.858L156.953,102.122z"/>
	<path d="M165.528,107.085h0.143c0.599,2.819,2.196,2.807,3.158,2.807c1.832,0,2.299-1.261,2.299-2.104
		c0-1.209-1.013-1.702-1.74-1.923l-1.494-0.455c-1.403-0.429-2.131-1.104-2.131-2.287c0-1.572,1.169-2.728,2.845-2.728
		c1.208,0,1.547,0.507,2.041,0.507c0.22,0,0.26-0.026,0.39-0.273h0.182v2.352h-0.156c-0.208-1.247-0.974-2.403-2.456-2.403
		c-0.844,0-2.144,0.402-2.144,1.779c0,1.118,0.975,1.495,1.871,1.78l1.572,0.493c0.649,0.209,2.222,0.599,2.222,2.378
		c0,1.611-1.248,3.066-3.3,3.066c-0.728,0-1.04-0.039-1.637-0.194c-0.339-0.104-0.78-0.286-1.079-0.286
		c-0.26,0-0.325,0.117-0.39,0.286h-0.195V107.085z"/>
	<path d="M176.378,107.085h0.143c0.598,2.819,2.195,2.807,3.156,2.807c1.833,0,2.301-1.261,2.301-2.104
		c0-1.209-1.014-1.702-1.741-1.923l-1.495-0.455c-1.402-0.429-2.13-1.104-2.13-2.287c0-1.572,1.169-2.728,2.846-2.728
		c1.208,0,1.545,0.507,2.039,0.507c0.222,0,0.261-0.026,0.391-0.273h0.181v2.352h-0.155c-0.207-1.247-0.975-2.403-2.455-2.403
		c-0.846,0-2.143,0.402-2.143,1.779c0,1.118,0.974,1.495,1.871,1.78l1.571,0.493c0.649,0.209,2.222,0.599,2.222,2.378
		c0,1.611-1.247,3.066-3.301,3.066c-0.727,0-1.038-0.039-1.637-0.194c-0.337-0.104-0.779-0.286-1.078-0.286
		c-0.26,0-0.324,0.117-0.39,0.286h-0.194V107.085z"/>
	<path d="M191.656,100.395c2.287,0,4.521,2.078,4.521,4.846c0,2.43-1.987,4.833-4.521,4.833c-2.61,0-4.521-2.325-4.521-4.833
		C187.135,102.473,189.525,100.395,191.656,100.395z M191.656,109.892c2.235,0,3.027-1.533,3.027-4.651
		c0-2.391-0.493-4.664-3.027-4.664c-2.533,0-3.027,2.273-3.027,4.664C188.629,108.359,189.422,109.892,191.656,109.892z"/>
	<path d="M207.962,109.879h-0.194c-0.117-0.13-0.247-0.272-0.571-0.272c-0.508,0-1.209,0.467-2.404,0.467
		c-1.092,0-2.144-0.377-3.053-1.272c-0.846-0.846-1.495-2.001-1.495-3.521c0-2.599,1.987-4.885,4.639-4.885
		c1.078,0,1.61,0.507,2.131,0.507c0.338,0,0.455-0.13,0.572-0.273h0.194v2.599h-0.143c-0.311-1.325-0.884-2.65-2.872-2.65
		c-2.767,0-3.026,2.755-3.026,4.703c0,3.651,1.233,4.612,3.026,4.612c2.314,0,2.703-1.455,3.054-2.78h0.143V109.879z"/>
	<path d="M211.236,109.697h1.442v-8.887h-1.442v-0.182h4.183v0.182h-1.442v8.887h1.442v0.183h-4.183V109.697z"/>
	<path d="M218.019,109.697h1.143l3.509-9.302h0.311l3.533,9.302h1.156v0.183h-4.001v-0.183h1.442l-1.364-3.611h-3.015l-1.364,3.611
		h1.442v0.183h-2.793V109.697z M222.24,102.122l-1.429,3.781h2.858L222.24,102.122z"/>
	<path d="M231.22,109.697h1.441v-8.887h-0.753c-0.689,0-1.807,0.066-2.404,2.195h-0.143v-2.377h7.899v2.377h-0.143
		c-0.599-2.13-1.716-2.195-2.404-2.195h-0.754v8.887h1.442v0.183h-4.183V109.697z"/>
	<path d="M240.327,109.697h1.442v-8.887h-1.442v-0.182h7.432v2.247h-0.144c-0.441-1.351-0.962-2.066-2.39-2.066h-2.158v4.015h0.846
		c1.155,0,1.52-0.351,1.896-1.909h0.143v4.04h-0.143c-0.234-1.001-0.441-1.949-1.689-1.949h-1.053v4.69h2.456
		c1.897,0,2.481-1.871,2.586-2.663h0.143v2.846h-7.925V109.697z"/>
	<path d="M252.24,107.085h0.144c0.598,2.819,2.196,2.807,3.157,2.807c1.832,0,2.3-1.261,2.3-2.104c0-1.209-1.015-1.702-1.741-1.923
		l-1.494-0.455c-1.403-0.429-2.131-1.104-2.131-2.287c0-1.572,1.17-2.728,2.845-2.728c1.209,0,1.547,0.507,2.04,0.507
		c0.221,0,0.26-0.026,0.39-0.273h0.183v2.352h-0.155c-0.209-1.247-0.976-2.403-2.457-2.403c-0.844,0-2.143,0.402-2.143,1.779
		c0,1.118,0.975,1.495,1.871,1.78l1.572,0.493c0.649,0.209,2.222,0.599,2.222,2.378c0,1.611-1.247,3.066-3.3,3.066
		c-0.729,0-1.04-0.039-1.637-0.194c-0.339-0.104-0.78-0.286-1.078-0.286c-0.26,0-0.326,0.117-0.391,0.286h-0.195V107.085z"/>
	<path d="M262.297,112.1c1.014-0.727,1.223-1.39,1.223-1.728c0-0.299-0.079-0.506-0.234-0.676c-0.143,0.208-0.325,0.325-0.559,0.325
		c-0.325,0-0.715-0.26-0.715-0.701c0-0.402,0.351-0.741,0.792-0.741c0.676,0,1.078,0.663,1.078,1.339c0,1.014-0.936,2-1.468,2.339
		L262.297,112.1z"/>
	<path d="M272.406,109.697h1.442v-8.887h-1.442v-0.182h2.443c0.246,0,0.48-0.014,0.727-0.026c0.233,0,0.48-0.013,0.714-0.013
		c1.975,0,3.443,0.988,3.443,2.469c0,1.546-1.702,2.455-3.612,2.455c-0.233,0-0.689-0.051-0.974-0.104v4.287h1.442v0.183h-4.184
		V109.697z M275.148,105.228c0.337,0.065,0.767,0.104,1.053,0.104c1.272,0,2.039-0.754,2.039-2.274c0-1.78-0.663-2.286-2.339-2.286
		c-0.324,0-0.61,0.025-0.753,0.038V105.228z"/>
	<path d="M281.827,108.645c0.377,0,0.689,0.312,0.689,0.689c0,0.377-0.311,0.688-0.689,0.688c-0.377,0-0.688-0.312-0.688-0.688
		C281.139,108.956,281.45,108.645,281.827,108.645z"/>
	<path d="M294.533,109.879h-0.194c-0.117-0.13-0.247-0.272-0.572-0.272c-0.507,0-1.208,0.467-2.403,0.467
		c-1.092,0-2.144-0.377-3.054-1.272c-0.844-0.846-1.494-2.001-1.494-3.521c0-2.599,1.988-4.885,4.639-4.885
		c1.078,0,1.611,0.507,2.131,0.507c0.338,0,0.454-0.13,0.571-0.273h0.195v2.599h-0.143c-0.313-1.325-0.884-2.65-2.872-2.65
		c-2.768,0-3.027,2.755-3.027,4.703c0,3.651,1.235,4.612,3.027,4.612c2.312,0,2.702-1.455,3.054-2.78h0.143V109.879z"/>
	<path d="M299.311,108.645c0.377,0,0.689,0.312,0.689,0.689c0,0.377-0.311,0.688-0.689,0.688c-0.377,0-0.689-0.312-0.689-0.688
		C298.623,108.956,298.935,108.645,299.311,108.645z"/>
</g>
<g>
	<polygon fill="none" points="226.25,34.192 230.219,34.192 228.183,29.482 	"/>
	<rect x="63.846" y="34.192" fill="#5F67FF" width="66.727" height="22.834"/>
	<polygon fill="#5F67FF" points="219.106,51.606 237.746,51.606 230.219,34.192 226.25,34.192 	"/>
	<polygon fill="#5F67FF" points="149.15,44.584 149.15,57.026 159.631,57.026 150.174,44.584 	"/>
	<polygon fill="#5F67FF" points="150.174,42.791 158.398,34.192 149.15,34.192 149.15,42.791 	"/>
	<polygon fill="#5F67FF" points="165.102,34.192 182.66,57.026 215.564,57.026 224.938,34.192 	"/>
	<polygon fill="#5F67FF" points="218.7,52.74 216.925,57.026 240.006,57.026 238.151,52.74 	"/>
	<polygon fill="#5F67FF" points="299.793,34.192 242.804,34.192 252.712,57.026 299.793,57.026 	"/>
	<rect x="0.934" y="34.192" fill="#5F67FF" width="44.336" height="22.834"/>
	<polygon points="63.846,1.793 75.634,1.793 75.634,0 33.483,0 33.483,1.793 45.27,1.793 45.27,34.192 63.846,34.192 	"/>
	<path d="M45.27,89.425H33.483v1.793h81.225V62.264h-1.666c-4.356,19.986-16.912,27.161-28.058,27.161H63.846V57.026H45.27V89.425z"
		/>
	<rect x="45.27" y="34.192" fill="#202255" width="18.577" height="22.834"/>
	<polygon points="184.254,89.425 172.723,89.425 172.723,91.218 215.514,91.218 215.514,89.425 207.57,89.425 182.66,57.026 
		159.631,57.026 	"/>
	<polygon points="130.573,89.425 118.786,89.425 118.786,91.218 160.936,91.218 160.936,89.425 149.15,89.425 149.15,57.026 
		130.573,57.026 	"/>
	<polygon points="149.15,1.793 160.936,1.793 160.936,0 118.786,0 118.786,1.793 130.573,1.793 130.573,34.192 149.15,34.192 	"/>
	<polygon points="163.242,31.772 191.812,1.793 202.061,1.793 202.061,0 176.439,0 176.439,1.793 189.378,1.793 158.398,34.192 
		165.102,34.192 	"/>
	<polygon fill="#202255" points="158.398,34.192 150.174,42.791 149.15,42.791 149.15,34.192 130.573,34.192 130.573,57.026 
		149.15,57.026 149.15,44.584 150.174,44.584 159.631,57.026 182.66,57.026 165.102,34.192 	"/>
	<polygon points="208.408,74.46 201.52,74.46 201.52,75.595 216.917,75.595 216.917,74.46 209.704,74.46 216.925,57.026 
		215.564,57.026 	"/>
	<polygon points="247.552,74.46 240.015,74.46 240.015,75.595 267.245,75.595 267.245,74.46 260.275,74.46 252.712,57.026 
		240.006,57.026 	"/>
	<polygon points="228.183,29.482 230.219,34.192 242.804,34.192 234.747,15.623 232.56,15.623 224.938,34.192 226.25,34.192 	"/>
	<polygon fill="#202255" points="230.219,34.192 237.746,51.606 219.106,51.606 226.25,34.192 224.938,34.192 215.564,57.026 
		216.925,57.026 218.7,52.74 238.151,52.74 240.006,57.026 252.712,57.026 242.804,34.192 	"/>
</g>
<rect id="korkin" onmousedown="top.svgevent(evt)" pointer-events="visible" cursor="pointer" fill="none" width="300.665px" height="112.257px"/>
</svg>
