<?xml version="1.0" encoding="utf-8"?>
<!-- Generator: Adobe Illustrator 17.0.0, SVG Export Plug-In . SVG Version: 6.00 Build 0)  -->
<!DOCTYPE svg PUBLIC "-//W3C//DTD SVG 1.1//EN" "http://www.w3.org/Graphics/SVG/1.1/DTD/svg11.dtd">
<svg version="1.1" id="Layer_1" xmlns="http://www.w3.org/2000/svg" xmlns:xlink="http://www.w3.org/1999/xlink" x="0px" y="0px"
	 width="283.465px" height="178.223px" viewBox="0 0 283.465 178.223" enable-background="new 0 0 283.465 178.223"
	 xml:space="preserve">
<g>
	<path fill="#203F5F" d="M7.635,133.676c2.388,2.475,5.388,4.372,9.005,5.696c3.614,1.325,7.82,1.984,12.622,1.984h27.307
		l3.235-9.375h35.164l3.337,9.375h12.208l-20.347-57.17c-0.975-2.85-2.608-4.971-4.904-6.362c-2.296-1.391-4.904-2.089-7.824-2.089
		c-2.993,0.07-5.601,0.768-7.827,2.089c-2.229,1.322-3.863,3.442-4.904,6.362l-16.286,45.758H28.95
		c-5.426,0-9.635-1.481-12.625-4.449c-2.993-2.964-4.487-7.098-4.487-12.399V75.735H0.426v37.199c0,4.391,0.605,8.327,1.815,11.81
		C3.451,128.228,5.246,131.205,7.635,133.676z M74.933,89.269c0.487-1.252,1.251-1.879,2.296-1.879h0.417
		c0.417,0,0.834,0.14,1.251,0.417c0.417,0.28,0.764,0.803,1.045,1.566l10.957,31.196h-27.13L74.933,89.269z M272.233,160.92h11.412
		V95.299h-11.412V160.92z M156.581,139.685c2.646-1.114,4.789-2.576,6.426-4.388c1.637-1.809,2.817-3.882,3.55-6.216
		c0.732-2.331,1.099-4.719,1.099-7.158c0-2.576-0.573-5.102-1.713-7.572c-1.14-2.471-2.955-4.474-5.445-6.009
		c2.558-1.521,4.388-3.531,5.496-6.024c1.108-2.49,1.662-4.878,1.662-7.165c0-2.7-0.366-5.209-1.099-7.527
		c-0.732-2.318-1.933-4.343-3.604-6.076c-1.672-1.732-3.814-3.098-6.426-4.104c-2.61-1.003-5.798-1.506-9.559-1.506h-32.706v65.418
		h32.706C150.728,141.357,153.932,140.799,156.581,139.685z M125.674,87.351h23.112c2.028,0,3.779,0.764,5.25,2.29
		c1.472,1.525,2.207,3.293,2.207,5.302c0,2.149-0.7,3.968-2.102,5.458c-1.401,1.49-3.223,2.235-5.461,2.235h-23.007V87.351z
		 M125.674,114.048h23.112c2.028,0,3.779,0.774,5.25,2.318c1.472,1.544,2.207,3.334,2.207,5.365c0,2.318-0.665,4.264-1.996,5.844
		c-1.331,1.579-3.188,2.369-5.566,2.369h-23.007V114.048z M254.728,160.92h12.227v-49.734c0-2.437-0.436-4.646-1.306-6.633
		c-0.869-1.987-2.069-3.675-3.599-5.069c-1.528-1.392-3.317-2.471-5.368-3.238c-2.051-0.765-4.258-1.149-6.62-1.149
		c-3.337,0-6.362,0.904-9.072,2.713c-2.713,1.809-4.588,4.314-5.63,7.512l-13.138,40.589c-0.42,1.325-0.924,2.335-1.516,3.028
		c-0.593,0.694-1.407,1.042-2.449,1.042c-3.267,0-4.9-1.911-4.9-5.738v-33.078c0-2.433-0.436-4.64-1.309-6.623
		c-0.872-1.98-2.073-3.668-3.605-5.06c-1.535-1.392-3.327-2.472-5.381-3.235c-2.058-0.765-4.268-1.149-6.63-1.149
		c-3.341,0-6.35,0.923-9.027,2.771c-2.678,1.847-4.573,4.337-5.684,7.47l-19.825,55.584h12.938l17.427-50.323
		c0.484-1.328,1.007-2.341,1.563-3.041c0.555-0.697,1.357-1.048,2.401-1.048c3.267,0,4.903,1.927,4.903,5.776v33.281
		c0,2.452,0.434,4.675,1.303,6.668c0.869,1.997,2.069,3.694,3.598,5.095c1.529,1.401,3.321,2.484,5.372,3.255
		c2.051,0.768,4.258,1.152,6.62,1.152c3.337,0,6.378-0.907,9.123-2.729c2.745-1.821,4.572-4.341,5.477-7.56l13.24-40.845
		c0.417-1.331,0.921-2.344,1.513-3.044c0.593-0.7,1.407-1.051,2.452-1.051c3.267,0,4.9,1.923,4.9,5.767V160.92z"/>
	<circle fill="#2B7777" cx="182.63" cy="37.847" r="37.847"/>
	<circle fill="#77772B" cx="251.914" cy="46.166" r="23"/>
	<circle fill="#772B77" cx="223.819" cy="82.466" r="13.974"/>
	<path d="M86.615,150.884c-1.232,1.203-1.848,2.607-1.848,4.213c0,1.633,0.62,3.043,1.86,4.229c1.24,1.186,2.848,1.778,4.822,1.778
		c1.952,0,3.551-0.596,4.797-1.787c1.246-1.191,1.869-2.598,1.869-4.22c0-1.601-0.614-3.003-1.843-4.208
		c-1.229-1.206-2.837-1.809-4.822-1.809C89.459,149.08,87.847,149.682,86.615,150.884z M95.11,155.092
		c0,1.074-0.335,1.94-1.006,2.602c-0.671,0.66-1.556,0.99-2.653,0.99c-1.104,0-1.993-0.33-2.666-0.99
		c-0.674-0.661-1.011-1.527-1.011-2.602c0-1.079,0.337-1.947,1.011-2.605c0.673-0.657,1.562-0.986,2.666-0.986
		c1.098,0,1.982,0.329,2.653,0.986C94.774,153.145,95.11,154.013,95.11,155.092z M105.956,160.926h2.904v-4.738h0.832
		c0.383,0,0.742,0.153,1.077,0.459c0.336,0.307,0.743,1,1.221,2.081c0.479,1.081,0.814,1.814,1.006,2.198h3.174
		c-0.492-1.036-1.002-2.139-1.53-3.309c-0.528-1.169-1.083-1.888-1.666-2.156c1.332-0.616,1.998-1.567,1.998-2.852
		c0-0.928-0.354-1.719-1.06-2.371c-0.706-0.653-1.624-0.979-2.753-0.979h-5.205V160.926z M108.86,151.399h1.471
		c1.108,0,1.663,0.439,1.663,1.316c0,0.428-0.144,0.757-0.43,0.987c-0.287,0.23-0.675,0.346-1.166,0.346h-1.538V151.399z
		 M60.2,152.61c0-0.928-0.353-1.719-1.06-2.371c-0.706-0.653-1.624-0.979-2.752-0.979h-5.206v11.667h2.904v-4.738h0.832
		c0.383,0,0.742,0.153,1.078,0.459c0.335,0.307,0.743,1,1.221,2.081c0.478,1.081,0.813,1.814,1.006,2.198h3.174
		c-0.492-1.036-1.001-2.139-1.529-3.309c-0.528-1.169-1.083-1.888-1.666-2.156C59.534,154.845,60.2,153.894,60.2,152.61z
		 M56.789,153.702c-0.287,0.23-0.675,0.346-1.165,0.346h-1.538v-2.649h1.471c1.108,0,1.663,0.439,1.663,1.316
		C57.219,153.143,57.076,153.472,56.789,153.702z M15.627,178.044h2.904v-11.667h-2.904V178.044z M31.544,154.519
		c1.064-0.54,1.597-1.318,1.597-2.333c0-0.792-0.343-1.478-1.029-2.058c-0.686-0.579-1.629-0.869-2.829-0.869H24.25v11.667h5.671
		c1.351,0,2.374-0.317,3.069-0.951c0.695-0.634,1.042-1.457,1.042-2.47c0-0.712-0.214-1.334-0.643-1.868
		C32.962,155.103,32.347,154.731,31.544,154.519z M27.155,151.399h1.507c0.463,0,0.825,0.117,1.084,0.351
		c0.26,0.233,0.39,0.528,0.39,0.885c0,0.362-0.13,0.662-0.39,0.901c-0.259,0.24-0.621,0.359-1.084,0.359h-1.507V151.399z
		 M30.443,158.465c-0.338,0.214-0.892,0.32-1.661,0.32h-1.628v-2.751h2.026c0.537,0,0.966,0.118,1.287,0.354
		c0.321,0.236,0.482,0.558,0.482,0.963C30.95,157.88,30.781,158.251,30.443,158.465z M155.371,151.399v-2.14h-8.482v11.667h8.61
		v-2.141h-5.706v-2.802h5.324v-2.14h-5.324v-2.445H155.371z M27.952,175.802c-1.215,0-2.21-0.34-2.987-1.02
		c-0.777-0.68-1.165-1.543-1.165-2.589c0-1.039,0.394-1.895,1.183-2.567c0.789-0.672,1.805-1.008,3.048-1.008
		c1.265,0,2.606,0.399,4.022,1.197v-2.592c-1.154-0.684-2.565-1.025-4.232-1.025c-2.091,0-3.786,0.588-5.082,1.763
		c-1.297,1.175-1.945,2.604-1.945,4.287c0,1.684,0.614,3.101,1.843,4.25c1.229,1.149,2.88,1.725,4.954,1.725
		c1.6,0,3.129-0.389,4.59-1.165v-2.555c-1.104,0.546-1.933,0.898-2.49,1.059C29.132,175.723,28.553,175.802,27.952,175.802z
		 M17.702,149.259h-3.388l-4.703,11.667h3.083l0.866-2.293h5.236l0.959,2.293h3.129L17.702,149.259z M14.329,156.595l1.715-4.545
		l1.9,4.545H14.329z M6.632,170.707l-3.745-4.33H0.353v11.667h2.904v-7.278l3.175,3.661H6.85l3.158-3.661v7.278h2.904v-11.667
		h-2.555L6.632,170.707z M42.376,149.08c-1.991,0-3.603,0.602-4.835,1.804c-1.232,1.203-1.848,2.607-1.848,4.213
		c0,1.633,0.62,3.043,1.86,4.229c1.24,1.186,2.848,1.778,4.822,1.778c1.952,0,3.551-0.596,4.797-1.787
		c1.246-1.191,1.869-2.598,1.869-4.22c0-1.601-0.615-3.003-1.844-4.208C45.97,149.683,44.362,149.08,42.376,149.08z M45.03,157.694
		c-0.671,0.66-1.556,0.99-2.653,0.99c-1.104,0-1.993-0.33-2.666-0.99c-0.674-0.661-1.011-1.527-1.011-2.602
		c0-1.079,0.337-1.947,1.011-2.605c0.673-0.657,1.562-0.986,2.666-0.986c1.098,0,1.982,0.329,2.653,0.986
		c0.671,0.658,1.006,1.526,1.006,2.605C46.036,156.166,45.701,157.032,45.03,157.694z M9.244,158.785H3.257v-9.526H0.353v11.667
		h8.891V158.785z M41.572,172.58c1.332-0.617,1.998-1.567,1.998-2.852c0-0.929-0.354-1.719-1.06-2.372
		c-0.706-0.652-1.624-0.98-2.753-0.98h-5.206v11.667h2.904v-4.738h0.832c0.383,0,0.742,0.153,1.077,0.459
		c0.336,0.307,0.743,1,1.221,2.081c0.479,1.081,0.813,1.813,1.006,2.198h3.174c-0.492-1.036-1.002-2.139-1.53-3.308
		C42.709,173.567,42.154,172.848,41.572,172.58z M40.159,170.821c-0.287,0.23-0.676,0.346-1.166,0.346h-1.538v-2.649h1.471
		c1.108,0,1.663,0.439,1.663,1.316C40.589,170.261,40.446,170.59,40.159,170.821z M141.983,173.102h5.324v-2.14h-5.324v-2.445h5.579
		v-2.14h-8.483v11.667h8.61v-2.14h-5.706V173.102z M212.531,168.517h4.229v9.527h2.903v-9.527h4.23v-2.14h-11.361V168.517z
		 M209.505,171.619c-0.519-0.274-1.21-0.57-2.074-0.89c-0.864-0.318-1.41-0.579-1.638-0.781c-0.227-0.202-0.342-0.416-0.342-0.641
		c0-0.292,0.155-0.526,0.465-0.704c0.309-0.177,0.727-0.266,1.252-0.266c0.921,0,2.157,0.349,3.709,1.045v-2.281
		c-1.387-0.603-2.705-0.903-3.952-0.903c-1.355,0-2.435,0.31-3.242,0.927s-1.212,1.429-1.212,2.434c0,0.777,0.186,1.414,0.557,1.911
		c0.371,0.497,0.812,0.88,1.323,1.148c0.511,0.268,1.201,0.562,2.071,0.883c0.869,0.321,1.422,0.59,1.657,0.808
		c0.235,0.218,0.352,0.448,0.352,0.693c0,0.72-0.572,1.079-1.715,1.079c-0.675,0-1.314-0.119-1.916-0.358
		c-0.603-0.239-1.294-0.621-2.075-1.145v2.515c1.358,0.753,2.762,1.129,4.21,1.129c1.342,0,2.423-0.322,3.245-0.965
		c0.821-0.644,1.231-1.508,1.231-2.593c0-0.761-0.188-1.391-0.564-1.889C210.471,172.28,210.023,171.894,209.505,171.619z
		 M180.179,166.377h-5.145v11.667h4.818c2.171,0,3.843-0.517,5.015-1.549c1.172-1.033,1.758-2.454,1.758-4.264
		c0-1.727-0.578-3.133-1.732-4.222C183.737,166.921,182.166,166.377,180.179,166.377z M182.666,174.89
		c-0.653,0.677-1.596,1.015-2.828,1.015h-1.899v-7.388h1.866c1.238,0,2.188,0.33,2.849,0.989c0.661,0.659,0.991,1.562,0.991,2.708
		C183.644,173.322,183.318,174.214,182.666,174.89z M154.881,178.044h2.904v-11.667h-2.904V178.044z M169.447,173.509l-6.227-7.132
		h-2.664v11.667h2.904v-7.475l6.457,7.475h2.434v-11.667h-2.904V173.509z M197.472,172.904c0,0.928-0.268,1.643-0.804,2.145
		c-0.536,0.503-1.252,0.754-2.146,0.754c-0.861,0-1.557-0.245-2.087-0.736c-0.531-0.492-0.796-1.146-0.796-1.961v-6.728h-2.93v6.655
		c0,1.674,0.511,2.958,1.532,3.851c1.021,0.894,2.457,1.34,4.306,1.34c1.87,0,3.31-0.441,4.317-1.323s1.512-2.176,1.512-3.884
		v-6.639h-2.904V172.904z M267.528,166.377h-2.904v11.667h8.891v-2.14h-5.986V166.377z M256.945,166.377h-2.904v11.667h8.891v-2.14
		h-5.986V166.377z M278.111,175.905v-2.803h5.324v-2.14h-5.324v-2.445h5.579v-2.14h-8.483v11.667h8.61v-2.14H278.111z
		 M232.755,172.58c1.332-0.617,1.998-1.567,1.998-2.852c0-0.929-0.354-1.719-1.06-2.372c-0.706-0.652-1.624-0.98-2.753-0.98h-5.205
		v11.667h2.903v-4.738h0.832c0.383,0,0.742,0.153,1.078,0.459c0.335,0.307,0.742,1,1.221,2.081c0.479,1.081,0.813,1.813,1.006,2.198
		h3.175c-0.492-1.036-1.002-2.139-1.529-3.308C233.892,173.567,233.337,172.848,232.755,172.58z M231.342,170.821
		c-0.287,0.23-0.675,0.346-1.165,0.346h-1.538v-2.649h1.471c1.108,0,1.663,0.439,1.663,1.316
		C231.772,170.261,231.629,170.59,231.342,170.821z M246.027,173.102h5.324v-2.14h-5.324v-2.445h5.579v-2.14h-8.483v11.667h8.61
		v-2.14h-5.706V173.102z M237.448,178.044h2.903v-11.667h-2.903V178.044z M133.404,178.044h2.904v-11.667h-2.904V178.044z
		 M73.04,178.044h2.904v-11.667H73.04V178.044z M80.369,160.926v-9.527h4.229v-2.14H73.236v2.14h4.229v9.527H80.369z
		 M84.889,166.198c-1.991,0-3.603,0.602-4.835,1.805c-1.232,1.203-1.848,2.606-1.848,4.212c0,1.634,0.62,3.043,1.86,4.229
		c1.24,1.187,2.848,1.779,4.822,1.779c1.952,0,3.551-0.596,4.797-1.787c1.246-1.191,1.869-2.599,1.869-4.221
		c0-1.6-0.614-3.003-1.843-4.208C88.481,166.802,86.874,166.198,84.889,166.198z M87.542,174.812
		c-0.671,0.661-1.556,0.99-2.653,0.99c-1.104,0-1.993-0.329-2.666-0.99c-0.674-0.66-1.011-1.527-1.011-2.602
		c0-1.079,0.337-1.947,1.011-2.605c0.673-0.658,1.562-0.987,2.666-0.987c1.098,0,1.982,0.329,2.653,0.987
		c0.671,0.657,1.006,1.525,1.006,2.605C88.548,173.284,88.213,174.152,87.542,174.812z M96.649,166.377h-2.904v11.667h8.89v-2.14
		h-5.986V166.377z M68.253,171.638c1.064-0.541,1.596-1.318,1.596-2.334c0-0.791-0.343-1.478-1.029-2.058
		c-0.686-0.579-1.628-0.869-2.828-0.869h-5.033v11.667h5.67c1.351,0,2.374-0.316,3.069-0.951c0.695-0.634,1.042-1.457,1.042-2.469
		c0-0.712-0.214-1.335-0.642-1.869C69.671,172.221,69.056,171.849,68.253,171.638z M63.863,168.517h1.507
		c0.463,0,0.825,0.117,1.084,0.351c0.259,0.234,0.389,0.529,0.389,0.886c0,0.361-0.13,0.662-0.389,0.901
		c-0.259,0.239-0.621,0.358-1.084,0.358h-1.507V168.517z M67.152,175.583c-0.338,0.215-0.892,0.321-1.661,0.321h-1.628v-2.751h2.026
		c0.537,0,0.966,0.118,1.287,0.354c0.321,0.236,0.482,0.558,0.482,0.963C67.659,174.998,67.49,175.369,67.152,175.583z
		 M69.584,149.259h-3.388l-4.703,11.667h3.082l0.866-2.293h5.236l0.959,2.293h3.129L69.584,149.259z M66.21,156.595l1.715-4.545
		l1.9,4.545H66.21z M144.728,155.113c0-1.726-0.577-3.133-1.732-4.222c-1.155-1.088-2.727-1.632-4.714-1.632h-5.144v11.667h4.818
		c2.171,0,3.843-0.517,5.015-1.55C144.142,158.344,144.728,156.923,144.728,155.113z M140.769,157.772
		c-0.653,0.676-1.596,1.014-2.828,1.014h-1.899v-7.387h1.866c1.238,0,2.188,0.33,2.849,0.989c0.661,0.659,0.992,1.562,0.992,2.708
		C141.748,156.203,141.422,157.096,140.769,157.772z M100.332,160.926h2.904v-11.667h-2.904V160.926z M52.102,166.198
		c-1.992,0-3.603,0.602-4.835,1.805c-1.232,1.203-1.848,2.606-1.848,4.212c0,1.634,0.62,3.043,1.86,4.229
		c1.24,1.187,2.848,1.779,4.822,1.779c1.952,0,3.551-0.596,4.797-1.787c1.246-1.191,1.869-2.599,1.869-4.221
		c0-1.6-0.614-3.003-1.844-4.208C55.695,166.802,54.088,166.198,52.102,166.198z M54.756,174.812
		c-0.671,0.661-1.556,0.99-2.653,0.99c-1.104,0-1.993-0.329-2.666-0.99c-0.674-0.66-1.011-1.527-1.011-2.602
		c0-1.079,0.337-1.947,1.011-2.605c0.673-0.658,1.562-0.987,2.666-0.987c1.098,0,1.982,0.329,2.653,0.987
		c0.671,0.657,1.006,1.525,1.006,2.605C55.762,173.284,55.427,174.152,54.756,174.812z M126.135,173.993h1.656v1.385
		c-0.643,0.283-1.283,0.424-1.92,0.424c-1.203,0-2.173-0.32-2.91-0.961c-0.737-0.641-1.105-1.479-1.105-2.513
		c0-1.079,0.369-1.967,1.107-2.664c0.738-0.697,1.79-1.046,3.156-1.046c1.415,0,2.865,0.357,4.347,1.07v-2.55
		c-1.351-0.627-2.883-0.94-4.595-0.94c-2.074,0-3.762,0.562-5.066,1.683c-1.304,1.122-1.955,2.572-1.955,4.351
		c0,1.74,0.652,3.173,1.957,4.301c1.305,1.127,2.973,1.69,5.005,1.69c0.923,0,1.857-0.147,2.8-0.44
		c0.943-0.294,1.646-0.673,2.108-1.138v-4.791h-4.586V173.993z M110.502,166.198c-1.991,0-3.603,0.602-4.835,1.805
		c-1.232,1.203-1.848,2.606-1.848,4.212c0,1.634,0.62,3.043,1.86,4.229c1.24,1.187,2.848,1.779,4.822,1.779
		c1.952,0,3.551-0.596,4.797-1.787c1.246-1.191,1.869-2.599,1.869-4.221c0-1.6-0.614-3.003-1.843-4.208
		C114.095,166.802,112.487,166.198,110.502,166.198z M113.155,174.812c-0.671,0.661-1.556,0.99-2.653,0.99
		c-1.104,0-1.993-0.329-2.666-0.99c-0.674-0.66-1.011-1.527-1.011-2.602c0-1.079,0.337-1.947,1.011-2.605
		c0.673-0.658,1.562-0.987,2.666-0.987c1.098,0,1.982,0.329,2.653,0.987c0.671,0.657,1.006,1.525,1.006,2.605
		C114.162,173.284,113.826,174.152,113.155,174.812z M126.152,158.785h-5.707v-2.802h5.324v-2.14h-5.324v-2.445h5.579v-2.14h-8.483
		v11.667h8.61V158.785z"/>
</g>
</svg>
