<?xml version="1.0" encoding="utf-8"?>
<!-- Generator: Adobe Illustrator 17.0.0, SVG Export Plug-In . SVG Version: 6.00 Build 0)  -->
<!DOCTYPE svg PUBLIC "-//W3C//DTD SVG 1.1//EN" "http://www.w3.org/Graphics/SVG/1.1/DTD/svg11.dtd">
<svg version="1.1" id="Layer_1" xmlns="http://www.w3.org/2000/svg" xmlns:xlink="http://www.w3.org/1999/xlink" x="0px" y="0px"
	 width="283.465px" height="112.252px" viewBox="0 0 283.465 112.252" enable-background="new 0 0 283.465 112.252"
	 xml:space="preserve">
<path d="M164.581,0.38L164.2,0.003h-0.537c-40.113,0-68.075,12.155-68.353,12.277l-0.781,0.345v57.178l116.642,34.061V46.225
	L164.581,0.38z"/>
<path fill="#F5FF00" d="M205.23,44.057L99.895,13.298c8.581-3.147,32.141-10.588,63.231-10.673L205.23,44.057z"/>
<polygon fill="#F5FF00" points="97.15,67.839 97.15,15.227 208.549,47.757 208.549,100.368 "/>
<path d="M3.77,107.663c-0.161,0.165-0.354,0.247-0.578,0.247H1.477v-1.673h1.715c0.224,0,0.417,0.082,0.578,0.247
	c0.161,0.166,0.242,0.362,0.242,0.589C4.012,107.302,3.931,107.499,3.77,107.663z M4.78,105.492
	c-0.44-0.439-0.968-0.658-1.586-0.658H0.05v7.161h1.427v-2.683h1.72c0.617,0,1.145-0.219,1.584-0.658
	c0.439-0.439,0.659-0.966,0.659-1.582C5.44,106.458,5.22,105.93,4.78,105.492z"/>
<path d="M31.207,107.663c-0.161,0.165-0.354,0.247-0.578,0.247h-1.715v-1.673h1.715c0.224,0,0.416,0.082,0.578,0.247
	c0.161,0.166,0.242,0.362,0.242,0.589C31.45,107.302,31.369,107.499,31.207,107.663z M31.672,109.049
	c0.364-0.192,0.656-0.464,0.876-0.816c0.219-0.351,0.329-0.737,0.329-1.161c0-0.615-0.22-1.142-0.66-1.581
	c-0.44-0.438-0.968-0.657-1.586-0.657h-3.144v7.161h1.427v-2.683h1.325l1.096,2.683h1.542L31.672,109.049z"/>
<path d="M59.965,110.042c-0.445,0.449-0.982,0.674-1.609,0.674c-0.629,0-1.165-0.225-1.609-0.674
	c-0.445-0.449-0.667-0.992-0.667-1.627c0-0.634,0.222-1.177,0.667-1.626c0.444-0.45,0.981-0.675,1.609-0.675
	c0.627,0,1.164,0.225,1.609,0.675c0.445,0.45,0.667,0.992,0.667,1.626C60.632,109.05,60.41,109.593,59.965,110.042z M60.975,105.796
	c-0.724-0.724-1.597-1.086-2.619-1.086c-1.023,0-1.896,0.362-2.619,1.086c-0.723,0.723-1.085,1.596-1.085,2.618
	c0,1.023,0.362,1.896,1.085,2.619c0.723,0.723,1.597,1.085,2.619,1.085c1.022,0,1.895-0.362,2.619-1.085
	c0.723-0.724,1.085-1.597,1.085-2.619C62.06,107.392,61.698,106.519,60.975,105.796z"/>
<path d="M87.631,109.954c-0.422,0.426-0.931,0.639-1.526,0.639h-0.67v-4.356h0.67c0.596,0,1.104,0.213,1.526,0.637
	c0.422,0.426,0.634,0.94,0.634,1.54C88.265,109.016,88.053,109.529,87.631,109.954z M88.64,105.883
	c-0.701-0.699-1.547-1.049-2.539-1.049h-2.094v7.161h2.094c0.992,0,1.838-0.349,2.539-1.049c0.702-0.7,1.052-1.544,1.052-2.532
	C89.692,107.427,89.342,106.582,88.64,105.883z"/>
<path d="M117.828,108.981c0,0.865-0.307,1.605-0.92,2.218c-0.614,0.614-1.353,0.92-2.218,0.92c-0.866,0-1.605-0.306-2.218-0.92
	c-0.614-0.613-0.92-1.353-0.92-2.218v-4.147h1.428v4.158c0,0.475,0.167,0.881,0.501,1.218c0.335,0.338,0.738,0.505,1.209,0.505
	c0.471,0,0.873-0.168,1.208-0.505s0.502-0.744,0.502-1.218v-4.158h1.428V108.981z"/>
<path d="M146.05,111.03c-0.722,0.725-1.595,1.089-2.616,1.089c-1.022,0-1.893-0.362-2.615-1.085
	c-0.723-0.724-1.084-1.597-1.084-2.619c0-1.023,0.362-1.895,1.084-2.618c0.722-0.724,1.593-1.086,2.615-1.086
	c1.021,0,1.893,0.362,2.616,1.084l-0.999,0.999c-0.447-0.453-0.985-0.68-1.613-0.68c-0.628,0-1.164,0.225-1.609,0.675
	c-0.445,0.45-0.667,0.992-0.667,1.626c0,0.636,0.222,1.178,0.667,1.627c0.445,0.449,0.981,0.674,1.609,0.674
	c0.628,0,1.165-0.231,1.613-0.691L146.05,111.03z"/>
<path d="M174.233,106.237h-2.589v5.759h-1.428v-5.759h-2.56v-1.403h6.576V106.237z"/>
<path d="M197.702,111.996h-1.501v-7.161h1.501V111.996z"/>
<path d="M225.067,110.042c-0.445,0.449-0.981,0.674-1.609,0.674c-0.628,0-1.165-0.225-1.609-0.674
	c-0.445-0.449-0.667-0.992-0.667-1.627c0-0.634,0.222-1.177,0.667-1.626c0.444-0.45,0.981-0.675,1.609-0.675
	c0.628,0,1.164,0.225,1.609,0.675c0.445,0.45,0.667,0.992,0.667,1.626C225.734,109.05,225.512,109.593,225.067,110.042z
	 M226.077,105.796c-0.724-0.724-1.597-1.086-2.619-1.086c-1.023,0-1.896,0.362-2.619,1.086c-0.723,0.723-1.085,1.596-1.085,2.618
	c0,1.023,0.362,1.896,1.085,2.619c0.724,0.723,1.597,1.085,2.619,1.085c1.022,0,1.895-0.362,2.619-1.085
	c0.723-0.724,1.085-1.597,1.085-2.619C227.162,107.392,226.8,106.519,226.077,105.796z"/>
<path d="M255.754,112.249l-5.217-4.531v4.278h-1.428v-7.408l5.218,4.531v-4.285h1.427V112.249z"/>
<path d="M283.391,109.852c0,0.406-0.106,0.778-0.317,1.115c-0.212,0.338-0.494,0.593-0.849,0.768
	c-0.51,0.255-1.041,0.384-1.594,0.384c-0.553,0-1.085-0.128-1.594-0.385c-0.591-0.294-0.96-0.76-1.109-1.399l1.357-0.487
	c0,0.289,0.124,0.499,0.372,0.626c0.304,0.161,0.626,0.242,0.967,0.242c0.342,0,0.664-0.079,0.968-0.237
	c0.248-0.126,0.372-0.332,0.372-0.617c0-0.252-0.12-0.429-0.359-0.531l-2.244-0.9c-0.726-0.288-1.089-0.836-1.089-1.643
	c0-0.801,0.362-1.378,1.087-1.728c0.399-0.2,0.824-0.3,1.273-0.3c0.449,0,0.877,0.1,1.283,0.3c0.468,0.225,0.789,0.584,0.964,1.078
	l-1.337,0.478c-0.044-0.132-0.124-0.227-0.243-0.286c-0.212-0.112-0.433-0.167-0.664-0.167c-0.231,0-0.444,0.049-0.64,0.147
	c-0.197,0.097-0.295,0.25-0.295,0.459c0,0.17,0.091,0.29,0.274,0.359l2.261,0.918c0.357,0.149,0.64,0.386,0.847,0.708
	C283.287,109.074,283.391,109.44,283.391,109.852z"/>
<path d="M4.63,53.62c-0.423,2.916-0.094,6.419,0.705,8.113c0.894,1.927,3.786,3.221,5.22,1.763c1.341-1.364-1.833-4.608,0.635-4.608
	h2.798c2.751,0,0.211,0.611,1.246,3.738c0.941,2.892-1.035,3.057-2.586,3.08c-3.762,0.071-6.349,0-10.347,0
	c-3.033,0-2.304-0.988-1.999-2.704c0.353-1.905-0.87-5.902,0.283-12.11c0.259-1.504,0.517-1.504,2.515-1.223
	C5.828,50.07,5.052,50.564,4.63,53.62z"/>
<path d="M22.522,51.363c-0.658,0.47-1.316,2.069,0.047,2.751c1.082,0.541,2.987-0.541,2.987,1.341c0,1.057,0.258,2.634-1.671,1.975
	c-1.833-0.611-2.75-0.165-2.75,1.458c0,1.763,0.634,2.303,1.316,3.292c0.612,0.917,1.999,1.48,2.751,1.269
	c1.764-0.493,1.764-0.541,2.986-0.917c1.153-0.352,1.906,0.446,2.681,1.41c0.894,1.129,0.541,1.74-1.034,1.764
	c-2.633,0.024-6.771,0-8.465,0c-2.023,0-3.08-0.188-3.763-0.94c-0.987-1.082-1.152-2.634-1.152-6.138
	c0-3.879,0.118-6.137,1.528-7.924c0.564-0.706,1.294-0.987,2.211-0.987c1.763,0,1.692,0,3.48,0c5.432,0.023,1.645,0,4.045,0
	c1.975,0,2.657,0.799,2.704,2.68c0.023,1.27-1.811,1.858-3.293-0.282c-0.587-0.847-0.846-1.176-2.821-1.152
	C23.629,50.963,23.299,50.822,22.522,51.363z"/>
<path d="M36.655,65.706c-1.036,0-1.271,0.024-2.423,0.024c-1.035,0-1.457-0.494-1.457-1.34c0-5.362,0.024-7.854,0-13.168
	c0-0.682,0.046-1.528,1.692-1.504c1.764,0.023,2.893,0.023,3.316,1.316c0.541,1.623,1.152,3.057,1.787,4.115
	c0.8,1.316,1.034,3.222,2.587,3.056c1.246-0.141,2.351-2.916,2.656-5.102c0.235-1.716,0-3.409,2.023-3.385c1.411,0,1.528,0,2.445,0
	c0.964,0,2.305,0.046,2.305,1.011c0.07,5.15,0.023,8.888,0,13.332c0,0.777-0.118,1.646-1.27,1.646c-1.27,0-1.787,0-2.892,0
	c-1.645,0-1.058-1.528,0.611-3.245c1.176-1.222,0.941-4.796-0.423-4.891c-2.21-0.187-2.563,3.128-2.868,4.562
	c-0.517,2.258-1.317,3.48-3.057,3.692c-1.669,0.212-2.446-3.175-2.962-4.539c-0.635-1.692-1.247-4.397-2.492-4.044
	c-1.74,0.47-0.801,3.62,0.376,5.267C37.76,64.107,38.488,65.706,36.655,65.706z"/>
<path d="M66.917,54.819c1.998,1.811,2.068,5.715,0.469,6.985c-2.539,2.045-5.243,0.54-7.571-1.27
	c-2.164-1.692-2.751-6.067-1.105-7.125C61.415,51.669,64.542,52.657,66.917,54.819z M72.513,58.111
	c0.141-5.032-4.421-9.053-9.452-8.912c-4.797,0.141-8.865,3.997-8.794,8.794c0.07,4.82,4.421,8.44,9.241,8.393
	C68.233,66.341,72.372,62.837,72.513,58.111z"/>
<path d="M78.814,65.706c-1.293,0-2.398,0-3.903,0c-0.659,0-0.87-0.235-0.87-1.034c0-5.244,0-8.324,0-13.568
	c0-0.87,0.399-1.386,1.574-1.386c1.599,0,1.224-0.024,2.446,0c1.246,0.046,1.317,0.588,1.129,1.858
	c-0.211,1.528,0.095,2.069,1.247,3.739c1.293,1.881,3.645,3.668,5.29,2.962c1.646-0.706,1.082-3.268-0.4-6.466
	c-0.706-1.528,1.058-2.116,1.058-2.116h1.764c2.233,0,1.693,2.281,1.693,3.903c0,1.764,0,4.679,0,7.218
	c0.023,2.845,0.235,4.798-1.788,4.892c-0.611,0.024-0.071,0-1.999,0c-2.022,0-4.185-2.54-4.868-3.973
	c-0.892-1.905-2.468-4.774-3.831-3.974c-1.341,0.775-0.706,2.257-0.071,3.362c0.516,0.869,1.34,2.563,1.645,2.869
	C79.308,64.366,79.802,65.706,78.814,65.706z"/>
<path d="M102.209,64.436c0.024-0.963,0-1.411,0-2.493c0-1.787,2.163-2.045,4.585-0.634c2.399,1.387,4.374,1.528,4.867,0.846
	c1.387-1.858-1.129-4.421-4.491-5.456c-3.809-1.152-4.937-3.268-4.045-5.244c1.224-2.751,5.809-1.857,8.207-1.364
	c2.163,0.423,6.325,3.739,3.575,3.739h-3.386c-1.293,0-0.469-0.987-1.175-1.764c-0.8-0.894-2.893-1.411-3.504-0.212
	c-0.729,1.459,1.928,2.658,3.715,3.386c3.456,1.388,7.054,3.152,7.171,6.538c0.095,3.151-3.973,3.927-5.549,3.927
	c-3.385,0-6.348,0.071-8.747,0C102.773,65.706,102.162,65.518,102.209,64.436z"/>
<path d="M124.1,53.902c-0.87-0.776-1.905-1.975-1.129-2.869c0.541-0.612,2.516,0.118,3.457,1.082
	c0.706,0.73,1.622,1.811,1.105,2.493C127.016,55.289,125.087,54.772,124.1,53.902z M120.503,49.717c-1.623,0-2.07,0.917-2.07,2.022
	c0,3.763,0,7.807,0,11.898c0,1.317,0.376,2.069,1.599,2.069c1.081,0,1.716,0,2.821,0c1.599,0,3.01,0.259,1.294-3.973
	c-0.917-2.234-0.517-1.646-1.058-3.528c-0.211-0.729,0.541-1.904,1.952-1.904c2.045,0,2.609,0,3.432,0.023
	c1.929,0.047,4.42-0.706,4.42-2.374c0-2.846-1.504-4.232-6.419-4.232C124.171,49.717,123.536,49.717,120.503,49.717z"/>
<path d="M146.768,54.819c1.999,1.811,2.07,5.715,0.47,6.985c-2.54,2.045-5.244,0.54-7.571-1.27
	c-2.163-1.692-2.751-6.067-1.105-7.125C141.265,51.669,144.393,52.657,146.768,54.819z M152.363,58.111
	c0.142-5.032-4.421-9.053-9.452-8.912c-4.798,0.141-8.865,3.997-8.795,8.794c0.071,4.82,4.421,8.44,9.241,8.393
	C148.084,66.341,152.223,62.837,152.363,58.111z"/>
<path d="M158.665,65.706c-1.293,0-2.397,0-3.902,0c-0.658,0-0.871-0.235-0.871-1.034c0-5.244,0-8.324,0-13.568
	c0-0.87,0.401-1.386,1.576-1.386c1.598,0,1.222-0.024,2.445,0c1.247,0.046,1.316,0.588,1.128,1.858
	c-0.211,1.528,0.094,2.069,1.246,3.739c1.294,1.881,3.645,3.668,5.291,2.962c1.645-0.706,1.081-3.268-0.4-6.466
	c-0.706-1.528,1.059-2.116,1.059-2.116H168c2.233,0,1.693,2.281,1.693,3.903c0,1.764,0,4.679,0,7.218
	c0.024,2.845,0.235,4.798-1.788,4.892c-0.612,0.024-0.07,0-1.998,0c-2.023,0-4.186-2.54-4.869-3.973
	c-0.893-1.905-2.468-4.774-3.832-3.974c-1.34,0.775-0.706,2.257-0.071,3.362c0.517,0.869,1.341,2.563,1.646,2.869
	C159.16,64.366,159.653,65.706,158.665,65.706z"/>
<path d="M188.08,64.248c0,1.129,0.165,1.81-1.74,1.81c-2.633,0-4.209,0.048-7.171,0c-4.35-0.046-7.948-3.409-8.183-7.759
	c-0.258-4.609,4.162-8.63,8.183-8.7c6.561-0.094,9.946,6.302,6.702,6.302h-2.587c-2.492,0-0.87-2.046-3.151-3.41
	c-1.881-1.129-3.622-0.095-4.75,1.293c-1.669,2.07-1.035,5.22,0.94,7.172c2.658,2.633,5.573,2.963,6.702,2.633
	c1.928-0.587,2.375-3.903-1.552-3.879c-2.045,0.024-2.939-2.21-0.047-2.21h4.327c0.141,0,0.306,0,0.494,0
	c0.988,0,1.833,0.682,1.833,1.622C188.058,60.275,188.08,63.496,188.08,64.248z"/>
<path d="M195.252,51.363c-0.658,0.47-1.317,2.069,0.048,2.751c1.081,0.541,2.986-0.541,2.986,1.341c0,1.057,0.258,2.634-1.669,1.975
	c-1.834-0.611-2.751-0.165-2.751,1.458c0,1.763,0.635,2.303,1.317,3.292c0.612,0.917,1.999,1.48,2.751,1.269
	c1.763-0.493,1.763-0.541,2.986-0.917c1.152-0.352,1.905,0.446,2.68,1.41c0.894,1.129,0.541,1.74-1.034,1.764
	c-2.634,0.024-6.772,0-8.464,0c-2.023,0-3.082-0.188-3.763-0.94c-0.987-1.082-1.153-2.634-1.153-6.138
	c0-3.879,0.119-6.137,1.53-7.924c0.564-0.706,1.293-0.987,2.21-0.987c1.764,0,1.693,0,3.481,0c5.432,0.023,1.645,0,4.044,0
	c1.975,0,2.656,0.799,2.704,2.68c0.024,1.27-1.81,1.858-3.292-0.282c-0.588-0.847-0.847-1.176-2.821-1.152
	C196.358,50.963,196.029,50.822,195.252,51.363z"/>
<path d="M222.27,52.139c-1.527-0.259-2.798,0.282-3.69,1.387c-1.341,1.669-2.187,5.714,1.34,8.348
	c2.915,2.186,7.312,1.293,9.641-2.493c0.259-0.448,0.47-0.658,1.01-0.329c0.354,0.212,0.8,0.542,0.517,1.082
	c-1.81,3.504-3.174,5.855-8.653,6.043c-4.538,0.141-8.136-3.927-7.971-8.395c0.165-4.374,3.527-8.065,7.901-8.065
	c4.138,0,6.114,1.434,7.548,4.514c0.142,0.353,0.306,0.776,0.118,1.057c-0.282,0.424-1.505,0.282-2.515,0.282
	c-1.294,0-0.589,0-1.882,0c-2.047,0-1.246-0.775-1.717-1.857C223.635,53.079,223.211,52.303,222.27,52.139z"/>
<path d="M247.806,60.675c0,1.129,0,2.422,0,2.915c0.071,1.835,0.165,2.117-1.552,2.117c-0.587,0-1.317,0.024-2.116,0.024
	c-3.245,0-2.68-0.659-1.152-2.14c1.763-1.693-0.023-3.338-2.587-4.679c-1.27-0.659-3.902-2.469-5.432-1.104
	c-1.763,1.598-0.164,4.091,1.317,5.925c0.493,0.611,1.928,1.975-0.329,1.975c-1.834,0-1.552,0.024-2.516,0.024
	c-1.529,0-1.599,0-1.622-1.811c0-0.635,0-1.058,0-1.693v-4.397c0-4.35,3.291-8.229,7.642-8.229c4.468,0.024,8.347,3.597,8.347,8.112
	V60.675z M239.859,56.16c1.505,1.01,3.362,2.515,4.608,1.152c0.776-0.847-0.352-2.915-1.599-3.927
	c-1.246-1.01-3.222-2.186-4.185-0.846C237.837,53.714,238.354,55.149,239.859,56.16z"/>
<path d="M265.206,65.706c-1.598,0.047-1.151,0.071-2.82,0c-1.646-0.048-1.646-0.376-1.646-2.233c0-1.669-0.188-2.163-1.552-3.575
	c-1.034-1.082-3.527-3.057-5.008-2.139c-0.941,0.563-0.47,2.375,0.588,3.714c0.54,0.706,1.246,1.928,1.481,2.304
	c1.035,1.552-0.777,1.929-1.81,1.929c-1.27,0-1.74,0-3.198,0c-1.034,0-1.317-0.353-1.317-1.411c0-4.303,0.07-8.912,0-13.638
	c0-0.822,0.493-0.988,1.035-0.988c1.152-0.023,0.823,0,1.176,0c0.611,0,2.186,0.188,2.585,0.8c1.341,1.976-2.845,2.563,1.059,4.586
	c1.057,0.54,2.233,1.551,3.48,0.211c1.247-1.364-2.821-5.597,0.094-5.597c1.551,0,2.046,0.024,3.645,0
	c3.95-0.093-0.118,2.234-0.071,4.021c0.094,3.598-2.351,2.868-2.163,2.987c0.729,0.446,2.469,1.175,4.091,2.633
	c1.882,1.692,2.375,2.774,2.375,4.797C267.228,65.401,266.194,65.683,265.206,65.706z"/>
<path d="M274.635,51.363c-0.658,0.47-1.316,2.069,0.048,2.751c1.081,0.541,2.987-0.541,2.987,1.341c0,1.057,0.258,2.634-1.67,1.975
	c-1.834-0.611-2.75-0.165-2.75,1.458c0,1.763,0.634,2.303,1.317,3.292c0.611,0.917,1.998,1.48,2.75,1.269
	c1.763-0.493,1.763-0.541,2.987-0.917c1.152-0.352,1.905,0.446,2.681,1.41c0.893,1.129,0.54,1.74-1.035,1.764
	c-2.633,0.024-6.771,0-8.465,0c-2.023,0-3.081-0.188-3.763-0.94c-0.987-1.082-1.152-2.634-1.152-6.138
	c0-3.879,0.117-6.137,1.528-7.924c0.565-0.706,1.293-0.987,2.21-0.987c1.763,0,1.693,0,3.48,0c5.432,0.023,1.646,0,4.044,0
	c1.975,0,2.658,0.799,2.705,2.68c0.023,1.27-1.811,1.858-3.291-0.282c-0.589-0.847-0.847-1.176-2.822-1.152
	C275.741,50.963,275.411,50.822,274.635,51.363z"/>
</svg>
