<?xml version="1.0" encoding="utf-8"?>
<!-- Generator: Adobe Illustrator 17.0.0, SVG Export Plug-In . SVG Version: 6.00 Build 0)  -->
<!DOCTYPE svg PUBLIC "-//W3C//DTD SVG 1.1//EN" "http://www.w3.org/Graphics/SVG/1.1/DTD/svg11.dtd">
<svg version="1.1" xmlns="http://www.w3.org/2000/svg" xmlns:xlink="http://www.w3.org/1999/xlink" x="0px" y="0px"
	 width="217.888px" height="62.45px" viewBox="0 0 217.888 62.45" enable-background="new 0 0 217.888 62.45" xml:space="preserve">
<g id="pin_reflection">
	<g>
		<polygon points="161.953,56.793 151.618,56.801 151.618,56.107 148.786,56.107 148.786,53.074 126.439,53.074 126.439,53.325 
			124.343,53.325 124.343,51.407 118.344,51.407 118.344,51.76 113.531,51.76 113.531,56.107 110.227,56.107 110.227,56.801 
			76.913,56.801 76.913,61.033 161.953,61.033 		"/>
		<path d="M123.807,50.478l-0.422-0.422l-0.018-0.001h0.078c0.098,0,0.176-0.078,0.176-0.176v-1.088
			c0-0.098-0.078-0.176-0.176-0.176h-0.707v-0.644c0-0.096-0.078-0.174-0.176-0.174h-2.452c-0.096,0-0.175,0.078-0.175,0.174v0.644
			h-0.705c-0.098,0-0.176,0.078-0.176,0.176v1.088c0,0.098,0.078,0.176,0.176,0.176h0.06l-0.423,0.423h-1.637v0.295h8.217v-0.295
			H123.807z"/>
		<path d="M133.043,50.773v-2.023c0-0.098-0.079-0.178-0.176-0.178h-1.559c-0.097,0-0.177,0.08-0.177,0.178v2.023H133.043z"/>
		<path d="M140.808,41.344h2.006v-1.91h-2.006c-0.097,0-0.177,0.079-0.177,0.176v1.558
			C140.631,41.266,140.711,41.344,140.808,41.344z"/>
		<path d="M99.859,14.728v27.466c0,4.731,3.847,8.579,8.577,8.579h25.803c4.726,0,8.574-3.848,8.574-8.579V14.709h0.634v27.485
			c0,5.089-4.123,9.213-9.209,9.213h-25.803c-5.088,0-9.212-4.125-9.212-9.213V14.728H99.859z"/>
		<path d="M140.962,41.344c-0.43,3.621-1.441,4.71-3.015,6.112c-1.58,1.408-3.074,1.706-3.657,1.756
			c-0.439,0.036-0.941,0.022-1.248-0.015v1.471c0.695-0.002,1.528-0.027,2.773-0.314c1.297-0.297,2.95-1.457,3.714-2.085
			c0.764-0.631,1.314-1.622,1.847-2.399c0.533-0.78,1.012-2.534,1.173-3.362c0.089-0.465,0.134-0.882,0.157-1.163H140.962z"/>
		<path d="M123.831,45.782c-2.769,0-3.325,1.831-3.373,2.014h1.609c0.023-0.051,0.149-0.342,0.216-0.387
			c0.075-0.05,0.275,0.013,0.496,0.013c0.22,0,0.465-0.319,0.465-0.319s0.245-0.049,0.417-0.072
			c0.171-0.025,0.929,0.293,1.592,0.612c0.661,0.318,2.643,1.419,4.014,2.08c0.979,0.472,1.531,0.632,1.865,0.701v-1.558
			C129.28,48.415,126.326,45.782,123.831,45.782z"/>
		<path d="M142.852,32.601c-0.049-1.452-1.606-3.47-1.992-3.874c-0.388-0.403-1.218-1.25-1.282-1.333l-0.051-0.371
			c-0.159,0.789-0.71,2.327-0.71,2.327s0.425,0.205,0.69,0.498c0.335,0.368,1.044,1.176,1.518,2.389
			c0.472,1.211-0.018,5.125-0.051,5.833c-0.021,0.473,0.022,1.037,0.053,1.363h1.767c-0.06-0.55-0.088-2.946-0.088-3.325
			C142.707,35.714,142.903,34.05,142.852,32.601z"/>
		<path d="M99.859,17.073v25.121c0,4.731,3.847,8.579,8.577,8.579h25.803c4.726,0,8.574-3.848,8.574-8.579V17.073h0.634v25.121
			c0,5.089-4.123,9.213-9.209,9.213h-25.803c-5.088,0-9.212-4.125-9.212-9.213V17.073H99.859z"/>
		<path d="M127.602,51.407c-0.02,0.02-0.039,0.041-0.06,0.062c-0.261,0.266-0.467,0.477-1.016,0.477
			c-0.598,0-0.871-0.261-1.16-0.539h-0.796c0.165,0.078,0.3,0.2,0.452,0.347c0.314,0.304,0.704,0.68,1.504,0.68
			c0.755,0,1.079-0.33,1.365-0.624c0.164-0.168,0.309-0.314,0.529-0.403H127.602z"/>
		<path fill="#FFFFFF" d="M123.224,3.131c10.613,0.622,18.926,6.424,18.926,13.489c0,2.783-1.291,5.368-3.505,7.52
			c0.403,0.891,0.623,1.826,0.623,2.79c0,5.898-8.027,10.675-17.932,10.675c-9.904,0-17.933-4.777-17.933-10.675
			c0-0.965,0.219-1.9,0.622-2.79c-2.212-2.151-3.505-4.737-3.505-7.521c0-7.052,8.287-12.846,18.871-13.485l0.187,0.312
			l-0.189,5.521l3.836-0.084l-0.127-5.437L123.224,3.131z"/>
		<g>
			<g>
				<path d="M145.448,16.53h-1.351l-0.229,0.312c-0.082-0.809-0.232-1.451-0.42-1.803v6.36c0.188-0.348,0.338-0.991,0.42-1.799
					l0.229,0.311h1.351l0.248-0.34v-2.703L145.448,16.53z"/>
			</g>
			<rect x="144.109" y="16.671" fill="#FFFFFF" width="1.339" height="0.836"/>
		</g>
		<g>
			<g>
				<path d="M99.225,15.022c-0.193,0.346-0.349,0.996-0.432,1.82l-0.228-0.312h-1.352l-0.247,0.339v2.703l0.247,0.34h1.352
					l0.228-0.311c0.083,0.822,0.238,1.474,0.432,1.818V15.022z"/>
			</g>
			<rect x="97.213" y="16.671" fill="#FFFFFF" width="1.34" height="0.836"/>
		</g>
		<rect x="99.859" y="15.022" width="0.733" height="6.389"/>
		<rect x="142.078" y="15.022" width="0.733" height="6.389"/>
		<path d="M139.126,28.439c-1.702,4.602-7.787,8.142-15.337,8.781v-1.974h-4.904v1.974c-7.547-0.639-13.632-4.178-15.338-8.777
			c0.939,5.073,7.485,9.097,15.737,9.677v1.37h0.558v0.418h2.99v-0.418h0.558v-1.37C131.644,37.54,138.189,33.513,139.126,28.439z"
			/>
		<path d="M123.357,37.075l-4.7-0.126c0,0-3.879-0.176-7.592-1.904c0,0,4.568,1.496,7.735,1.592l4.597,0.356L123.357,37.075z"/>
		<path d="M138.304,29.403c-3.747,5.426-11.401,6.627-12.525,6.758c-1.123,0.131-1.593,0.672-1.593,0.672
			C135.276,35.637,138.304,29.403,138.304,29.403z"/>
		<path d="M112.957,34.497c0,0,3.551,1.098,6.147,1.19l0.064,0.667c0,0-2.693-0.18-6.313-1.215c0,0,0.752,0.091,0.752-0.093
			C113.607,34.864,112.957,34.497,112.957,34.497z"/>
		<path d="M105.06,30.19c0,0,2.245,2.26,6.195,3.982c0,0,2.195,1.062-0.169,0.403c-0.927-0.259-1.552-0.546-1.552-0.546
			s1.759,0.401,0.917,0.03C109.61,33.686,106.59,32.109,105.06,30.19z"/>
		<path d="M123.331,35.647c0,0,1.095-0.03,1.845-0.273c0,0-0.649,0.273-0.615,0.395c0.034,0.122,0.82,0.031,0.82,0.031
			s-1.332,0.336-2.016,0.366L123.331,35.647z"/>
		<g>
			<g>
				<path fill="#FFFFFF" d="M137.047,24.824c0-4.811-7.032-9.064-15.71-9.064c-8.676,0-15.712,4.253-15.712,9.064
					c0.022,0.019,0.048,0.04,0.07,0.06c3.5,2.547,8.595,4.211,14.322,4.438v3.187h2.598v-3.185
					c5.784-0.222,10.927-1.908,14.432-4.489C137.046,24.829,137.047,24.827,137.047,24.824z"/>
				<radialGradient id="SVGID_1_" cx="121.3363" cy="15.8499" r="18.0922" gradientUnits="userSpaceOnUse">
					<stop  offset="0.2865" style="stop-color:#FFFFFF"/>
					<stop  offset="1" style="stop-color:#F3F3F3"/>
				</radialGradient>
				<path fill="url(#SVGID_1_)" d="M121.337,15.85c-8.653,0-15.669,4.223-15.674,9.001c0.022,0.019,0.047,0.039,0.07,0.059
					c3.382,2.448,8.241,4.075,13.717,4.385c0.183,0.01,0.366,0.03,0.55,0.037l0,3.191h2.611l0.022-0.178l0-3.008
					c0.118-0.005,0.235-0.024,0.352-0.03c5.613-0.277,10.596-1.936,14.025-4.457C137.004,20.073,129.992,15.85,121.337,15.85z"/>
				<radialGradient id="SVGID_2_" cx="121.3368" cy="15.9405" r="18.0281" gradientUnits="userSpaceOnUse">
					<stop  offset="0.2865" style="stop-color:#FFFFFF"/>
					<stop  offset="1" style="stop-color:#E7E7E7"/>
				</radialGradient>
				<path fill="url(#SVGID_2_)" d="M121.338,15.941c-8.629,0-15.627,4.193-15.636,8.937c0.022,0.018,0.047,0.039,0.07,0.058
					c3.382,2.435,8.229,4.053,13.69,4.36c0.173,0.01,0.348,0.039,0.522,0.046l0,3.195h2.625l0.043-0.169l0-3.017
					c0.112-0.004,0.223-0.038,0.335-0.044c5.593-0.276,10.559-1.926,13.986-4.432C136.962,20.132,129.968,15.941,121.338,15.941z"/>
				<radialGradient id="SVGID_3_" cx="121.3373" cy="16.0311" r="17.964" gradientUnits="userSpaceOnUse">
					<stop  offset="0.2865" style="stop-color:#FFFFFF"/>
					<stop  offset="1" style="stop-color:#DBDBDB"/>
				</radialGradient>
				<path fill="url(#SVGID_3_)" d="M121.338,16.031c-8.605,0-15.584,4.162-15.598,8.874c0.022,0.018,0.047,0.038,0.069,0.057
					c3.382,2.422,8.217,4.031,13.662,4.336c0.164,0.009,0.329,0.049,0.495,0.056l0.001,3.199h2.638l0.065-0.16l0-3.027
					c0.106-0.004,0.212-0.052,0.317-0.058c5.573-0.275,10.523-1.916,13.948-4.406C136.919,20.192,129.944,16.031,121.338,16.031z"/>
				<radialGradient id="SVGID_4_" cx="121.3378" cy="16.1217" r="17.8999" gradientUnits="userSpaceOnUse">
					<stop  offset="0.2865" style="stop-color:#FFFFFF"/>
					<stop  offset="1" style="stop-color:#CECECE"/>
				</radialGradient>
				<path fill="url(#SVGID_4_)" d="M121.339,16.122c-8.582,0-15.542,4.132-15.561,8.81c0.022,0.018,0.047,0.038,0.069,0.056
					c3.381,2.409,8.205,4.009,13.635,4.311c0.155,0.009,0.311,0.059,0.468,0.065l0.001,3.204h2.651l0.086-0.151l-0.001-3.036
					c0.1-0.004,0.2-0.066,0.299-0.071c5.553-0.274,10.487-1.905,13.91-4.381C136.876,20.252,129.921,16.122,121.339,16.122z"/>
				<radialGradient id="SVGID_5_" cx="121.3383" cy="16.2123" r="17.8358" gradientUnits="userSpaceOnUse">
					<stop  offset="0.2865" style="stop-color:#FFFFFF"/>
					<stop  offset="1" style="stop-color:#C2C2C2"/>
				</radialGradient>
				<path fill="url(#SVGID_5_)" d="M121.339,16.212c-8.558,0-15.499,4.101-15.523,8.747c0.022,0.018,0.046,0.037,0.069,0.055
					c3.381,2.396,8.194,3.987,13.608,4.287c0.146,0.008,0.293,0.068,0.44,0.074l0.001,3.208h2.665l0.108-0.142l-0.001-3.045
					c0.094-0.004,0.188-0.08,0.282-0.085c5.533-0.274,10.451-1.895,13.872-4.355C136.834,20.312,129.897,16.212,121.339,16.212z"/>
				<radialGradient id="SVGID_6_" cx="121.3389" cy="16.3029" r="17.7718" gradientUnits="userSpaceOnUse">
					<stop  offset="0.2865" style="stop-color:#FFFFFF"/>
					<stop  offset="1" style="stop-color:#B6B6B6"/>
				</radialGradient>
				<path fill="url(#SVGID_6_)" d="M121.34,16.303c-8.534,0-15.457,4.071-15.485,8.683c0.022,0.017,0.046,0.036,0.068,0.054
					c3.381,2.383,8.182,3.965,13.58,4.262c0.137,0.008,0.275,0.078,0.413,0.083l0.001,3.212h2.678l0.13-0.133l-0.001-3.054
					c0.088-0.003,0.176-0.094,0.264-0.099c5.513-0.273,10.415-1.884,13.833-4.33C136.791,20.372,129.873,16.303,121.34,16.303z"/>
				<radialGradient id="SVGID_7_" cx="121.3394" cy="16.3935" r="17.7078" gradientUnits="userSpaceOnUse">
					<stop  offset="0.2865" style="stop-color:#FFFFFF"/>
					<stop  offset="1" style="stop-color:#AAAAAA"/>
				</radialGradient>
				<path fill="url(#SVGID_7_)" d="M121.341,16.393c-8.511,0-15.414,4.041-15.447,8.62c0.022,0.017,0.046,0.036,0.068,0.054
					c3.381,2.37,8.17,3.943,13.553,4.237c0.128,0.007,0.256,0.087,0.385,0.093l0.002,3.216h2.692l0.151-0.124l-0.001-3.063
					c0.082-0.003,0.165-0.109,0.247-0.113c5.493-0.272,10.379-1.874,13.795-4.304C136.748,20.432,129.85,16.393,121.341,16.393z"/>
				<radialGradient id="SVGID_8_" cx="121.3399" cy="16.4841" r="17.6438" gradientUnits="userSpaceOnUse">
					<stop  offset="0.2865" style="stop-color:#FFFFFF"/>
					<stop  offset="1" style="stop-color:#9E9E9E"/>
				</radialGradient>
				<path fill="url(#SVGID_8_)" d="M121.341,16.484c-8.487,0-15.372,4.01-15.409,8.556c0.022,0.017,0.046,0.035,0.068,0.053
					c3.381,2.357,8.158,3.921,13.525,4.213c0.119,0.007,0.238,0.097,0.358,0.102l0.002,3.22h2.705l0.173-0.115l-0.001-3.072
					c0.077-0.003,0.153-0.123,0.229-0.126c5.474-0.271,10.343-1.863,13.757-4.279C136.705,20.491,129.826,16.484,121.341,16.484z"/>
				<radialGradient id="SVGID_9_" cx="121.3404" cy="16.5747" r="17.5798" gradientUnits="userSpaceOnUse">
					<stop  offset="0.2865" style="stop-color:#FFFFFF"/>
					<stop  offset="1" style="stop-color:#929292"/>
				</radialGradient>
				<path fill="url(#SVGID_9_)" d="M121.342,16.575c-8.464,0-15.329,3.98-15.371,8.493c0.022,0.017,0.045,0.035,0.067,0.052
					c3.381,2.344,8.146,3.899,13.498,4.188c0.11,0.006,0.22,0.107,0.33,0.111l0.002,3.225h2.718l0.194-0.107l-0.001-3.081
					c0.071-0.003,0.141-0.137,0.211-0.14c5.454-0.27,10.307-1.853,13.719-4.254C136.663,20.551,129.803,16.575,121.342,16.575z"/>
				<radialGradient id="SVGID_10_" cx="121.3409" cy="16.6653" r="17.5159" gradientUnits="userSpaceOnUse">
					<stop  offset="0.2865" style="stop-color:#FFFFFF"/>
					<stop  offset="1" style="stop-color:#868686"/>
				</radialGradient>
				<path fill="url(#SVGID_10_)" d="M121.342,16.665c-8.44,0-15.286,3.949-15.333,8.429c0.021,0.016,0.045,0.034,0.067,0.051
					c3.381,2.331,8.134,3.877,13.471,4.163c0.1,0.006,0.201,0.116,0.303,0.12l0.002,3.229h2.732l0.216-0.098l-0.002-3.091
					c0.065-0.002,0.129-0.151,0.194-0.154c5.434-0.269,10.271-1.843,13.68-4.228C136.62,20.611,129.779,16.665,121.342,16.665z"/>
				<radialGradient id="SVGID_11_" cx="121.3415" cy="16.7559" r="17.4519" gradientUnits="userSpaceOnUse">
					<stop  offset="0.2865" style="stop-color:#FFFFFF"/>
					<stop  offset="1" style="stop-color:#797979"/>
				</radialGradient>
				<path fill="url(#SVGID_11_)" d="M121.343,16.756c-8.416,0-15.244,3.919-15.295,8.365c0.021,0.016,0.045,0.033,0.067,0.05
					c3.381,2.318,8.122,3.855,13.443,4.139c0.091,0.005,0.183,0.126,0.275,0.13l0.003,3.233h2.745l0.238-0.089l-0.002-3.1
					c0.059-0.002,0.117-0.165,0.176-0.168c5.414-0.268,10.235-1.832,13.642-4.203C136.577,20.671,129.755,16.756,121.343,16.756z"/>
				<radialGradient id="SVGID_12_" cx="121.342" cy="16.8465" r="17.388" gradientUnits="userSpaceOnUse">
					<stop  offset="0.2865" style="stop-color:#FFFFFF"/>
					<stop  offset="1" style="stop-color:#6D6D6D"/>
				</radialGradient>
				<path fill="url(#SVGID_12_)" d="M121.343,16.846c-8.393,0-15.201,3.889-15.257,8.302c0.021,0.016,0.045,0.033,0.066,0.049
					c3.38,2.305,8.11,3.833,13.416,4.114c0.082,0.005,0.165,0.136,0.248,0.139l0.003,3.237h2.759l0.259-0.08l-0.002-3.109
					c0.053-0.002,0.106-0.179,0.158-0.181c5.394-0.267,10.199-1.822,13.604-4.177C136.535,20.731,129.732,16.846,121.343,16.846z"/>
				<radialGradient id="SVGID_13_" cx="121.3425" cy="16.937" r="17.3241" gradientUnits="userSpaceOnUse">
					<stop  offset="0.2865" style="stop-color:#FFFFFF"/>
					<stop  offset="1" style="stop-color:#616161"/>
				</radialGradient>
				<path fill="url(#SVGID_13_)" d="M121.344,16.937c-8.369,0-15.159,3.858-15.219,8.238c0.021,0.016,0.044,0.032,0.066,0.048
					c3.38,2.292,8.099,3.8,13.389,4.089c0.073,0.004,0.147,0.145,0.22,0.148l0.003,3.241h2.772l0.281-0.071l-0.002-3.118
					c0.047-0.002,0.094-0.193,0.141-0.195c5.374-0.267,10.163-1.811,13.566-4.152C136.492,20.791,129.708,16.937,121.344,16.937z"/>
				<radialGradient id="SVGID_14_" cx="121.343" cy="17.0276" r="17.2603" gradientUnits="userSpaceOnUse">
					<stop  offset="0.2865" style="stop-color:#FFFFFF"/>
					<stop  offset="1" style="stop-color:#555555"/>
				</radialGradient>
				<path fill="url(#SVGID_14_)" d="M121.344,17.028c-8.345,0-15.116,3.828-15.181,8.175c0.021,0.016,0.044,0.032,0.066,0.047
					c3.38,2.28,8.087,3.777,13.361,4.065c0.064,0.003,0.128,0.155,0.193,0.157l0.003,3.246h2.785l0.303-0.062l-0.002-3.127
					c0.041-0.002,0.082-0.207,0.123-0.209c5.354-0.266,10.127-1.801,13.527-4.127C136.449,20.85,129.684,17.028,121.344,17.028z"/>
				<radialGradient id="SVGID_15_" cx="121.3435" cy="17.1182" r="17.1964" gradientUnits="userSpaceOnUse">
					<stop  offset="0.2865" style="stop-color:#FFFFFF"/>
					<stop  offset="1" style="stop-color:#494949"/>
				</radialGradient>
				<path fill="url(#SVGID_15_)" d="M121.345,17.118c-8.322,0-15.074,3.797-15.143,8.111c0.021,0.015,0.044,0.031,0.065,0.047
					c3.38,2.267,8.076,3.754,13.334,4.04c0.055,0.003,0.11,0.164,0.165,0.167l0.004,3.25h2.799l0.324-0.053l-0.002-3.136
					c0.035-0.001,0.07-0.221,0.105-0.223c5.334-0.265,10.091-1.79,13.489-4.101C136.406,20.91,129.661,17.118,121.345,17.118z"/>
				<radialGradient id="SVGID_16_" cx="121.3441" cy="17.2088" r="17.1326" gradientUnits="userSpaceOnUse">
					<stop  offset="0.2865" style="stop-color:#FFFFFF"/>
					<stop  offset="1" style="stop-color:#3D3D3D"/>
				</radialGradient>
				<path fill="url(#SVGID_16_)" d="M121.345,17.209c-8.298,0-15.031,3.767-15.105,8.048c0.021,0.015,0.044,0.031,0.065,0.046
					c3.38,2.254,8.064,3.731,13.306,4.015c0.046,0.002,0.092,0.174,0.138,0.176l0.004,3.254h2.812l0.346-0.044l-0.003-3.146
					c0.029-0.001,0.059-0.235,0.088-0.237c5.314-0.264,10.055-1.78,13.451-4.076C136.364,20.97,129.637,17.209,121.345,17.209z"/>
				<radialGradient id="SVGID_17_" cx="121.3446" cy="17.2994" r="17.0688" gradientUnits="userSpaceOnUse">
					<stop  offset="0.2865" style="stop-color:#FFFFFF"/>
					<stop  offset="1" style="stop-color:#313131"/>
				</radialGradient>
				<path fill="url(#SVGID_17_)" d="M121.346,17.299c-8.275,0-14.989,3.737-15.067,7.984c0.021,0.015,0.043,0.03,0.065,0.045
					c3.38,2.241,8.052,3.708,13.279,3.991c0.037,0.002,0.073,0.184,0.11,0.185l0.004,3.258h2.826l0.367-0.036l-0.003-3.155
					c0.024-0.001,0.047-0.249,0.07-0.25c5.294-0.263,10.019-1.77,13.413-4.05C136.321,21.03,129.613,17.299,121.346,17.299z"/>
				<radialGradient id="SVGID_18_" cx="121.3451" cy="17.39" r="17.0051" gradientUnits="userSpaceOnUse">
					<stop  offset="0.2865" style="stop-color:#FFFFFF"/>
					<stop  offset="1" style="stop-color:#242424"/>
				</radialGradient>
				<path fill="url(#SVGID_18_)" d="M121.346,17.39c-8.251,0-14.946,3.706-15.029,7.921c0.021,0.015,0.043,0.029,0.064,0.044
					c3.38,2.228,8.04,3.685,13.252,3.966c0.027,0.001,0.055,0.193,0.083,0.194l0.004,3.262h2.839l0.389-0.027l-0.003-3.164
					c0.018-0.001,0.035-0.263,0.053-0.264c5.274-0.262,9.983-1.759,13.375-4.025C136.278,21.09,129.59,17.39,121.346,17.39z"/>
				<radialGradient id="SVGID_19_" cx="121.3456" cy="17.4806" r="16.9413" gradientUnits="userSpaceOnUse">
					<stop  offset="0.2865" style="stop-color:#FFFFFF"/>
					<stop  offset="1" style="stop-color:#181818"/>
				</radialGradient>
				<path fill="url(#SVGID_19_)" d="M121.347,17.481c-8.227,0-14.904,3.676-14.991,7.857c0.021,0.014,0.043,0.029,0.064,0.043
					c3.38,2.215,8.028,3.662,13.224,3.941c0.018,0.001,0.037,0.203,0.055,0.204l0.005,3.267h2.852l0.411-0.018l-0.003-3.173
					c0.012,0,0.023-0.277,0.035-0.278c5.254-0.261,9.947-1.749,13.336-3.999C136.235,21.15,129.566,17.481,121.347,17.481z"/>
				<radialGradient id="SVGID_20_" cx="121.3461" cy="17.5712" r="16.8776" gradientUnits="userSpaceOnUse">
					<stop  offset="0.2865" style="stop-color:#FFFFFF"/>
					<stop  offset="1" style="stop-color:#0C0C0C"/>
				</radialGradient>
				<path fill="url(#SVGID_20_)" d="M121.348,17.571c-8.204,0-14.861,3.645-14.953,7.794c0.021,0.014,0.043,0.028,0.064,0.042
					c3.38,2.202,8.016,3.639,13.197,3.917c0.009,0,0.019,0.212,0.028,0.213l0.005,3.271h2.866l0.432-0.009l-0.003-3.182
					c0.006,0,0.011-0.291,0.017-0.292c5.234-0.26,9.911-1.738,13.298-3.974C136.193,21.209,129.543,17.571,121.348,17.571z"/>
				<radialGradient id="SVGID_21_" cx="121.3466" cy="17.6618" r="16.8139" gradientUnits="userSpaceOnUse">
					<stop  offset="0.2865" style="stop-color:#FFFFFF"/>
					<stop  offset="1" style="stop-color:#000000"/>
				</radialGradient>
				<path fill="url(#SVGID_21_)" d="M106.433,25.392c3.385,2.212,8.035,3.674,13.233,3.933l0.005,3.497h3.333l-0.004-3.497
					c5.214-0.26,9.875-1.728,13.26-3.949c-0.11-4.108-6.741-7.715-14.912-7.715C113.168,17.662,106.529,21.277,106.433,25.392z"/>
			</g>
		</g>
		<path fill="#FFFFFF" d="M123.168,9.069l-0.032-1.994l-0.411-0.018V2.063c0-0.357-0.621-0.646-1.389-0.646
			c-0.765,0-1.386,0.289-1.386,0.646v4.972l-0.445,0.04l-0.183,1.933L123.168,9.069z"/>
		<path fill="#FFFFFF" d="M123.168,35.363l-0.032-1.993l-0.411-0.019v-4.994c0-0.355-0.621-0.646-1.389-0.646
			c-0.765,0-1.386,0.291-1.386,0.646v4.973l-0.445,0.041l-0.183,1.933L123.168,35.363z"/>
		<path d="M123.098,29.782v3.452h-0.373v-4.548c0-0.357-0.621-0.647-1.389-0.647c-0.765,0-1.386,0.29-1.386,0.647v4.548h-0.373
			v-3.446c-10.569-0.585-18.972-6.091-18.972-12.772v3.948c0,7.222,9.282,14.445,20.731,14.445c11.452,0,20.73-7.223,20.73-14.445
			v-3.948C142.067,23.721,133.725,29.23,123.098,29.782z"/>
		<path d="M141.786,16.538c0-6.877-8.217-12.517-18.688-13.091v3.458l-0.373,0.002V2.343c0-0.356-0.621-0.646-1.389-0.646
			c-0.765,0-1.386,0.29-1.386,0.646v4.543l-0.357,0.006l-0.015-3.445c-10.47,0.574-18.691,6.214-18.691,13.091
			c0,1.228,0.269,2.415,0.759,3.543v-2.722c0,0,2.18-2.79,6.336-4.798c-1.858,1.341-3.206,3.122-3.851,5.052
			c-0.309,0.837-0.475,1.708-0.475,2.604c0,1.362,0.376,2.668,1.064,3.878c0.21,0.184,0.426,0.364,0.65,0.541
			c-0.16-0.233-0.304-0.472-0.44-0.712c0.01,0.008,0.018,0.015,0.027,0.024c-0.276-0.535-0.494-1.089-0.651-1.654
			c1.558-5.286,8.591-9.279,17.032-9.279c8.444,0,15.474,3.993,17.032,9.279c-0.158,0.569-0.377,1.123-0.654,1.66
			c0.009-0.008,0.017-0.015,0.025-0.023c-0.135,0.239-0.277,0.476-0.436,0.706c0.224-0.177,0.441-0.357,0.65-0.539
			c0.69-1.211,1.066-2.518,1.066-3.879c0-0.894-0.167-1.76-0.472-2.594c-0.645-1.935-1.992-3.721-3.854-5.065
			c4.156,2.011,6.335,4.8,6.335,4.8v2.722C141.519,18.953,141.786,17.767,141.786,16.538z M119.95,8.792h-0.378V7.035h0.378V8.792z
			 M123.098,8.792h-0.377V7.035h0.377V8.792z"/>
		
			<radialGradient id="SVGID_22_" cx="121.3375" cy="13.0998" r="2.006" gradientTransform="matrix(1 0 0 2.873 0 -24.5358)" gradientUnits="userSpaceOnUse">
			<stop  offset="0.2848" style="stop-color:#000000"/>
			<stop  offset="0.8924" style="stop-color:#FFFFFF"/>
		</radialGradient>
		<path fill="url(#SVGID_22_)" d="M119.394,13.026c0,0,0.359,5.585,1.983,5.585c1.627,0,1.903-5.634,1.903-5.634L119.394,13.026z"/>
	</g>
</g>
<g id="text">
	<g>
		<path d="M8.443,42.74c-0.14,0.325-0.331,0.609-0.575,0.854c-0.244,0.243-0.528,0.436-0.853,0.575
			c-0.325,0.139-0.673,0.209-1.043,0.209H5.195c-0.371,0-0.72-0.07-1.047-0.209c-0.327-0.14-0.613-0.332-0.856-0.575
			c-0.244-0.244-0.436-0.528-0.575-0.854c-0.14-0.324-0.209-0.673-0.209-1.043v-5.864c0-0.37,0.07-0.718,0.209-1.043
			s0.332-0.609,0.575-0.854c0.244-0.243,0.529-0.435,0.856-0.574c0.328-0.14,0.677-0.21,1.047-0.21h0.777
			c0.371,0,0.718,0.07,1.043,0.21c0.325,0.14,0.609,0.331,0.853,0.574c0.244,0.244,0.435,0.528,0.575,0.854s0.209,0.673,0.209,1.043
			v5.864C8.652,42.067,8.582,42.415,8.443,42.74z M7.67,35.832c0-0.243-0.046-0.471-0.137-0.682s-0.216-0.395-0.373-0.552
			s-0.341-0.282-0.552-0.373c-0.21-0.092-0.438-0.138-0.682-0.138H5.24c-0.244,0-0.471,0.046-0.682,0.138
			c-0.211,0.091-0.396,0.216-0.556,0.373c-0.16,0.157-0.286,0.341-0.377,0.552s-0.137,0.438-0.137,0.682v5.864
			c0,0.243,0.046,0.471,0.137,0.682s0.217,0.396,0.377,0.556c0.16,0.16,0.345,0.286,0.556,0.377c0.21,0.092,0.438,0.138,0.682,0.138
			h0.685c0.244,0,0.471-0.046,0.682-0.138c0.211-0.091,0.395-0.217,0.552-0.377s0.282-0.345,0.373-0.556S7.67,41.94,7.67,41.697
			V35.832z"/>
		<path d="M10.373,44.225V43.76l4.866-9.52h-4.714v-0.937h5.994v0.473l-4.867,9.512h4.867v0.937H10.373z"/>
		<path d="M22.49,41.681h-3.458l-0.716,2.544h-1.021l3.199-10.921h0.518l3.214,10.921h-1.013L22.49,41.681z M19.299,40.745h2.932
			l-1.439-5.034l-0.03-0.403l-0.031,0.403L19.299,40.745z"/>
		<path d="M25.628,44.225V33.304h0.982v10.921H25.628z M30.959,44.225l-4.113-5.46l4.113-5.461h1.218l-4.196,5.461l4.196,5.46
			H30.959z"/>
		<path d="M33.738,44.225V33.304h6.146v0.937H34.72v4.06h4.181v0.937H34.72v4.052h5.164v0.937H33.738z M36.419,32.063h-0.701
			l1.249-1.874h1.561L36.419,32.063z"/>
		<path d="M51.281,42.587c-0.14,0.325-0.332,0.609-0.575,0.854c-0.244,0.243-0.529,0.436-0.857,0.575
			c-0.327,0.14-0.676,0.209-1.047,0.209h-3.458V33.304h3.458c0.371,0,0.72,0.07,1.047,0.209c0.328,0.141,0.613,0.332,0.857,0.575
			c0.244,0.244,0.436,0.529,0.575,0.857c0.14,0.327,0.209,0.676,0.209,1.047v5.552C51.49,41.915,51.421,42.263,51.281,42.587z
			 M50.508,35.993c0-0.244-0.046-0.471-0.137-0.682s-0.217-0.396-0.377-0.556c-0.16-0.16-0.345-0.286-0.556-0.377
			c-0.21-0.092-0.438-0.138-0.682-0.138h-2.429v9.048h2.429c0.244,0,0.471-0.046,0.682-0.138c0.211-0.091,0.396-0.215,0.556-0.373
			c0.16-0.157,0.286-0.341,0.377-0.552s0.137-0.438,0.137-0.682V35.993z"/>
		<path d="M53.828,44.225V33.304h6.146v0.937h-5.164v4.06h4.181v0.937h-4.181v4.052h5.164v0.937H53.828z"/>
		<path d="M67.833,41.697c0,0.37-0.075,0.719-0.225,1.043c-0.15,0.325-0.351,0.609-0.602,0.854
			c-0.251,0.243-0.543,0.436-0.876,0.575c-0.333,0.139-0.684,0.209-1.055,0.209h-0.785c-0.371,0-0.722-0.07-1.055-0.209
			c-0.333-0.14-0.625-0.332-0.875-0.575c-0.251-0.244-0.452-0.528-0.602-0.854c-0.15-0.324-0.225-0.673-0.225-1.043v-0.435
			l0.982-0.159v0.594c0,0.243,0.05,0.471,0.149,0.682c0.099,0.211,0.232,0.396,0.399,0.556c0.168,0.16,0.362,0.286,0.583,0.377
			c0.221,0.092,0.453,0.138,0.697,0.138h0.685c0.244,0,0.475-0.046,0.693-0.138c0.218-0.091,0.411-0.217,0.579-0.377
			s0.301-0.345,0.4-0.556s0.148-0.438,0.148-0.682V41.37c0-0.376-0.074-0.688-0.221-0.938c-0.147-0.248-0.343-0.46-0.586-0.636
			c-0.244-0.175-0.519-0.323-0.826-0.445c-0.308-0.122-0.624-0.244-0.948-0.365c-0.325-0.122-0.641-0.257-0.948-0.404
			c-0.307-0.146-0.583-0.331-0.826-0.552s-0.439-0.491-0.586-0.812c-0.147-0.319-0.221-0.713-0.221-1.18v-0.206
			c0-0.37,0.07-0.718,0.209-1.043s0.332-0.609,0.575-0.854c0.244-0.243,0.529-0.435,0.856-0.574c0.328-0.14,0.677-0.21,1.047-0.21
			h0.701c0.371,0,0.718,0.07,1.043,0.21c0.325,0.14,0.609,0.331,0.853,0.574c0.244,0.244,0.435,0.528,0.575,0.854
			s0.209,0.673,0.209,1.043v0.282l-0.982,0.159v-0.441c0-0.243-0.046-0.471-0.137-0.682s-0.216-0.395-0.373-0.552
			s-0.341-0.282-0.552-0.373c-0.21-0.092-0.438-0.138-0.682-0.138h-0.609c-0.244,0-0.471,0.046-0.682,0.138
			c-0.211,0.091-0.396,0.216-0.556,0.373c-0.16,0.157-0.286,0.341-0.377,0.552s-0.137,0.438-0.137,0.682v0.206
			c0,0.35,0.074,0.645,0.221,0.883c0.147,0.239,0.343,0.443,0.586,0.613s0.519,0.317,0.826,0.441
			c0.307,0.125,0.623,0.252,0.948,0.381c0.325,0.13,0.641,0.271,0.948,0.427c0.307,0.155,0.583,0.346,0.826,0.571
			s0.439,0.501,0.586,0.826c0.147,0.325,0.221,0.721,0.221,1.188V41.697z"/>
		<path d="M69.943,44.225V33.304h0.982v10.921H69.943z"/>
		<path d="M79.409,44.225h-0.312l-0.571-0.876c-0.239,0.315-0.528,0.565-0.868,0.75c-0.34,0.186-0.719,0.278-1.135,0.278h-0.571
			c-0.371,0-0.72-0.07-1.047-0.209c-0.327-0.14-0.613-0.332-0.856-0.575c-0.244-0.244-0.436-0.528-0.575-0.854
			c-0.14-0.324-0.209-0.673-0.209-1.043v-5.864c0-0.37,0.07-0.718,0.209-1.043s0.332-0.609,0.575-0.854
			c0.244-0.243,0.529-0.435,0.856-0.574c0.328-0.14,0.677-0.21,1.047-0.21h0.777c0.371,0,0.718,0.07,1.043,0.21
			c0.325,0.14,0.609,0.331,0.853,0.574c0.244,0.244,0.435,0.528,0.575,0.854s0.209,0.673,0.209,1.043v0.441l-0.982,0.152v-0.594
			c0-0.243-0.046-0.471-0.137-0.682s-0.216-0.395-0.373-0.552s-0.341-0.282-0.552-0.373c-0.21-0.092-0.438-0.138-0.682-0.138h-0.685
			c-0.244,0-0.471,0.046-0.682,0.138c-0.211,0.091-0.396,0.216-0.556,0.373c-0.16,0.157-0.286,0.341-0.377,0.552
			s-0.137,0.438-0.137,0.682v5.864c0,0.243,0.046,0.471,0.137,0.682s0.217,0.396,0.377,0.556c0.16,0.16,0.345,0.286,0.556,0.377
			c0.21,0.092,0.438,0.138,0.682,0.138h0.685c0.244,0,0.471-0.046,0.682-0.138c0.211-0.091,0.395-0.217,0.552-0.377
			s0.282-0.345,0.373-0.556s0.137-0.438,0.137-0.682v-2.277h-1.744v-0.937h2.727V44.225z"/>
		<path d="M87.383,44.225l-4.554-7.951l-0.091-0.472v8.423h-0.982V33.304h0.51l4.554,7.958l0.099,0.465v-8.423h0.982v10.921H87.383z
			"/>
	</g>
	<g>
		<path d="M157.549,34.241v9.984h-0.982v-9.984h-2.605v-0.937h6.192v0.937H157.549z"/>
		<path d="M167.49,42.74c-0.14,0.325-0.331,0.609-0.574,0.854c-0.244,0.243-0.528,0.436-0.854,0.575
			c-0.325,0.139-0.673,0.209-1.043,0.209h-0.777c-0.37,0-0.72-0.07-1.047-0.209c-0.327-0.14-0.613-0.332-0.856-0.575
			c-0.244-0.244-0.436-0.528-0.575-0.854c-0.14-0.324-0.21-0.673-0.21-1.043v-5.864c0-0.37,0.07-0.718,0.21-1.043
			s0.331-0.609,0.575-0.854c0.243-0.243,0.529-0.435,0.856-0.574s0.677-0.21,1.047-0.21h0.777c0.37,0,0.718,0.07,1.043,0.21
			s0.609,0.331,0.854,0.574c0.243,0.244,0.435,0.528,0.574,0.854s0.21,0.673,0.21,1.043v5.864
			C167.7,42.067,167.63,42.415,167.49,42.74z M166.718,35.832c0-0.243-0.046-0.471-0.138-0.682
			c-0.091-0.211-0.216-0.395-0.373-0.552s-0.341-0.282-0.552-0.373c-0.211-0.092-0.438-0.138-0.682-0.138h-0.686
			c-0.243,0-0.471,0.046-0.682,0.138c-0.211,0.091-0.396,0.216-0.556,0.373s-0.286,0.341-0.377,0.552
			c-0.092,0.211-0.138,0.438-0.138,0.682v5.864c0,0.243,0.046,0.471,0.138,0.682c0.091,0.211,0.217,0.396,0.377,0.556
			s0.345,0.286,0.556,0.377c0.211,0.092,0.438,0.138,0.682,0.138h0.686c0.243,0,0.471-0.046,0.682-0.138
			c0.211-0.091,0.395-0.217,0.552-0.377s0.282-0.345,0.373-0.556c0.092-0.211,0.138-0.438,0.138-0.682V35.832z"/>
		<path d="M175.823,42.74c-0.14,0.325-0.331,0.609-0.575,0.854c-0.244,0.243-0.528,0.436-0.853,0.575
			c-0.325,0.139-0.673,0.209-1.044,0.209h-0.776c-0.371,0-0.72-0.07-1.048-0.209c-0.327-0.14-0.612-0.332-0.856-0.575
			c-0.243-0.244-0.436-0.528-0.575-0.854c-0.14-0.324-0.209-0.673-0.209-1.043v-8.393h0.982v8.393c0,0.243,0.046,0.471,0.137,0.682
			c0.092,0.211,0.218,0.396,0.377,0.556c0.16,0.16,0.346,0.286,0.557,0.377c0.21,0.092,0.438,0.138,0.682,0.138h0.685
			c0.244,0,0.472-0.046,0.682-0.138c0.211-0.091,0.396-0.217,0.553-0.377s0.281-0.345,0.373-0.556
			c0.091-0.211,0.137-0.438,0.137-0.682v-8.393h0.982v8.393C176.032,42.067,175.962,42.415,175.823,42.74z"/>
		<path d="M178.217,44.225V33.304h0.982v9.984h4.182v0.937H178.217z"/>
		<path d="M190.719,42.74c-0.14,0.325-0.331,0.609-0.575,0.854c-0.243,0.243-0.527,0.436-0.853,0.575
			c-0.325,0.139-0.673,0.209-1.044,0.209h-0.776c-0.371,0-0.72-0.07-1.047-0.209c-0.328-0.14-0.613-0.332-0.857-0.575
			c-0.243-0.244-0.435-0.528-0.574-0.854c-0.14-0.324-0.21-0.673-0.21-1.043v-5.864c0-0.37,0.07-0.718,0.21-1.043
			s0.331-0.609,0.574-0.854c0.244-0.243,0.529-0.435,0.857-0.574c0.327-0.14,0.676-0.21,1.047-0.21h0.776
			c0.371,0,0.719,0.07,1.044,0.21s0.609,0.331,0.853,0.574c0.244,0.244,0.436,0.528,0.575,0.854s0.21,0.673,0.21,1.043v5.864
			C190.929,42.067,190.859,42.415,190.719,42.74z M189.947,35.832c0-0.243-0.046-0.471-0.138-0.682
			c-0.091-0.211-0.216-0.395-0.373-0.552s-0.342-0.282-0.552-0.373c-0.211-0.092-0.438-0.138-0.682-0.138h-0.686
			c-0.244,0-0.471,0.046-0.682,0.138c-0.211,0.091-0.396,0.216-0.556,0.373c-0.16,0.157-0.286,0.341-0.377,0.552
			c-0.092,0.211-0.138,0.438-0.138,0.682v5.864c0,0.243,0.046,0.471,0.138,0.682c0.091,0.211,0.217,0.396,0.377,0.556
			c0.159,0.16,0.345,0.286,0.556,0.377c0.211,0.092,0.438,0.138,0.682,0.138h0.686c0.243,0,0.471-0.046,0.682-0.138
			c0.21-0.091,0.395-0.217,0.552-0.377s0.282-0.345,0.373-0.556c0.092-0.211,0.138-0.438,0.138-0.682V35.832z"/>
		<path d="M199.05,42.74c-0.14,0.325-0.331,0.609-0.575,0.854c-0.243,0.243-0.527,0.436-0.853,0.575
			c-0.325,0.139-0.673,0.209-1.044,0.209h-0.776c-0.371,0-0.72-0.07-1.047-0.209c-0.328-0.14-0.613-0.332-0.857-0.575
			c-0.243-0.244-0.435-0.528-0.574-0.854c-0.14-0.324-0.21-0.673-0.21-1.043v-8.393h0.982v8.393c0,0.243,0.046,0.471,0.138,0.682
			c0.091,0.211,0.217,0.396,0.377,0.556c0.159,0.16,0.345,0.286,0.556,0.377c0.211,0.092,0.438,0.138,0.682,0.138h0.686
			c0.243,0,0.471-0.046,0.682-0.138c0.21-0.091,0.395-0.217,0.552-0.377s0.282-0.345,0.373-0.556
			c0.092-0.211,0.138-0.438,0.138-0.682v-8.393h0.982v8.393C199.26,42.067,199.19,42.415,199.05,42.74z"/>
		<path d="M207.592,41.697c0,0.37-0.075,0.719-0.226,1.043c-0.149,0.325-0.35,0.609-0.602,0.854
			c-0.251,0.243-0.543,0.436-0.875,0.575c-0.333,0.139-0.685,0.209-1.056,0.209h-0.784c-0.37,0-0.722-0.07-1.055-0.209
			c-0.332-0.14-0.624-0.332-0.876-0.575c-0.251-0.244-0.451-0.528-0.602-0.854c-0.149-0.324-0.225-0.673-0.225-1.043v-0.435
			l0.982-0.159v0.594c0,0.243,0.05,0.471,0.148,0.682c0.1,0.211,0.232,0.396,0.4,0.556c0.167,0.16,0.361,0.286,0.582,0.377
			c0.221,0.092,0.453,0.138,0.697,0.138h0.686c0.243,0,0.475-0.046,0.692-0.138c0.219-0.091,0.411-0.217,0.579-0.377
			s0.301-0.345,0.399-0.556c0.1-0.211,0.149-0.438,0.149-0.682V41.37c0-0.376-0.074-0.688-0.222-0.938
			c-0.146-0.248-0.343-0.46-0.586-0.636c-0.244-0.175-0.52-0.323-0.826-0.445c-0.308-0.122-0.623-0.244-0.948-0.365
			c-0.325-0.122-0.642-0.257-0.948-0.404c-0.308-0.146-0.583-0.331-0.826-0.552c-0.244-0.221-0.439-0.491-0.587-0.812
			c-0.147-0.319-0.221-0.713-0.221-1.18v-0.206c0-0.37,0.07-0.718,0.21-1.043s0.331-0.609,0.574-0.854
			c0.244-0.243,0.529-0.435,0.857-0.574c0.327-0.14,0.676-0.21,1.047-0.21h0.7c0.371,0,0.719,0.07,1.044,0.21
			s0.609,0.331,0.853,0.574c0.244,0.244,0.436,0.528,0.575,0.854s0.21,0.673,0.21,1.043v0.282l-0.982,0.159v-0.441
			c0-0.243-0.046-0.471-0.138-0.682c-0.091-0.211-0.216-0.395-0.373-0.552s-0.342-0.282-0.552-0.373
			c-0.211-0.092-0.438-0.138-0.682-0.138h-0.609c-0.244,0-0.471,0.046-0.682,0.138c-0.211,0.091-0.396,0.216-0.556,0.373
			c-0.16,0.157-0.286,0.341-0.377,0.552c-0.092,0.211-0.138,0.438-0.138,0.682v0.206c0,0.35,0.073,0.645,0.221,0.883
			c0.147,0.239,0.343,0.443,0.587,0.613c0.243,0.17,0.519,0.317,0.826,0.441c0.307,0.125,0.623,0.252,0.948,0.381
			c0.324,0.13,0.641,0.271,0.948,0.427c0.307,0.155,0.582,0.346,0.826,0.571c0.243,0.226,0.439,0.501,0.586,0.826
			c0.147,0.325,0.222,0.721,0.222,1.188V41.697z"/>
		<path d="M209.701,44.225V33.304h6.146v0.937h-5.163v4.06h4.181v0.937h-4.181v4.052h5.163v0.937H209.701z"/>
	</g>
</g>
</svg>
