<?xml version="1.0" encoding="utf-8"?>
<!-- Generator: Adobe Illustrator 17.0.0, SVG Export Plug-In . SVG Version: 6.00 Build 0)  -->
<!DOCTYPE svg PUBLIC "-//W3C//DTD SVG 1.1//EN" "http://www.w3.org/Graphics/SVG/1.1/DTD/svg11.dtd">
<svg version="1.1" id="Layer_1" xmlns="http://www.w3.org/2000/svg" xmlns:xlink="http://www.w3.org/1999/xlink" x="0px" y="0px"
	 width="100%" height="100%" viewBox="0 0 130.243 76.022" enable-background="new 0 0 130.243 76.022"
	 xml:space="preserve">
<g>
	<g>
		<path d="M130.202,32.023l-0.42-0.992c-0.878-2.074-2.376-3.771-4.185-4.888c0.839-1.087,1.229-2.241,1.37-3.319
			c0.803-2.964-0.063-6.192-2.397-8.673l-0.759-0.806l-1.004-0.464c-1.579-0.729-3.318-1.035-5.17-0.912l-0.952,0.063l-0.881,0.371
			c-4.573,1.926-8.28,4.621-11.02,8.013l-0.165,0.205c-0.863-0.395-1.826-0.695-2.914-0.877l-1.444-0.24l-1.23,0.432
			c-0.041-1.003-0.246-2.072-0.748-3.146l-0.106-0.228l-0.126-0.218c-1.727-2.983-4.876-4.572-8.422-4.25l-0.939,0.085l-0.861,0.384
			c-1.667,0.74-2.966,1.795-3.857,3.133l-0.454,0.682l-0.243,0.781c-0.441,1.409-0.898,3.313-0.525,5.552l0.097,0.581l0.214,0.549
			c0.573,1.474,1.594,2.713,2.912,3.641c-0.498,0.335-0.962,0.736-1.366,1.213c-0.581-0.48-1.196-0.934-1.846-1.352
			c-2.259-1.758-4.99-2.537-7.684-2.623c-0.613-2.785-1.539-5.173-2.307-6.963l-0.031-0.072l-0.017-0.039
			c-0.016-0.037-0.047-0.121-0.071-0.186c-0.396-1.052-1.45-3.844-4.69-4.924l-4.595-1.531c0,0-0.836-3.799-1.622-5.936
			l-0.079-0.215l-0.096-0.207c-1.709-3.701-5.389-5.46-8.955-4.284c-0.971,0.318-3.48,1.435-4.203,4.591l-0.897,1.195l0.755,2.707
			c0.166,0.596,0.037,1.784-0.089,2.933c-0.09,0.819-0.187,1.743-0.222,2.722c-0.067,0.583-0.106,1.144-0.123,1.677
			c-0.616,0.147-1.243,0.369-1.871,0.686c-1.81-1.365-3.964-2.236-6.207-2.389l-1.094-0.074l-1.045,0.336l-1.771,0.571l0.167-0.051
			c-1.319,0.382-2.43,0.991-3.388,1.698c-0.238-0.595-0.497-1.175-0.779-1.74l0.11,0.235l0.001,0.002
			c-0.055-0.129-0.162-0.516-0.24-0.797c-0.418-1.513-1.118-4.045-3.522-5.97l-2.337-1.868l-2.866,0.859
			c-1.911,0.573-3.963,2.235-4.374,5.205l-0.078,0.184l-0.06,0.996c-0.083,1.418-0.104,2.82-0.118,4.197
			c-1.385-0.717-2.765-0.827-3.441-0.827c-5.471,0-7.929,4.191-9.11,6.207c-0.21,0.357-0.527,0.899-0.665,1.061l-1.601,1.89
			c-0.003,0.004,0.145,1.259,0.228,1.976c-0.374,1.029-0.653,2.027-0.901,2.941c-0.306,1.132-0.594,2.2-0.984,2.899l-0.287,0.514
			c-3.072,4.085-1.074,7.751,0.653,9.305l0.496,0.447l0.278,0.151c-0.119,0.104-0.241,0.205-0.355,0.316l-0.824,0.797l-0.453,1.055
			c-0.02,0.048-0.061,0.137-0.101,0.224C0.85,48.185-0.284,50.64,0.637,53.52l-0.402,0.806l0.197,1.449
			c-0.008,0.068-0.017,0.145-0.025,0.21c-0.106,0.867-0.333,2.724,0.433,4.646l-0.403,2.435v0.793l0.196,1.056l0.393,1.519
			l1.045,1.914l2.092,1.717l1.569,0.264l3.397,0.066l0.196,0.198v0.132l-0.458,1.188h0.132l4.836-1.518l2.287,0.066l1.634,1.056
			l0.522,0.132l0.916-0.858l1.503-0.528l3.921,0.133h4.118l0.914,0.594h0.393l0.588-0.33l2.352-0.197l3.203-0.066l0.979-0.198
			l3.203,0.265l1.11-0.199h1.634l0.719-0.792h0.458v0.066l0.131,0.396l2.792,0.248l4.026,3.4c0,0,0-1.963,0-3.188l0.044,0.002h6.862
			l0.327-0.133l0.98-0.197l1.241,0.396l7.843-0.066l0.522-0.133l1.503,0.133l3.007,0.066l0.393-0.199l0.195,0.199l0.262,0.329
			l1.11,0.198l1.438,3.301h0.196l2.744-3.961l4.379-2.047v-0.197l0.065-1.057l1.634-0.197l-1.699-1.651v-0.622l1.893-0.011
			l1.328-0.008l0.401-0.2l0.836,0.278l0.97-0.014l3.884-0.058l2.121-0.03l0.05-0.046c1.439,0.28,2.734,0.148,3.451,0.073
			c0.14-0.015,0.316-0.033,0.439-0.043l0.355,0.064c0.236,0.61,0.563,1.188,0.965,1.718l-0.882,1.243
			c-0.085,0.045-0.157,0.09-0.194,0.136c-0.221,0.275-1.76,1.816-2.09,2.146c-0.33,0.329-2.696,3.191-2.641,3.575
			c0.055,0.385,4.895,2.641,5.556,2.641c0.402,0,2.235-0.286,3.605-0.51l1.946-0.287l0.404-0.028l-0.019-0.028l0.018-0.003
			c7.054-1.04,11.17-7.876,12.265-9.947l0.455-0.862l0.115-0.774c0.085-0.17,0.272-0.479,0.42-0.72
			c0.326-0.532,0.73-1.196,1.093-1.986l0.079-0.171l0.066-0.177c0.875-2.296,1.981-4.556,3.153-6.948
			c1.947-3.975,3.96-8.084,5.111-12.807c0.601-2.334,0.864-4.867,0.789-7.674L130.202,32.023z M0.767,53.889
			c0.011,0.027,0.023,0.05,0.033,0.078c0.019,0.045,0.031,0.09,0.05,0.135L0.767,53.889z M48.724,34.381
			c0.031,0.009,0.062,0.021,0.092,0.029l-0.184-0.055C48.663,34.366,48.694,34.373,48.724,34.381z M45.097,41.735l-1.764,0.47
			c-0.013-0.024-0.023-0.048-0.036-0.073l-0.387-0.712c0.568-0.534,1.103-1.123,1.59-1.773l0.393-0.523l0.264-0.597
			c0.266-0.604,0.973-1.486,1.657-2.338c0.376-0.47,0.797-0.999,1.223-1.579c0.21,1.544,0.533,3.147,1.137,4.73l0.453,1.192
			L45.097,41.735z M74.001,42.846c-0.063-0.026-0.124-0.058-0.188-0.082l-0.853-0.32l-0.222-0.009c0.06-0.068,0.119-0.136,0.172-0.2
			l0.69-0.845l0.327-1.029c0.051-0.121,0.232-0.332,0.52-0.57c0.144,0.21,0.294,0.442,0.439,0.673
			C74.469,41.196,74.172,41.998,74.001,42.846z M104.027,41.501c0.651,0.42,1.31,0.728,1.973,0.947
			c-0.053,0.008-0.105,0.01-0.158,0.019l-0.086,0.013l-0.086,0.016c-1.25,0.231-2.442,0.727-3.517,1.416
			C102.961,43.178,103.597,42.331,104.027,41.501z"/>
		<path d="M52.584,0.369c0.009-0.003,0.018-0.004,0.026-0.007c0.033-0.011,0.071-0.024,0.101-0.034L52.584,0.369z"/>
	</g>
	<g>
		<g>
			<path fill="#FFFFFF" d="M56.387,7.036c1.828,4.97,0.857,10.738,0.8,16.165c1.542,1.714,4.399,0.628,6.227,1.428l-0.115,0.343
				c-2.17,1.085-4.454,1.714-6.454,3.142l-0.342,0.685c-0.515,2.97-0.914,5.941-1.2,9.024c-0.457,0.343-0.514-0.343-0.8-0.514
				c-0.913-2.399-0.971-5.198-1.257-7.883c-0.685-0.913-1.998-0.229-2.913-0.515c-1.655-0.456-3.084-2.112-3.426-3.768
				c-0.286-1.199,0.113-2.399,1.256-2.971c1.428-0.971,3.256-0.399,4.741-0.058c0.971-2.17,0.399-4.74,0.742-7.196
				c0.057-2.57,0.8-5.141,0.114-7.597c0.343-0.457-0.114-1.313,0.629-1.542C55.416,5.437,56.044,6.293,56.387,7.036z"/>
			<path fill="#FFFFFF" d="M26.744,17.774c0.972,1.942,1.542,3.999,1.885,6.17c0.399,3.654-1.428,6.511-2.113,9.767
				c-0.514,0.628-0.971,1.313-0.971,2.171c-1.142,1.771-2.742,4.112-5.026,4.112c-3.312-0.058-5.483-3.542-7.026-6.055h-0.227
				c-1.257,2.284-2.57,4.741-5.027,6.111c-0.627,0.172-1.542,0.285-2.17-0.057c-1.143-1.028,0.628-1.828,0.8-2.8
				c1.37-2.455,1.543-5.368,2.741-7.825l-0.113-0.971c1.599-1.884,2.342-5.255,5.426-5.255c1.885,0,1.37,2.057,1.828,3.199
				c0.514,3.198,1.37,6.226,2.684,8.968c0.571,0,1.2-0.743,1.429-1.257c3.998-5.427,2.913-12.852,3.312-19.648
				c0.171-0.4-0.114-1.086,0.457-1.257C26.058,14.29,26.058,16.232,26.744,17.774z"/>
			<path fill="#FFFFFF" d="M93.115,19.202c0.399,0.857,0.171,2-0.058,2.856c-0.514,0.686-1.199,1.428-2.113,1.428
				c-1.028-0.171-2.17-0.684-2.57-1.713c-0.171-1.028,0.058-2,0.343-2.913c0.343-0.515,0.914-0.858,1.428-1.086
				C91.401,17.66,92.486,18.118,93.115,19.202z"/>
			<path fill="#FFFFFF" d="M67.525,20.001c1.371,3.199,2.457,6.626,2.514,10.339c0.057,0.343,0.057,0.743,0.457,0.856
				c2.741-1.142,6.626-1.199,8.967,0.8c3.599,2.227,5.998,5.997,5.712,10.109c-0.285,0.515-0.971,0.4-1.37,0.229
				c-3.998-2.285-4.284-8.796-9.652-8.854c-2.285,0.856-4.855,2.627-5.655,5.141c-0.515,0.628-1.485,0.228-2.113,0.058
				c-4.341-4.627-0.686-11.311-0.8-16.907c0.4-1.2,0-2.742,0.571-3.827C67.011,18.231,67.183,19.259,67.525,20.001z"/>
			<path fill="#FFFFFF" d="M44.907,24.685c-0.742-2.284-3.026-4.341-5.54-4.512l-1.771,0.571c-2.57,0.743-4.056,3.77-5.94,5.427
				c-1.713,1.027-2.17,3.141-1.999,4.969c0,3.198,0.971,6.683,4.17,7.882c2.398,0.343,4.568-0.742,6.111-2.799
				C41.652,32.339,46.677,29.597,44.907,24.685z M34.511,32.111c-0.971,0.515-1.428-0.856-1.999-1.256
				c0.515-2,2.057-3.599,3.428-5.256c0.856-0.799,2.113-0.114,2.627,0.743C38.795,28.855,36.511,30.968,34.511,32.111z"/>
			<path fill="#FFFFFF" d="M103.395,26.914c1.714,2.97,3.313,5.939,4.741,9.024c0.229,0.285,0.914,0.571,0.686,1.027
				c-1.543,0.629-2.742-1.142-3.713-2.113l-3.769-5.483c-0.399-0.285-0.8-0.628-1.315-0.457c-1.256,1.828-2.342,3.885-1.998,6.227
				c0.856,0.971,1.542,2.171,1.027,3.542c-0.228,0.57-0.799,1.256-1.428,1.427c-1.028,0.286-2.057,0-2.799-0.8
				c-0.971-0.799-0.686-2.113-1.028-3.142c-0.113-1.655,1.086-2.855,2.171-3.826c2.113-2.113,1.542-5.825,4.798-6.968
				C101.796,25.542,102.939,25.828,103.395,26.914z"/>
			<path fill="#FFFFFF" d="M90.429,33.368c1.028,2.342,1.942,5.312,0.572,7.768c-0.457,0.629-1.2,0.742-1.886,0.571
				c-1.085-0.343-1.313-1.484-1.6-2.399c0-2.455,0.915-4.568,1.371-6.854C89.574,31.482,90.144,32.911,90.429,33.368z"/>
			<path fill="#FFFFFF" d="M82.433,43.649c0.057,0.799,0.229,2.057-0.685,2.398c-0.743,0.058-1.771,0.229-2.113-0.685
				c-0.229-0.972-0.058-2.057,0.684-2.628C81.119,42.735,82.204,42.621,82.433,43.649z"/>
			<path fill="#FFFFFF" d="M64.899,44.164v7.425l0.342,0.285l2.113-1.885c0.286-0.571-0.685-1.028-0.171-1.656l0.57-0.4l4.057,0.172
				c0.456,0.172,0.685,0.742,0.456,1.199c-0.456,1.028-1.771,0.286-2.456,0.914l-2.456,2.056v0.458
				c1.886,1.484,2.856,4.626,5.54,4.454c0.4,0.343,0.458,0.914,0.229,1.314l-0.571,0.343c-1.485-0.343-3.599,0.8-4.57-0.686
				c-0.057-0.457,0.343-0.8,0.515-1.143c-0.8-1.143-1.942-2.342-2.856-3.256c-1.884,0.972,0.344,4.113-1.655,5.084
				c-1.086-0.229-2.856,0.628-3.313-0.743c-0.057-0.514,0.343-0.971,0.8-1.027c0.399-0.115,0.971,0,1.142-0.571l0.058-10.566
				c-0.456-0.8-2.399-0.4-1.827-1.943c0.799-1.085,2.342-0.285,3.541-0.456L64.899,44.164z"/>
			<path fill="#FFFFFF" d="M22.232,44.048c0.399,1.6-0.458,3.199,0.229,4.627c1.256-0.743,2.855-1.371,4.455-0.8
				c1.199,0.514,2.228,1.656,2.513,2.97c0,1.942-0.285,3.998,0,5.94c0.399,0.457,1.199,0.171,1.428,0.914
				c0.058,0.457-0.229,0.972-0.743,1.085l-3.826,0.058c-0.343-0.115-0.629-0.457-0.629-0.8c-0.057-0.457,0.4-0.914,0.743-0.971
				c0.343,0.057,0.628-0.344,0.8-0.571l-0.114-5.598c-0.286-0.685-0.972-1.257-1.714-1.313c-1.313,0-2.513,0.685-3.141,1.828
				c-0.058,1.827-0.172,3.655,0.057,5.368c0.457,0.457,1.199,0.286,1.485,0.914c0.171,0.515-0.343,0.856-0.685,1.085l-3.998,0.058
				c-0.629-0.171-0.743-0.914-0.458-1.371c0.286-0.628,1.2-0.171,1.371-0.914l0.115-10.795c-0.515-0.515-1.486-0.399-1.657-1.257
				c-0.114-0.515,0.399-0.856,0.858-1.028C20.347,43.649,21.603,43.021,22.232,44.048z"/>
			<path fill="#FFFFFF" d="M38.282,44.848c0.742,1.371,1.028,2.913,2.056,4.056l6.227-1.656l0.057,0.171l-4.855,4.97
				c0.914,2.97,2.571,5.711,3.771,8.624v0.285c-2.57-2.17-4.799-5.025-7.483-7.196l-3.883,4.341l-0.229-0.171l1.714-6.227
				c-2.171-1.998-4.969-3.427-7.197-5.482c2.399,0.456,4.855,1.027,7.197,1.656c1.143-0.858,1.428-2.456,2.342-3.484L38.282,44.848z
				"/>
			<path fill="#FFFFFF" d="M56.731,48.104c0.343-0.285,0.742-0.515,1.142-0.229c0.8,1.143,0.514,3.027,0.285,4.397
				c-0.285,0.4-0.913,0.343-1.313,0.115c-0.857-0.971-1.656-2.686-3.198-2.742c-1.714-0.114-3.256,0.514-4.056,2.056
				c-0.457,1.371-0.457,3.199,0.629,4.284c0.684,0.742,1.542,1.143,2.57,1.143c1.656,0,2.913-0.856,4.112-1.827
				c0.571-0.229,1.199-0.058,1.484,0.514c0.286,1.028-0.971,1.656-1.655,2.113c-1.828,1.142-4.627,1.714-6.569,0.571
				c-1.484-0.571-2.685-2.171-3.027-3.656c-0.514-2.284,0.114-4.398,1.828-5.94c1.941-1.371,4.97-1.771,7.082-0.571L56.731,48.104z"
				/>
			<path fill="#FFFFFF" d="M14.748,47.761c0.515-0.114,0.8,0.343,0.915,0.742c0,1.028,0.398,2.514-0.629,3.085
				c-1.257-0.286-1.941-1.999-3.256-2.114c-1.085,0.115-2.227-0.399-3.027,0.4c-0.457,0.399-0.914,1.086-0.399,1.656
				c1.542,1.485,3.998,0.171,5.825,1.085c1.086,0.229,1.771,1.314,2.113,2.343c-0.057,1.085,0,2.227-0.913,2.97
				c-1.828,1.714-4.799,1.199-6.968,0.686c-0.629,0.229-1.257,0.742-1.886,0.456c-1.028-0.971-0.228-2.513-0.4-3.768
				c0.23-0.458,0.8-0.515,1.258-0.343c0.628,1.256,1.827,2.284,3.197,2.513c1.314,0,3.085,0.285,3.656-1.314
				c0-0.685-0.229-1.484-0.971-1.713c-2.514-0.286-6.055,0.457-7.141-2.513c-0.399-0.971,0.172-1.885,0.515-2.685
				c1.772-1.714,4.798-1.999,7.025-1.028L14.748,47.761z"/>
			<path fill="#FFFFFF" d="M99.169,49.874c0.514,2.057,0.342,4.569,0.399,6.797c0.456,0.686,2.056,0.4,1.428,1.714l-0.571,0.457
				c-1.599-0.286-3.598,0.742-4.627-0.628c-0.113-0.515,0.172-0.972,0.629-1.142c0.343,0.057,0.684-0.172,0.856-0.515l-0.057-5.197
				c-0.229-0.629-0.8-1.313-1.429-1.542c-1.199-0.458-2.056,0.342-2.912,1.085c-0.857,1.656-0.343,3.712-0.4,5.654
				c0.343,0.857,2.057,0.571,1.542,1.828l-0.514,0.457l-3.884,0.057c-0.515-0.172-0.914-0.742-0.628-1.313
				c0.342-0.629,1.142-0.343,1.427-1.028v-6.226c-0.343-0.629-1.256-0.343-1.484-1.085c-0.058-0.515,0.171-1.143,0.742-1.257
				c1.028,0.171,2.399-0.343,3.027,0.686c1.085-0.571,2.398-1.428,3.77-0.8C97.569,48.047,98.54,48.904,99.169,49.874z"/>
			<path fill="#FFFFFF" d="M82.148,48.675l0.057,7.882l0.515,0.515c1.371,0.285,3.084-0.687,3.941,0.514
				c0.113,0.514-0.058,1.028-0.515,1.257l-9.824,0.057c-0.343-0.057-0.686-0.343-0.743-0.685c0.229-2.457,3.257-0.343,4.513-1.543
				l-0.057-6.454c-0.857-0.8-2.799,0.228-3.312-1.199c-0.058-0.457,0.343-0.8,0.685-1.086l4.342,0.172L82.148,48.675z"/>
			<path fill="#FFFFFF" d="M124.529,33.253c-0.628-1.485-2.113-2.855-3.884-2.855c-2.685,0.057-6.34,1.541-8.396-0.743
				c-0.8-1.028-0.856-2.57-0.514-3.77c0.4-1.2,1.314-2.628,2.627-3.027c0.686-0.057,1.714-0.571,2.285,0.229
				c0.229,0.971,0.914,1.142,1.885,1.028c1.085-0.457,2.855-0.857,2.799-2.399c0.571-1.314,0-2.685-0.914-3.655
				c-0.742-0.343-1.542-0.457-2.399-0.4c-3.255,1.371-6.396,3.371-8.795,6.341c-0.4,1.371-1.2,2.57-1.144,4.056
				c-0.285,1.999,0.687,3.712,2.399,4.626c2.513,1.941,5.369-0.229,8.225,0c0.8,0.628,0.914,1.828,0.914,2.913
				c-1.256,6.511-3.541,12.565-5.939,18.562h-0.229c-0.058,0-0.172-0.057-0.172-0.171c0.285-1.313-0.686-3.256,0.514-4.112
				c0.458-0.172,1.199-0.4,1.143-1.028c-0.057-0.399-0.456-0.799-0.856-0.856c-1.028,0.286-2.799-0.686-3.256,0.856
				c-1.2-0.742-2.627-0.971-4.112-0.742c-1.543,0.285-2.971,1.599-3.427,3.084c-0.515,1.885-0.4,4.226,0.913,5.712
				c1.429,1.313,3.312,1.999,5.255,1.371c0.686,0.171,1.199-1.315,1.771-0.399c0.115,1.256,0,2.513-1.199,3.141
				c-1.371,1.143-3.312-0.514-4.569,0.628c-0.399,0.457-0.114,1.086,0.285,1.429c0.972,0.913,2.799-0.058,3.6,0.857
				c-1.086,1.828-2.286,3.655-3.542,5.427l0.058,0.171c3.484-0.514,6.454-3.941,8.054-6.968c0.228-1.543,1.313-2.686,1.941-4.056
				c2.456-6.455,6.397-12.28,8.054-19.077C124.414,37.422,124.586,35.367,124.529,33.253z M110.992,54.501
				c-0.456,0.742-1.199,1.656-2.113,1.713c-0.971,0.229-1.885-0.057-2.627-0.514c-0.8-0.8-1.257-1.771-1.143-2.97
				c0.285-1.029,0.8-2.285,1.999-2.571c1.485-0.514,3.256,0.114,3.884,1.714C111.335,52.616,111.335,53.758,110.992,54.501z"/>
		</g>
		<path fill="#FFFFFF" d="M7.254,61.245c-0.018-0.006-0.085-0.097-0.098-0.097l-0.188-0.091c-0.03,0-0.097-0.03-0.104-0.019
			c-0.012,0.019-0.054,0.006-0.054,0.013l-0.127,0.182l-0.098,0.345l0.012,0.928l-0.03,0.388l0.043,0.733l-0.037,0.188
			c0,0.03,0.013,0.14,0.031,0.146c0.017,0.006,0.03,0.079,0.042,0.079l0.134,0.193c0.018,0,0.108,0.103,0.121,0.098
			c0.006-0.007,0.042,0.012,0.042,0.012c0.007-0.019,0.037-0.019,0.037-0.03l0.127-0.23l0.102-0.297l0.055-1.013H6.933l-0.049-0.254
			l0.098-0.085l0.097-0.06l0.049-0.037l0.224-0.055l0.248,0.292l0.121,0.284L7.715,64.16c0,0.043-0.03,0.194-0.055,0.237
			c-0.024,0.042-0.097,0.182-0.134,0.2c-0.042,0.023-0.121,0.139-0.164,0.139L6.939,64.87c-0.043,0-0.375-0.006-0.418-0.036
			c-0.043-0.024-0.17-0.128-0.194-0.17C6.302,64.621,6.2,64.511,6.2,64.476L6.108,64.16l-0.042-0.358l0.031-1.267l-0.056-1.121
			c0-0.042,0.031-0.218,0.056-0.261c0.023-0.043,0.072-0.219,0.114-0.242c0.043-0.024,0.104-0.176,0.14-0.176l0.376-0.164
			c0.042,0,0.242-0.097,0.279-0.078c0.042,0.024,0.181,0.036,0.205,0.078c0.024,0.042,0.225,0.115,0.225,0.158l0.128,0.46
			l-0.043,0.183c0,0.139-0.134-0.037-0.273-0.128H7.254z"/>
		<path fill="#FFFFFF" d="M13.261,64.827L12.988,64.9l-0.097-0.104l-0.109-0.224l-0.121-0.449l-0.072-0.278l-0.098-0.291
			l-0.035-0.128l-0.043-0.042l-0.072-0.012l-0.055,0.024l-0.055,0.097l0.013,0.934l0.005,0.182l-0.036,0.085l-0.036,0.182h-0.261
			H11.8l-0.066-0.315l-0.006-3.242l0.054-0.449l0.225-0.224l0.285-0.079c0.006,0,0.03-0.019,0.036-0.019
			c0.037,0.006,0.194-0.036,0.23-0.012c0.036,0.025,0.164,0.036,0.188,0.073c0.024,0.042,0.37,0.114,0.37,0.157l0.109,0.23
			l0.061,0.169l0.048,0.595c0,0.042-0.006,0.303-0.03,0.339c-0.024,0.043-0.055,0.291-0.091,0.322
			c-0.023,0.012-0.042,0.169-0.066,0.176c-0.019,0.005-0.109,0.108-0.127,0.108l-0.2,0.104l0.115,0.375l0.406,1.382l0.072,0.146
			L13.261,64.827z M12.843,61.148c0-0.018-0.036-0.079-0.049-0.091c-0.013-0.019-0.061-0.072-0.079-0.072l-0.303,0.005l-0.188,0.249
			l0.036,0.169v0.879l0.254-0.006c0.019,0,0.243-0.029,0.262-0.042c0.012-0.019,0.078-0.121,0.078-0.133L12.843,61.148z"/>
		<path fill="#FFFFFF" d="M19.302,64.785l-0.152,0.06L18.974,64.7l-0.157-0.461l-0.255-0.199l-0.188-0.073l-0.2-0.043l-0.055,0.019
			l-0.272,0.261l-0.109,0.261l-0.169,0.218l-0.086,0.079l-0.078-0.049l-0.067-0.103l-0.055-0.206l0.055-0.321l0.049-0.121
			l0.072-0.37l0.11-0.406l0.048-0.254l0.109-0.383l0.042-0.284l0.218-1.073l0.128-0.545l0.121-0.225l0.268,0.236l0.114,0.291
			l0.012,0.104l0.043,0.091l0.036,0.297l0.085,0.182l0.085,0.364l0.104,0.496l0.042,0.116l0.085,0.49l0.061,0.151l0.06,0.34
			l0.055,0.133l0.024,0.182l0.066,0.134l0.042,0.339l0.104,0.31L19.302,64.785z M18.605,63.281l-0.03-0.048l-0.043-0.224
			l-0.072-0.183l-0.019-0.17l-0.097-0.509l-0.055,0.104l-0.091,0.672l-0.109,0.31l-0.066,0.182l0.163-0.049l0.109,0.031l0.231,0.017
			l0.091-0.042L18.605,63.281z"/>
		<path fill="#FFFFFF" d="M24.827,62.505c-0.024,0.042-0.152,0.134-0.195,0.164c-0.042,0.024-0.169,0.091-0.212,0.091l-0.412,0.104
			l-0.224,0.097l-0.03,0.672l0.006,0.934l-0.085,0.255l-0.382-0.012l-0.048-0.17l-0.007-0.473l0.012-0.71l0.019-1.163l-0.006-0.788
			l0.03-0.903l0.072-0.157h1.073c0.043,0,0.23,0.103,0.273,0.127c0.036,0.024,0.133,0.164,0.15,0.206
			c0.024,0.042,0.043,0.194,0.043,0.236l0.012,1.206C24.916,62.263,24.85,62.469,24.827,62.505z M24.365,61.063
			c0-0.019-0.146-0.042-0.157-0.055c-0.012-0.019-0.182-0.036-0.193-0.036l-0.219,0.018l0.012,1.17l0.037,0.092h0.327
			c0.019,0,0.14-0.049,0.151-0.062c0.006-0.006,0.024-0.121,0.03-0.127c0.007-0.012,0.024-0.164,0.024-0.176L24.365,61.063z"/>
		<path fill="#FFFFFF" d="M30.256,64.796l-0.091-0.054l-0.091-0.109l-0.079-0.188l-0.006-0.636l0.03-0.897l-0.15-0.327l-0.462,0.079
			l-0.03,0.097l0.013,1.558l-0.036,0.315l-0.092,0.236l-0.333-0.013l-0.078-0.26l-0.019-1.776l-0.006-0.442l0.012-0.648l0.036-0.164
			l-0.023-0.388l-0.007-0.406l0.079-0.225l0.085-0.103l0.34,0.078l0.036,0.462l-0.024,0.314l0.036,0.697l0.049,0.042l0.085,0.055
			l0.169,0.049l0.255-0.194l0.062-1.352l0.066-0.121l0.375,0.019l0.055,0.218l-0.03,0.327l0.024,1.327l-0.03,0.104l0.036,1.454
			l0.037,0.752L30.256,64.796z"/>
		<path fill="#FFFFFF" d="M35.009,64.839l-0.321,0.006l-0.073-0.182l-0.025-2.066V62.33l0.043-1.285v-0.351l0.085-0.23l0.321,0.012
			l0.03,0.036l0.036,0.091l0.006,0.746l-0.036,0.199l-0.066,0.194l0.091,0.23l-0.048,0.242l0.072,0.194l-0.018,0.394l0.013,0.934
			l0.024,0.54l0.006,0.479L35.009,64.839z"/>
		<path fill="#FFFFFF" d="M40.511,61.402c-0.006-0.017-0.098-0.059-0.128-0.059l-0.176-0.134c-0.03,0-0.134-0.03-0.139-0.024
			c-0.007,0.006,0-0.091,0-0.061l-0.116,0.097l-0.103,0.14l-0.072,0.249l-0.085,0.909l0.061,0.218l0.006,0.388l-0.024,0.994
			c0,0.013,0.006,0.037,0.019,0.049c0.006,0.019,0.024,0.043,0.049,0.043l0.133,0.035c0.012,0,0.024,0.007,0.036-0.012
			c0.019-0.006,0.303,0.067,0.303,0.043l0.086-0.14l0.042-0.225l0.042-0.097l0.073-0.121l0.078-0.062h0.219l0.109,0.577
			c0,0.042-0.073,0.224-0.097,0.267c-0.024,0.042-0.122,0.218-0.158,0.235c-0.042,0.024-0.14,0.073-0.182,0.073l-0.37,0.072
			c-0.043,0-0.49-0.023-0.533-0.048c-0.043-0.024-0.243-0.219-0.267-0.261c-0.018-0.03-0.091-0.267-0.091-0.297
			c0-0.013,0-0.079,0-0.092l0.012-1.479l-0.012-1.151c0-0.042,0.023-0.558,0.055-0.6c0.023-0.043,0.072-0.116,0.109-0.141
			c0.042-0.023,0.103-0.072,0.146-0.072l0.302-0.072c0.043,0,0.243-0.14,0.279-0.115c0.036,0.023,0.128,0.036,0.157,0.079
			c0.025,0.042,0.316,0.139,0.316,0.181l0.188,0.219l-0.024,0.334L40.511,61.402z"/>
		<path fill="#FFFFFF" d="M49.688,60.42l0.533-0.013l0.109-0.018c0.042,0,0.345,0.024,0.388,0.049
			c0.037,0.024,0.218,0.055,0.236,0.091c0.024,0.042,0.109,0.084,0.109,0.127l0.121,0.212l0.066,0.225l0.043,0.333l0.006,0.279
			v0.297v0.115l0.043,0.103l-0.019,0.243l-0.036,0.376l0.006,0.236l0.006,0.775c0,0.042-0.024,0.582-0.049,0.625
			c-0.024,0.042-0.182,0.205-0.218,0.224c-0.043,0.024-0.127,0.048-0.176,0.048l-0.703,0.037l-0.437-0.037l-0.03-0.538l-0.013-0.879
			l0.031-0.188v-0.23l0.072-0.127l-0.061-0.062l-0.036-0.193l-0.019-1.686L49.688,60.42z M50.191,61.142l0.007,0.715l0.011,0.952
			l-0.035,0.314l0.006,0.649l0.042,0.248l0.236,0.261l0.274-0.055c0.03,0,0.059-0.121,0.066-0.128
			c0.006-0.006,0.018-0.145,0.018-0.176v-0.381l-0.018-2.116l0.055-0.267c0-0.006,0-0.103,0-0.108c0-0.007-0.091-0.104-0.091-0.109
			c0-0.012-0.134-0.03-0.14-0.03c-0.007-0.006-0.17-0.043-0.2-0.043l-0.127,0.037l-0.062,0.055l-0.078,0.054L50.191,61.142z"/>
		<path fill="#FFFFFF" d="M56.996,64.767l-0.169,0.078l-1.322,0.019l-0.073-0.249l-0.023-2.017l0.023-1.279l-0.012-0.654l0.157-0.11
			l0.098-0.06l0.2-0.062l0.515,0.037l0.455-0.013l0.049,0.219l0.06,0.066v0.121l-0.133,0.043l-0.843,0.049l-0.036,0.097l-0.013,0.8
			l0.007,0.248l0.108,0.152l0.079,0.029l0.618,0.037l0.066,0.291l-0.278,0.127l-0.219,0.036l-0.345,0.351l-0.037,0.231l0.043,0.461
			l-0.019,0.212l0.007,0.291l0.114,0.036l0.74-0.03l0.128,0.109l0.078,0.109l0.048,0.151L56.996,64.767z"/>
		<path fill="#FFFFFF" d="M62.46,64.331c0,0.042-0.066,0.17-0.085,0.212c-0.024,0.042-0.115,0.163-0.152,0.188
			c-0.042,0.024-0.229,0.091-0.271,0.091l-0.31,0.019l-0.157,0.006c-0.043,0-0.213-0.06-0.249-0.085
			c-0.042-0.024-0.152-0.115-0.176-0.158c-0.024-0.042-0.108-0.139-0.108-0.175l-0.079-0.297l-0.007-0.57l0.189-0.061l0.248,0.012
			c0,0.055,0.061,0.17,0.067,0.17c0,0,0.005,0.067,0.005,0.092c0,0.036,0.007,0.115,0,0.115c0,0,0.024,0.03,0.031,0.06
			c0,0.037,0.023,0.073,0.023,0.073c0,0.109,0.091,0.224,0.091,0.236c0,0.019,0.067,0.024,0.079,0.043
			c0.012,0.012,0.091,0.006,0.109,0.006l0.194-0.092c0.018,0,0.06-0.042,0.067-0.055c0.013-0.012,0.036-0.193,0.036-0.212v-0.484
			l-0.061-0.57c0-0.018-0.042-0.072-0.055-0.091c-0.012-0.012-0.309-0.066-0.327-0.066l-0.267-0.055
			c-0.043,0-0.14-0.049-0.182-0.072c-0.042-0.024-0.163-0.164-0.188-0.2c-0.024-0.043-0.079-0.23-0.079-0.273l-0.012-1.06
			c0-0.043,0.103-0.262,0.126-0.304c0.024-0.042,0.134-0.146,0.17-0.17c0.043-0.024,0.158-0.102,0.2-0.102l0.412-0.055
			c0.042,0,0.279,0.024,0.321,0.049c0.037,0.024,0.128,0.084,0.157,0.12c0.025,0.043,0.092,0.109,0.092,0.158l0.091,0.272
			l0.023,0.183l-0.042,0.091l0.007,0.212l-0.207,0.036H62.06l-0.133-0.485c0-0.018-0.043-0.066-0.055-0.078
			c-0.013-0.018-0.086-0.013-0.098-0.013l-0.26,0.024c-0.019,0-0.073,0.121-0.086,0.14c-0.012,0.012-0.055,0.133-0.055,0.146
			l0.024,0.722c0,0.018,0.007,0.091,0.03,0.109c0.013,0.012,0.152,0.121,0.164,0.121l0.31,0.017c0.042,0,0.157,0.03,0.2,0.061
			c0.036,0.024,0.224,0.218,0.248,0.248c0.024,0.043,0.066,0.485,0.066,0.534l0.036,0.054v0.194l0.007,0.976V64.331z"/>
		<path fill="#FFFFFF" d="M66.905,64.839l-0.321,0.006l-0.072-0.182l-0.024-2.066V62.33l0.042-1.285v-0.351l0.085-0.23l0.321,0.012
			l0.03,0.036l0.037,0.091l0.005,0.746l-0.035,0.199l-0.067,0.194l0.091,0.23l-0.048,0.242l0.072,0.194l-0.018,0.394l0.012,0.934
			l0.024,0.54l0.006,0.479L66.905,64.839z"/>
		<path fill="#FFFFFF" d="M72.34,61.245c-0.018-0.006-0.085-0.097-0.097-0.097l-0.188-0.091c-0.03,0-0.098-0.03-0.103-0.019
			c-0.013,0.019-0.055,0.006-0.055,0.013l-0.128,0.182l-0.097,0.345l0.013,0.928l-0.031,0.388l0.043,0.733l-0.037,0.188
			c0,0.03,0.013,0.14,0.03,0.146c0.019,0.006,0.031,0.079,0.043,0.079l0.133,0.193c0.019,0,0.109,0.103,0.121,0.098
			c0.007-0.007,0.043,0.012,0.043,0.012c0.006-0.019,0.037-0.019,0.037-0.03l0.126-0.23l0.104-0.297l0.055-1.013h-0.333
			l-0.049-0.254l0.098-0.085l0.097-0.06l0.048-0.037l0.225-0.055l0.249,0.292l0.121,0.284L72.8,64.16
			c0,0.043-0.03,0.194-0.055,0.237c-0.023,0.042-0.097,0.182-0.133,0.2c-0.043,0.023-0.121,0.139-0.164,0.139l-0.424,0.134
			c-0.043,0-0.376-0.006-0.418-0.036c-0.043-0.024-0.17-0.128-0.194-0.17c-0.024-0.043-0.127-0.152-0.127-0.188l-0.092-0.316
			l-0.042-0.358l0.03-1.267l-0.055-1.121c0-0.042,0.03-0.218,0.055-0.261c0.024-0.043,0.073-0.219,0.115-0.242
			c0.043-0.024,0.102-0.176,0.14-0.176l0.375-0.164c0.043,0,0.243-0.097,0.279-0.078c0.043,0.024,0.182,0.036,0.206,0.078
			c0.024,0.042,0.225,0.115,0.225,0.158l0.127,0.46l-0.042,0.183c0,0.139-0.134-0.037-0.273-0.128H72.34z"/>
		<path fill="#FFFFFF" d="M78.468,60.736l0.023,0.503l0.037,0.491l-0.03,1.739l0.013,1.212l-0.226,0.109l-0.15,0.036l-0.116-0.103
			l-0.133-0.206l-0.176-0.607l-0.061-0.134l-0.055-0.235l-0.055-0.128l-0.104-0.393l-0.151-0.455l-0.048-0.091l-0.043,0.122
			l-0.029,1.072l0.012,1.061l-0.225,0.091l-0.146,0.024l-0.055-0.067l-0.108-0.302l0.029-0.825v-1.77l0.007-0.285l0.03-1.03
			l0.036-0.066l0.37,0.012l0.218,0.497l0.067,0.267l0.097,0.225l0.272,0.83l0.103,0.382l0.062,0.133l0.012-0.018l0.043-1.721
			l-0.006-0.431l0.061-0.194l0.388-0.006L78.468,60.736z"/>
	</g>
</g>
<rect id="shocking" onmousedown="top.svgevent(evt)" pointer-events="visible" cursor="pointer" fill="none" width="130.243px" height="76.022px"/>
</svg>
